<svg width="14" height="13" viewBox="0 0 14 13" fill="none" xmlns="http://www.w3.org/2000/svg">
<path d="M1.48933 0V0.5M1.48933 12V0.5M1.48933 0.5H12.4893H12.9893" stroke="#FF70E0"/>
<path d="M1.98933 11.5H12.4893M12.9893 11.5H12.4893M12.4893 11.5V1" stroke="#FFDFF8"/>
<path d="M2.48933 11V1.5M2.48933 1V1.5M2.48933 1.5H11.9893" stroke="#FF39B8"/>
<path d="M4.48933 5V6.5M4.48933 8V6.5M4.48933 6.5H5.48933M5.98933 6.5H5.48933M5.48933 6.5V8.5M5.48933 9V8.5M5.48933 8.5H6.48933M7.98933 8.5H6.48933M6.48933 8.5V10V7.5M6.48933 7V7.5M6.48933 7.5H7.48933M8.98933 7.5H7.48933M7.48933 7.5V6.5M7.48933 6V6.5M7.48933 6.5H8.48933M9.98933 6.5H8.48933M8.48933 6.5V5.5M8.48933 5V5.5M8.48933 5.5H9.48933M10.9893 5.5H9.48933M9.48933 5.5V4.5M9.48933 4V4.5M9.48933 4.5H10.4893M10.9893 4.5H10.4893M10.4893 4.5V3" stroke="#FF39B8"/>
</svg>
