<svg width="150" height="60" viewBox="0 0 150 60" fill="none" xmlns="http://www.w3.org/2000/svg">
<mask id="mask0_112_1215" style="mask-type:alpha" maskUnits="userSpaceOnUse" x="0" y="13" width="150" height="47">
<path fill-rule="evenodd" clip-rule="evenodd" d="M7 18H7.89805H7.99902H8.79609H8.89707H9.69414H9.79512H10.5922H10.6932H11.4902H11.5912H12.3883H12.4893H13.2863H13.3873H14.1844H14.2854H15.0824H15.1834H15.9805H16.0814H16.8785H16.9795H17.7766H17.8775H18.6746H18.7756H19.5727H19.6736H20.4707H20.5717H21.3687H21.4697H22.2668H22.3678H23.1648H23.2658H24.0629H24.1639H24.9609H25.0619H25.859H25.96H26.757H26.858H27.6551H27.7561H28.5531H28.6541H29.4512H29.5521H30.3492H30.4502H31.2473H31.3482H32.1453H32.2463H33.0434H33.1443H33.9414H34.0424H34.8395H34.9404H35.7375H35.8385H36.6355H36.7365H37.5336H37.6346H38.4316H38.5326H39.3297H39.4307H40.2277H40.3287H41.1258H41.2268H42.0238H42.1248H42.9219H43.0229H43.8199H43.9209H44.718H44.8189H45.616H45.717H46.5141H46.615H47.4121H47.5131H48.3102H48.4111H49.2082H49.3092H50.1062H50.2072H51.0043H51.1053H51.9023H52.0033H52.8004H52.9014H53.6984H53.7994H54.5965H54.6975H55.4945H55.5955H56.3926H56.4936H57.2906H57.3916H58.1887H58.2896H59.0867H59.1877H59.9848H60.0857H60.8828H60.9838H61.7809H61.8818H62.6789H62.7799H63.577H63.6779H64.475H64.576H65.474V13H150V60H0V13H7V18Z" fill="#FF70E0"/>
</mask>
<g mask="url(#mask0_112_1215)">
<rect x="2" y="15" width="147" height="44" stroke="white" stroke-width="2"/>
<rect x="1.5" y="14.5" width="147" height="44" stroke="#FF70E0"/>
</g>
<path d="M13.9988 18H10.999V17.001H13.9988V18ZM10.999 17.001H10V16.002H10.999V17.001ZM14.9978 17.001H13.9988V14.0012H14.9978V17.001ZM13.9988 14.0012H10.999V13.0022H13.9988V14.0012ZM10.999 13.0022H10V10.0024H10.999V13.0022ZM14.9978 11.0015H13.9988V10.0024H14.9978V11.0015ZM13.9988 10.0024H10.999V9.00073H13.9988V10.0024ZM20.0037 18H17.0039V17.001H20.0037V18ZM21.0027 17.001H20.0037V16.002H21.0027V17.001ZM17.0039 17.001H16.0049V13.0022H17.0039V14.0012H20.0037V13.0022H21.0027V15.0002H17.0039V17.001ZM20.0037 13.0022H17.0039V12.0005H20.0037V13.0022ZM26.0085 18H23.0088V17.001H26.0085V18ZM27.0076 17.001H26.0085V16.002H27.0076V17.001ZM23.0088 17.001H22.0098V13.0022H23.0088V17.001ZM27.0076 14.0012H26.0085V13.0022H27.0076V14.0012ZM26.0085 13.0022H23.0088V12.0005H26.0085V13.0022ZM30.0127 18H29.0137V17.001H30.0127V18ZM29.0137 17.001H28.0146V10.0024H29.0137V12.0005H30.0127V13.0022H29.0137V17.001ZM32.0107 18H31.0117V12.0005H32.0107V18ZM32.0107 10.0024H31.0117V9.00073H32.0107V10.0024ZM37.0085 18H34.0088V17.001H37.0085V18ZM34.0088 17.001H33.0098V13.0022H34.0088V17.001ZM38.0076 17.001H37.0085V13.0022H38.0076V17.001ZM37.0085 13.0022H34.0088V12.0005H37.0085V13.0022ZM44.0125 18H43.0134V13.0022H44.0125V18ZM40.0137 18H39.0146V12.0005H40.0137V13.0022H41.0127V14.0012H40.0137V18ZM43.0134 13.0022H41.0127V12.0005H43.0134V13.0022ZM49.0156 18H48.0166V17.001H49.0156V18ZM48.0166 17.001H47.0176V10.0024H48.0166V12.0005H49.0156V13.0022H48.0166V17.001ZM51.0137 18H50.0146V12.0005H51.0137V18ZM51.0137 10.0024H50.0146V9.00073H51.0137V10.0024ZM54.0107 18H53.0117V17.001H54.0107V18ZM53.0117 17.001H52.0127V10.0024H53.0117V12.0005H54.0107V13.0022H53.0117V17.001ZM56.0088 18H55.0098V9.00073H56.0088V18ZM61.0066 18H58.0068V17.001H61.0066V18ZM62.0056 17.001H61.0066V16.002H62.0056V17.001ZM58.0068 17.001H57.0078V13.0022H58.0068V14.0012H61.0066V13.0022H62.0056V15.0002H58.0068V17.001ZM61.0066 13.0022H58.0068V12.0005H61.0066V13.0022Z" fill="#9B45CF"/>
</svg>
