<svg width="14" height="18" viewBox="0 0 14 18" fill="none" xmlns="http://www.w3.org/2000/svg">
<path d="M0.5 4V8" stroke="#FF70E0"/>
<path d="M1.5 2V4" stroke="#FF70E0"/>
<path d="M1.5 8V10" stroke="#FF70E0"/>
<path d="M2 1.5H4" stroke="#FF70E0"/>
<path d="M8 1.5H10" stroke="#FF70E0"/>
<path d="M4 0.509979H7.99481" stroke="#FF70E0"/>
<path d="M1.5 4V8" stroke="#FF39B8"/>
<path d="M2.5 4V2.5M2.5 2V2.5M2.5 2.5H4" stroke="#FF39B8"/>
<path d="M4 1.5H8" stroke="#FF39B8"/>
<path d="M8 2.5H10" stroke="#FF39B8"/>
<rect x="2" y="8" width="1" height="1" fill="#FF39B8"/>
<path d="M9.5 3V4" stroke="#FFDFF8"/>
<path d="M2 9.5H4" stroke="#FFDFF8"/>
<path d="M4 10.5H8" stroke="#FFDFF8"/>
<g filter="url(#filter0_d_119_18)">
<path d="M8 9.5H9.5M10 9.5H9.5M9.5 9.5V8" stroke="#FFDFF8"/>
</g>
<path d="M10.5 8V4" stroke="#FFDFF8"/>
<path d="M5.5 4V5.5M5.5 8V5.5M5.5 5.5H4H6.5M8 5.5H6.5M6.5 5.5V4V6.5M6.5 8V6.5M6.5 6.5H4H8" stroke="#FF39B8"/>
<defs>
<filter id="filter0_d_119_18" x="4" y="8" width="10" height="10" filterUnits="userSpaceOnUse" color-interpolation-filters="sRGB">
<feFlood flood-opacity="0" result="BackgroundImageFix"/>
<feColorMatrix in="SourceAlpha" type="matrix" values="0 0 0 0 0 0 0 0 0 0 0 0 0 0 0 0 0 0 127 0" result="hardAlpha"/>
<feOffset dy="4"/>
<feGaussianBlur stdDeviation="2"/>
<feComposite in2="hardAlpha" operator="out"/>
<feColorMatrix type="matrix" values="0 0 0 0 0 0 0 0 0 0 0 0 0 0 0 0 0 0 0.25 0"/>
<feBlend mode="normal" in2="BackgroundImageFix" result="effect1_dropShadow_119_18"/>
<feBlend mode="normal" in="SourceGraphic" in2="effect1_dropShadow_119_18" result="shape"/>
</filter>
</defs>
</svg>
