<svg width="15" height="18" viewBox="0 0 15 18" fill="none" xmlns="http://www.w3.org/2000/svg">
<path d="M1.48489 4.00513V8.00513" stroke="#FF70E0"/>
<path d="M2.48489 2.00513V4.00513" stroke="#FF70E0"/>
<path d="M2.48489 8.00513V10.0051" stroke="#FF70E0"/>
<path d="M2.98489 1.50513H4.98489" stroke="#FF70E0"/>
<path d="M8.98489 1.50513H10.9849" stroke="#FF70E0"/>
<path d="M4.98489 0.515106H8.9797" stroke="#FF70E0"/>
<path d="M2.48489 4.00513V8.00513" stroke="#FF39B8"/>
<path d="M3.48489 4.00513V2.50513M3.48489 2.00513V2.50513M3.48489 2.50513H4.98489" stroke="#FF39B8"/>
<path d="M4.98489 1.50513H8.98489" stroke="#FF39B8"/>
<path d="M8.98489 2.50513H10.9849" stroke="#FF39B8"/>
<rect x="2.98489" y="8.00513" width="1" height="1" fill="#FF39B8"/>
<path d="M10.4849 3.00513V4.00513" stroke="#FFDFF8"/>
<path d="M2.98489 9.50513H4.98489" stroke="#FFDFF8"/>
<path d="M4.98489 10.5051H8.98489" stroke="#FFDFF8"/>
<g filter="url(#filter0_d_119_17)">
<path d="M8.98489 9.50513H10.4849M10.9849 9.50513H10.4849M10.4849 9.50513V8.00513" stroke="#FFDFF8"/>
</g>
<path d="M11.4849 8.00513V4.00513" stroke="#FFDFF8"/>
<defs>
<filter id="filter0_d_119_17" x="4.98489" y="8.00513" width="10" height="10" filterUnits="userSpaceOnUse" color-interpolation-filters="sRGB">
<feFlood flood-opacity="0" result="BackgroundImageFix"/>
<feColorMatrix in="SourceAlpha" type="matrix" values="0 0 0 0 0 0 0 0 0 0 0 0 0 0 0 0 0 0 127 0" result="hardAlpha"/>
<feOffset dy="4"/>
<feGaussianBlur stdDeviation="2"/>
<feComposite in2="hardAlpha" operator="out"/>
<feColorMatrix type="matrix" values="0 0 0 0 0 0 0 0 0 0 0 0 0 0 0 0 0 0 0.25 0"/>
<feBlend mode="normal" in2="BackgroundImageFix" result="effect1_dropShadow_119_17"/>
<feBlend mode="normal" in="SourceGraphic" in2="effect1_dropShadow_119_17" result="shape"/>
</filter>
</defs>
</svg>
