<svg width="32" height="32" viewBox="0 0 32 32" fill="none" xmlns="http://www.w3.org/2000/svg">
<path d="M6.5 3V19M7.5 2V3M8.5 1V2M9 0.5H29M25 23.5H18M26.5 3V18M26 21.5H22M24 30.5H0M0.5 32V29M28.5 21V20M29.5 20V19M30.5 19V18M24.5 30V29M25.5 29V28M26.5 27V26M27.5 26V25M1.5 29V28M2.5 28V27M3.5 27V25M5.5 24V20" stroke="#FFB3EE"/>
<path d="M29.5 1V18M31.5 18V25M31 25.5H30M29 26.5H30M28 27.5H29M27 28.5H28M26 29.5H27M25 30.5H26M24 31.5H25M20 22.5H25M7 19.5H28M28 18.5H29M21.5 9V12M22 11.5H19M19.5 10V14M15 13.5H20M4.5 29V28M5.5 28V27M6.5 27V26" stroke="#F8009F"/>
<path d="M7.5 29V28M8.5 28V27M9.5 27V26" stroke="#F8009F"/>
<path d="M10.5005 29V28M11.5005 28V27M12.5005 27V26" stroke="#F8009F"/>
<path d="M13.5005 29V28M14.5005 28V27M15.5005 27V26" stroke="#F8009F"/>
<path d="M16.5005 29V28M17.5005 28V27M18.5005 27V26" stroke="#F8009F"/>
<path d="M19.5005 29V28M20.5005 28V27M21.5005 27V26" stroke="#F8009F"/>
<path d="M22.5005 29V28M23.5005 28V27M24.5005 27V26" stroke="#F8009F"/>
<path d="M20.5 9V10" stroke="#E9ABFF"/>
<path d="M1 31.5H24M6 20.5H28M28 19.5H29M29 18.5H30M30 17.5H31M24 30.5H25M25 29.5H26M26 28.5H27M26 27.5H28M27 26.5H29M28.5 21V27M29.5 20V26M30.5 19V25M28.5 2V18M27.5 3V18" stroke="#FF70E0"/>
<path d="M7 18.5H28" stroke="#FF96E8"/>
<path d="M4 24.5H28M25.5 25V22M26.5 25V21M27.5 25V21M27.5 3V2M28.5 2V1" stroke="#FF96E8"/>
<path d="M10 1.5H28M26.5 2V3M25.5 4V18M8 17.5H26M18 21.5H14M16 22.5H11M12 23.5H8M26 27.5H25M22 29.5H19M20.5 28V30M18 28.5H17M16 28.5H14M13 28.5H11M10 28.5H8M7 28.5H5M4 28.5H3" stroke="#FFAADD"/>
<path d="M6 26.5H5M5 27.5H4" stroke="#FFC8EC"/>
<path d="M9 26.5H8M8 27.5H7" stroke="#FFC8EC"/>
<path d="M12 26.5H11M11 27.5H10" stroke="#FFC8EC"/>
<path d="M24 28.5H23" stroke="#FFB3EE"/>
<path d="M24 26.5H23M23 27.5H22M22 28.5H21" stroke="#FFB3EE"/>
<path d="M21.0005 26.5H20.0005M20.0005 27.5H19.0005M19.0005 28.5H18.0005" stroke="#FFB3EE"/>
<path d="M18.001 26.5H17.001M17.001 27.5H16.001M16.001 28.5H15.001" stroke="#FFB3EE"/>
<path d="M5 25.5H4" stroke="#FFC8EC"/>
<path d="M15 29.5H19" stroke="#FFC8EC"/>
<path d="M8 16.5H25" stroke="#FFC8EC"/>
<path d="M27 25.5H5M15 29.5H2M2.5 28V30M14 21.5H6M6.5 21V24M6 23.5H8M9 22.5H11M9.5 1V2M24.5 16V4M7.5 18V17M26 3.5H8M8.5 4V16M26 26.5H25M25 28.5H24" stroke="#EFC2FF"/>
<path d="M23 26.5H22M22 27.5H21" stroke="#EFC2FF"/>
<path d="M20 26.5H19M19 27.5H18" stroke="#EFC2FF"/>
<path d="M17 26.5H16M16 27.5H15" stroke="#EFC2FF"/>
<path d="M14 26.5H13M13 27.5H12" stroke="#EFC2FF"/>
<path d="M11 26.5H10M10 27.5H9" stroke="#EFC2FF"/>
<path d="M8 26.5H7M7 27.5H6" stroke="#EFC2FF"/>
<path d="M18 2.5H26M24.5 27V28M5 26.5C4.6 26.5 4.16667 26.5 4 26.5M4 27.5H3M2 29.5H1" stroke="#FFC8EC"/>
<path d="M18 2.5H8M7.5 3V17" stroke="#FFAADD"/>
<path d="M22 21.5H18M24 29.5H22M20 22.5H16M18 23.5H12M15 26.5H14M14 27.5H13" stroke="#E496FF"/>
<path d="M19 10.5H17M18 11.5H16M17 12.5H12M12.5 10V13" stroke="#E9ABFF"/>
<path d="M18.5 11V13M19 12.5H17" stroke="#D899FF"/>
<path d="M17 10.5H13M16 11.5H13" stroke="#EFC2FF"/>
<path d="M22 6.5H13M13.5 6V9M19 8.5H11M11.5 8V14M15 13.5H11" stroke="#BB5BF5"/>
<path d="M21.5 7V9M19.5 8V10" stroke="#CC78FF"/>
<path d="M19 9.5H12" stroke="#D899FF"/>
<path d="M20.5 9V7M20 7.5H15M20.5 11V10" stroke="#E7BFFF"/>
<path d="M24 4.5H9M9.5 4V16M9 15.5H24" stroke="#FF51C1"/>
<path d="M23.5 5C23.5 8.90524 23.5 11.0948 23.5 15M23 5.5H20M19 5.5H18M23 12.5H22M23 14.5H22M22 13.5H21.5H21M21 14.5H20" stroke="#FF7ECC"/>
<path d="M22.5 12V6M20 5.5H19M18 5.5H16M14 5.5H15M23 13.5H22M22 14.5H21M22 12.5H20M20.5 12V13.5V14M10 14.5H20" stroke="#FFAADD"/>
<path d="M14 5.5H10M16 5.5H15M10.5 6V14M12.5 6V8M10 7.5H13" stroke="#FFC8EC"/>
<path d="M12 6.5H11" stroke="#FFB3EE"/>
<path d="M15 7.5H14" stroke="#FF70E0"/>
<path d="M9 22.5H8" stroke="#70DDFF"/>
<path d="M7 22.5H8" stroke="#D0F4FF"/>
</svg>
