<svg width="32" height="32" viewBox="0 0 32 32" fill="none" xmlns="http://www.w3.org/2000/svg">
<path d="M16.4373 1.47134L25.3226 11.5039L7.00879 10.9725L9.98042 8.00183L11.9515 5.96351L13.0118 4.99289L13.9985 4.00047L15.0274 3.01464L16.0356 2.04368L16.4373 1.47134Z" fill="#FFC8EC"/>
<rect x="3" y="14" width="24" height="15" fill="#E7BFFF"/>
<path d="M25 13.5H1M0.5 14V19M1.5 19V23M2.5 23V27M3.5 27V30M3 29.5H28.5M29 29.5H28.5M28.5 24V29.5M28.5 10V13M27.5 18V21M26.5 15V18M25.5 14V15M28 9.5H27M28 8.5H24M12 5.5H5M4.5 6V7M3.5 7V13M5 11.5H6M6 10.5H7M7 9.5H8M8 8.5H9M9 7.5H10" stroke="#BB5BF5"/>
<path d="M7 11.4917H11M16 11.4917H17M19 11.4917H20M21 11.4917H25M25 12.4917H26M26 13.4917H27M27 14.4917H28M28.5 14.9917C28.5 16.1632 28.5 16.8201 28.5 17.9917M28 16.4917H30M13 11.4917H14M14 10.4917H15M15 9.49167H16" stroke="#FFB7E2"/>
<path d="M19 12.5H20M20 11.5H21" stroke="#CC78FF"/>
<path d="M16 12.4993H17M17 11.4993H18" stroke="#CC78FF"/>
<path d="M13 12.4987H14M14 11.4987H15" stroke="#CC78FF"/>
<path d="M10 12.498H11M11 11.498H12" stroke="#CC78FF"/>
<path d="M17 11.498H18M18 10.498H19" stroke="#CC78FF"/>
<path d="M15 10.498H16M16 9.49799H17" stroke="#CC78FF"/>
<path d="M12 10.498H13M13 9.49799H14" stroke="#CC78FF"/>
<path d="M14 8.49966H15M15 7.49966H16" stroke="#CC78FF"/>
<path d="M4 30.5H29M29.5 30V19M28.5 24V20" stroke="#8E40BE"/>
<path d="M4 28.5H28M27.5 29V22M25.5 27.5H25C25.781 27.5 26.219 27.5 27 27.5M26.5 26V28M26.5 19V23M27 24.5H24M25.5 23V26M23.5 25V28M22 26.5H25M26 20.5H25M24.5 21V23M22.5 21V23" stroke="#D899FF"/>
<path d="M22 27.5H21M20 27.5H19" stroke="#D899FF"/>
<path d="M19 15.5061H18M17 15.5061H16" stroke="#D899FF"/>
<path d="M19.9913 17.5065H18.9913M17.9913 17.5065H16.9913" stroke="#D899FF"/>
<path d="M16 18.4978H15M14 18.4978H13" stroke="#D899FF"/>
<path d="M13.9913 20.4982H12.9913M11.9913 20.4982H10.9913" stroke="#D899FF"/>
<path d="M22 19.498H21M20 19.498H19" stroke="#D899FF"/>
<path d="M24.0028 23.5019H23.0028M22.0028 23.5019H21.0028" stroke="#D899FF"/>
<path d="M21.0028 23.5019H20.0028M19.0028 23.5019H18.0028" stroke="#D899FF"/>
<path d="M14.9997 23.5019H13.9997M12.9997 23.5019H11.9997" stroke="#D899FF"/>
<path d="M13.9913 22.5158H12.9913M11.9913 22.5158H10.9913" stroke="#D899FF"/>
<path d="M10.0023 23.5019H9.00232M8.00232 23.5019H7.00232" stroke="#D899FF"/>
<path d="M8.00787 26.5049H7.00787M6.00787 26.5049H5.00787" stroke="#D899FF"/>
<path d="M10.0023 21.4995H9.00232M8.00232 21.4995H7.00232" stroke="#D899FF"/>
<path d="M10.0023 19.4984H9.00232M8.00232 19.4984H7.00232" stroke="#D899FF"/>
<path d="M14.9997 25.5092H13.9997M12.9997 25.5092H11.9997" stroke="#D899FF"/>
<path d="M20.0024 24.5018H19.0024M18.0024 24.5018H17.0024" stroke="#D899FF"/>
<path d="M17.9997 21.4992H16.9997M15.9997 21.4992H14.9997" stroke="#D899FF"/>
<path d="M19 20.4982H18M17 20.4982H16" stroke="#D899FF"/>
<path d="M19.9913 22.4987H18.9913M17.9913 22.4987H16.9913" stroke="#D899FF"/>
<path d="M21.0028 26.4945H20.0028M19.0028 26.4945H18.0028" stroke="#D899FF"/>
<path d="M21.0028 25.5092H20.0028M19.0028 25.5092H18.0028" stroke="#D899FF"/>
<path d="M16 27.5H15M14 27.5H13" stroke="#D899FF"/>
<path d="M24.0028 20.4982H23.0028M22.0028 20.4982H21.0028" stroke="#D899FF"/>
<path d="M25 18.5H24M24 17.5H23" stroke="#D899FF"/>
<path d="M20.9913 21.4982H19.9913M19.9913 20.4982H18.9913" stroke="#D899FF"/>
<path d="M13 27.5049H12M12 26.5049H11" stroke="#D899FF"/>
<path d="M11.0023 18.5065H10.0023M10.0023 17.5065H9.00232" stroke="#D899FF"/>
<path d="M21.0028 16.5061H22.0028M22.0028 15.5061H23.0028" stroke="#D899FF"/>
<path d="M21.0028 25.5092H22.0028M22.0028 24.5092H23.0028" stroke="#D899FF"/>
<path d="M16.0028 27.5049H17.0028M17.0028 26.5049H18.0028" stroke="#D899FF"/>
<path d="M15.0028 25.5018H16.0028M16.0028 24.5018H17.0028" stroke="#D899FF"/>
<path d="M9 27.4945H10M10 26.4945H11" stroke="#D899FF"/>
<path d="M5.00787 23.4987H6.00787M6.00787 22.4987H7.00787" stroke="#D899FF"/>
<path d="M7.00787 26.5092H8.00787M8.00787 25.5092H9.00787" stroke="#D899FF"/>
<path d="M6 26.4945H5M5 25.4945H4" stroke="#D899FF"/>
<path d="M7 27.515H6M6 26.515H5" stroke="#D899FF"/>
<path d="M11 15.5H12M14 15.5H15M24 16.5H25M16.5 22V23M13.5 24V25M10.5 24V25M4.5 20V21M5.5 17V18M12.5 17V18" stroke="#D899FF"/>
<path d="M14.0028 26.4945H15.0028M15.0028 25.4945H16.0028" stroke="#D899FF"/>
<path d="M2.5 15V19M4.5 13V7M5.5 8C5.5 7.21895 5.5 6.78105 5.5 6M5 6.5H10" stroke="#E7BFFF"/>
<path d="M27.5 21V22M27.5 12V10M26.5 11C26.5 10.219 26.5 9.78105 26.5 9M25 9.5H27M10.5 6V7M5.5 11V8M6.5 10V7M7.5 9V7M9 7.5H8" stroke="#E496FF"/>
<path d="M3 14.5H1M1.5 14V19M2.5 19V23" stroke="#F2CDFF"/>
<path d="M28 19.5H29M29 18.5H30M30 17.5H31M31 16.5H32M30 15.5H31M29 14.5H30" stroke="#F8009F"/>
<path d="M17 3.5H18M18 4.5H19M19 5.5H20" stroke="#FF70E0"/>
<path d="M20 6.49966H21M21 7.49966H22M22 8.49966H23" stroke="#FF70E0"/>
<path d="M23 9.49933H24M24 10.4993H25M25 11.4993H26" stroke="#FF96E8"/>
<path d="M26 12.5H27M27 13.5H28M28 14.5H29" stroke="#FF70E0"/>
<path d="M28 14.5H29M29 15.5H30M30 16.5H31" stroke="#FF70E0"/>
<path d="M28 18.5H29M29 17.5H30M27.5 18V15M25.5 14V13M25 12.5H21M19 12.5H18M16 12.5H15M13 12.5H12M10 12.5H6" stroke="#FF96E8"/>
<path d="M21 12.5H20" stroke="#FF70E0"/>
<path d="M17 12.498H18M18 11.498H19" stroke="#FF70E0"/>
<path d="M14 12.498H15M15 11.498H16" stroke="#FF70E0"/>
<path d="M11 12.5H12M12 11.5H13" stroke="#FF70E0"/>
<path d="M15 11.4993H16M16 10.4993H17" stroke="#FF70E0"/>
<path d="M13 10.4993H14M14 9.49933H15" stroke="#FF70E0"/>
<path d="M14 9.49832H15M15 8.49832H16" stroke="#FF70E0"/>
<path d="M29.5 10V14M28.5 9V10" stroke="#C36CF9"/>
<path d="M25 10.5H26" stroke="#F8009F"/>
<path d="M17 2.5H16" stroke="#FF96E8"/>
<path d="M29 13.5H28M28 12.5H27M27 11.5H26M25 9.5H24M24 8.5H23M23 7.5H22M22 6.5H21M21 5.5H20M20 4.5H19M19 3.5H18M18 2.5H17M5 12.5H6M6 11.5H7M7 10.5H8M8 9.5H9M9 8.5H10M10 7.5H11M11 6.5H12M12 5.5H13M13 4.5H14M14 3.5H15M15 2.5H16M16 1.5H17" stroke="#FF39B8"/>
</svg>
