<svg width="32" height="32" viewBox="0 0 32 32" fill="none" xmlns="http://www.w3.org/2000/svg">
<rect x="4" y="5" width="9" height="7" fill="url(#paint0_radial_121_1730)"/>
<rect x="14" y="13" width="10" height="9" fill="url(#paint1_radial_121_1730)"/>
<path d="M29.5 10V21.5V22M31.5 22V28.5V29M31 29.5H30M30 30.5H29M12 31.5H29M26 28.5H23M29 22.5H28.5H28M28 23.5H27M27 24.5H12M18.5 1V9M1 15.5H11M1 22.5C3.99284 22.5 5.97801 22.5 8.5 22.5M11 22.5C10.0876 22.5 9.26885 22.5 8.5 22.5M8.5 22.5V31M0 29.5H4M9 29.5H11" stroke="#F8009F"/>
<path d="M28.5 10V22M17.5 1V9" stroke="#FF70E0"/>
<path d="M30.5 23V29M29.5 24V30M28.5 25V31M11 25.5H27M27 24.5H28M28 23.5H28.5H29M29 22.5H30M30 21.5H31M0 16.5H11M0 28.5H4M7.5 23V27M9 28.5H11" stroke="#FF53D9"/>
<path d="M27.5 27V31M26.5 27V31M25 30.5H26M27.5 23V11M29 9.5H13M11.5 11V24M11.5 26C11.5 27.7574 11.5 29.2426 11.5 31M31 22.5H30M30 23.5H29M29 24.5H28M28 25.5H27M9 27.5H11M6.5 23V26.5V27M4 27.5H0M0.5 22V17M0.5 15V2M9 21.5H11M10.5 20V21M18 0.5H2M2 1.5H1M16.5 2V9M13 10.5H12" stroke="#FF96E8"/>
<path d="M23 27.5H13M13.5 28V30M21 28.5H16M20 29.5H16M19 23.5H16M10 18.5H2M2.5 21V18M7 19.5H5M8 14.5H5M27 11.5H26M16 2.5H15" stroke="#FFC1F2"/>
<path d="M15 2.5H1M1.5 2V14M1.5 17C1.5 18.5621 1.5 19.4379 1.5 21M1 17.5H7M12.5 11V23M13 11.5H26M12.5 29V26M12 26.5H16M19 22.5H20M23 29.5H25M20 26.5H21M23 22.5H24" stroke="#FFD7F6"/>
<path d="M23 23.5H27M26.5 20V24M11 18.5H10M10 20.5H9M9 21.5H7M26 27.5H23M25 30.5H18M22 29.5H23" stroke="#FF70E0"/>
<path d="M28 26.5H21M20 26.5H16M26 29.5H25M12.5 31V29M25.5 23V12M12 23.5H16M13 22.5H19M20 22.5H23M24 22.5H25M2.5 4V15M1 14.5H5M3 13.5H11M14.5 4V9M10.5 17V18M13.5 13V17M13.5 18V19M25 12.5H24M23 12.5H22M20 12.5H21M16 12.5H17M18 12.5H19M14 12.5H15M5 3.5H6M7 3.5H8M9 3.5H10M11 3.5H12M13 3.5H14" stroke="#E496FF"/>
<path d="M13.5 22V19M13.5 18V17M13.5 13V12M15 12.5H16M17 12.5H18M19 12.5H20M21 12.5H22M23 12.5H24M1.5 22V21M10 17.5H7M15 3.5H14M13 3.5H12M11 3.5H10M9 3.5H8M7 3.5H6M5 3.5H2M24 22.5H23M20 22.5H18.5M21 26.5H20M25 29.5H23" stroke="#EFC2FF"/>
<path d="M28 10.5H13" stroke="#FFB3EE"/>
<path d="M17 1.5H2M15.5 3V9M11 14.5H8M26.5 12V20M19 23.5H23M11 19.5H7M9 20.5H5M2 21.5H7M23 28.5H21M22 29.5H20M18 30.5H13" stroke="#FFB3EE"/>
<path d="M25 13.5C20.7042 13.5 18.2958 13.5 14 13.5M14.5 13V22M14 4.5H3M3.5 4V13" stroke="#C36CF9"/>
<path d="M24.5 14V16.5M24.5 22V21.5M15 21.5H24.5M24.5 21.5V20.5M23 14.5H24M23 16.5H24.5M24.5 16.5V18.5M23 18.5H24.5M24.5 18.5V20.5M23 20.5H24.5M22 19.5H23M21 20.5H22" stroke="#CC78FF"/>
<path d="M22.5 14V19M22.5 20V21M23.5 20V19M23.5 18V17M23.5 16V15M19 20.5H21M20 19.5H22M21.5 18.5H21H22M15 20.5H15.5H16M15 18.5H16M15 14.5H16M19 14.5H19.5H20M21 14.5H21.5H22M21 16.5H22M20 15.5H21M20 17.5H21M19 18.5H20M16 19.5H17M17 20.5H18M18 19.5H19" stroke="#D899FF"/>
<path d="M17.5 15V18M16 16.5H19" stroke="#FF70E0"/>
<path d="M17 16.5H18" stroke="#FFD7F6"/>
<path d="M13.5 5V9M4 12.5H11" stroke="#B450F2"/>
<path d="M5 5.5H8M8.5 6V9M8 9.5H5M4.5 9V6" stroke="#FF96E8"/>
<path d="M5 6.5H6M7 6.5H8M7.5 8V9M5.5 9V8" stroke="#FFC8EC"/>
<path d="M6.5 6V9M5 7.5H8" stroke="#FF70E0"/>
<path d="M6.5 7V8" stroke="#FFC8EC"/>
<path d="M3 19.5H4M14 28.5H15" stroke="#E7BFFF"/>
<path d="M4 19.5H5M3 20.5H4M15 28.5H16M14 29.5H15" stroke="#D899FF"/>
<path d="M4 20.5H5M15 29.5H16" stroke="#8E40BE"/>
<path d="M7.5 27V30.5V31M4 30.5H7" stroke="#8E40BE"/>
<path d="M7 27.5H4.5M4 27.5H4.5M4.5 27.5V30M6.5 30V29" stroke="#CA74FF"/>
<path d="M6.5 28V29M5.5 29V30" stroke="#E496FF"/>
<path d="M5.5 28V29" stroke="#EFC2FF"/>
<defs>
<radialGradient id="paint0_radial_121_1730" cx="0" cy="0" r="1" gradientUnits="userSpaceOnUse" gradientTransform="translate(8.5 8.5) rotate(90) scale(3.5 4.5)">
<stop stop-color="#FF70E0"/>
<stop offset="1" stop-color="#FF88E5"/>
</radialGradient>
<radialGradient id="paint1_radial_121_1730" cx="0" cy="0" r="1" gradientUnits="userSpaceOnUse" gradientTransform="translate(19 17.5) rotate(90) scale(4.5 5)">
<stop stop-color="#D899FF"/>
<stop offset="0.9999" stop-color="#FF70E0"/>
<stop offset="1" stop-color="#E696F3" stop-opacity="0"/>
</radialGradient>
</defs>
</svg>
