<svg width="32" height="32" viewBox="0 0 32 32" fill="none" xmlns="http://www.w3.org/2000/svg">
<path d="M30.4883 12.5C30.4883 14.4356 29.5913 16.3078 28.9883 18C28.3309 19.8447 28.4089 19.7343 26.9883 21C26.0294 21.8543 22.6889 22.6526 21.4883 24C20.2797 25.3563 20.2086 29.5 18.4883 29.5C18.0597 29.5 17.358 29.3048 17 29C16.4625 28.5423 16.463 28.3739 16 28C15.6936 27.7526 15.465 27.3171 15 27C12.982 25.6238 10.6873 24.3524 8.98825 23.5C7.63969 22.8234 6.09413 22.0053 5 21C4.72102 20.7437 4.2574 20.2405 4 20C3.49012 19.5237 3.45676 19.5224 3 19C2.36014 18.2682 1.82112 16.9951 1.38747 16.1912C0.83652 15.1699 0.500033 14.0989 0.500033 13C0.500033 11.4759 0.448879 10.2472 1 9.00001C1.48466 7.90322 2.60132 6.90263 3.48825 6.00001C3.79153 5.69137 3.82919 5.22946 4 5C4.30945 4.5843 4.22409 4.45444 5 4C5.44722 3.73807 6.44538 3.27847 7 3C7.65029 2.67349 8.25572 2.31016 9 2C9.96659 1.5972 10.9872 1.29348 12 1C13.365 0.604488 14.8215 0.5 16 0.5C19.0048 0.5 22.7374 2.81602 25 4C25.9963 4.52136 25.1558 4.35367 26 5C26.3772 5.28875 26.6626 5.6843 27 6C27.3689 6.34519 27.6859 6.62105 28 7C28.2735 7.32997 28.7735 7.64329 29 8C29.8676 9.36655 30.4883 10.7032 30.4883 12.5Z" fill="#FFEDFB"/>
<path d="M11 0.5H19M19 1.5H22M8 1.5H11M22 2.5H24M6 2.5H8M24.5 3V4M5.5 3V4M4.5 4V5M3.5 5V6M2.5 6V7M1.5 7V9M0.5 9V16M1.5 16V18M2.5 18V19M7.5 23V24M8 24.5H11M10 25.5H13.5M14 25.5H13.5M13.5 25.5V27M29.5 8V9M31.5 11V18M30.5 9V20M29.5 16V21M28.5 18V22M27.5 19V23M26.5 20V24M25.5 21V25M24.5 22V25M23.5 23V26M22.5 23V26M21.5 24V26M20.5 24V32M19.5 24C19.5 27.1242 19.5 28.8758 19.5 32M18.5 30V31" stroke="#FF70E0"/>
<path d="M3.5 19V20M4.5 20V21M5.5 21V22M6 22.5H8M8 23.5H11M11 24.5H14M14.5 25V27M15.5 27V27.5V28M16 28.5H17M17 29.5H18.5M19 29.5H18.5M18.5 24V29.5M19 23.5H22M22 22.5H24M24.5 22V21M25 20.5H26M29.5 9V16M28.5 16V18M27.5 18V19M26.5 19V20M28.5 9V7M27.5 7C27.5 7 27.5 6.39052 27.5 6M26.5 6C26.5 6 26.5 5.39052 26.5 5M25.5 5V4" stroke="#FF39B8"/>
<path d="M13 4.5H17M12 5.5H18M18 6.5C16.8 6.5 13.5 6.5 12 6.5M13 7.5H17M11 10.5H18M13 11.5H13.5M18 11.5C17.8263 11.5 17.6601 11.5 17.5 11.5M13.5 11.5V19M13.5 11.5C13.8615 11.5 14.1904 11.5 14.5 11.5M14.5 11.5V19M14.5 11.5C14.8516 11.5 15.1783 11.5 15.5 11.5M15.5 11.5V19M15.5 11.5C15.8316 11.5 16.1577 11.5 16.5 11.5M16.5 11.5V19M16.5 11.5C16.8142 11.5 17.142 11.5 17.5 11.5M17.5 11.5V19M11 18.5H20" stroke="#FF96E8"/>
<path d="M12 4.5H13M17 4.5H18M17.5 7V8M13 7.5H12M1.5 9V10M2.5 7V8M6.5 3V4M8.5 2V3M11.5 1V2M18.5 1V2M21.5 2V3M23.5 3V4M27.5 7V8M28.5 9V10M28.5 15V16M27.5 17V18M23.5 21V22M21.5 22V23M18.5 23V24M14.5 24V25M11.5 23V24M8.5 22V23M6.5 21V22M2.5 17V18M1.5 15V16" stroke="#FFB3EE"/>
</svg>
