<svg width="32" height="32" viewBox="0 0 32 32" fill="none" xmlns="http://www.w3.org/2000/svg">
<path d="M30.4889 12.5C30.4889 14.4356 29.5919 16.3078 28.9889 18C28.3315 19.8447 28.4095 19.7343 26.9889 21C26.03 21.8543 22.6895 22.6526 21.4889 24C20.2803 25.3563 20.2092 29.5 18.4889 29.5C18.0603 29.5 17.3586 29.3048 17.0006 29C16.4631 28.5423 16.4636 28.3739 16.0006 28C15.6942 27.7526 15.4657 27.3171 15.0006 27C12.9826 25.6238 10.6879 24.3524 8.98886 23.5C7.6403 22.8234 6.09474 22.0053 5.00061 21C4.72163 20.7437 4.25802 20.2405 4.00061 20C3.49073 19.5237 3.45737 19.5224 3.00061 19C2.36075 18.2682 1.82173 16.9951 1.38808 16.1912C0.837131 15.1699 0.500644 14.0989 0.500644 13C0.500644 11.4759 0.44949 10.2472 1.00061 9.00001C1.48527 7.90322 2.60193 6.90263 3.48886 6.00001C3.79214 5.69137 3.8298 5.22946 4.00061 5C4.31006 4.5843 4.2247 4.45444 5.00061 4C5.44783 3.73807 6.44599 3.27847 7.00061 3C7.6509 2.67349 8.25633 2.31016 9.00061 2C9.9672 1.5972 10.9878 1.29348 12.0006 1C13.3656 0.604488 14.8221 0.5 16.0006 0.5C19.0054 0.5 22.738 2.81602 25.0006 4C25.9969 4.52136 25.1564 4.35367 26.0006 5C26.3778 5.28875 26.6632 5.6843 27.0006 6C27.3695 6.34519 27.6866 6.62105 28.0006 7C28.2741 7.32997 28.7741 7.64329 29.0006 8C29.8683 9.36655 30.4889 10.7032 30.4889 12.5Z" fill="#FFEDFB"/>
<path d="M11.0006 0.5H19.0006M19.0006 1.5H22.0006M8.00061 1.5H11.0006M22.0006 2.5H24.0006M6.00061 2.5H8.00061M24.5006 3V4M5.50061 3V4M4.50061 4V5M3.50061 5V6M2.50061 6V7M1.50061 7V9M0.50061 9V16M1.50061 16V18M2.50061 18V19M7.50061 23V24M8.00061 24.5H11.0006M10.0006 25.5H13.5006M14.0006 25.5H13.5006M13.5006 25.5V27M29.5006 8V9M31.5006 11V18M30.5006 9V20M29.5006 16V21M28.5006 18V22M27.5006 19V23M26.5006 20V24M25.5006 21V25M24.5006 22V25M23.5006 23V26M22.5006 23V26M21.5006 24V26M20.5006 24V32M19.5006 24C19.5006 27.1242 19.5006 28.8758 19.5006 32M18.5006 30V31" stroke="#FF70E0"/>
<path d="M3.50061 19V20M4.50061 20V21M5.50061 21V22M6.00061 22.5H8.00061M8.00061 23.5H11.0006M11.0006 24.5H14.0006M14.5006 25V27M15.5006 27V27.5V28M16.0006 28.5H17.0006M17.0006 29.5H18.5006M19.0006 29.5H18.5006M18.5006 24V29.5M19.0006 23.5H22.0006M22.0006 22.5H24.0006M24.5006 22V21M25.0006 20.5H26.0006M29.5006 9V16M28.5006 16V18M27.5006 18V19M26.5006 19V20M28.5006 9V7M27.5006 7C27.5006 7 27.5006 6.39052 27.5006 6M26.5006 6C26.5006 6 26.5006 5.39052 26.5006 5M25.5006 5V4" stroke="#FF39B8"/>
<path d="M1.51477 9.01682V10.0168M2.51477 7.01682V8.01682M6.51477 3.01682V4.01682M8.51477 2.01682V3.01682M11.5148 1.01682V2.01682M18.5148 1.01682V2.01682M21.5148 2.01682V3.01682M23.5148 3.01682V4.01682M27.5148 7.01682V8.01682M28.5148 9.01682V10.0168M28.5148 15.0168V16.0168M27.5148 17.0168V18.0168M23.5148 21.0168V22.0168M21.5148 22.0168V23.0168M18.5148 23.0168V24.0168M14.5148 24.0168V25.0168M11.5148 23.0168V24.0168M8.51477 22.0168V23.0168M6.51477 21.0168V22.0168M2.51477 17.0168V18.0168M1.51477 15.0168V16.0168" stroke="#FFB3EE"/>
<path d="M13.5 8V10M12.5 8V11M11.5 6V11M10.5 7V10M12 5.5H18M15 6.5H19M16 7.5H20M16 8.5H20M16 9.5H20M15 10.5H19M18 11.5H15M17 12.5H14M14 13.5H16M14 14.5H16M13.5 17V19M14.5 16V20M15.5 16V20M16.5 17V19" stroke="#FF96E8"/>
<path d="M13 10.5H14M10 10.5H11M10 6.5H11M11.5 5V6M12 6.5H13M18 5.5H19M19 6.5H20M15.5 10V9M14.5 12V11M16.5 14V13M13.5 20V19M13.5 17V16M16.5 17V16M16.5 20V19" stroke="#FFB3EE"/>
</svg>
