<svg width="32" height="32" viewBox="0 0 32 32" fill="none" xmlns="http://www.w3.org/2000/svg">
<path d="M13.1032 0.828043C13.7359 -0.226449 15.2671 -0.221471 15.8998 0.833021C15.9662 0.943712 16.0457 1.04649 16.1363 1.1385L16.6478 1.65832C16.8705 1.88467 17.0559 2.14495 17.197 2.42943L28.3508 24.917C29.3399 26.9111 27.8892 29.25 25.6632 29.25H3.30453C1.08643 29.25 -0.36465 26.9261 0.609016 24.9331L11.0802 3.5L11.8146 2.30229C11.9378 2.10146 12.0842 1.91584 12.2507 1.74926L12.8582 1.1418C12.9524 1.04762 13.0346 0.94225 13.1032 0.828043Z" fill="#EFC2FF"/>
<path d="M16 0.5H13M12.5 1V2M11.5 2V4M10.5 4V6M9.5 6V8M8.5 8V10M7.5 10V12M6.5 12V14M5.5 14V16M4.5 16V18M3.5 18V20M2.5 20V22M1.5 22V24M0.5 24V28M1.5 28V29M2.5 29V30" stroke="#E496FF"/>
<path d="M15.5 1V2M16.5 2V3M17.5 4V5M18.5 6V7M19.5 8V9M20.5 10V11M21.5 12V13M22.5 14V15M23.5 16V17M24.5 18V19M25.5 20V21M26.5 22V23M27.5 24V25M27.5 27V28M26.5 28V29" stroke="#EFAEE1"/>
<path d="M12.5 9V10M16.5 9V10M16.5 16V17M12.5 16V17M13.5 19V20M15.5 19V20M13.5 22V23M16.5 22V23M16.5 25V26M13.5 25V26" stroke="#EFAEE1"/>
<path d="M12.5 15V16M13.5 18V19M15.5 18V19" stroke="#E496FF"/>
<path d="M13 9.5H16M12 10.5H17M12 11.5H17M12 12.5H17M12 13.5H17M12 14.5H17M17 15.5H13M13 16.5H16M13 17.5H16M14.5 18V21M13.5 23V25M14.5 22V26M15.5 22V26M16.5 23V25" stroke="#CA74FF"/>
<path d="M3 29.5H27M27.5 28V29M28.5 28V24M27.5 24V22M26.5 22V20M25.5 20V18M24.5 18V16M23.5 16V14M22.5 14V12M21.5 12V10M20.5 10V8M19.5 8V6M18.5 6V4M17.5 4V2M16.5 2V1" stroke="#CA74FF"/>
<path d="M5 31.5H30M4 30.5H31M27 29.5H32M28 28.5H32M29 27.5H32M32 26.5H30.5M29 26.5H29.5M29.5 22V26.5M29.5 26.5H30.5M30.5 24V26.5M28.5 20V24M27.5 18V22M26.5 16V20M25.5 14V18M24.5 12V16M23.5 10V14M22.5 8V12M21.5 6V10M20.5 4V8M19.5 3V6M18.5 2V4" stroke="#D787F3"/>
</svg>
