<svg width="32" height="32" viewBox="0 0 32 32" fill="none" xmlns="http://www.w3.org/2000/svg">
<path fill-rule="evenodd" clip-rule="evenodd" d="M28.9965 18.8997C28.9928 18.9118 28.9889 18.9241 28.985 18.9363C28.9785 18.9571 28.9718 18.9784 28.9651 19H28.9965V22H27.9965V21.9849C27.9938 21.99 27.991 21.995 27.9883 22H27.9965V23H27.0489C27.0444 23.0063 27.04 23.0126 27.0356 23.0191C27.0223 23.0384 27.0093 23.0579 26.9965 23.0778V25H25.9965V24.9924C25.9944 24.9949 25.9922 24.9975 25.9901 25H25.9965V26H24.9965V25.9474C24.9961 25.9479 24.9957 25.9483 24.9953 25.9487C24.9788 25.9663 24.9621 25.9834 24.945 26H24.9965V27H23.0104C23.0057 27.0034 23.0011 27.0067 22.9965 27.0101V28H21.9965V27.9655C21.9791 27.9772 21.9617 27.9887 21.9441 28H21.9965V29H19.0035C19.0024 29.0003 19.0012 29.0007 19 29.001V30H10.9965V29H8V28H8.13246C8.09715 27.9849 8.06222 27.9696 8.02773 27.9541C8.0183 27.9499 8.00906 27.9456 8 27.9412V28H7V27H7.14832C7.1286 26.9863 7.10788 26.973 7.08606 26.9602C7.05764 26.9434 7.02894 26.9271 7 26.9114V27H5V26H5.13511C5.11664 25.9834 5.09848 25.9663 5.08064 25.9487C5.05429 25.9228 5.02737 25.8965 5 25.8698V26H4V25H4.1279C4.08366 24.9519 4.04087 24.904 4 24.8567V25H3V23H3.07416C3.05206 22.9537 3.02922 22.9077 3.00547 22.8621C3.00365 22.8586 3.00183 22.8551 3 22.8517V23H2V22H2.34407C2.2451 21.9262 2.135 21.8633 2.01148 21.8158C2.00763 21.8087 2.00381 21.8016 2 21.7944V22H1V19H1.05584C1.03851 18.9426 1.02084 18.8853 1.00272 18.8281C1.00182 18.8253 1.00091 18.8224 1 18.8195V19H0V11H0.906944C0.936946 10.9049 0.967948 10.8052 1 10.7019V8.00001H2V8.02022C2.00358 8.01346 2.00716 8.00672 2.01075 8.00001H2V7.00001H2.86558C2.90966 6.97759 2.95446 6.95902 3 6.94457V5.00001H3.95463C3.96929 4.98554 3.98441 4.971 4 4.95639V4.00001H4.82784C4.882 3.958 4.93908 3.91931 5 3.88445V3.00001H6.86562C6.913 2.97304 6.95793 2.94588 7 2.91843V2.00001H7.75009C7.82267 1.97703 7.90552 1.951 8 1.92129V1.00001H10.6097C10.7353 0.961401 10.8626 0.924047 10.9913 0.888444C10.993 0.88796 10.9948 0.887476 10.9965 0.886993V0.00989419L19.0198 0.0098877V0.901325C19.1246 0.933739 19.237 0.96657 19.355 1.00001H21.9965V1.87409C22.0002 1.87609 22.0039 1.87808 22.0075 1.88008C22.0738 1.91644 22.1315 1.95675 22.1829 2.00001H22.9965V2.92254C23.038 2.94951 23.0795 2.97528 23.1209 3.00001H24.9965V3.99478C24.9987 3.99652 25.0008 3.99826 25.0029 4.00001H25.9965V4.97772C26.0035 4.98492 26.0105 4.99235 26.0174 5.00001H26.9965V6.91605C27.0095 6.93689 27.0226 6.95682 27.0356 6.97575C27.048 6.9838 27.0603 6.99188 27.0725 7.00001H27.9965V7.92016C28.014 7.94659 28.031 7.97321 28.0477 8.00001H28.9965V10.6631C29.0289 10.7753 29.0565 10.8876 29.0799 11H29.9965V19H28.9965V18.8997ZM11 28.9448V29H11.1788C11.1196 28.9827 11.06 28.9644 11 28.9448Z" fill="#F8009F"/>
<path d="M10.9965 0.509894L19.0198 0.509888M8 1.50001H11M21.9965 1.50001H18.9965M7 2.50001H8M22.9965 2.50001H21.9965M5 3.50001H7M24.9965 3.50001H22.9965M4 4.50001H5M3.5 5.00001V7.00001M2 7.50001H3M1.5 8.00001V11M0.5 11V19M1.5 19V22M2 22.5H3M3.5 23V25M4.5 25V26M5 26.5H7M7.5 27V28M8 28.5H11M11 29.5H19M25.9965 4.50001H24.9965M26.4965 5.00001V7.00001M27.9965 7.50001H26.9965M28.4965 8.00001V11M29.4965 11V19M28.4965 19V22M27.9965 22.5H26.9965M26.4965 23V25M25.4965 25V26M24.9965 26.5H22.9965M22.4965 27V28M21.9965 28.5H18.9965M18.9965 29.5H10.9965" stroke="#FF96E8"/>
<path d="M10.9965 0.509894L19.0198 0.509888M8 1.50001H11M21.9965 1.50001H18.9965M7 2.50001H8M22.9965 2.50001H21.9965M5 3.50001H7M24.9965 3.50001H22.9965M4 4.50001H5M3.5 5.00001V7.00001M2 7.50001H3M1.5 8.00001V11M0.5 11V19M1.5 19V22M2 22.5H3M3.5 23V25M4.5 25V26M5 26.5H7M7.5 27V28M8 28.5H11M11 29.5H19M25.9965 4.50001H24.9965M26.4965 5.00001V7.00001M27.9965 7.50001H26.9965M28.4965 8.00001V11M29.4965 11V19M28.4965 19V22M27.9965 22.5H26.9965M26.4965 23V25M25.4965 25V26M24.9965 26.5H22.9965M22.4965 27V28M21.9965 28.5H18.9965M18.9965 29.5H10.9965" stroke="#FF96E8"/>
<path d="M9 7V8H8V9H7V10H8V11H9V12H10V13H11V14H12V16H11V17H10V18H9V19H8V20H7V21H8V22H9V23H10V22H11V21H12V20H13V19H14V18H15.9902V19H16.9902V20H17.9902V21H18.9902V22H19.9902V23H20.9902V22H21.9902V21H22.9902V20H21.9902V19H20.9902V18H19.9902V17H18.9902V16H17.9902V14H18.9902V13H19.9902V12H20.9902V11H21.9902V10H22.9902V9H21.9902V8H20.9902V7H19.9902V8H18.9902V9H17.9902V10H16.9902V11H15.9902V12H14V11H13V10H12V9H11V8H10V7H9Z" fill="#FFDFF8"/>
<path d="M6.5 27V28M7.5 28V29M9 29.5H11M10 30.5H24M13 31.5H21M19 29.5H25M22 28.5H27M23 27.5H28M25 26.5H29M26 25.5H29M27 24.5H30M27 23.5H31M28 22.5H31M29 21.5H31M29 20.5H32M29 19.5H32M30 18.5H32M30 17.5H32M30 16.5H32M30 15.5H32M30 14.5H32M30 13.5H30.5M32 13.5H30.5M30.5 13.5V10M31 10.5H29.5M29 10.5H29.5M29.5 9V10.5M28 7.5H29M27 6.5H28" stroke="#D763BD"/>
</svg>
