<svg width="32" height="32" viewBox="0 0 32 32" fill="none" xmlns="http://www.w3.org/2000/svg">
<path d="M12 18.5H31M21.5 14V12M18 29.5H16M15 28.5H13M12 27.5H11M10 26.5H9M9 25.5H8M8 24.5H7M5 23.5H6M6.5 22V24M12 30.5H10M10 31.5H9M2 14.5H3M3 12.5H4M4.5 12V10M5 9.5H6M7 23.5H8" stroke="#7A36A4"/>
<path d="M9 31.5H4M3 30.5H2M16 29.5H15" stroke="#8E40BE"/>
<path d="M20 29.5H18M5 30.5H3M3 29.5H2M2 13.5H3M3 11.5H4M4 9.5H5M5 8.5H6M6 7.5H7M7 6.5H8M16 9.5H19M19 10.5H20M20 11.5H21" stroke="#BB5BF5"/>
<path d="M20 22.5H21M21 21.5H22M23 20.5H22M4 12.5H5M7.5 21V23M7.5 19V20M8.5 18V19M6.5 20V21M8.5 24V25M10.5 26V27M6.5 8V9" stroke="#BB5BF5"/>
<path d="M5.5 10V11M16 28.5H15M14 27.5H13M8 25.5H7M7 24.5H6M6 22.5H5" stroke="#C77DF4"/>
<path d="M6.5 21V22M4 13.5H3M12 27.5H13" stroke="#9B45CF"/>
<path d="M8 20.5H9M8 22.5H9M9 23.5H10M10 24.5H11M9 25.5H10M11 25.5H12M13 26.5H12" stroke="#B450F2"/>
<path d="M12 29.5H10M10 30.5H5M5 29.5H4M3.5 29V26M23 28.5H16M4.5 26V23M30.5 20V22M29.5 22V24M29 24.5H28M28 25.5H27M27 26.5H25M25 27.5H23M20 23.5H15" stroke="#D796FF"/>
<path d="M16 27.5H17H18M13 26.5H14H16M12 24.5H11M12 26.5H11M11 25.5H10M10 24.5H9M10 22.5H9M9 23.5H8M14.5 27C14.5 27.3905 14.5 27.6095 14.5 28M12.5 25V26M10.5 24V23M10 21.5H8M10 18.5H9M9 19.5H8M8 20.5H7M5.5 22V20M6.5 20V19M7.5 19V18M8.5 18V17M5.5 12V11M6.5 11V10.5V10M7.5 9V8M8.5 6V5M22 22.5H21M23 21.5H22M24 20.5H23" stroke="#D787F3"/>
<path d="M21 27.5H18M16 27.5H15M18 26.5H16M29 23.5H28M30 21.5H29M18.5 24.5H19H16M15 25.5H13M14 24.5H12M11.5 23.5V24V22M10.5 23V20.5V20M9.5 21V19M9.5 18V15M30.5 18V13M29.5 13V9M30.5 10V8M31.5 8V2M30.5 3V1M29.5 2V0M28.5 8V7M27.5 6.5V6V7M27 5.5H25M25 4.5H23M23 3.5H21M23.5 2V1M19 3.5H13M13 4.5H10M12 5.5H9M11 6.5H8M10 7.5H7M8.5 8V9M8 9.5H6" stroke="#C36CF9"/>
<path d="M23 14.5H12M12.5 12V15M13.5 11.5H13H14M14 10.5H15M15 9.5H16M19 9.5H20M22.5 12V14M21.5 11V12M20.5 10V11M28.5 8V9M21 2.5H22M20 2.5H19M17.5 8V9M15 22.5H14M14 21.5H13M12.5 21V19" stroke="#E496FF"/>
<path d="M29 0.5H24M25 1.5H24M22.5 1V3M21 2.5H20M20 3.5H19M19 5.5H18M18 4.5H13M18 6.5H15M16.5 5C16.5 5.17726 16.5 5.34274 16.5 5.5M16.5 8C16.5 7.00569 16.5 6.38212 16.5 5.5M16.5 5.5H15M12 5.5H14M11 6.5H12" stroke="#CD7CFF"/>
<path d="M10.5 7V8M12.5 8C12.5 8 12.5 8.60948 12.5 9V10M30 20.5H24M29 22.5H28M27.5 23V25M26.5 23V26M25.5 23V26M24.5 22V27M23.5 21V27M22.5 22V28M21.5 23V28M20.5 23V27M19.5 24V27M18.5 25V27M18 25.5H15M16 24.5H14M15 23.5H12.5H12M14 22.5H12M13 21.5H11.5M11 21.5H11.5M11.5 10V16.5M11.5 21.5V20.5V16.5M10.5 11V20M17 15.5H12M16 16.5H11.5M17 17.5H12M18.5 17V18M17.5 16.5V16V17M15.5 8V9M14.5 7V8M14.5 9V9.5V10M13.5 8V9M2.5 28V23M3.5 26V20M4.5 18V22M5.5 17V20M6.5 16V18M7.5 15V17M8.5 13V16M9.5 12V15" stroke="#CA74FF"/>
<path d="M14 10.5H13M13 11.5H12M11 10.5H10M8 14.5H7M7 15.5H6M9 16.5H8M7 18.5H6M5 22.5H4M4 29.5H3M3 28.5H2" stroke="#E496FF"/>
<path d="M7 13.5H8M9 12.5H8M10 11.5H9M12 9.5H11" stroke="#EB6DFF"/>
<path d="M15 29.5H14H13M13 28.5H11M11 27.5H9M9 26.5H7M7 25.5H6" stroke="#8E40BE"/>
<path d="M13 29.5H12M6 24.5H5" stroke="#BB5BF5"/>
<path d="M1.5 22V30M2 26.5H0M0.5 21V23M2.5 19V20M3.5 18V19M2.5 15V16" stroke="#E872FB"/>
<path d="M0.5 23V26M1.5 19V22M2.5 20V22" stroke="#DB6BED"/>
<path d="M0.5 19V21" stroke="#9D54AA"/>
<path d="M1.5 17V19M3.5 16V18M3 17.5H5M3.5 14V15M7 14.5H6" stroke="#EE89FF"/>
<path d="M2.5 22V23M3.5 19V20M5.5 16V17" stroke="#BF6CF2"/>
<path d="M2.5 16V19" stroke="#ED7CFF"/>
<path d="M3 15.5H4M4 16.5H5" stroke="#ED7CFF"/>
<path d="M6 15.5H4M4.5 13V14" stroke="#EB6DFF"/>
<path d="M4.5 14V15" stroke="#ED7CFF"/>
<path d="M5 14.5H6" stroke="#ED7CFF"/>
<path d="M5.5 12C5.5 12.781 5.5 13.219 5.5 14M5 13.5H7M7 12.5H8" stroke="#ED7CFF"/>
<path d="M6 11.5H7M7 10.5H8M8 11.5H9M9 10.5H10M10 9.5H11M13 6.5H14" stroke="#ED7DFF"/>
<path d="M6 12.5H7" stroke="#F0B6FF"/>
<path d="M7 11.5H8M8 10.5H9M9 9.5H10M10 8.5H12M12 7.5H13" stroke="#F0B6FF"/>
<path d="M8 9.5H9M11 7.5H12" stroke="#EE89FF"/>
<path d="M9 8.5H10M12 6.5H13M14 5.5H15" stroke="#EB6DFF"/>
<path d="M22 17.5H21M20 17.5H19M18 17.5H17M17 16.5H16M18 16.5H19M18 15.5H17M20 15.5H19M21 16.5H20M17 8.5H16M15 8.5H14M14 7.5H13M15 6.5H14M15 7.5H16M18 7.5H17M20 7.5H19.5H19M20.5 5V3M19 4.5H18M17 5.5H18M18.5 6V7M19.5 5V6M24 21.5H25M25 22.5H26M27 22.5H28M26 21.5H28" stroke="#C971FF"/>
<path d="M12 10.5H13M13 9.5H14M18.5 7.5V7V9M18 8.5H22M19.5 4V5M19 6.5H22M20.5 5V10M21.5 4V6M22.5 4V6M22.5 7V8M21.5 10V11M22.5 11V12M23 5.5H25M24 6.5H27M25 7.5H28M27.5 7V10M28.5 9V12M28 13.5H30M29.5 13V18M22 17.5H30M29 16.5H21M20 15.5H26M18 15.5H19M19 16.5H20M20 17.5H21M27 15.5H28M26 14.5H27M23 14.5H24M24 13.5H25M28.5 21V22M26.5 22V23M25.5 21V22" stroke="#CF80FF"/>
<path d="M28.5 16V14" stroke="#D796FF"/>
<path d="M27 15.5H26M28 14.5H27M29 12.5H28M26 14.5H24M23.5 14V10M25 11.5H23M22.5 11V9.5M22.5 8V9.5M21 9.5H22.5M21 7.5H22M22 6.5H24M23.5 6V9M24.5 7V10M24 8.5H27M26.5 8V10M27.5 10V11M27.5 12V13M26.5 13V14" stroke="#D796FF"/>
<path d="M27 13.5H28M25.5 14V12M24 12.5H25M27.5 11V12M25.5 9V11M24.5 11V10M23.5 9V10" stroke="#DBA2FF"/>
<path d="M26.5 10V13M25.5 11V12" stroke="#ECCCFF"/>
<path d="M7.5 17V18" stroke="#A448DC"/>
</svg>
