<svg width="210" height="118" viewBox="0 0 210 118" fill="none" xmlns="http://www.w3.org/2000/svg">
<g clip-path="url(#clip0_1160_726)">
<g clip-path="url(#clip1_1160_726)">
<rect width="210" height="118" fill="white"/>
<g clip-path="url(#clip2_1160_726)">
<rect width="210" height="118" fill="white"/>
<rect width="210" height="118" fill="#9B45CF"/>
<rect width="209" height="117" fill="#FF70E0"/>
<rect x="1" y="1" width="208" height="116" fill="#FF70E0"/>
<rect x="1" y="1" width="207" height="115" fill="white"/>
<rect x="2" y="2" width="206" height="114" fill="#FFDFF8"/>
</g>
<g filter="url(#filter0_iiii_1160_726)">
<rect width="210" height="118" fill="#FFDFF8"/>
</g>
</g>
<rect x="3" y="3" width="204" height="18" fill="url(#paint0_linear_1160_726)"/>
<g clip-path="url(#clip3_1160_726)">
<rect width="16" height="14" transform="translate(189 5)" fill="white"/>
<rect x="189" y="5" width="16" height="14" fill="#9B45CF"/>
<rect x="189" y="5" width="15" height="13" fill="white"/>
<rect x="190" y="6" width="14" height="12" fill="#808080"/>
<rect x="190" y="6" width="13" height="11" fill="#DBDBDB"/>
<rect x="191" y="7" width="12" height="10" fill="#FFDFF8"/>
</g>
<g filter="url(#filter1_iiii_1160_726)">
<rect x="189" y="5" width="16" height="14" fill="#FFDFF8"/>
</g>
<path fill-rule="evenodd" clip-rule="evenodd" d="M193 8H195V9H196V10H198V9H199V8H201V9H200V10H199V11H198V12H199V13H200V14H201V15H199V14H198V13H196V14H195V15H193V14H194V13H195V12H196V11H195V10H194V9H193V8Z" fill="#9B45CF"/>
<g clip-path="url(#clip4_1160_726)">
<rect width="16" height="14" transform="translate(155 5)" fill="white"/>
<rect x="155" y="5" width="16" height="14" fill="#9B45CF"/>
<rect x="155" y="5" width="15" height="13" fill="white"/>
<rect x="156" y="6" width="14" height="12" fill="#808080"/>
<rect x="156" y="6" width="13" height="11" fill="#DBDBDB"/>
<rect x="157" y="7" width="12" height="10" fill="#FFDFF8"/>
</g>
<g filter="url(#filter2_iiii_1160_726)">
<rect x="155" y="5" width="16" height="14" fill="#FFDFF8"/>
</g>
<rect x="159" y="14" width="6" height="2" fill="#9B45CF"/>
<g clip-path="url(#clip5_1160_726)">
<rect width="16" height="14" transform="translate(171 5)" fill="white"/>
<rect x="171" y="5" width="16" height="14" fill="#9B45CF"/>
<rect x="171" y="5" width="15" height="13" fill="white"/>
<rect x="172" y="6" width="14" height="12" fill="#808080"/>
<rect x="172" y="6" width="13" height="11" fill="#DBDBDB"/>
<rect x="173" y="7" width="12" height="10" fill="#FFDFF8"/>
</g>
<g filter="url(#filter3_iiii_1160_726)">
<rect x="171" y="5" width="16" height="14" fill="#FFDFF8"/>
</g>
<path fill-rule="evenodd" clip-rule="evenodd" d="M183 7H174V16H183V7ZM182 9H175V15H182V9Z" fill="#9B45CF"/>
<g filter="url(#filter4_d_1160_726)">
<path d="M7 16V7.00073H8.99805V11.0022H11.9978V7.00073H13.9985V16H11.9978V12.0012H8.99805V16H7ZM19.0017 12.0012V11.0022H17.001V12.0012H19.0017ZM16.002 16V15.001H15.0029V11.0022H16.002V10.0005H20.0007V11.0022H21.0024V13.0002H17.001V15.001H19.0017V14.002H21.0024V15.001H20.0007V16H16.002ZM21.0078 17.998V16.999H23.0059V14.002H22.0068V10.0005H24.0049V14.002H25.0066V10.0005H27.0046V14.002H26.0056V15.001H25.0066V16.999H24.0049V17.998H21.0078ZM35.0076 15.001V11.0022H33.0068V15.001H35.0076ZM31.0088 16V7.00073H33.0068V10.0005H36.0066V11.0022H37.0083V15.001H36.0066V16H31.0088ZM42.0115 12.0012V11.0022H40.0107V12.0012H42.0115ZM39.0117 16V15.001H38.0127V11.0022H39.0117V10.0005H43.0105V11.0022H44.0122V13.0002H40.0107V15.001H42.0115V14.002H44.0122V15.001H43.0105V16H39.0117ZM46.0156 16V15.001H45.0166V14.002H47.0146V15.001H48.0164V14.002H47.0146V13.0002H46.0156V12.0012H45.0166V11.0022H46.0156V10.0005H49.0154V11.0022H50.0144V12.0012H48.0164V11.0022H47.0146V12.0012H48.0164V13.0002H49.0154V14.002H50.0144V15.001H49.0154V16H46.0156ZM52.0205 16V15.001H51.0215V8.00244H53.0195V10.0005H54.0212V11.0022H53.0195V15.001H54.0212V16H52.0205ZM55.0176 16V10.0005H57.0156V16H55.0176ZM55.0176 8.00244V7.00073H57.0156V8.00244H55.0176ZM62.0134 12.0012V11.0022H60.0127V12.0012H62.0134ZM59.0137 16V15.001H58.0146V11.0022H59.0137V10.0005H63.0125V11.0022H64.0142V13.0002H60.0127V15.001H62.0134V14.002H64.0142V15.001H63.0125V16H59.0137Z" fill="white"/>
</g>
<g clip-path="url(#clip6_1160_726)">
<rect width="74" height="23" transform="translate(70 78)" fill="white"/>
<rect x="70" y="78" width="74" height="23" fill="#9B45CF"/>
<rect x="70" y="78" width="73" height="22" fill="white"/>
<rect x="71" y="79" width="72" height="21" fill="#808080"/>
<rect x="71" y="79" width="71" height="20" fill="#DBDBDB"/>
<rect x="72" y="80" width="70" height="19" fill="#FFDFF8"/>
</g>
<g filter="url(#filter5_iiii_1160_726)">
<rect x="70" y="78" width="74" height="23" fill="#FFDFF8"/>
</g>
<path d="M100.995 93V92.001H104.994V93H100.995ZM99.9961 92.001V85.0024H100.995V92.001H99.9961ZM104.994 92.001V85.0024H105.996V92.001H104.994ZM100.995 85.0024V84.0007H104.994V85.0024H100.995ZM111.998 93V92.001H113V93H111.998ZM110.999 92.001V91.002H111.998V92.001H110.999ZM110 91.002V90.0002H110.999V91.002H110ZM108.998 90.0002V89.0012H110V90.0002H108.998ZM108.998 87.0005V86.0015H110V87.0005H108.998ZM110 86.0015V85.0024H110.999V86.0015H110ZM107 93V84.0007H107.999V87.0005H108.998V89.0012H107.999V93H107ZM110.999 85.0024V84.0007H111.998V85.0024H110.999Z" fill="#9B45CF"/>
<path d="M59.7271 50V48.1836H60.6353V50H59.7271ZM63.3623 50V48.1836H64.2705V50H63.3623ZM58.8164 48.1836V46.3647H59.7271V48.1836H58.8164ZM60.6353 48.1836V46.3647H61.5435V48.1836H60.6353ZM62.4541 48.1836V46.3647H63.3623V48.1836H62.4541ZM64.2705 48.1836V46.3647H65.1812V48.1836H64.2705ZM57.9082 46.3647V43.6377H58.8164V46.3647H57.9082ZM61.5435 46.3647V43.6377H62.4541V46.3647H61.5435ZM65.1812 46.3647V43.6377H66.0894V46.3647H65.1812ZM57 43.6377V41.8188H57.9082V43.6377H57ZM66.0894 43.6377V41.8188H67V43.6377H66.0894ZM67.9082 49.0918V47.2729H68.8164V49.0918H67.9082ZM68.8164 50V49.0918H71.5435V47.2729H68.8164V46.3647H71.5435V45.4565H72.4517V50H68.8164ZM68.8164 45.4565V44.5459H71.5435V45.4565H68.8164ZM73.3672 50V44.5459H75.1836V45.4565H74.2754V50H73.3672ZM79.7271 50V45.4565H80.6353V50H79.7271ZM76.0918 50V44.5459H77V45.4565H77.9082V46.3647H77V50H76.0918ZM77.9082 45.4565V44.5459H79.7271V45.4565H77.9082ZM81.5508 50V44.5459H82.459V50H81.5508ZM81.5508 42.7295V41.8188H82.459V42.7295H81.5508ZM87.0024 50V45.4565H87.9106V50H87.0024ZM83.3672 50V44.5459H84.2754V45.4565H85.1836V46.3647H84.2754V50H83.3672ZM85.1836 45.4565V44.5459H87.0024V45.4565H85.1836ZM88.8262 51.8164V50.9082H92.4614V51.8164H88.8262ZM88.8262 49.0918V45.4565H89.7344V49.0918H88.8262ZM92.4614 50.9082V50H89.7344V49.0918H92.4614V45.4565H89.7344V44.5459H93.3696V50.9082H92.4614ZM94.2852 50V49.0918H95.1934V50H94.2852ZM94.2852 48.1836V41.8188H95.1934V48.1836H94.2852ZM99.7344 50V42.7295H97.918V41.8188H102.461V42.7295H100.645V50H99.7344ZM107.012 50V45.4565H107.92V50H107.012ZM105.193 45.4565V44.5459H107.012V45.4565H105.193ZM103.377 50V41.8188H104.285V45.4565H105.193V46.3647H104.285V50H103.377ZM108.836 49.0918V47.2729H109.744V49.0918H108.836ZM109.744 50V49.0918H112.471V47.2729H109.744V46.3647H112.471V45.4565H113.379V50H109.744ZM109.744 45.4565V44.5459H112.471V45.4565H109.744ZM115.203 50V49.0918H116.111V50H115.203ZM114.295 49.0918V42.7295H115.203V44.5459H116.111V45.4565H115.203V49.0918H114.295ZM119.744 50V48.1836H120.652V50H119.744ZM123.379 50V48.1836H124.29V50H123.379ZM120.652 48.1836V46.3647H121.563V48.1836H120.652ZM122.471 48.1836V46.3647H123.379V48.1836H122.471ZM118.836 48.1836V44.5459H119.744V48.1836H118.836ZM121.563 46.3647V44.5459H122.471V46.3647H121.563ZM124.29 48.1836V44.5459H125.198V48.1836H124.29ZM126.111 49.0918V47.2729H127.02V49.0918H126.111ZM127.02 50V49.0918H129.747V47.2729H127.02V46.3647H129.747V45.4565H130.655V50H127.02ZM127.02 45.4565V44.5459H129.747V45.4565H127.02ZM132.479 50V49.0918H134.297V50H132.479ZM131.57 49.0918V48.1836H132.479V49.0918H131.57ZM134.297 49.0918V48.1836H135.206V49.0918H134.297ZM133.387 48.1836V47.2729H134.297V48.1836H133.387ZM132.479 47.2729V46.3647H133.387V47.2729H132.479ZM131.57 46.3647V45.4565H132.479V46.3647H131.57ZM134.297 46.3647V45.4565H135.206V46.3647H134.297ZM132.479 45.4565V44.5459H134.297V45.4565H132.479ZM139.747 50V45.4565H140.655V50H139.747ZM136.111 50V44.5459H137.02V45.4565H137.928V46.3647H137.02V50H136.111ZM137.928 45.4565V44.5459H139.747V45.4565H137.928ZM141.57 44.5459V41.8188H142.479V44.5459H141.57ZM144.295 50V49.0918H145.203V50H144.295ZM143.387 49.0918V42.7295H144.295V44.5459H145.203V45.4565H144.295V49.0918H143.387ZM149.744 50V48.1836H150.655V50H149.744ZM148.836 48.1836V46.3647H149.744V48.1836H148.836ZM150.655 48.1836V46.3647H151.563V48.1836H150.655ZM147.928 46.3647V44.5459H148.836V46.3647H147.928ZM151.563 46.3647V44.5459H152.471V46.3647H151.563ZM154.295 50V49.0918H157.022V50H154.295ZM157.022 49.0918V48.1836H157.93V49.0918H157.022ZM153.387 49.0918V45.4565H154.295V46.3647H157.022V45.4565H157.93V47.2729H154.295V49.0918H153.387ZM154.295 45.4565V44.5459H157.022V45.4565H154.295ZM158.846 50V44.5459H160.662V45.4565H159.754V50H158.846ZM160.662 51.8164V50.9082H162.479V51.8164H160.662ZM162.479 50.9082V48.1836H164.297V49.0918H163.387V50.9082H162.479ZM161.57 48.1836V44.5459H162.479V48.1836H161.57ZM164.297 48.1836V44.5459H165.206V48.1836H164.297ZM57.9082 63V62.0918H59.7271V63H57.9082ZM57 62.0918V61.1836H57.9082V62.0918H57ZM59.7271 62.0918V61.1836H60.6353V62.0918H59.7271ZM58.8164 61.1836V60.2729H59.7271V61.1836H58.8164ZM57.9082 60.2729V59.3647H58.8164V60.2729H57.9082ZM57 59.3647V58.4565H57.9082V59.3647H57ZM59.7271 59.3647V58.4565H60.6353V59.3647H59.7271ZM57.9082 58.4565V57.5459H59.7271V58.4565H57.9082ZM62.4492 63V61.1836H63.3574V63H62.4492ZM66.0845 63V61.1836H66.9951V63H66.0845ZM63.3574 61.1836V59.3647H64.2681V61.1836H63.3574ZM65.1763 61.1836V59.3647H66.0845V61.1836H65.1763ZM61.541 61.1836V57.5459H62.4492V61.1836H61.541ZM64.2681 59.3647V57.5459H65.1763V59.3647H64.2681ZM66.9951 61.1836V57.5459H67.9033V61.1836H66.9951ZM68.8164 62.0918V60.2729H69.7246V62.0918H68.8164ZM69.7246 63V62.0918H72.4517V60.2729H69.7246V59.3647H72.4517V58.4565H73.3599V63H69.7246ZM69.7246 58.4565V57.5459H72.4517V58.4565H69.7246ZM74.2754 64.8164V63.9082H77.9106V64.8164H74.2754ZM74.2754 62.0918V58.4565H75.1836V62.0918H74.2754ZM77.9106 63.9082V63H75.1836V62.0918H77.9106V58.4565H75.1836V57.5459H78.8188V63.9082H77.9106ZM84.2778 63V58.4565H85.186V63H84.2778ZM87.0049 63V58.4565H87.9131V63H87.0049ZM81.5508 63V57.5459H84.2778V58.4565H82.459V63H81.5508ZM85.186 58.4565V57.5459H87.0049V58.4565H85.186ZM89.7344 63V62.0918H92.4614V63H89.7344ZM88.8262 62.0918V58.4565H89.7344V62.0918H88.8262ZM92.4614 62.0918V58.4565H93.3696V62.0918H92.4614ZM89.7344 58.4565V57.5459H92.4614V58.4565H89.7344ZM97.9204 63V58.4565H98.8286V63H97.9204ZM94.2852 63V57.5459H95.1934V58.4565H96.1016V59.3647H95.1934V63H94.2852ZM96.1016 58.4565V57.5459H97.9204V58.4565H96.1016ZM100.652 63V62.0918H103.379V63H100.652ZM103.379 62.0918V61.1836H104.288V62.0918H103.379ZM99.7441 62.0918V58.4565H100.652V59.3647H103.379V58.4565H104.288V60.2729H100.652V62.0918H99.7441ZM100.652 58.4565V57.5459H103.379V58.4565H100.652ZM104.295 64.8164V63.9082H106.111V64.8164H104.295ZM106.111 63.9082V61.1836H107.93V62.0918H107.02V63.9082H106.111ZM105.203 61.1836V57.5459H106.111V61.1836H105.203ZM107.93 61.1836V57.5459H108.838V61.1836H107.93ZM112.469 63V62.0918H115.196V63H112.469ZM111.561 62.0918V58.4565H112.469V62.0918H111.561ZM115.196 62.0918V58.4565H116.104V62.0918H115.196ZM112.469 58.4565V57.5459H115.196V58.4565H112.469ZM117.02 63V55.7295H117.928V57.5459H118.836V58.4565H117.928V63H117.02ZM117.928 55.7295V54.8188H118.836V55.7295H117.928ZM120.652 64.8164V63.9082H122.469V64.8164H120.652ZM122.469 63.9082V61.1836H124.288V62.0918H123.377V63.9082H122.469ZM121.561 61.1836V57.5459H122.469V61.1836H121.561ZM124.288 61.1836V57.5459H125.196V61.1836H124.288ZM127.01 63V62.0918H129.737V63H127.01ZM126.102 62.0918V58.4565H127.01V62.0918H126.102ZM129.737 62.0918V58.4565H130.645V62.0918H129.737ZM127.01 58.4565V57.5459H129.737V58.4565H127.01ZM132.469 63V62.0918H134.288V63H132.469ZM131.561 62.0918V57.5459H132.469V62.0918H131.561ZM135.196 63V62.0918H134.288V61.1836H135.196V57.5459H136.104V63H135.196ZM137.02 63V62.0918H137.928V63H137.02ZM137.02 61.1836V54.8188H137.928V61.1836H137.02Z" fill="#9B45CF"/>
<path d="M48.4889 43.5C48.4889 45.4356 47.5919 47.3078 46.9889 49C46.3315 50.8447 46.4095 50.7343 44.9889 52C44.03 52.8543 40.6895 53.6526 39.4889 55C38.2803 56.3563 38.2092 60.5 36.4889 60.5C36.0603 60.5 35.3586 60.3048 35.0006 60C34.4631 59.5423 34.4636 59.3739 34.0006 59C33.6942 58.7526 33.4657 58.3171 33.0006 58C30.9826 56.6238 28.6879 55.3524 26.9889 54.5C25.6403 53.8234 24.0947 53.0053 23.0006 52C22.7216 51.7437 22.258 51.2405 22.0006 51C21.4907 50.5237 21.4574 50.5224 21.0006 50C20.3607 49.2682 19.8217 47.9951 19.3881 47.1912C18.8371 46.1699 18.5006 45.0989 18.5006 44C18.5006 42.4759 18.4495 41.2472 19.0006 40C19.4853 38.9032 20.6019 37.9026 21.4889 37C21.7921 36.6914 21.8298 36.2295 22.0006 36C22.3101 35.5843 22.2247 35.4544 23.0006 35C23.4478 34.7381 24.446 34.2785 25.0006 34C25.6509 33.6735 26.2563 33.3102 27.0006 33C27.9672 32.5972 28.9878 32.2935 30.0006 32C31.3656 31.6045 32.8221 31.5 34.0006 31.5C37.0054 31.5 40.738 33.816 43.0006 35C43.9969 35.5214 43.1564 35.3537 44.0006 36C44.3778 36.2888 44.6632 36.6843 45.0006 37C45.3695 37.3452 45.6866 37.621 46.0006 38C46.2741 38.33 46.7741 38.6433 47.0006 39C47.8683 40.3666 48.4889 41.7032 48.4889 43.5Z" fill="#FFEDFB"/>
<path d="M29.0006 31.5H37.0006M37.0006 32.5H40.0006M26.0006 32.5H29.0006M40.0006 33.5H42.0006M24.0006 33.5H26.0006M42.5006 34V35M23.5006 34V35M22.5006 35V36M21.5006 36V37M20.5006 37V38M19.5006 38V40M18.5006 40V47M19.5006 47V49M20.5006 49V50M25.5006 54V55M26.0006 55.5H29.0006M28.0006 56.5H31.5006M32.0006 56.5H31.5006M31.5006 56.5V58M47.5006 39V40M49.5006 42V49M48.5006 40V51M47.5006 47V52M46.5006 49V53M45.5006 50V54M44.5006 51V55M43.5006 52V56M42.5006 53V56M41.5006 54V57M40.5006 54V57M39.5006 55V57M38.5006 55V63M37.5006 55C37.5006 58.1242 37.5006 59.8758 37.5006 63M36.5006 61V62" stroke="#FF70E0"/>
<path d="M21.5006 50V51M22.5006 51V52M23.5006 52V53M24.0006 53.5H26.0006M26.0006 54.5H29.0006M29.0006 55.5H32.0006M32.5006 56V58M33.5006 58V58.5V59M34.0006 59.5H35.0006M35.0006 60.5H36.5006M37.0006 60.5H36.5006M36.5006 55V60.5M37.0006 54.5H40.0006M40.0006 53.5H42.0006M42.5006 53V52M43.0006 51.5H44.0006M47.5006 40V47M46.5006 47V49M45.5006 49V50M44.5006 50V51M46.5006 40V38M45.5006 38C45.5006 38 45.5006 37.3905 45.5006 37M44.5006 37C44.5006 37 44.5006 36.3905 44.5006 36M43.5006 36V35" stroke="#FF39B8"/>
<path d="M19.5148 40.0168V41.0168M20.5148 38.0168V39.0168M24.5148 34.0168V35.0168M26.5148 33.0168V34.0168M29.5148 32.0168V33.0168M36.5148 32.0168V33.0168M39.5148 33.0168V34.0168M41.5148 34.0168V35.0168M45.5148 38.0168V39.0168M46.5148 40.0168V41.0168M46.5148 46.0168V47.0168M45.5148 48.0168V49.0168M41.5148 52.0168V53.0168M39.5148 53.0168V54.0168M36.5148 54.0168V55.0168M32.5148 55.0168V56.0168M29.5148 54.0168V55.0168M26.5148 53.0168V54.0168M24.5148 52.0168V53.0168M20.5148 48.0168V49.0168M19.5148 46.0168V47.0168" stroke="#FFB3EE"/>
<path d="M31.5 39V41M30.5 39V42M29.5 37V42M28.5 38V41M30 36.5H36M33 37.5H37M34 38.5H38M34 39.5H38M34 40.5H38M33 41.5H37M36 42.5H33M35 43.5H32M32 44.5H34M32 45.5H34M31.5 48V50M32.5 47V51M33.5 47V51M34.5 48V50" stroke="#FF96E8"/>
<path d="M31 41.5H32M28 41.5H29M28 37.5H29M29.5 36V37M30 37.5H31M36 36.5H37M37 37.5H38M33.5 41V40M32.5 43V42M34.5 45V44M31.5 51V50M31.5 48V47M34.5 48V47M34.5 51V50" stroke="#FFB3EE"/>
</g>
<defs>
<filter id="filter0_iiii_1160_726" x="0" y="0" width="210" height="118" filterUnits="userSpaceOnUse" color-interpolation-filters="sRGB">
<feFlood flood-opacity="0" result="BackgroundImageFix"/>
<feBlend mode="normal" in="SourceGraphic" in2="BackgroundImageFix" result="shape"/>
<feColorMatrix in="SourceAlpha" type="matrix" values="0 0 0 0 0 0 0 0 0 0 0 0 0 0 0 0 0 0 127 0" result="hardAlpha"/>
<feOffset dx="2" dy="2"/>
<feComposite in2="hardAlpha" operator="arithmetic" k2="-1" k3="1"/>
<feColorMatrix type="matrix" values="0 0 0 0 1 0 0 0 0 1 0 0 0 0 1 0 0 0 1 0"/>
<feBlend mode="normal" in2="shape" result="effect1_innerShadow_1160_726"/>
<feColorMatrix in="SourceAlpha" type="matrix" values="0 0 0 0 0 0 0 0 0 0 0 0 0 0 0 0 0 0 127 0" result="hardAlpha"/>
<feOffset dx="-2" dy="-2"/>
<feComposite in2="hardAlpha" operator="arithmetic" k2="-1" k3="1"/>
<feColorMatrix type="matrix" values="0 0 0 0 1 0 0 0 0 0.627451 0 0 0 0 0.917647 0 0 0 1 0"/>
<feBlend mode="normal" in2="effect1_innerShadow_1160_726" result="effect2_innerShadow_1160_726"/>
<feColorMatrix in="SourceAlpha" type="matrix" values="0 0 0 0 0 0 0 0 0 0 0 0 0 0 0 0 0 0 127 0" result="hardAlpha"/>
<feOffset dx="1" dy="1"/>
<feComposite in2="hardAlpha" operator="arithmetic" k2="-1" k3="1"/>
<feColorMatrix type="matrix" values="0 0 0 0 1 0 0 0 0 0.772549 0 0 0 0 0.94902 0 0 0 1 0"/>
<feBlend mode="normal" in2="effect2_innerShadow_1160_726" result="effect3_innerShadow_1160_726"/>
<feColorMatrix in="SourceAlpha" type="matrix" values="0 0 0 0 0 0 0 0 0 0 0 0 0 0 0 0 0 0 127 0" result="hardAlpha"/>
<feOffset dx="-1" dy="-1"/>
<feComposite in2="hardAlpha" operator="arithmetic" k2="-1" k3="1"/>
<feColorMatrix type="matrix" values="0 0 0 0 1 0 0 0 0 0 0 0 0 0 0.641414 0 0 0 1 0"/>
<feBlend mode="normal" in2="effect3_innerShadow_1160_726" result="effect4_innerShadow_1160_726"/>
</filter>
<filter id="filter1_iiii_1160_726" x="189" y="5" width="16" height="14" filterUnits="userSpaceOnUse" color-interpolation-filters="sRGB">
<feFlood flood-opacity="0" result="BackgroundImageFix"/>
<feBlend mode="normal" in="SourceGraphic" in2="BackgroundImageFix" result="shape"/>
<feColorMatrix in="SourceAlpha" type="matrix" values="0 0 0 0 0 0 0 0 0 0 0 0 0 0 0 0 0 0 127 0" result="hardAlpha"/>
<feOffset dx="2" dy="2"/>
<feComposite in2="hardAlpha" operator="arithmetic" k2="-1" k3="1"/>
<feColorMatrix type="matrix" values="0 0 0 0 1 0 0 0 0 0.770833 0 0 0 0 0.949802 0 0 0 1 0"/>
<feBlend mode="normal" in2="shape" result="effect1_innerShadow_1160_726"/>
<feColorMatrix in="SourceAlpha" type="matrix" values="0 0 0 0 0 0 0 0 0 0 0 0 0 0 0 0 0 0 127 0" result="hardAlpha"/>
<feOffset dx="-2" dy="-2"/>
<feComposite in2="hardAlpha" operator="arithmetic" k2="-1" k3="1"/>
<feColorMatrix type="matrix" values="0 0 0 0 1 0 0 0 0 0.629167 0 0 0 0 0.916882 0 0 0 1 0"/>
<feBlend mode="normal" in2="effect1_innerShadow_1160_726" result="effect2_innerShadow_1160_726"/>
<feColorMatrix in="SourceAlpha" type="matrix" values="0 0 0 0 0 0 0 0 0 0 0 0 0 0 0 0 0 0 127 0" result="hardAlpha"/>
<feOffset dx="1" dy="1"/>
<feComposite in2="hardAlpha" operator="arithmetic" k2="-1" k3="1"/>
<feColorMatrix type="matrix" values="0 0 0 0 1 0 0 0 0 1 0 0 0 0 1 0 0 0 1 0"/>
<feBlend mode="normal" in2="effect2_innerShadow_1160_726" result="effect3_innerShadow_1160_726"/>
<feColorMatrix in="SourceAlpha" type="matrix" values="0 0 0 0 0 0 0 0 0 0 0 0 0 0 0 0 0 0 127 0" result="hardAlpha"/>
<feOffset dx="-1" dy="-1"/>
<feComposite in2="hardAlpha" operator="arithmetic" k2="-1" k3="1"/>
<feColorMatrix type="matrix" values="0 0 0 0 0.607843 0 0 0 0 0.270588 0 0 0 0 0.811765 0 0 0 1 0"/>
<feBlend mode="normal" in2="effect3_innerShadow_1160_726" result="effect4_innerShadow_1160_726"/>
</filter>
<filter id="filter2_iiii_1160_726" x="155" y="5" width="16" height="14" filterUnits="userSpaceOnUse" color-interpolation-filters="sRGB">
<feFlood flood-opacity="0" result="BackgroundImageFix"/>
<feBlend mode="normal" in="SourceGraphic" in2="BackgroundImageFix" result="shape"/>
<feColorMatrix in="SourceAlpha" type="matrix" values="0 0 0 0 0 0 0 0 0 0 0 0 0 0 0 0 0 0 127 0" result="hardAlpha"/>
<feOffset dx="2" dy="2"/>
<feComposite in2="hardAlpha" operator="arithmetic" k2="-1" k3="1"/>
<feColorMatrix type="matrix" values="0 0 0 0 1 0 0 0 0 0.770833 0 0 0 0 0.949802 0 0 0 1 0"/>
<feBlend mode="normal" in2="shape" result="effect1_innerShadow_1160_726"/>
<feColorMatrix in="SourceAlpha" type="matrix" values="0 0 0 0 0 0 0 0 0 0 0 0 0 0 0 0 0 0 127 0" result="hardAlpha"/>
<feOffset dx="-2" dy="-2"/>
<feComposite in2="hardAlpha" operator="arithmetic" k2="-1" k3="1"/>
<feColorMatrix type="matrix" values="0 0 0 0 1 0 0 0 0 0.629167 0 0 0 0 0.916882 0 0 0 1 0"/>
<feBlend mode="normal" in2="effect1_innerShadow_1160_726" result="effect2_innerShadow_1160_726"/>
<feColorMatrix in="SourceAlpha" type="matrix" values="0 0 0 0 0 0 0 0 0 0 0 0 0 0 0 0 0 0 127 0" result="hardAlpha"/>
<feOffset dx="1" dy="1"/>
<feComposite in2="hardAlpha" operator="arithmetic" k2="-1" k3="1"/>
<feColorMatrix type="matrix" values="0 0 0 0 1 0 0 0 0 1 0 0 0 0 1 0 0 0 1 0"/>
<feBlend mode="normal" in2="effect2_innerShadow_1160_726" result="effect3_innerShadow_1160_726"/>
<feColorMatrix in="SourceAlpha" type="matrix" values="0 0 0 0 0 0 0 0 0 0 0 0 0 0 0 0 0 0 127 0" result="hardAlpha"/>
<feOffset dx="-1" dy="-1"/>
<feComposite in2="hardAlpha" operator="arithmetic" k2="-1" k3="1"/>
<feColorMatrix type="matrix" values="0 0 0 0 0.607843 0 0 0 0 0.270588 0 0 0 0 0.811765 0 0 0 1 0"/>
<feBlend mode="normal" in2="effect3_innerShadow_1160_726" result="effect4_innerShadow_1160_726"/>
</filter>
<filter id="filter3_iiii_1160_726" x="171" y="5" width="16" height="14" filterUnits="userSpaceOnUse" color-interpolation-filters="sRGB">
<feFlood flood-opacity="0" result="BackgroundImageFix"/>
<feBlend mode="normal" in="SourceGraphic" in2="BackgroundImageFix" result="shape"/>
<feColorMatrix in="SourceAlpha" type="matrix" values="0 0 0 0 0 0 0 0 0 0 0 0 0 0 0 0 0 0 127 0" result="hardAlpha"/>
<feOffset dx="2" dy="2"/>
<feComposite in2="hardAlpha" operator="arithmetic" k2="-1" k3="1"/>
<feColorMatrix type="matrix" values="0 0 0 0 1 0 0 0 0 0.770833 0 0 0 0 0.949802 0 0 0 1 0"/>
<feBlend mode="normal" in2="shape" result="effect1_innerShadow_1160_726"/>
<feColorMatrix in="SourceAlpha" type="matrix" values="0 0 0 0 0 0 0 0 0 0 0 0 0 0 0 0 0 0 127 0" result="hardAlpha"/>
<feOffset dx="-2" dy="-2"/>
<feComposite in2="hardAlpha" operator="arithmetic" k2="-1" k3="1"/>
<feColorMatrix type="matrix" values="0 0 0 0 1 0 0 0 0 0.629167 0 0 0 0 0.916882 0 0 0 1 0"/>
<feBlend mode="normal" in2="effect1_innerShadow_1160_726" result="effect2_innerShadow_1160_726"/>
<feColorMatrix in="SourceAlpha" type="matrix" values="0 0 0 0 0 0 0 0 0 0 0 0 0 0 0 0 0 0 127 0" result="hardAlpha"/>
<feOffset dx="1" dy="1"/>
<feComposite in2="hardAlpha" operator="arithmetic" k2="-1" k3="1"/>
<feColorMatrix type="matrix" values="0 0 0 0 1 0 0 0 0 1 0 0 0 0 1 0 0 0 1 0"/>
<feBlend mode="normal" in2="effect2_innerShadow_1160_726" result="effect3_innerShadow_1160_726"/>
<feColorMatrix in="SourceAlpha" type="matrix" values="0 0 0 0 0 0 0 0 0 0 0 0 0 0 0 0 0 0 127 0" result="hardAlpha"/>
<feOffset dx="-1" dy="-1"/>
<feComposite in2="hardAlpha" operator="arithmetic" k2="-1" k3="1"/>
<feColorMatrix type="matrix" values="0 0 0 0 0.607843 0 0 0 0 0.270588 0 0 0 0 0.811765 0 0 0 1 0"/>
<feBlend mode="normal" in2="effect3_innerShadow_1160_726" result="effect4_innerShadow_1160_726"/>
</filter>
<filter id="filter4_d_1160_726" x="3" y="7.00073" width="65.0142" height="18.9973" filterUnits="userSpaceOnUse" color-interpolation-filters="sRGB">
<feFlood flood-opacity="0" result="BackgroundImageFix"/>
<feColorMatrix in="SourceAlpha" type="matrix" values="0 0 0 0 0 0 0 0 0 0 0 0 0 0 0 0 0 0 127 0" result="hardAlpha"/>
<feOffset dy="4"/>
<feGaussianBlur stdDeviation="2"/>
<feComposite in2="hardAlpha" operator="out"/>
<feColorMatrix type="matrix" values="0 0 0 0 0 0 0 0 0 0 0 0 0 0 0 0 0 0 0.25 0"/>
<feBlend mode="normal" in2="BackgroundImageFix" result="effect1_dropShadow_1160_726"/>
<feBlend mode="normal" in="SourceGraphic" in2="effect1_dropShadow_1160_726" result="shape"/>
</filter>
<filter id="filter5_iiii_1160_726" x="70" y="78" width="74" height="23" filterUnits="userSpaceOnUse" color-interpolation-filters="sRGB">
<feFlood flood-opacity="0" result="BackgroundImageFix"/>
<feBlend mode="normal" in="SourceGraphic" in2="BackgroundImageFix" result="shape"/>
<feColorMatrix in="SourceAlpha" type="matrix" values="0 0 0 0 0 0 0 0 0 0 0 0 0 0 0 0 0 0 127 0" result="hardAlpha"/>
<feOffset dx="2" dy="2"/>
<feComposite in2="hardAlpha" operator="arithmetic" k2="-1" k3="1"/>
<feColorMatrix type="matrix" values="0 0 0 0 1 0 0 0 0 0.770833 0 0 0 0 0.949802 0 0 0 1 0"/>
<feBlend mode="normal" in2="shape" result="effect1_innerShadow_1160_726"/>
<feColorMatrix in="SourceAlpha" type="matrix" values="0 0 0 0 0 0 0 0 0 0 0 0 0 0 0 0 0 0 127 0" result="hardAlpha"/>
<feOffset dx="-2" dy="-2"/>
<feComposite in2="hardAlpha" operator="arithmetic" k2="-1" k3="1"/>
<feColorMatrix type="matrix" values="0 0 0 0 1 0 0 0 0 0.629167 0 0 0 0 0.916882 0 0 0 1 0"/>
<feBlend mode="normal" in2="effect1_innerShadow_1160_726" result="effect2_innerShadow_1160_726"/>
<feColorMatrix in="SourceAlpha" type="matrix" values="0 0 0 0 0 0 0 0 0 0 0 0 0 0 0 0 0 0 127 0" result="hardAlpha"/>
<feOffset dx="1" dy="1"/>
<feComposite in2="hardAlpha" operator="arithmetic" k2="-1" k3="1"/>
<feColorMatrix type="matrix" values="0 0 0 0 1 0 0 0 0 1 0 0 0 0 1 0 0 0 1 0"/>
<feBlend mode="normal" in2="effect2_innerShadow_1160_726" result="effect3_innerShadow_1160_726"/>
<feColorMatrix in="SourceAlpha" type="matrix" values="0 0 0 0 0 0 0 0 0 0 0 0 0 0 0 0 0 0 127 0" result="hardAlpha"/>
<feOffset dx="-1" dy="-1"/>
<feComposite in2="hardAlpha" operator="arithmetic" k2="-1" k3="1"/>
<feColorMatrix type="matrix" values="0 0 0 0 0.607843 0 0 0 0 0.270588 0 0 0 0 0.811765 0 0 0 1 0"/>
<feBlend mode="normal" in2="effect3_innerShadow_1160_726" result="effect4_innerShadow_1160_726"/>
</filter>
<linearGradient id="paint0_linear_1160_726" x1="207" y1="12" x2="3" y2="12" gradientUnits="userSpaceOnUse">
<stop stop-color="#FFAEED"/>
<stop offset="1" stop-color="#FF2FD1"/>
</linearGradient>
<clipPath id="clip0_1160_726">
<rect width="210" height="118" fill="white"/>
</clipPath>
<clipPath id="clip1_1160_726">
<rect width="210" height="118" fill="white"/>
</clipPath>
<clipPath id="clip2_1160_726">
<rect width="210" height="118" fill="white"/>
</clipPath>
<clipPath id="clip3_1160_726">
<rect width="16" height="14" fill="white" transform="translate(189 5)"/>
</clipPath>
<clipPath id="clip4_1160_726">
<rect width="16" height="14" fill="white" transform="translate(155 5)"/>
</clipPath>
<clipPath id="clip5_1160_726">
<rect width="16" height="14" fill="white" transform="translate(171 5)"/>
</clipPath>
<clipPath id="clip6_1160_726">
<rect width="74" height="23" fill="white" transform="translate(70 78)"/>
</clipPath>
</defs>
</svg>
