<svg width="14" height="229" viewBox="0 0 14 229" fill="none" xmlns="http://www.w3.org/2000/svg">
<rect x="14" y="16" width="213" height="14" transform="rotate(90 14 16)" fill="#FFDFF8"/>
<path d="M1 212.009H0V213.009H1V212.009Z" fill="#EFC2FF"/>
<path d="M3 212.009H2V213.009H3V212.009Z" fill="#EFC2FF"/>
<path d="M1.00598 202V203H0.00598145V202H1.00598Z" fill="#EFC2FF"/>
<path d="M1.00598 204V205H0.00598145V204H1.00598Z" fill="#EFC2FF"/>
<path d="M1.00598 206V207H0.00598145V206H1.00598Z" fill="#EFC2FF"/>
<path d="M1.00598 208V209H0.00598145V208H1.00598Z" fill="#EFC2FF"/>
<path d="M1.00598 210V211H0.00598145V210H1.00598Z" fill="#EFC2FF"/>
<path d="M6.01245 201V202H7.00574V203H6.01245V204H7.00574V205H6.01245V206H7.00574V207H6.01245V208H7.00574V209H6.01245V210H7.00574V211H6.00574V210H5.01245V209H6.00574V208H5.01245V207H6.00574V206H5.01245V205H6.00574V204H5.01245V203H6.00574V202H5.01245V201H6.01245Z" fill="#EFC2FF"/>
<path d="M2.0127 202V201H1.0127V202H2.00598V203H1.0127V204H2.00598V205H1.0127V206H2.00598V207H1.0127V208H2.00598V209H1.0127V210H2.00598V211H3.00598V210H2.0127V209H3.00598V208H2.0127V207H3.00598V206H2.0127V205H3.00598V204H2.0127V203H3.00598V202H2.0127Z" fill="#EFC2FF"/>
<path d="M8.00684 201V202H7.00684V201H8.00684Z" fill="#EFC2FF"/>
<path d="M8.00684 203V204H7.00684V203H8.00684Z" fill="#EFC2FF"/>
<path d="M8.00684 205V206H7.00684V205H8.00684Z" fill="#EFC2FF"/>
<path d="M8.00684 207V208H7.00684V207H8.00684Z" fill="#EFC2FF"/>
<path d="M8.00684 209V210H7.00684V209H8.00684Z" fill="#EFC2FF"/>
<path d="M5.0061 212.009H4.0061V213.009H5.0061V212.009Z" fill="#EFC2FF"/>
<path d="M7.0061 212.009H6.0061V213.009H7.0061V212.009Z" fill="#EFC2FF"/>
<path d="M9.0061 212.009H8.0061V213.009H9.0061V212.009Z" fill="#EFC2FF"/>
<path d="M11.0061 212.009H10.0061V213.009H11.0061V212.009Z" fill="#EFC2FF"/>
<path d="M13.0061 212.009H12.0061V213.009H13.0061V212.009Z" fill="#EFC2FF"/>
<path d="M1.0061 211.002H2.0061V212.002H1.0061V211.002Z" fill="#EFC2FF"/>
<path d="M3.0061 211.002H4.0061V212.002H3.0061V211.002Z" fill="#EFC2FF"/>
<path d="M5.0061 211.002H6.0061V212.002H5.0061V211.002Z" fill="#EFC2FF"/>
<path d="M7.0061 211.002H8.0061V212.002H7.0061V211.002Z" fill="#EFC2FF"/>
<path d="M4.00708 201V202H3.00708V201H4.00708Z" fill="#EFC2FF"/>
<path d="M4.00708 203V204H3.00708V203H4.00708Z" fill="#EFC2FF"/>
<path d="M4.00708 205V206H3.00708V205H4.00708Z" fill="#EFC2FF"/>
<path d="M4.00708 207V208H3.00708V207H4.00708Z" fill="#EFC2FF"/>
<path d="M4.00708 209V210H3.00708V209H4.00708Z" fill="#EFC2FF"/>
<path d="M9.00732 203V202H10V201H9V202H8.00684V203H9.00732Z" fill="#EFC2FF"/>
<path d="M9.00732 205V204H8.00684V205H9.00732Z" fill="#EFC2FF"/>
<path d="M9.00732 207V206H8.00684V207H9.00732Z" fill="#EFC2FF"/>
<path d="M9.00732 209V208H8.00684V209H9.00732Z" fill="#EFC2FF"/>
<path d="M9.00732 211V210H8.00684L8.00732 211H9.00732Z" fill="#EFC2FF"/>
<path d="M5.00757 202V203H4.00708V202H5.00757Z" fill="#EFC2FF"/>
<path d="M5.00757 204V205H4.00708V204H5.00757Z" fill="#EFC2FF"/>
<path d="M5.00757 206V207H4.00708V206H5.00757Z" fill="#EFC2FF"/>
<path d="M5.00757 208V209H4.00708V208H5.00757Z" fill="#EFC2FF"/>
<path d="M5.00757 210V211H4.00757L4.00708 210H5.00757Z" fill="#EFC2FF"/>
<path d="M10.0088 204V203.004H11.0072V202.004H10.0072V203H9.00879V204H10.0088Z" fill="#EFC2FF"/>
<path d="M10.0088 206V205.004H11.0072V204.004H10.0072V205H9.00879V206H10.0088Z" fill="#EFC2FF"/>
<path d="M10.0088 208V207.004H11.0072V206.004H10.0072V207H9.00879V208H10.0088Z" fill="#EFC2FF"/>
<path d="M10.0088 210V209.004H11.0072V208.004H10.0072V209H9.00879V210H10.0088Z" fill="#EFC2FF"/>
<path d="M10.0088 212V211.004H11.0072V210.004H10.0072V211H9.00879V212H10.0088Z" fill="#EFC2FF"/>
<path d="M14.0093 202.996V203.996H13.0093V202.996H14.0093Z" fill="#EFC2FF"/>
<path d="M14.0093 204.996V205.996H13.0093V204.996H14.0093Z" fill="#EFC2FF"/>
<path d="M14.0093 206.996V207.996H13.0093V206.996H14.0093Z" fill="#EFC2FF"/>
<path d="M14.0093 208.996V209.996H13.0093V208.996H14.0093Z" fill="#EFC2FF"/>
<path d="M14.0093 210.996V211.996H13.0093V210.996H14.0093Z" fill="#EFC2FF"/>
<path d="M12.01 203.996V203.001H13.0089V202.001H12.0089V202.996H11.01V203.996H12.01Z" fill="#EFC2FF"/>
<path d="M12.01 205.996V205.001H13.0089V204.001H12.0089V204.996H11.01V205.996H12.01Z" fill="#EFC2FF"/>
<path d="M12.01 207.996V207.001H13.0089V206.001H12.0089V206.996H11.01V207.996H12.01Z" fill="#EFC2FF"/>
<path d="M12.01 209.996V209.001H13.0089V208.001H12.0089V208.996H11.01V209.996H12.01Z" fill="#EFC2FF"/>
<path d="M12.01 211.996V211.001H13.0089V210.001H12.0089V210.996H11.01V211.996H12.01Z" fill="#EFC2FF"/>
<path d="M11 202H12V201H11V202Z" fill="#EFC2FF"/>
<path d="M13 202H14V201H13V202Z" fill="#EFC2FF"/>
<path d="M1 202.009H0V203.009H1V202.009Z" fill="#EFC2FF"/>
<path d="M3 202.009H2V203.009H3V202.009Z" fill="#EFC2FF"/>
<path d="M1.00598 192V193H0.00598145V192H1.00598Z" fill="#EFC2FF"/>
<path d="M1.00598 194V195H0.00598145V194H1.00598Z" fill="#EFC2FF"/>
<path d="M1.00598 196V197H0.00598145V196H1.00598Z" fill="#EFC2FF"/>
<path d="M1.00598 198V199H0.00598145V198H1.00598Z" fill="#EFC2FF"/>
<path d="M1.00598 200V201H0.00598145V200H1.00598Z" fill="#EFC2FF"/>
<path d="M6.01245 191V192H7.00574V193H6.01245V194H7.00574V195H6.01245V196H7.00574V197H6.01245V198H7.00574V199H6.01245V200H7.00574V201H6.00574V200H5.01245V199H6.00574V198H5.01245V197H6.00574V196H5.01245V195H6.00574V194H5.01245V193H6.00574V192H5.01245V191H6.01245Z" fill="#EFC2FF"/>
<path d="M2.0127 192V191H1.0127V192H2.00598V193H1.0127V194H2.00598V195H1.0127V196H2.00598V197H1.0127V198H2.00598V199H1.0127V200H2.00598V201H3.00598V200H2.0127V199H3.00598V198H2.0127V197H3.00598V196H2.0127V195H3.00598V194H2.0127V193H3.00598V192H2.0127Z" fill="#EFC2FF"/>
<path d="M8.00684 191V192H7.00684V191H8.00684Z" fill="#EFC2FF"/>
<path d="M8.00684 193V194H7.00684V193H8.00684Z" fill="#EFC2FF"/>
<path d="M8.00684 195V196H7.00684V195H8.00684Z" fill="#EFC2FF"/>
<path d="M8.00684 197V198H7.00684V197H8.00684Z" fill="#EFC2FF"/>
<path d="M8.00684 199V200H7.00684V199H8.00684Z" fill="#EFC2FF"/>
<path d="M5.0061 202.009H4.0061V203.009H5.0061V202.009Z" fill="#EFC2FF"/>
<path d="M7.0061 202.009H6.0061V203.009H7.0061V202.009Z" fill="#EFC2FF"/>
<path d="M9.0061 202.009H8.0061V203.009H9.0061V202.009Z" fill="#EFC2FF"/>
<path d="M11.0061 202.009H10.0061V203.009H11.0061V202.009Z" fill="#EFC2FF"/>
<path d="M13.0061 202.009H12.0061V203.009H13.0061V202.009Z" fill="#EFC2FF"/>
<path d="M1.0061 201.002H2.0061V202.002H1.0061V201.002Z" fill="#EFC2FF"/>
<path d="M3.0061 201.002H4.0061V202.002H3.0061V201.002Z" fill="#EFC2FF"/>
<path d="M5.0061 201.002H6.0061V202.002H5.0061V201.002Z" fill="#EFC2FF"/>
<path d="M7.0061 201.002H8.0061V202.002H7.0061V201.002Z" fill="#EFC2FF"/>
<path d="M4.00708 191V192H3.00708V191H4.00708Z" fill="#EFC2FF"/>
<path d="M4.00708 193V194H3.00708V193H4.00708Z" fill="#EFC2FF"/>
<path d="M4.00708 195V196H3.00708V195H4.00708Z" fill="#EFC2FF"/>
<path d="M4.00708 197V198H3.00708V197H4.00708Z" fill="#EFC2FF"/>
<path d="M4.00708 199V200H3.00708V199H4.00708Z" fill="#EFC2FF"/>
<path d="M9.00732 193V192H10V191H9V192H8.00684V193H9.00732Z" fill="#EFC2FF"/>
<path d="M9.00732 195V194H8.00684V195H9.00732Z" fill="#EFC2FF"/>
<path d="M9.00732 197V196H8.00684V197H9.00732Z" fill="#EFC2FF"/>
<path d="M9.00732 199V198H8.00684V199H9.00732Z" fill="#EFC2FF"/>
<path d="M9.00732 201V200H8.00684V201H9.00732Z" fill="#EFC2FF"/>
<path d="M5.00757 192V193H4.00708V192H5.00757Z" fill="#EFC2FF"/>
<path d="M5.00757 194V195H4.00708V194H5.00757Z" fill="#EFC2FF"/>
<path d="M5.00757 196V197H4.00708V196H5.00757Z" fill="#EFC2FF"/>
<path d="M5.00757 198V199H4.00708V198H5.00757Z" fill="#EFC2FF"/>
<path d="M5.00757 200V201H4.00708V200H5.00757Z" fill="#EFC2FF"/>
<path d="M10.0088 194V193.004H11.0072V192.004H10.0072V193H9.00879V194H10.0088Z" fill="#EFC2FF"/>
<path d="M10.0088 196V195.004H11.0072V194.004H10.0072V195H9.00879V196H10.0088Z" fill="#EFC2FF"/>
<path d="M10.0088 198V197.004H11.0072V196.004H10.0072V197H9.00879V198H10.0088Z" fill="#EFC2FF"/>
<path d="M10.0088 200V199.004H11.0072V198.004H10.0072V199H9.00879V200H10.0088Z" fill="#EFC2FF"/>
<path d="M10.0088 202V201.004H11.0072V200.004H10.0072V201H9.00879V202H10.0088Z" fill="#EFC2FF"/>
<path d="M14.0093 192.996V193.996H13.0093V192.996H14.0093Z" fill="#EFC2FF"/>
<path d="M14.0093 194.996V195.996H13.0093V194.996H14.0093Z" fill="#EFC2FF"/>
<path d="M14.0093 196.996V197.996H13.0093V196.996H14.0093Z" fill="#EFC2FF"/>
<path d="M14.0093 198.996V199.996H13.0093V198.996H14.0093Z" fill="#EFC2FF"/>
<path d="M14.0093 200.996V201.996H13.0093V200.996H14.0093Z" fill="#EFC2FF"/>
<path d="M12.01 193.996V193.001H13.0089V192.001H12.0089V192.996H11.01V193.996H12.01Z" fill="#EFC2FF"/>
<path d="M12.01 195.996V195.001H13.0089V194.001H12.0089V194.996H11.01V195.996H12.01Z" fill="#EFC2FF"/>
<path d="M12.01 197.996V197.001H13.0089V196.001H12.0089V196.996H11.01V197.996H12.01Z" fill="#EFC2FF"/>
<path d="M12.01 199.996V199.001H13.0089V198.001H12.0089V198.996H11.01V199.996H12.01Z" fill="#EFC2FF"/>
<path d="M12.01 201.996V201.001H13.0089V200.001H12.0089V200.996H11.01V201.996H12.01Z" fill="#EFC2FF"/>
<path d="M11 192H12V191H11V192Z" fill="#EFC2FF"/>
<path d="M13 192H14V191H13V192Z" fill="#EFC2FF"/>
<path d="M1 192.009H0V193.009H1V192.009Z" fill="#EFC2FF"/>
<path d="M3 192.009H2V193.009H3V192.009Z" fill="#EFC2FF"/>
<path d="M1.00598 182V183H0.00598145V182H1.00598Z" fill="#EFC2FF"/>
<path d="M1.00598 184V185H0.00598145V184H1.00598Z" fill="#EFC2FF"/>
<path d="M1.00598 186V187H0.00598145V186H1.00598Z" fill="#EFC2FF"/>
<path d="M1.00598 188V189H0.00598145V188H1.00598Z" fill="#EFC2FF"/>
<path d="M1.00598 190V191H0.00598145V190H1.00598Z" fill="#EFC2FF"/>
<path d="M6.01245 181V182H7.00574V183H6.01245V184H7.00574V185H6.01245V186H7.00574V187H6.01245V188H7.00574V189H6.01245V190H7.00574V191H6.00574V190H5.01245V189H6.00574V188H5.01245V187H6.00574V186H5.01245V185H6.00574V184H5.01245V183H6.00574V182H5.01245V181H6.01245Z" fill="#EFC2FF"/>
<path d="M2.0127 182V181H1.0127V182H2.00598V183H1.0127V184H2.00598V185H1.0127V186H2.00598V187H1.0127V188H2.00598V189H1.0127V190H2.00598V191H3.00598V190H2.0127V189H3.00598V188H2.0127V187H3.00598V186H2.0127V185H3.00598V184H2.0127V183H3.00598V182H2.0127Z" fill="#EFC2FF"/>
<path d="M8.00684 181V182H7.00684V181H8.00684Z" fill="#EFC2FF"/>
<path d="M8.00684 183V184H7.00684V183H8.00684Z" fill="#EFC2FF"/>
<path d="M8.00684 185V186H7.00684V185H8.00684Z" fill="#EFC2FF"/>
<path d="M8.00684 187V188H7.00684V187H8.00684Z" fill="#EFC2FF"/>
<path d="M8.00684 189V190H7.00684V189H8.00684Z" fill="#EFC2FF"/>
<path d="M5.0061 192.009H4.0061V193.009H5.0061V192.009Z" fill="#EFC2FF"/>
<path d="M7.0061 192.009H6.0061V193.009H7.0061V192.009Z" fill="#EFC2FF"/>
<path d="M9.0061 192.009H8.0061V193.009H9.0061V192.009Z" fill="#EFC2FF"/>
<path d="M11.0061 192.009H10.0061V193.009H11.0061V192.009Z" fill="#EFC2FF"/>
<path d="M13.0061 192.009H12.0061V193.009H13.0061V192.009Z" fill="#EFC2FF"/>
<path d="M1.0061 191.002H2.0061V192.002H1.0061V191.002Z" fill="#EFC2FF"/>
<path d="M3.0061 191.002H4.0061V192.002H3.0061V191.002Z" fill="#EFC2FF"/>
<path d="M5.0061 191.002H6.0061V192.002H5.0061V191.002Z" fill="#EFC2FF"/>
<path d="M7.0061 191.002H8.0061V192.002H7.0061V191.002Z" fill="#EFC2FF"/>
<path d="M4.00708 181V182H3.00708V181H4.00708Z" fill="#EFC2FF"/>
<path d="M4.00708 183V184H3.00708V183H4.00708Z" fill="#EFC2FF"/>
<path d="M4.00708 185V186H3.00708V185H4.00708Z" fill="#EFC2FF"/>
<path d="M4.00708 187V188H3.00708V187H4.00708Z" fill="#EFC2FF"/>
<path d="M4.00708 189V190H3.00708V189H4.00708Z" fill="#EFC2FF"/>
<path d="M9.00732 183V182H10V181H9V182H8.00684V183H9.00732Z" fill="#EFC2FF"/>
<path d="M9.00732 185V184H8.00684V185H9.00732Z" fill="#EFC2FF"/>
<path d="M9.00732 187V186H8.00684V187H9.00732Z" fill="#EFC2FF"/>
<path d="M9.00732 189V188H8.00684V189H9.00732Z" fill="#EFC2FF"/>
<path d="M9.00732 191V190H8.00684V191H9.00732Z" fill="#EFC2FF"/>
<path d="M5.00757 182V183H4.00708V182H5.00757Z" fill="#EFC2FF"/>
<path d="M5.00757 184V185H4.00708V184H5.00757Z" fill="#EFC2FF"/>
<path d="M5.00757 186V187H4.00708V186H5.00757Z" fill="#EFC2FF"/>
<path d="M5.00757 188V189H4.00708V188H5.00757Z" fill="#EFC2FF"/>
<path d="M5.00757 190V191H4.00708V190H5.00757Z" fill="#EFC2FF"/>
<path d="M10.0088 184V183.004H11.0072V182.004H10.0072V183H9.00879V184H10.0088Z" fill="#EFC2FF"/>
<path d="M10.0088 186V185.004H11.0072V184.004H10.0072V185H9.00879V186H10.0088Z" fill="#EFC2FF"/>
<path d="M10.0088 188V187.004H11.0072V186.004H10.0072V187H9.00879V188H10.0088Z" fill="#EFC2FF"/>
<path d="M10.0088 190V189.004H11.0072V188.004H10.0072V189H9.00879V190H10.0088Z" fill="#EFC2FF"/>
<path d="M10.0088 192V191.004H11.0072V190.004H10.0072V191H9.00879V192H10.0088Z" fill="#EFC2FF"/>
<path d="M14.0093 182.996V183.996H13.0093V182.996H14.0093Z" fill="#EFC2FF"/>
<path d="M14.0093 184.996V185.996H13.0093V184.996H14.0093Z" fill="#EFC2FF"/>
<path d="M14.0093 186.996V187.996H13.0093V186.996H14.0093Z" fill="#EFC2FF"/>
<path d="M14.0093 188.996V189.996H13.0093V188.996H14.0093Z" fill="#EFC2FF"/>
<path d="M14.0093 190.996V191.996H13.0093V190.996H14.0093Z" fill="#EFC2FF"/>
<path d="M12.01 183.996V183.001H13.0089V182.001H12.0089V182.996H11.01V183.996H12.01Z" fill="#EFC2FF"/>
<path d="M12.01 185.996V185.001H13.0089V184.001H12.0089V184.996H11.01V185.996H12.01Z" fill="#EFC2FF"/>
<path d="M12.01 187.996V187.001H13.0089V186.001H12.0089V186.996H11.01V187.996H12.01Z" fill="#EFC2FF"/>
<path d="M12.01 189.996V189.001H13.0089V188.001H12.0089V188.996H11.01V189.996H12.01Z" fill="#EFC2FF"/>
<path d="M12.01 191.996V191.001H13.0089V190.001H12.0089V190.996H11.01V191.996H12.01Z" fill="#EFC2FF"/>
<path d="M11 182H12V181H11V182Z" fill="#EFC2FF"/>
<path d="M13 182H14V181H13V182Z" fill="#EFC2FF"/>
<path d="M1 182.009H0V183.009H1V182.009Z" fill="#EFC2FF"/>
<path d="M3 182.009H2V183.009H3V182.009Z" fill="#EFC2FF"/>
<path d="M1.00598 172V173H0.00598145V172H1.00598Z" fill="#EFC2FF"/>
<path d="M1.00598 174V175H0.00598145V174H1.00598Z" fill="#EFC2FF"/>
<path d="M1.00598 176V177H0.00598145V176H1.00598Z" fill="#EFC2FF"/>
<path d="M1.00598 178V179H0.00598145V178H1.00598Z" fill="#EFC2FF"/>
<path d="M1.00598 180V181H0.00598145V180H1.00598Z" fill="#EFC2FF"/>
<path d="M6.01245 171V172H7.00574V173H6.01245V174H7.00574V175H6.01245V176H7.00574V177H6.01245V178H7.00574V179H6.01245V180H7.00574V181H6.00574V180H5.01245V179H6.00574V178H5.01245V177H6.00574V176H5.01245V175H6.00574V174H5.01245V173H6.00574V172H5.01245V171H6.01245Z" fill="#EFC2FF"/>
<path d="M2.0127 172V171H1.0127V172H2.00598V173H1.0127V174H2.00598V175H1.0127V176H2.00598V177H1.0127V178H2.00598V179H1.0127V180H2.00598V181H3.00598V180H2.0127V179H3.00598V178H2.0127V177H3.00598V176H2.0127V175H3.00598V174H2.0127V173H3.00598V172H2.0127Z" fill="#EFC2FF"/>
<path d="M8.00684 171V172H7.00684V171H8.00684Z" fill="#EFC2FF"/>
<path d="M8.00684 173V174H7.00684V173H8.00684Z" fill="#EFC2FF"/>
<path d="M8.00684 175V176H7.00684V175H8.00684Z" fill="#EFC2FF"/>
<path d="M8.00684 177V178H7.00684V177H8.00684Z" fill="#EFC2FF"/>
<path d="M8.00684 179V180H7.00684V179H8.00684Z" fill="#EFC2FF"/>
<path d="M5.0061 182.009H4.0061V183.009H5.0061V182.009Z" fill="#EFC2FF"/>
<path d="M7.0061 182.009H6.0061V183.009H7.0061V182.009Z" fill="#EFC2FF"/>
<path d="M9.0061 182.009H8.0061V183.009H9.0061V182.009Z" fill="#EFC2FF"/>
<path d="M11.0061 182.009H10.0061V183.009H11.0061V182.009Z" fill="#EFC2FF"/>
<path d="M13.0061 182.009H12.0061V183.009H13.0061V182.009Z" fill="#EFC2FF"/>
<path d="M1.0061 181.002H2.0061V182.002H1.0061V181.002Z" fill="#EFC2FF"/>
<path d="M3.0061 181.002H4.0061V182.002H3.0061V181.002Z" fill="#EFC2FF"/>
<path d="M5.0061 181.002H6.0061V182.002H5.0061V181.002Z" fill="#EFC2FF"/>
<path d="M7.0061 181.002H8.0061V182.002H7.0061V181.002Z" fill="#EFC2FF"/>
<path d="M4.00708 171V172H3.00708V171H4.00708Z" fill="#EFC2FF"/>
<path d="M4.00708 173V174H3.00708V173H4.00708Z" fill="#EFC2FF"/>
<path d="M4.00708 175V176H3.00708V175H4.00708Z" fill="#EFC2FF"/>
<path d="M4.00708 177V178H3.00708V177H4.00708Z" fill="#EFC2FF"/>
<path d="M4.00708 179V180H3.00708V179H4.00708Z" fill="#EFC2FF"/>
<path d="M9.00732 173V172H10V171H9V172H8.00684V173H9.00732Z" fill="#EFC2FF"/>
<path d="M9.00732 175V174H8.00684V175H9.00732Z" fill="#EFC2FF"/>
<path d="M9.00732 177V176H8.00684V177H9.00732Z" fill="#EFC2FF"/>
<path d="M9.00732 179V178H8.00684V179H9.00732Z" fill="#EFC2FF"/>
<path d="M9.00732 181V180H8.00684V181H9.00732Z" fill="#EFC2FF"/>
<path d="M5.00757 172V173H4.00708V172H5.00757Z" fill="#EFC2FF"/>
<path d="M5.00757 174V175H4.00708V174H5.00757Z" fill="#EFC2FF"/>
<path d="M5.00757 176V177H4.00708V176H5.00757Z" fill="#EFC2FF"/>
<path d="M5.00757 178V179H4.00708V178H5.00757Z" fill="#EFC2FF"/>
<path d="M5.00757 180V181H4.00708V180H5.00757Z" fill="#EFC2FF"/>
<path d="M10.0088 174V173.004H11.0072V172.004H10.0072V173H9.00879V174H10.0088Z" fill="#EFC2FF"/>
<path d="M10.0088 176V175.004H11.0072V174.004H10.0072V175H9.00879V176H10.0088Z" fill="#EFC2FF"/>
<path d="M10.0088 178V177.004H11.0072V176.004H10.0072V177H9.00879V178H10.0088Z" fill="#EFC2FF"/>
<path d="M10.0088 180V179.004H11.0072V178.004H10.0072V179H9.00879V180H10.0088Z" fill="#EFC2FF"/>
<path d="M10.0088 182V181.004H11.0072V180.004H10.0072V181H9.00879V182H10.0088Z" fill="#EFC2FF"/>
<path d="M14.0093 172.996V173.996H13.0093V172.996H14.0093Z" fill="#EFC2FF"/>
<path d="M14.0093 174.996V175.996H13.0093V174.996H14.0093Z" fill="#EFC2FF"/>
<path d="M14.0093 176.996V177.996H13.0093V176.996H14.0093Z" fill="#EFC2FF"/>
<path d="M14.0093 178.996V179.996H13.0093V178.996H14.0093Z" fill="#EFC2FF"/>
<path d="M14.0093 180.996V181.996H13.0093V180.996H14.0093Z" fill="#EFC2FF"/>
<path d="M12.01 173.996V173.001H13.0089V172.001H12.0089V172.996H11.01V173.996H12.01Z" fill="#EFC2FF"/>
<path d="M12.01 175.996V175.001H13.0089V174.001H12.0089V174.996H11.01V175.996H12.01Z" fill="#EFC2FF"/>
<path d="M12.01 177.996V177.001H13.0089V176.001H12.0089V176.996H11.01V177.996H12.01Z" fill="#EFC2FF"/>
<path d="M12.01 179.996V179.001H13.0089V178.001H12.0089V178.996H11.01V179.996H12.01Z" fill="#EFC2FF"/>
<path d="M12.01 181.996V181.001H13.0089V180.001H12.0089V180.996H11.01V181.996H12.01Z" fill="#EFC2FF"/>
<path d="M11 172H12V171H11V172Z" fill="#EFC2FF"/>
<path d="M13 172H14V171H13V172Z" fill="#EFC2FF"/>
<path d="M1 172.009H0V173.009H1V172.009Z" fill="#EFC2FF"/>
<path d="M3 172.009H2V173.009H3V172.009Z" fill="#EFC2FF"/>
<path d="M1.00598 162V163H0.00598145V162H1.00598Z" fill="#EFC2FF"/>
<path d="M1.00598 164V165H0.00598145V164H1.00598Z" fill="#EFC2FF"/>
<path d="M1.00598 166V167H0.00598145V166H1.00598Z" fill="#EFC2FF"/>
<path d="M1.00598 168V169H0.00598145V168H1.00598Z" fill="#EFC2FF"/>
<path d="M1.00598 170V171H0.00598145V170H1.00598Z" fill="#EFC2FF"/>
<path d="M6.01245 161V162H7.00574V163H6.01245V164H7.00574V165H6.01245V166H7.00574V167H6.01245V168H7.00574V169H6.01245V170H7.00574V171H6.00574V170H5.01245V169H6.00574V168H5.01245V167H6.00574V166H5.01245V165H6.00574V164H5.01245V163H6.00574V162H5.01245V161H6.01245Z" fill="#EFC2FF"/>
<path d="M2.0127 162V161H1.0127V162H2.00598V163H1.0127V164H2.00598V165H1.0127V166H2.00598V167H1.0127V168H2.00598V169H1.0127V170H2.00598V171H3.00598V170H2.0127V169H3.00598V168H2.0127V167H3.00598V166H2.0127V165H3.00598V164H2.0127V163H3.00598V162H2.0127Z" fill="#EFC2FF"/>
<path d="M8.00684 161V162H7.00684V161H8.00684Z" fill="#EFC2FF"/>
<path d="M8.00684 163V164H7.00684V163H8.00684Z" fill="#EFC2FF"/>
<path d="M8.00684 165V166H7.00684V165H8.00684Z" fill="#EFC2FF"/>
<path d="M8.00684 167V168H7.00684V167H8.00684Z" fill="#EFC2FF"/>
<path d="M8.00684 169V170H7.00684V169H8.00684Z" fill="#EFC2FF"/>
<path d="M5.0061 172.009H4.0061V173.009H5.0061V172.009Z" fill="#EFC2FF"/>
<path d="M7.0061 172.009H6.0061V173.009H7.0061V172.009Z" fill="#EFC2FF"/>
<path d="M9.0061 172.009H8.0061V173.009H9.0061V172.009Z" fill="#EFC2FF"/>
<path d="M11.0061 172.009H10.0061V173.009H11.0061V172.009Z" fill="#EFC2FF"/>
<path d="M13.0061 172.009H12.0061V173.009H13.0061V172.009Z" fill="#EFC2FF"/>
<path d="M1.0061 171.002H2.0061V172.002H1.0061V171.002Z" fill="#EFC2FF"/>
<path d="M3.0061 171.002H4.0061V172.002H3.0061V171.002Z" fill="#EFC2FF"/>
<path d="M5.0061 171.002H6.0061V172.002H5.0061V171.002Z" fill="#EFC2FF"/>
<path d="M7.0061 171.002H8.0061V172.002H7.0061V171.002Z" fill="#EFC2FF"/>
<path d="M4.00708 161V162H3.00708V161H4.00708Z" fill="#EFC2FF"/>
<path d="M4.00708 163V164H3.00708V163H4.00708Z" fill="#EFC2FF"/>
<path d="M4.00708 165V166H3.00708V165H4.00708Z" fill="#EFC2FF"/>
<path d="M4.00708 167V168H3.00708V167H4.00708Z" fill="#EFC2FF"/>
<path d="M4.00708 169V170H3.00708V169H4.00708Z" fill="#EFC2FF"/>
<path d="M9.00732 163V162H10V161H9V162H8.00684V163H9.00732Z" fill="#EFC2FF"/>
<path d="M9.00732 165V164H8.00684V165H9.00732Z" fill="#EFC2FF"/>
<path d="M9.00732 167V166H8.00684V167H9.00732Z" fill="#EFC2FF"/>
<path d="M9.00732 169V168H8.00684V169H9.00732Z" fill="#EFC2FF"/>
<path d="M9.00732 171V170H8.00684V171H9.00732Z" fill="#EFC2FF"/>
<path d="M5.00757 162V163H4.00708V162H5.00757Z" fill="#EFC2FF"/>
<path d="M5.00757 164V165H4.00708V164H5.00757Z" fill="#EFC2FF"/>
<path d="M5.00757 166V167H4.00708V166H5.00757Z" fill="#EFC2FF"/>
<path d="M5.00757 168V169H4.00708V168H5.00757Z" fill="#EFC2FF"/>
<path d="M5.00757 170V171H4.00708V170H5.00757Z" fill="#EFC2FF"/>
<path d="M10.0088 164V163.004H11.0072V162.004H10.0072V163H9.00879V164H10.0088Z" fill="#EFC2FF"/>
<path d="M10.0088 166V165.004H11.0072V164.004H10.0072V165H9.00879V166H10.0088Z" fill="#EFC2FF"/>
<path d="M10.0088 168V167.004H11.0072V166.004H10.0072V167H9.00879V168H10.0088Z" fill="#EFC2FF"/>
<path d="M10.0088 170V169.004H11.0072V168.004H10.0072V169H9.00879V170H10.0088Z" fill="#EFC2FF"/>
<path d="M10.0088 172V171.004H11.0072V170.004H10.0072V171H9.00879V172H10.0088Z" fill="#EFC2FF"/>
<path d="M14.0093 162.996V163.996H13.0093V162.996H14.0093Z" fill="#EFC2FF"/>
<path d="M14.0093 164.996V165.996H13.0093V164.996H14.0093Z" fill="#EFC2FF"/>
<path d="M14.0093 166.996V167.996H13.0093V166.996H14.0093Z" fill="#EFC2FF"/>
<path d="M14.0093 168.996V169.996H13.0093V168.996H14.0093Z" fill="#EFC2FF"/>
<path d="M14.0093 170.996V171.996H13.0093V170.996H14.0093Z" fill="#EFC2FF"/>
<path d="M12.01 163.996V163.001H13.0089V162.001H12.0089V162.996H11.01V163.996H12.01Z" fill="#EFC2FF"/>
<path d="M12.01 165.996V165.001H13.0089V164.001H12.0089V164.996H11.01V165.996H12.01Z" fill="#EFC2FF"/>
<path d="M12.01 167.996V167.001H13.0089V166.001H12.0089V166.996H11.01V167.996H12.01Z" fill="#EFC2FF"/>
<path d="M12.01 169.996V169.001H13.0089V168.001H12.0089V168.996H11.01V169.996H12.01Z" fill="#EFC2FF"/>
<path d="M12.01 171.996V171.001H13.0089V170.001H12.0089V170.996H11.01V171.996H12.01Z" fill="#EFC2FF"/>
<path d="M11 162H12V161H11V162Z" fill="#EFC2FF"/>
<path d="M13 162H14V161H13V162Z" fill="#EFC2FF"/>
<path d="M1 162.009H0V163.009H1V162.009Z" fill="#EFC2FF"/>
<path d="M3 162.009H2V163.009H3V162.009Z" fill="#EFC2FF"/>
<path d="M1.00598 152V153H0.00598145V152H1.00598Z" fill="#EFC2FF"/>
<path d="M1.00598 154V155H0.00598145V154H1.00598Z" fill="#EFC2FF"/>
<path d="M1.00598 156V157H0.00598145V156H1.00598Z" fill="#EFC2FF"/>
<path d="M1.00598 158V159H0.00598145V158H1.00598Z" fill="#EFC2FF"/>
<path d="M1.00598 160V161H0.00598145V160H1.00598Z" fill="#EFC2FF"/>
<path d="M6.01245 151V152H7.00574V153H6.01245V154H7.00574V155H6.01245V156H7.00574V157H6.01245V158H7.00574V159H6.01245V160H7.00574V161H6.00574V160H5.01245V159H6.00574V158H5.01245V157H6.00574V156H5.01245V155H6.00574V154H5.01245V153H6.00574V152H5.01245V151H6.01245Z" fill="#EFC2FF"/>
<path d="M2.0127 152V151H1.0127V152H2.00598V153H1.0127V154H2.00598V155H1.0127V156H2.00598V157H1.0127V158H2.00598V159H1.0127V160H2.00598V161H3.00598V160H2.0127V159H3.00598V158H2.0127V157H3.00598V156H2.0127V155H3.00598V154H2.0127V153H3.00598V152H2.0127Z" fill="#EFC2FF"/>
<path d="M8.00684 151V152H7.00684V151H8.00684Z" fill="#EFC2FF"/>
<path d="M8.00684 153V154H7.00684V153H8.00684Z" fill="#EFC2FF"/>
<path d="M8.00684 155V156H7.00684V155H8.00684Z" fill="#EFC2FF"/>
<path d="M8.00684 157V158H7.00684V157H8.00684Z" fill="#EFC2FF"/>
<path d="M8.00684 159V160H7.00684V159H8.00684Z" fill="#EFC2FF"/>
<path d="M5.0061 162.009H4.0061V163.009H5.0061V162.009Z" fill="#EFC2FF"/>
<path d="M7.0061 162.009H6.0061V163.009H7.0061V162.009Z" fill="#EFC2FF"/>
<path d="M9.0061 162.009H8.0061V163.009H9.0061V162.009Z" fill="#EFC2FF"/>
<path d="M11.0061 162.009H10.0061V163.009H11.0061V162.009Z" fill="#EFC2FF"/>
<path d="M13.0061 162.009H12.0061V163.009H13.0061V162.009Z" fill="#EFC2FF"/>
<path d="M1.0061 161.002H2.0061V162.002H1.0061V161.002Z" fill="#EFC2FF"/>
<path d="M3.0061 161.002H4.0061V162.002H3.0061V161.002Z" fill="#EFC2FF"/>
<path d="M5.0061 161.002H6.0061V162.002H5.0061V161.002Z" fill="#EFC2FF"/>
<path d="M7.0061 161.002H8.0061V162.002H7.0061V161.002Z" fill="#EFC2FF"/>
<path d="M4.00708 151V152H3.00708V151H4.00708Z" fill="#EFC2FF"/>
<path d="M4.00708 153V154H3.00708V153H4.00708Z" fill="#EFC2FF"/>
<path d="M4.00708 155V156H3.00708V155H4.00708Z" fill="#EFC2FF"/>
<path d="M4.00708 157V158H3.00708V157H4.00708Z" fill="#EFC2FF"/>
<path d="M4.00708 159V160H3.00708V159H4.00708Z" fill="#EFC2FF"/>
<path d="M9.00732 153V152H10V151H9V152H8.00684V153H9.00732Z" fill="#EFC2FF"/>
<path d="M9.00732 155V154H8.00684V155H9.00732Z" fill="#EFC2FF"/>
<path d="M9.00732 157V156H8.00684V157H9.00732Z" fill="#EFC2FF"/>
<path d="M9.00732 159V158H8.00684V159H9.00732Z" fill="#EFC2FF"/>
<path d="M9.00732 161V160H8.00684V161H9.00732Z" fill="#EFC2FF"/>
<path d="M5.00757 152V153H4.00708V152H5.00757Z" fill="#EFC2FF"/>
<path d="M5.00757 154V155H4.00708V154H5.00757Z" fill="#EFC2FF"/>
<path d="M5.00757 156V157H4.00708V156H5.00757Z" fill="#EFC2FF"/>
<path d="M5.00757 158V159H4.00708V158H5.00757Z" fill="#EFC2FF"/>
<path d="M5.00757 160V161H4.00708V160H5.00757Z" fill="#EFC2FF"/>
<path d="M10.0088 154V153.004H11.0072V152.004H10.0072V153H9.00879V154H10.0088Z" fill="#EFC2FF"/>
<path d="M10.0088 156V155.004H11.0072V154.004H10.0072V155H9.00879V156H10.0088Z" fill="#EFC2FF"/>
<path d="M10.0088 158V157.004H11.0072V156.004H10.0072V157H9.00879V158H10.0088Z" fill="#EFC2FF"/>
<path d="M10.0088 160V159.004H11.0072V158.004H10.0072V159H9.00879V160H10.0088Z" fill="#EFC2FF"/>
<path d="M10.0088 162V161.004H11.0072V160.004H10.0072V161H9.00879V162H10.0088Z" fill="#EFC2FF"/>
<path d="M14.0093 152.996V153.996H13.0093V152.996H14.0093Z" fill="#EFC2FF"/>
<path d="M14.0093 154.996V155.996H13.0093V154.996H14.0093Z" fill="#EFC2FF"/>
<path d="M14.0093 156.996V157.996H13.0093V156.996H14.0093Z" fill="#EFC2FF"/>
<path d="M14.0093 158.996V159.996H13.0093V158.996H14.0093Z" fill="#EFC2FF"/>
<path d="M14.0093 160.996V161.996H13.0093V160.996H14.0093Z" fill="#EFC2FF"/>
<path d="M12.01 153.996V153.001H13.0089V152.001H12.0089V152.996H11.01V153.996H12.01Z" fill="#EFC2FF"/>
<path d="M12.01 155.996V155.001H13.0089V154.001H12.0089V154.996H11.01V155.996H12.01Z" fill="#EFC2FF"/>
<path d="M12.01 157.996V157.001H13.0089V156.001H12.0089V156.996H11.01V157.996H12.01Z" fill="#EFC2FF"/>
<path d="M12.01 159.996V159.001H13.0089V158.001H12.0089V158.996H11.01V159.996H12.01Z" fill="#EFC2FF"/>
<path d="M12.01 161.996V161.001H13.0089V160.001H12.0089V160.996H11.01V161.996H12.01Z" fill="#EFC2FF"/>
<path d="M11 152H12V151H11V152Z" fill="#EFC2FF"/>
<path d="M13 152H14V151H13V152Z" fill="#EFC2FF"/>
<path d="M1 152.009H0V153.009H1V152.009Z" fill="#EFC2FF"/>
<path d="M3 152.009H2V153.009H3V152.009Z" fill="#EFC2FF"/>
<path d="M1.00598 142V143H0.00598145V142H1.00598Z" fill="#EFC2FF"/>
<path d="M1.00598 144V145H0.00598145V144H1.00598Z" fill="#EFC2FF"/>
<path d="M1.00598 146V147H0.00598145V146H1.00598Z" fill="#EFC2FF"/>
<path d="M1.00598 148V149H0.00598145V148H1.00598Z" fill="#EFC2FF"/>
<path d="M1.00598 150V151H0.00598145V150H1.00598Z" fill="#EFC2FF"/>
<path d="M6.01245 141V142H7.00574V143H6.01245V144H7.00574V145H6.01245V146H7.00574V147H6.01245V148H7.00574V149H6.01245V150H7.00574V151H6.00574V150H5.01245V149H6.00574V148H5.01245V147H6.00574V146H5.01245V145H6.00574V144H5.01245V143H6.00574V142H5.01245V141H6.01245Z" fill="#EFC2FF"/>
<path d="M2.0127 142V141H1.0127V142H2.00598V143H1.0127V144H2.00598V145H1.0127V146H2.00598V147H1.0127V148H2.00598V149H1.0127V150H2.00598V151H3.00598V150H2.0127V149H3.00598V148H2.0127V147H3.00598V146H2.0127V145H3.00598V144H2.0127V143H3.00598V142H2.0127Z" fill="#EFC2FF"/>
<path d="M8.00684 141V142H7.00684V141H8.00684Z" fill="#EFC2FF"/>
<path d="M8.00684 143V144H7.00684V143H8.00684Z" fill="#EFC2FF"/>
<path d="M8.00684 145V146H7.00684V145H8.00684Z" fill="#EFC2FF"/>
<path d="M8.00684 147V148H7.00684V147H8.00684Z" fill="#EFC2FF"/>
<path d="M8.00684 149V150H7.00684V149H8.00684Z" fill="#EFC2FF"/>
<path d="M5.0061 152.009H4.0061V153.009H5.0061V152.009Z" fill="#EFC2FF"/>
<path d="M7.0061 152.009H6.0061V153.009H7.0061V152.009Z" fill="#EFC2FF"/>
<path d="M9.0061 152.009H8.0061V153.009H9.0061V152.009Z" fill="#EFC2FF"/>
<path d="M11.0061 152.009H10.0061V153.009H11.0061V152.009Z" fill="#EFC2FF"/>
<path d="M13.0061 152.009H12.0061V153.009H13.0061V152.009Z" fill="#EFC2FF"/>
<path d="M1.0061 151.002H2.0061V152.002H1.0061V151.002Z" fill="#EFC2FF"/>
<path d="M3.0061 151.002H4.0061V152.002H3.0061V151.002Z" fill="#EFC2FF"/>
<path d="M5.0061 151.002H6.0061V152.002H5.0061V151.002Z" fill="#EFC2FF"/>
<path d="M7.0061 151.002H8.0061V152.002H7.0061V151.002Z" fill="#EFC2FF"/>
<path d="M4.00708 141V142H3.00708V141H4.00708Z" fill="#EFC2FF"/>
<path d="M4.00708 143V144H3.00708V143H4.00708Z" fill="#EFC2FF"/>
<path d="M4.00708 145V146H3.00708V145H4.00708Z" fill="#EFC2FF"/>
<path d="M4.00708 147V148H3.00708V147H4.00708Z" fill="#EFC2FF"/>
<path d="M4.00708 149V150H3.00708V149H4.00708Z" fill="#EFC2FF"/>
<path d="M9.00732 143V142H10V141H9V142H8.00684V143H9.00732Z" fill="#EFC2FF"/>
<path d="M9.00732 145V144H8.00684V145H9.00732Z" fill="#EFC2FF"/>
<path d="M9.00732 147V146H8.00684V147H9.00732Z" fill="#EFC2FF"/>
<path d="M9.00732 149V148H8.00684V149H9.00732Z" fill="#EFC2FF"/>
<path d="M9.00732 151V150H8.00684V151H9.00732Z" fill="#EFC2FF"/>
<path d="M5.00757 142V143H4.00708V142H5.00757Z" fill="#EFC2FF"/>
<path d="M5.00757 144V145H4.00708V144H5.00757Z" fill="#EFC2FF"/>
<path d="M5.00757 146V147H4.00708V146H5.00757Z" fill="#EFC2FF"/>
<path d="M5.00757 148V149H4.00708V148H5.00757Z" fill="#EFC2FF"/>
<path d="M5.00757 150V151H4.00708V150H5.00757Z" fill="#EFC2FF"/>
<path d="M10.0088 144V143.004H11.0072V142.004H10.0072V143H9.00879V144H10.0088Z" fill="#EFC2FF"/>
<path d="M10.0088 146V145.004H11.0072V144.004H10.0072V145H9.00879V146H10.0088Z" fill="#EFC2FF"/>
<path d="M10.0088 148V147.004H11.0072V146.004H10.0072V147H9.00879V148H10.0088Z" fill="#EFC2FF"/>
<path d="M10.0088 150V149.004H11.0072V148.004H10.0072V149H9.00879V150H10.0088Z" fill="#EFC2FF"/>
<path d="M10.0088 152V151.004H11.0072V150.004H10.0072V151H9.00879V152H10.0088Z" fill="#EFC2FF"/>
<path d="M14.0093 142.996V143.996H13.0093V142.996H14.0093Z" fill="#EFC2FF"/>
<path d="M14.0093 144.996V145.996H13.0093V144.996H14.0093Z" fill="#EFC2FF"/>
<path d="M14.0093 146.996V147.996H13.0093V146.996H14.0093Z" fill="#EFC2FF"/>
<path d="M14.0093 148.996V149.996H13.0093V148.996H14.0093Z" fill="#EFC2FF"/>
<path d="M14.0093 150.996V151.996H13.0093V150.996H14.0093Z" fill="#EFC2FF"/>
<path d="M12.01 143.996V143.001H13.0089V142.001H12.0089V142.996H11.01V143.996H12.01Z" fill="#EFC2FF"/>
<path d="M12.01 145.996V145.001H13.0089V144.001H12.0089V144.996H11.01V145.996H12.01Z" fill="#EFC2FF"/>
<path d="M12.01 147.996V147.001H13.0089V146.001H12.0089V146.996H11.01V147.996H12.01Z" fill="#EFC2FF"/>
<path d="M12.01 149.996V149.001H13.0089V148.001H12.0089V148.996H11.01V149.996H12.01Z" fill="#EFC2FF"/>
<path d="M12.01 151.996V151.001H13.0089V150.001H12.0089V150.996H11.01V151.996H12.01Z" fill="#EFC2FF"/>
<path d="M11 142H12V141H11V142Z" fill="#EFC2FF"/>
<path d="M13 142H14V141H13V142Z" fill="#EFC2FF"/>
<path d="M1 142.009H0V143.009H1V142.009Z" fill="#EFC2FF"/>
<path d="M3 142.009H2V143.009H3V142.009Z" fill="#EFC2FF"/>
<path d="M1.00598 132V133H0.00598145V132H1.00598Z" fill="#EFC2FF"/>
<path d="M1.00598 134V135H0.00598145V134H1.00598Z" fill="#EFC2FF"/>
<path d="M1.00598 136V137H0.00598145V136H1.00598Z" fill="#EFC2FF"/>
<path d="M1.00598 138V139H0.00598145V138H1.00598Z" fill="#EFC2FF"/>
<path d="M1.00598 140V141H0.00598145V140H1.00598Z" fill="#EFC2FF"/>
<path d="M6.01245 131V132H7.00574V133H6.01245V134H7.00574V135H6.01245V136H7.00574V137H6.01245V138H7.00574V139H6.01245V140H7.00574V141H6.00574V140H5.01245V139H6.00574V138H5.01245V137H6.00574V136H5.01245V135H6.00574V134H5.01245V133H6.00574V132H5.01245V131H6.01245Z" fill="#EFC2FF"/>
<path d="M2.0127 132V131H1.0127V132H2.00598V133H1.0127V134H2.00598V135H1.0127V136H2.00598V137H1.0127V138H2.00598V139H1.0127V140H2.00598V141H3.00598V140H2.0127V139H3.00598V138H2.0127V137H3.00598V136H2.0127V135H3.00598V134H2.0127V133H3.00598V132H2.0127Z" fill="#EFC2FF"/>
<path d="M8.00684 131V132H7.00684V131H8.00684Z" fill="#EFC2FF"/>
<path d="M8.00684 133V134H7.00684V133H8.00684Z" fill="#EFC2FF"/>
<path d="M8.00684 135V136H7.00684V135H8.00684Z" fill="#EFC2FF"/>
<path d="M8.00684 137V138H7.00684V137H8.00684Z" fill="#EFC2FF"/>
<path d="M8.00684 139V140H7.00684V139H8.00684Z" fill="#EFC2FF"/>
<path d="M5.0061 142.009H4.0061V143.009H5.0061V142.009Z" fill="#EFC2FF"/>
<path d="M7.0061 142.009H6.0061V143.009H7.0061V142.009Z" fill="#EFC2FF"/>
<path d="M9.0061 142.009H8.0061V143.009H9.0061V142.009Z" fill="#EFC2FF"/>
<path d="M11.0061 142.009H10.0061V143.009H11.0061V142.009Z" fill="#EFC2FF"/>
<path d="M13.0061 142.009H12.0061V143.009H13.0061V142.009Z" fill="#EFC2FF"/>
<path d="M1.0061 141.002H2.0061V142.002H1.0061V141.002Z" fill="#EFC2FF"/>
<path d="M3.0061 141.002H4.0061V142.002H3.0061V141.002Z" fill="#EFC2FF"/>
<path d="M5.0061 141.002H6.0061V142.002H5.0061V141.002Z" fill="#EFC2FF"/>
<path d="M7.0061 141.002H8.0061V142.002H7.0061V141.002Z" fill="#EFC2FF"/>
<path d="M4.00708 131V132H3.00708V131H4.00708Z" fill="#EFC2FF"/>
<path d="M4.00708 133V134H3.00708V133H4.00708Z" fill="#EFC2FF"/>
<path d="M4.00708 135V136H3.00708V135H4.00708Z" fill="#EFC2FF"/>
<path d="M4.00708 137V138H3.00708V137H4.00708Z" fill="#EFC2FF"/>
<path d="M4.00708 139V140H3.00708V139H4.00708Z" fill="#EFC2FF"/>
<path d="M9.00732 133V132H10V131H9V132H8.00684V133H9.00732Z" fill="#EFC2FF"/>
<path d="M9.00732 135V134H8.00684V135H9.00732Z" fill="#EFC2FF"/>
<path d="M9.00732 137V136H8.00684V137H9.00732Z" fill="#EFC2FF"/>
<path d="M9.00732 139V138H8.00684V139H9.00732Z" fill="#EFC2FF"/>
<path d="M9.00732 141V140H8.00684V141H9.00732Z" fill="#EFC2FF"/>
<path d="M5.00757 132V133H4.00708V132H5.00757Z" fill="#EFC2FF"/>
<path d="M5.00757 134V135H4.00708V134H5.00757Z" fill="#EFC2FF"/>
<path d="M5.00757 136V137H4.00708V136H5.00757Z" fill="#EFC2FF"/>
<path d="M5.00757 138V139H4.00708V138H5.00757Z" fill="#EFC2FF"/>
<path d="M5.00757 140V141H4.00708V140H5.00757Z" fill="#EFC2FF"/>
<path d="M10.0088 134V133.004H11.0072V132.004H10.0072V133H9.00879V134H10.0088Z" fill="#EFC2FF"/>
<path d="M10.0088 136V135.004H11.0072V134.004H10.0072V135H9.00879V136H10.0088Z" fill="#EFC2FF"/>
<path d="M10.0088 138V137.004H11.0072V136.004H10.0072V137H9.00879V138H10.0088Z" fill="#EFC2FF"/>
<path d="M10.0088 140V139.004H11.0072V138.004H10.0072V139H9.00879V140H10.0088Z" fill="#EFC2FF"/>
<path d="M10.0088 142V141.004H11.0072V140.004H10.0072V141H9.00879V142H10.0088Z" fill="#EFC2FF"/>
<path d="M14.0093 132.996V133.996H13.0093V132.996H14.0093Z" fill="#EFC2FF"/>
<path d="M14.0093 134.996V135.996H13.0093V134.996H14.0093Z" fill="#EFC2FF"/>
<path d="M14.0093 136.996V137.996H13.0093V136.996H14.0093Z" fill="#EFC2FF"/>
<path d="M14.0093 138.996V139.996H13.0093V138.996H14.0093Z" fill="#EFC2FF"/>
<path d="M14.0093 140.996V141.996H13.0093V140.996H14.0093Z" fill="#EFC2FF"/>
<path d="M12.01 133.996V133.001H13.0089V132.001H12.0089V132.996H11.01V133.996H12.01Z" fill="#EFC2FF"/>
<path d="M12.01 135.996V135.001H13.0089V134.001H12.0089V134.996H11.01V135.996H12.01Z" fill="#EFC2FF"/>
<path d="M12.01 137.996V137.001H13.0089V136.001H12.0089V136.996H11.01V137.996H12.01Z" fill="#EFC2FF"/>
<path d="M12.01 139.996V139.001H13.0089V138.001H12.0089V138.996H11.01V139.996H12.01Z" fill="#EFC2FF"/>
<path d="M12.01 141.996V141.001H13.0089V140.001H12.0089V140.996H11.01V141.996H12.01Z" fill="#EFC2FF"/>
<path d="M11 132H12V131H11V132Z" fill="#EFC2FF"/>
<path d="M13 132H14V131H13V132Z" fill="#EFC2FF"/>
<path d="M1 132.009H0V133.009H1V132.009Z" fill="#EFC2FF"/>
<path d="M3 132.009H2V133.009H3V132.009Z" fill="#EFC2FF"/>
<path d="M1.00598 122V123H0.00598145V122H1.00598Z" fill="#EFC2FF"/>
<path d="M1.00598 124V125H0.00598145V124H1.00598Z" fill="#EFC2FF"/>
<path d="M1.00598 126V127H0.00598145V126H1.00598Z" fill="#EFC2FF"/>
<path d="M1.00598 128V129H0.00598145V128H1.00598Z" fill="#EFC2FF"/>
<path d="M1.00598 130V131H0.00598145V130H1.00598Z" fill="#EFC2FF"/>
<path d="M6.01245 121V122H7.00574V123H6.01245V124H7.00574V125H6.01245V126H7.00574V127H6.01245V128H7.00574V129H6.01245V130H7.00574V131H6.00574V130H5.01245V129H6.00574V128H5.01245V127H6.00574V126H5.01245V125H6.00574V124H5.01245V123H6.00574V122H5.01245V121H6.01245Z" fill="#EFC2FF"/>
<path d="M2.0127 122V121H1.0127V122H2.00598V123H1.0127V124H2.00598V125H1.0127V126H2.00598V127H1.0127V128H2.00598V129H1.0127V130H2.00598V131H3.00598V130H2.0127V129H3.00598V128H2.0127V127H3.00598V126H2.0127V125H3.00598V124H2.0127V123H3.00598V122H2.0127Z" fill="#EFC2FF"/>
<path d="M8.00684 121V122H7.00684V121H8.00684Z" fill="#EFC2FF"/>
<path d="M8.00684 123V124H7.00684V123H8.00684Z" fill="#EFC2FF"/>
<path d="M8.00684 125V126H7.00684V125H8.00684Z" fill="#EFC2FF"/>
<path d="M8.00684 127V128H7.00684V127H8.00684Z" fill="#EFC2FF"/>
<path d="M8.00684 129V130H7.00684V129H8.00684Z" fill="#EFC2FF"/>
<path d="M5.0061 132.009H4.0061V133.009H5.0061V132.009Z" fill="#EFC2FF"/>
<path d="M7.0061 132.009H6.0061V133.009H7.0061V132.009Z" fill="#EFC2FF"/>
<path d="M9.0061 132.009H8.0061V133.009H9.0061V132.009Z" fill="#EFC2FF"/>
<path d="M11.0061 132.009H10.0061V133.009H11.0061V132.009Z" fill="#EFC2FF"/>
<path d="M13.0061 132.009H12.0061V133.009H13.0061V132.009Z" fill="#EFC2FF"/>
<path d="M1.0061 131.002H2.0061V132.002H1.0061V131.002Z" fill="#EFC2FF"/>
<path d="M3.0061 131.002H4.0061V132.002H3.0061V131.002Z" fill="#EFC2FF"/>
<path d="M5.0061 131.002H6.0061V132.002H5.0061V131.002Z" fill="#EFC2FF"/>
<path d="M7.0061 131.002H8.0061V132.002H7.0061V131.002Z" fill="#EFC2FF"/>
<path d="M4.00708 121V122H3.00708V121H4.00708Z" fill="#EFC2FF"/>
<path d="M4.00708 123V124H3.00708V123H4.00708Z" fill="#EFC2FF"/>
<path d="M4.00708 125V126H3.00708V125H4.00708Z" fill="#EFC2FF"/>
<path d="M4.00708 127V128H3.00708V127H4.00708Z" fill="#EFC2FF"/>
<path d="M4.00708 129V130H3.00708V129H4.00708Z" fill="#EFC2FF"/>
<path d="M9.00732 123V122H10V121H9V122H8.00684V123H9.00732Z" fill="#EFC2FF"/>
<path d="M9.00732 125V124H8.00684V125H9.00732Z" fill="#EFC2FF"/>
<path d="M9.00732 127V126H8.00684V127H9.00732Z" fill="#EFC2FF"/>
<path d="M9.00732 129V128H8.00684V129H9.00732Z" fill="#EFC2FF"/>
<path d="M9.00732 131V130H8.00684V131H9.00732Z" fill="#EFC2FF"/>
<path d="M5.00757 122V123H4.00708V122H5.00757Z" fill="#EFC2FF"/>
<path d="M5.00757 124V125H4.00708V124H5.00757Z" fill="#EFC2FF"/>
<path d="M5.00757 126V127H4.00708V126H5.00757Z" fill="#EFC2FF"/>
<path d="M5.00757 128V129H4.00708V128H5.00757Z" fill="#EFC2FF"/>
<path d="M5.00757 130V131H4.00708V130H5.00757Z" fill="#EFC2FF"/>
<path d="M10.0088 124V123.004H11.0072V122.004H10.0072V123H9.00879V124H10.0088Z" fill="#EFC2FF"/>
<path d="M10.0088 126V125.004H11.0072V124.004H10.0072V125H9.00879V126H10.0088Z" fill="#EFC2FF"/>
<path d="M10.0088 128V127.004H11.0072V126.004H10.0072V127H9.00879V128H10.0088Z" fill="#EFC2FF"/>
<path d="M10.0088 130V129.004H11.0072V128.004H10.0072V129H9.00879V130H10.0088Z" fill="#EFC2FF"/>
<path d="M10.0088 132V131.004H11.0072V130.004H10.0072V131H9.00879V132H10.0088Z" fill="#EFC2FF"/>
<path d="M14.0093 122.996V123.996H13.0093V122.996H14.0093Z" fill="#EFC2FF"/>
<path d="M14.0093 124.996V125.996H13.0093V124.996H14.0093Z" fill="#EFC2FF"/>
<path d="M14.0093 126.996V127.996H13.0093V126.996H14.0093Z" fill="#EFC2FF"/>
<path d="M14.0093 128.996V129.996H13.0093V128.996H14.0093Z" fill="#EFC2FF"/>
<path d="M14.0093 130.996V131.996H13.0093V130.996H14.0093Z" fill="#EFC2FF"/>
<path d="M12.01 123.996V123.001H13.0089V122.001H12.0089V122.996H11.01V123.996H12.01Z" fill="#EFC2FF"/>
<path d="M12.01 125.996V125.001H13.0089V124.001H12.0089V124.996H11.01V125.996H12.01Z" fill="#EFC2FF"/>
<path d="M12.01 127.996V127.001H13.0089V126.001H12.0089V126.996H11.01V127.996H12.01Z" fill="#EFC2FF"/>
<path d="M12.01 129.996V129.001H13.0089V128.001H12.0089V128.996H11.01V129.996H12.01Z" fill="#EFC2FF"/>
<path d="M12.01 131.996V131.001H13.0089V130.001H12.0089V130.996H11.01V131.996H12.01Z" fill="#EFC2FF"/>
<path d="M11 122H12V121H11V122Z" fill="#EFC2FF"/>
<path d="M13 122H14V121H13V122Z" fill="#EFC2FF"/>
<path d="M1 122.009H0V123.009H1V122.009Z" fill="#EFC2FF"/>
<path d="M3 122.009H2V123.009H3V122.009Z" fill="#EFC2FF"/>
<path d="M1.00598 112V113H0.00598145V112H1.00598Z" fill="#EFC2FF"/>
<path d="M1.00598 114V115H0.00598145V114H1.00598Z" fill="#EFC2FF"/>
<path d="M1.00598 116V117H0.00598145V116H1.00598Z" fill="#EFC2FF"/>
<path d="M1.00598 118V119H0.00598145V118H1.00598Z" fill="#EFC2FF"/>
<path d="M1.00598 120V121H0.00598145V120H1.00598Z" fill="#EFC2FF"/>
<path d="M6.01245 111V112H7.00574V113H6.01245V114H7.00574V115H6.01245V116H7.00574V117H6.01245V118H7.00574V119H6.01245V120H7.00574V121H6.00574V120H5.01245V119H6.00574V118H5.01245V117H6.00574V116H5.01245V115H6.00574V114H5.01245V113H6.00574V112H5.01245V111H6.01245Z" fill="#EFC2FF"/>
<path d="M2.0127 112V111H1.0127V112H2.00598V113H1.0127V114H2.00598V115H1.0127V116H2.00598V117H1.0127V118H2.00598V119H1.0127V120H2.00598V121H3.00598V120H2.0127V119H3.00598V118H2.0127V117H3.00598V116H2.0127V115H3.00598V114H2.0127V113H3.00598V112H2.0127Z" fill="#EFC2FF"/>
<path d="M8.00684 111V112H7.00684V111H8.00684Z" fill="#EFC2FF"/>
<path d="M8.00684 113V114H7.00684V113H8.00684Z" fill="#EFC2FF"/>
<path d="M8.00684 115V116H7.00684V115H8.00684Z" fill="#EFC2FF"/>
<path d="M8.00684 117V118H7.00684V117H8.00684Z" fill="#EFC2FF"/>
<path d="M8.00684 119V120H7.00684V119H8.00684Z" fill="#EFC2FF"/>
<path d="M5.0061 122.009H4.0061V123.009H5.0061V122.009Z" fill="#EFC2FF"/>
<path d="M7.0061 122.009H6.0061V123.009H7.0061V122.009Z" fill="#EFC2FF"/>
<path d="M9.0061 122.009H8.0061V123.009H9.0061V122.009Z" fill="#EFC2FF"/>
<path d="M11.0061 122.009H10.0061V123.009H11.0061V122.009Z" fill="#EFC2FF"/>
<path d="M13.0061 122.009H12.0061V123.009H13.0061V122.009Z" fill="#EFC2FF"/>
<path d="M1.0061 121.002H2.0061V122.002H1.0061V121.002Z" fill="#EFC2FF"/>
<path d="M3.0061 121.002H4.0061V122.002H3.0061V121.002Z" fill="#EFC2FF"/>
<path d="M5.0061 121.002H6.0061V122.002H5.0061V121.002Z" fill="#EFC2FF"/>
<path d="M7.0061 121.002H8.0061V122.002H7.0061V121.002Z" fill="#EFC2FF"/>
<path d="M4.00708 111V112H3.00708V111H4.00708Z" fill="#EFC2FF"/>
<path d="M4.00708 113V114H3.00708V113H4.00708Z" fill="#EFC2FF"/>
<path d="M4.00708 115V116H3.00708V115H4.00708Z" fill="#EFC2FF"/>
<path d="M4.00708 117V118H3.00708V117H4.00708Z" fill="#EFC2FF"/>
<path d="M4.00708 119V120H3.00708V119H4.00708Z" fill="#EFC2FF"/>
<path d="M9.00732 113V112H10V111H9V112H8.00684V113H9.00732Z" fill="#EFC2FF"/>
<path d="M9.00732 115V114H8.00684V115H9.00732Z" fill="#EFC2FF"/>
<path d="M9.00732 117V116H8.00684V117H9.00732Z" fill="#EFC2FF"/>
<path d="M9.00732 119V118H8.00684V119H9.00732Z" fill="#EFC2FF"/>
<path d="M9.00732 121V120H8.00684V121H9.00732Z" fill="#EFC2FF"/>
<path d="M5.00757 112V113H4.00708V112H5.00757Z" fill="#EFC2FF"/>
<path d="M5.00757 114V115H4.00708V114H5.00757Z" fill="#EFC2FF"/>
<path d="M5.00757 116V117H4.00708V116H5.00757Z" fill="#EFC2FF"/>
<path d="M5.00757 118V119H4.00708V118H5.00757Z" fill="#EFC2FF"/>
<path d="M5.00757 120V121H4.00708V120H5.00757Z" fill="#EFC2FF"/>
<path d="M10.0088 114V113.004H11.0072V112.004H10.0072V113H9.00879V114H10.0088Z" fill="#EFC2FF"/>
<path d="M10.0088 116V115.004H11.0072V114.004H10.0072V115H9.00879V116H10.0088Z" fill="#EFC2FF"/>
<path d="M10.0088 118V117.004H11.0072V116.004H10.0072V117H9.00879V118H10.0088Z" fill="#EFC2FF"/>
<path d="M10.0088 120V119.004H11.0072V118.004H10.0072V119H9.00879V120H10.0088Z" fill="#EFC2FF"/>
<path d="M10.0088 122V121.004H11.0072V120.004H10.0072V121H9.00879V122H10.0088Z" fill="#EFC2FF"/>
<path d="M14.0093 112.996V113.996H13.0093V112.996H14.0093Z" fill="#EFC2FF"/>
<path d="M14.0093 114.996V115.996H13.0093V114.996H14.0093Z" fill="#EFC2FF"/>
<path d="M14.0093 116.996V117.996H13.0093V116.996H14.0093Z" fill="#EFC2FF"/>
<path d="M14.0093 118.996V119.996H13.0093V118.996H14.0093Z" fill="#EFC2FF"/>
<path d="M14.0093 120.996V121.996H13.0093V120.996H14.0093Z" fill="#EFC2FF"/>
<path d="M12.01 113.996V113.001H13.0089V112.001H12.0089V112.996H11.01V113.996H12.01Z" fill="#EFC2FF"/>
<path d="M12.01 115.996V115.001H13.0089V114.001H12.0089V114.996H11.01V115.996H12.01Z" fill="#EFC2FF"/>
<path d="M12.01 117.996V117.001H13.0089V116.001H12.0089V116.996H11.01V117.996H12.01Z" fill="#EFC2FF"/>
<path d="M12.01 119.996V119.001H13.0089V118.001H12.0089V118.996H11.01V119.996H12.01Z" fill="#EFC2FF"/>
<path d="M12.01 121.996V121.001H13.0089V120.001H12.0089V120.996H11.01V121.996H12.01Z" fill="#EFC2FF"/>
<path d="M11 112H12V111H11V112Z" fill="#EFC2FF"/>
<path d="M13 112H14V111H13V112Z" fill="#EFC2FF"/>
<path d="M1 112.009H0V113.009H1V112.009Z" fill="#EFC2FF"/>
<path d="M3 112.009H2V113.009H3V112.009Z" fill="#EFC2FF"/>
<path d="M1.00598 102V103H0.00598145V102H1.00598Z" fill="#EFC2FF"/>
<path d="M1.00598 104V105H0.00598145V104H1.00598Z" fill="#EFC2FF"/>
<path d="M1.00598 106V107H0.00598145V106H1.00598Z" fill="#EFC2FF"/>
<path d="M1.00598 108V109H0.00598145V108H1.00598Z" fill="#EFC2FF"/>
<path d="M1.00598 110V111H0.00598145V110H1.00598Z" fill="#EFC2FF"/>
<path d="M6.01245 101V102H7.00574V103H6.01245V104H7.00574V105H6.01245V106H7.00574V107H6.01245V108H7.00574V109H6.01245V110H7.00574V111H6.00574V110H5.01245V109H6.00574V108H5.01245V107H6.00574V106H5.01245V105H6.00574V104H5.01245V103H6.00574V102H5.01245V101H6.01245Z" fill="#EFC2FF"/>
<path d="M2.0127 102V101H1.0127V102H2.00598V103H1.0127V104H2.00598V105H1.0127V106H2.00598V107H1.0127V108H2.00598V109H1.0127V110H2.00598V111H3.00598V110H2.0127V109H3.00598V108H2.0127V107H3.00598V106H2.0127V105H3.00598V104H2.0127V103H3.00598V102H2.0127Z" fill="#EFC2FF"/>
<path d="M8.00684 101V102H7.00684V101H8.00684Z" fill="#EFC2FF"/>
<path d="M8.00684 103V104H7.00684V103H8.00684Z" fill="#EFC2FF"/>
<path d="M8.00684 105V106H7.00684V105H8.00684Z" fill="#EFC2FF"/>
<path d="M8.00684 107V108H7.00684V107H8.00684Z" fill="#EFC2FF"/>
<path d="M8.00684 109V110H7.00684V109H8.00684Z" fill="#EFC2FF"/>
<path d="M5.0061 112.009H4.0061V113.009H5.0061V112.009Z" fill="#EFC2FF"/>
<path d="M7.0061 112.009H6.0061V113.009H7.0061V112.009Z" fill="#EFC2FF"/>
<path d="M9.0061 112.009H8.0061V113.009H9.0061V112.009Z" fill="#EFC2FF"/>
<path d="M11.0061 112.009H10.0061V113.009H11.0061V112.009Z" fill="#EFC2FF"/>
<path d="M13.0061 112.009H12.0061V113.009H13.0061V112.009Z" fill="#EFC2FF"/>
<path d="M1.0061 111.002H2.0061V112.002H1.0061V111.002Z" fill="#EFC2FF"/>
<path d="M3.0061 111.002H4.0061V112.002H3.0061V111.002Z" fill="#EFC2FF"/>
<path d="M5.0061 111.002H6.0061V112.002H5.0061V111.002Z" fill="#EFC2FF"/>
<path d="M7.0061 111.002H8.0061V112.002H7.0061V111.002Z" fill="#EFC2FF"/>
<path d="M4.00708 101V102H3.00708V101H4.00708Z" fill="#EFC2FF"/>
<path d="M4.00708 103V104H3.00708V103H4.00708Z" fill="#EFC2FF"/>
<path d="M4.00708 105V106H3.00708V105H4.00708Z" fill="#EFC2FF"/>
<path d="M4.00708 107V108H3.00708V107H4.00708Z" fill="#EFC2FF"/>
<path d="M4.00708 109V110H3.00708V109H4.00708Z" fill="#EFC2FF"/>
<path d="M9.00732 103V102H10V101H9V102H8.00684V103H9.00732Z" fill="#EFC2FF"/>
<path d="M9.00732 105V104H8.00684V105H9.00732Z" fill="#EFC2FF"/>
<path d="M9.00732 107V106H8.00684V107H9.00732Z" fill="#EFC2FF"/>
<path d="M9.00732 109V108H8.00684V109H9.00732Z" fill="#EFC2FF"/>
<path d="M9.00732 111V110H8.00684V111H9.00732Z" fill="#EFC2FF"/>
<path d="M5.00757 102V103H4.00708V102H5.00757Z" fill="#EFC2FF"/>
<path d="M5.00757 104V105H4.00708V104H5.00757Z" fill="#EFC2FF"/>
<path d="M5.00757 106V107H4.00708V106H5.00757Z" fill="#EFC2FF"/>
<path d="M5.00757 108V109H4.00708V108H5.00757Z" fill="#EFC2FF"/>
<path d="M5.00757 110V111H4.00708V110H5.00757Z" fill="#EFC2FF"/>
<path d="M10.0088 104V103.004H11.0072V102.004H10.0072V103H9.00879V104H10.0088Z" fill="#EFC2FF"/>
<path d="M10.0088 106V105.004H11.0072V104.004H10.0072V105H9.00879V106H10.0088Z" fill="#EFC2FF"/>
<path d="M10.0088 108V107.004H11.0072V106.004H10.0072V107H9.00879V108H10.0088Z" fill="#EFC2FF"/>
<path d="M10.0088 110V109.004H11.0072V108.004H10.0072V109H9.00879V110H10.0088Z" fill="#EFC2FF"/>
<path d="M10.0088 112V111.004H11.0072V110.004H10.0072V111H9.00879V112H10.0088Z" fill="#EFC2FF"/>
<path d="M14.0093 102.996V103.996H13.0093V102.996H14.0093Z" fill="#EFC2FF"/>
<path d="M14.0093 104.996V105.996H13.0093V104.996H14.0093Z" fill="#EFC2FF"/>
<path d="M14.0093 106.996V107.996H13.0093V106.996H14.0093Z" fill="#EFC2FF"/>
<path d="M14.0093 108.996V109.996H13.0093V108.996H14.0093Z" fill="#EFC2FF"/>
<path d="M14.0093 110.996V111.996H13.0093V110.996H14.0093Z" fill="#EFC2FF"/>
<path d="M12.01 103.996V103.001H13.0089V102.001H12.0089V102.996H11.01V103.996H12.01Z" fill="#EFC2FF"/>
<path d="M12.01 105.996V105.001H13.0089V104.001H12.0089V104.996H11.01V105.996H12.01Z" fill="#EFC2FF"/>
<path d="M12.01 107.996V107.001H13.0089V106.001H12.0089V106.996H11.01V107.996H12.01Z" fill="#EFC2FF"/>
<path d="M12.01 109.996V109.001H13.0089V108.001H12.0089V108.996H11.01V109.996H12.01Z" fill="#EFC2FF"/>
<path d="M12.01 111.996V111.001H13.0089V110.001H12.0089V110.996H11.01V111.996H12.01Z" fill="#EFC2FF"/>
<path d="M11 102H12V101H11V102Z" fill="#EFC2FF"/>
<path d="M13 102H14V101H13V102Z" fill="#EFC2FF"/>
<path d="M1 102.009H0V103.009H1V102.009Z" fill="#EFC2FF"/>
<path d="M3 102.009H2V103.009H3V102.009Z" fill="#EFC2FF"/>
<path d="M1.00598 92V93H0.00598145V92H1.00598Z" fill="#EFC2FF"/>
<path d="M1.00598 94V95H0.00598145V94H1.00598Z" fill="#EFC2FF"/>
<path d="M1.00598 96V97H0.00598145V96H1.00598Z" fill="#EFC2FF"/>
<path d="M1.00598 98V99H0.00598145V98H1.00598Z" fill="#EFC2FF"/>
<path d="M1.00598 100V101H0.00598145V100H1.00598Z" fill="#EFC2FF"/>
<path d="M6.01245 91V92H7.00574V93H6.01245V94H7.00574V95H6.01245V96H7.00574V97H6.01245V98H7.00574V99H6.01245V100H7.00574V101H6.00574V100H5.01245V99H6.00574V98H5.01245V97H6.00574V96H5.01245V95H6.00574V94H5.01245V93H6.00574V92H5.01245V91H6.01245Z" fill="#EFC2FF"/>
<path d="M2.0127 92V91H1.0127V92H2.00598V93H1.0127V94H2.00598V95H1.0127V96H2.00598V97H1.0127V98H2.00598V99H1.0127V100H2.00598V101H3.00598V100H2.0127V99H3.00598V98H2.0127V97H3.00598V96H2.0127V95H3.00598V94H2.0127V93H3.00598V92H2.0127Z" fill="#EFC2FF"/>
<path d="M8.00684 91V92H7.00684V91H8.00684Z" fill="#EFC2FF"/>
<path d="M8.00684 93V94H7.00684V93H8.00684Z" fill="#EFC2FF"/>
<path d="M8.00684 95V96H7.00684V95H8.00684Z" fill="#EFC2FF"/>
<path d="M8.00684 97V98H7.00684V97H8.00684Z" fill="#EFC2FF"/>
<path d="M8.00684 99V100H7.00684V99H8.00684Z" fill="#EFC2FF"/>
<path d="M5.0061 102.009H4.0061V103.009H5.0061V102.009Z" fill="#EFC2FF"/>
<path d="M7.0061 102.009H6.0061V103.009H7.0061V102.009Z" fill="#EFC2FF"/>
<path d="M9.0061 102.009H8.0061V103.009H9.0061V102.009Z" fill="#EFC2FF"/>
<path d="M11.0061 102.009H10.0061V103.009H11.0061V102.009Z" fill="#EFC2FF"/>
<path d="M13.0061 102.009H12.0061V103.009H13.0061V102.009Z" fill="#EFC2FF"/>
<path d="M1.0061 101.002H2.0061V102.002H1.0061V101.002Z" fill="#EFC2FF"/>
<path d="M3.0061 101.002H4.0061V102.002H3.0061V101.002Z" fill="#EFC2FF"/>
<path d="M5.0061 101.002H6.0061V102.002H5.0061V101.002Z" fill="#EFC2FF"/>
<path d="M7.0061 101.002H8.0061V102.002H7.0061V101.002Z" fill="#EFC2FF"/>
<path d="M4.00708 91V92H3.00708V91H4.00708Z" fill="#EFC2FF"/>
<path d="M4.00708 93V94H3.00708V93H4.00708Z" fill="#EFC2FF"/>
<path d="M4.00708 95V96H3.00708V95H4.00708Z" fill="#EFC2FF"/>
<path d="M4.00708 97V98H3.00708V97H4.00708Z" fill="#EFC2FF"/>
<path d="M4.00708 99V100H3.00708V99H4.00708Z" fill="#EFC2FF"/>
<path d="M9.00732 93V92H10V91H9V92H8.00684V93H9.00732Z" fill="#EFC2FF"/>
<path d="M9.00732 95V94H8.00684V95H9.00732Z" fill="#EFC2FF"/>
<path d="M9.00732 97V96H8.00684V97H9.00732Z" fill="#EFC2FF"/>
<path d="M9.00732 99V98H8.00684V99H9.00732Z" fill="#EFC2FF"/>
<path d="M9.00732 101V100H8.00684V101H9.00732Z" fill="#EFC2FF"/>
<path d="M5.00757 92V93H4.00708V92H5.00757Z" fill="#EFC2FF"/>
<path d="M5.00757 94V95H4.00708V94H5.00757Z" fill="#EFC2FF"/>
<path d="M5.00757 96V97H4.00708V96H5.00757Z" fill="#EFC2FF"/>
<path d="M5.00757 98V99H4.00708V98H5.00757Z" fill="#EFC2FF"/>
<path d="M5.00757 100V101H4.00708V100H5.00757Z" fill="#EFC2FF"/>
<path d="M10.0088 94V93.0044H11.0072V92.0044H10.0072V93H9.00879V94H10.0088Z" fill="#EFC2FF"/>
<path d="M10.0088 96V95.0044H11.0072V94.0044H10.0072V95H9.00879V96H10.0088Z" fill="#EFC2FF"/>
<path d="M10.0088 98V97.0044H11.0072V96.0044H10.0072V97H9.00879V98H10.0088Z" fill="#EFC2FF"/>
<path d="M10.0088 100V99.0044H11.0072V98.0044H10.0072V99H9.00879V100H10.0088Z" fill="#EFC2FF"/>
<path d="M10.0088 102V101.004H11.0072V100.004H10.0072V101H9.00879V102H10.0088Z" fill="#EFC2FF"/>
<path d="M14.0093 92.9956V93.9956H13.0093V92.9956H14.0093Z" fill="#EFC2FF"/>
<path d="M14.0093 94.9956V95.9956H13.0093V94.9956H14.0093Z" fill="#EFC2FF"/>
<path d="M14.0093 96.9956V97.9956H13.0093V96.9956H14.0093Z" fill="#EFC2FF"/>
<path d="M14.0093 98.9956V99.9956H13.0093V98.9956H14.0093Z" fill="#EFC2FF"/>
<path d="M14.0093 100.996V101.996H13.0093V100.996H14.0093Z" fill="#EFC2FF"/>
<path d="M12.01 93.9956V93.0011H13.0089V92.0011H12.0089V92.9956H11.01V93.9956H12.01Z" fill="#EFC2FF"/>
<path d="M12.01 95.9956V95.0011H13.0089V94.0011H12.0089V94.9956H11.01V95.9956H12.01Z" fill="#EFC2FF"/>
<path d="M12.01 97.9956V97.0011H13.0089V96.0011H12.0089V96.9956H11.01V97.9956H12.01Z" fill="#EFC2FF"/>
<path d="M12.01 99.9956V99.0011H13.0089V98.0011H12.0089V98.9956H11.01V99.9956H12.01Z" fill="#EFC2FF"/>
<path d="M12.01 101.996V101.001H13.0089V100.001H12.0089V100.996H11.01V101.996H12.01Z" fill="#EFC2FF"/>
<path d="M11 92H12V91H11V92Z" fill="#EFC2FF"/>
<path d="M13 92H14V91H13V92Z" fill="#EFC2FF"/>
<path d="M1 92.0085H0V93.0085H1V92.0085Z" fill="#EFC2FF"/>
<path d="M3 92.0085H2V93.0085H3V92.0085Z" fill="#EFC2FF"/>
<path d="M1.00598 82V83H0.00598145V82H1.00598Z" fill="#EFC2FF"/>
<path d="M1.00598 84V85H0.00598145V84H1.00598Z" fill="#EFC2FF"/>
<path d="M1.00598 86V87H0.00598145V86H1.00598Z" fill="#EFC2FF"/>
<path d="M1.00598 88V89H0.00598145V88H1.00598Z" fill="#EFC2FF"/>
<path d="M1.00598 90V91H0.00598145V90H1.00598Z" fill="#EFC2FF"/>
<path d="M6.01245 81V82H7.00574V83H6.01245V84H7.00574V85H6.01245V86H7.00574V87H6.01245V88H7.00574V89H6.01245V90H7.00574V91H6.00574V90H5.01245V89H6.00574V88H5.01245V87H6.00574V86H5.01245V85H6.00574V84H5.01245V83H6.00574V82H5.01245V81H6.01245Z" fill="#EFC2FF"/>
<path d="M2.0127 82V81H1.0127V82H2.00598V83H1.0127V84H2.00598V85H1.0127V86H2.00598V87H1.0127V88H2.00598V89H1.0127V90H2.00598V91H3.00598V90H2.0127V89H3.00598V88H2.0127V87H3.00598V86H2.0127V85H3.00598V84H2.0127V83H3.00598V82H2.0127Z" fill="#EFC2FF"/>
<path d="M8.00684 81V82H7.00684V81H8.00684Z" fill="#EFC2FF"/>
<path d="M8.00684 83V84H7.00684V83H8.00684Z" fill="#EFC2FF"/>
<path d="M8.00684 85V86H7.00684V85H8.00684Z" fill="#EFC2FF"/>
<path d="M8.00684 87V88H7.00684V87H8.00684Z" fill="#EFC2FF"/>
<path d="M8.00684 89V90H7.00684V89H8.00684Z" fill="#EFC2FF"/>
<path d="M5.0061 92.0085H4.0061V93.0085H5.0061V92.0085Z" fill="#EFC2FF"/>
<path d="M7.0061 92.0085H6.0061V93.0085H7.0061V92.0085Z" fill="#EFC2FF"/>
<path d="M9.0061 92.0085H8.0061V93.0085H9.0061V92.0085Z" fill="#EFC2FF"/>
<path d="M11.0061 92.0085H10.0061V93.0085H11.0061V92.0085Z" fill="#EFC2FF"/>
<path d="M13.0061 92.0085H12.0061V93.0085H13.0061V92.0085Z" fill="#EFC2FF"/>
<path d="M1.0061 91.0018H2.0061V92.0018H1.0061V91.0018Z" fill="#EFC2FF"/>
<path d="M3.0061 91.0018H4.0061V92.0018H3.0061V91.0018Z" fill="#EFC2FF"/>
<path d="M5.0061 91.0018H6.0061V92.0018H5.0061V91.0018Z" fill="#EFC2FF"/>
<path d="M7.0061 91.0018H8.0061V92.0018H7.0061V91.0018Z" fill="#EFC2FF"/>
<path d="M4.00708 81V82H3.00708V81H4.00708Z" fill="#EFC2FF"/>
<path d="M4.00708 83V84H3.00708V83H4.00708Z" fill="#EFC2FF"/>
<path d="M4.00708 85V86H3.00708V85H4.00708Z" fill="#EFC2FF"/>
<path d="M4.00708 87V88H3.00708V87H4.00708Z" fill="#EFC2FF"/>
<path d="M4.00708 89V90H3.00708V89H4.00708Z" fill="#EFC2FF"/>
<path d="M9.00732 83V82H10V81H9V82H8.00684V83H9.00732Z" fill="#EFC2FF"/>
<path d="M9.00732 85V84H8.00684V85H9.00732Z" fill="#EFC2FF"/>
<path d="M9.00732 87V86H8.00684V87H9.00732Z" fill="#EFC2FF"/>
<path d="M9.00732 89V88H8.00684V89H9.00732Z" fill="#EFC2FF"/>
<path d="M9.00732 91V90H8.00684V91H9.00732Z" fill="#EFC2FF"/>
<path d="M5.00757 82V83H4.00708V82H5.00757Z" fill="#EFC2FF"/>
<path d="M5.00757 84V85H4.00708V84H5.00757Z" fill="#EFC2FF"/>
<path d="M5.00757 86V87H4.00708V86H5.00757Z" fill="#EFC2FF"/>
<path d="M5.00757 88V89H4.00708V88H5.00757Z" fill="#EFC2FF"/>
<path d="M5.00757 90V91H4.00708V90H5.00757Z" fill="#EFC2FF"/>
<path d="M10.0088 84V83.0044H11.0072V82.0044H10.0072V83H9.00879V84H10.0088Z" fill="#EFC2FF"/>
<path d="M10.0088 86V85.0044H11.0072V84.0044H10.0072V85H9.00879V86H10.0088Z" fill="#EFC2FF"/>
<path d="M10.0088 88V87.0044H11.0072V86.0044H10.0072V87H9.00879V88H10.0088Z" fill="#EFC2FF"/>
<path d="M10.0088 90V89.0044H11.0072V88.0044H10.0072V89H9.00879V90H10.0088Z" fill="#EFC2FF"/>
<path d="M10.0088 92V91.0044H11.0072V90.0044H10.0072V91H9.00879V92H10.0088Z" fill="#EFC2FF"/>
<path d="M14.0093 82.9956V83.9956H13.0093V82.9956H14.0093Z" fill="#EFC2FF"/>
<path d="M14.0093 84.9956V85.9956H13.0093V84.9956H14.0093Z" fill="#EFC2FF"/>
<path d="M14.0093 86.9956V87.9956H13.0093V86.9956H14.0093Z" fill="#EFC2FF"/>
<path d="M14.0093 88.9956V89.9956H13.0093V88.9956H14.0093Z" fill="#EFC2FF"/>
<path d="M14.0093 90.9956V91.9956H13.0093V90.9956H14.0093Z" fill="#EFC2FF"/>
<path d="M12.01 83.9956V83.0011H13.0089V82.0011H12.0089V82.9956H11.01V83.9956H12.01Z" fill="#EFC2FF"/>
<path d="M12.01 85.9956V85.0011H13.0089V84.0011H12.0089V84.9956H11.01V85.9956H12.01Z" fill="#EFC2FF"/>
<path d="M12.01 87.9956V87.0011H13.0089V86.0011H12.0089V86.9956H11.01V87.9956H12.01Z" fill="#EFC2FF"/>
<path d="M12.01 89.9956V89.0011H13.0089V88.0011H12.0089V88.9956H11.01V89.9956H12.01Z" fill="#EFC2FF"/>
<path d="M12.01 91.9956V91.0011H13.0089V90.0011H12.0089V90.9956H11.01V91.9956H12.01Z" fill="#EFC2FF"/>
<path d="M11 82H12V81H11V82Z" fill="#EFC2FF"/>
<path d="M13 82H14V81H13V82Z" fill="#EFC2FF"/>
<path d="M1 82.0085H0V83.0085H1V82.0085Z" fill="#EFC2FF"/>
<path d="M3 82.0085H2V83.0085H3V82.0085Z" fill="#EFC2FF"/>
<path d="M1.00598 72V73H0.00598145V72H1.00598Z" fill="#EFC2FF"/>
<path d="M1.00598 74V75H0.00598145V74H1.00598Z" fill="#EFC2FF"/>
<path d="M1.00598 76V77H0.00598145V76H1.00598Z" fill="#EFC2FF"/>
<path d="M1.00598 78V79H0.00598145V78H1.00598Z" fill="#EFC2FF"/>
<path d="M1.00598 80V81H0.00598145V80H1.00598Z" fill="#EFC2FF"/>
<path d="M6.01245 71V72H7.00574V73H6.01245V74H7.00574V75H6.01245V76H7.00574V77H6.01245V78H7.00574V79H6.01245V80H7.00574V81H6.00574V80H5.01245V79H6.00574V78H5.01245V77H6.00574V76H5.01245V75H6.00574V74H5.01245V73H6.00574V72H5.01245V71H6.01245Z" fill="#EFC2FF"/>
<path d="M2.0127 72V71H1.0127V72H2.00598V73H1.0127V74H2.00598V75H1.0127V76H2.00598V77H1.0127V78H2.00598V79H1.0127V80H2.00598V81H3.00598V80H2.0127V79H3.00598V78H2.0127V77H3.00598V76H2.0127V75H3.00598V74H2.0127V73H3.00598V72H2.0127Z" fill="#EFC2FF"/>
<path d="M8.00684 71V72H7.00684V71H8.00684Z" fill="#EFC2FF"/>
<path d="M8.00684 73V74H7.00684V73H8.00684Z" fill="#EFC2FF"/>
<path d="M8.00684 75V76H7.00684V75H8.00684Z" fill="#EFC2FF"/>
<path d="M8.00684 77V78H7.00684V77H8.00684Z" fill="#EFC2FF"/>
<path d="M8.00684 79V80H7.00684V79H8.00684Z" fill="#EFC2FF"/>
<path d="M5.0061 82.0085H4.0061V83.0085H5.0061V82.0085Z" fill="#EFC2FF"/>
<path d="M7.0061 82.0085H6.0061V83.0085H7.0061V82.0085Z" fill="#EFC2FF"/>
<path d="M9.0061 82.0085H8.0061V83.0085H9.0061V82.0085Z" fill="#EFC2FF"/>
<path d="M11.0061 82.0085H10.0061V83.0085H11.0061V82.0085Z" fill="#EFC2FF"/>
<path d="M13.0061 82.0085H12.0061V83.0085H13.0061V82.0085Z" fill="#EFC2FF"/>
<path d="M1.0061 81.0018H2.0061V82.0018H1.0061V81.0018Z" fill="#EFC2FF"/>
<path d="M3.0061 81.0018H4.0061V82.0018H3.0061V81.0018Z" fill="#EFC2FF"/>
<path d="M5.0061 81.0018H6.0061V82.0018H5.0061V81.0018Z" fill="#EFC2FF"/>
<path d="M7.0061 81.0018H8.0061V82.0018H7.0061V81.0018Z" fill="#EFC2FF"/>
<path d="M4.00708 71V72H3.00708V71H4.00708Z" fill="#EFC2FF"/>
<path d="M4.00708 73V74H3.00708V73H4.00708Z" fill="#EFC2FF"/>
<path d="M4.00708 75V76H3.00708V75H4.00708Z" fill="#EFC2FF"/>
<path d="M4.00708 77V78H3.00708V77H4.00708Z" fill="#EFC2FF"/>
<path d="M4.00708 79V80H3.00708V79H4.00708Z" fill="#EFC2FF"/>
<path d="M9.00732 73V72H10V71H9V72H8.00684V73H9.00732Z" fill="#EFC2FF"/>
<path d="M9.00732 75V74H8.00684V75H9.00732Z" fill="#EFC2FF"/>
<path d="M9.00732 77V76H8.00684V77H9.00732Z" fill="#EFC2FF"/>
<path d="M9.00732 79V78H8.00684V79H9.00732Z" fill="#EFC2FF"/>
<path d="M9.00732 81V80H8.00684V81H9.00732Z" fill="#EFC2FF"/>
<path d="M5.00757 72V73H4.00708V72H5.00757Z" fill="#EFC2FF"/>
<path d="M5.00757 74V75H4.00708V74H5.00757Z" fill="#EFC2FF"/>
<path d="M5.00757 76V77H4.00708V76H5.00757Z" fill="#EFC2FF"/>
<path d="M5.00757 78V79H4.00708V78H5.00757Z" fill="#EFC2FF"/>
<path d="M5.00757 80V81H4.00708V80H5.00757Z" fill="#EFC2FF"/>
<path d="M10.0088 74V73.0044H11.0072V72.0044H10.0072V73H9.00879V74H10.0088Z" fill="#EFC2FF"/>
<path d="M10.0088 76V75.0044H11.0072V74.0044H10.0072V75H9.00879V76H10.0088Z" fill="#EFC2FF"/>
<path d="M10.0088 78V77.0044H11.0072V76.0044H10.0072V77H9.00879V78H10.0088Z" fill="#EFC2FF"/>
<path d="M10.0088 80V79.0044H11.0072V78.0044H10.0072V79H9.00879V80H10.0088Z" fill="#EFC2FF"/>
<path d="M10.0088 82V81.0044H11.0072V80.0044H10.0072V81H9.00879V82H10.0088Z" fill="#EFC2FF"/>
<path d="M14.0093 72.9956V73.9956H13.0093V72.9956H14.0093Z" fill="#EFC2FF"/>
<path d="M14.0093 74.9956V75.9956H13.0093V74.9956H14.0093Z" fill="#EFC2FF"/>
<path d="M14.0093 76.9956V77.9956H13.0093V76.9956H14.0093Z" fill="#EFC2FF"/>
<path d="M14.0093 78.9956V79.9956H13.0093V78.9956H14.0093Z" fill="#EFC2FF"/>
<path d="M14.0093 80.9956V81.9956H13.0093V80.9956H14.0093Z" fill="#EFC2FF"/>
<path d="M12.01 73.9956V73.0011H13.0089V72.0011H12.0089V72.9956H11.01V73.9956H12.01Z" fill="#EFC2FF"/>
<path d="M12.01 75.9956V75.0011H13.0089V74.0011H12.0089V74.9956H11.01V75.9956H12.01Z" fill="#EFC2FF"/>
<path d="M12.01 77.9956V77.0011H13.0089V76.0011H12.0089V76.9956H11.01V77.9956H12.01Z" fill="#EFC2FF"/>
<path d="M12.01 79.9956V79.0011H13.0089V78.0011H12.0089V78.9956H11.01V79.9956H12.01Z" fill="#EFC2FF"/>
<path d="M12.01 81.9956V81.0011H13.0089V80.0011H12.0089V80.9956H11.01V81.9956H12.01Z" fill="#EFC2FF"/>
<path d="M11 72H12V71H11V72Z" fill="#EFC2FF"/>
<path d="M13 72H14V71H13V72Z" fill="#EFC2FF"/>
<path d="M1 72.0085H0V73.0085H1V72.0085Z" fill="#EFC2FF"/>
<path d="M3 72.0085H2V73.0085H3V72.0085Z" fill="#EFC2FF"/>
<path d="M1.00598 62V63H0.00598145V62H1.00598Z" fill="#EFC2FF"/>
<path d="M1.00598 64V65H0.00598145V64H1.00598Z" fill="#EFC2FF"/>
<path d="M1.00598 66V67H0.00598145V66H1.00598Z" fill="#EFC2FF"/>
<path d="M1.00598 68V69H0.00598145V68H1.00598Z" fill="#EFC2FF"/>
<path d="M1.00598 70V71H0.00598145V70H1.00598Z" fill="#EFC2FF"/>
<path d="M6.01245 61V62H7.00574V63H6.01245V64H7.00574V65H6.01245V66H7.00574V67H6.01245V68H7.00574V69H6.01245V70H7.00574V71H6.00574V70H5.01245V69H6.00574V68H5.01245V67H6.00574V66H5.01245V65H6.00574V64H5.01245V63H6.00574V62H5.01245V61H6.01245Z" fill="#EFC2FF"/>
<path d="M2.0127 62V61H1.0127V62H2.00598V63H1.0127V64H2.00598V65H1.0127V66H2.00598V67H1.0127V68H2.00598V69H1.0127V70H2.00598V71H3.00598V70H2.0127V69H3.00598V68H2.0127V67H3.00598V66H2.0127V65H3.00598V64H2.0127V63H3.00598V62H2.0127Z" fill="#EFC2FF"/>
<path d="M8.00684 61V62H7.00684V61H8.00684Z" fill="#EFC2FF"/>
<path d="M8.00684 63V64H7.00684V63H8.00684Z" fill="#EFC2FF"/>
<path d="M8.00684 65V66H7.00684V65H8.00684Z" fill="#EFC2FF"/>
<path d="M8.00684 67V68H7.00684V67H8.00684Z" fill="#EFC2FF"/>
<path d="M8.00684 69V70H7.00684V69H8.00684Z" fill="#EFC2FF"/>
<path d="M5.0061 72.0085H4.0061V73.0085H5.0061V72.0085Z" fill="#EFC2FF"/>
<path d="M7.0061 72.0085H6.0061V73.0085H7.0061V72.0085Z" fill="#EFC2FF"/>
<path d="M9.0061 72.0085H8.0061V73.0085H9.0061V72.0085Z" fill="#EFC2FF"/>
<path d="M11.0061 72.0085H10.0061V73.0085H11.0061V72.0085Z" fill="#EFC2FF"/>
<path d="M13.0061 72.0085H12.0061V73.0085H13.0061V72.0085Z" fill="#EFC2FF"/>
<path d="M1.0061 71.0018H2.0061V72.0018H1.0061V71.0018Z" fill="#EFC2FF"/>
<path d="M3.0061 71.0018H4.0061V72.0018H3.0061V71.0018Z" fill="#EFC2FF"/>
<path d="M5.0061 71.0018H6.0061V72.0018H5.0061V71.0018Z" fill="#EFC2FF"/>
<path d="M7.0061 71.0018H8.0061V72.0018H7.0061V71.0018Z" fill="#EFC2FF"/>
<path d="M4.00708 61V62H3.00708V61H4.00708Z" fill="#EFC2FF"/>
<path d="M4.00708 63V64H3.00708V63H4.00708Z" fill="#EFC2FF"/>
<path d="M4.00708 65V66H3.00708V65H4.00708Z" fill="#EFC2FF"/>
<path d="M4.00708 67V68H3.00708V67H4.00708Z" fill="#EFC2FF"/>
<path d="M4.00708 69V70H3.00708V69H4.00708Z" fill="#EFC2FF"/>
<path d="M9.00732 63V62H10V61H9V62H8.00684V63H9.00732Z" fill="#EFC2FF"/>
<path d="M9.00732 65V64H8.00684V65H9.00732Z" fill="#EFC2FF"/>
<path d="M9.00732 67V66H8.00684V67H9.00732Z" fill="#EFC2FF"/>
<path d="M9.00732 69V68H8.00684V69H9.00732Z" fill="#EFC2FF"/>
<path d="M9.00732 71V70H8.00684V71H9.00732Z" fill="#EFC2FF"/>
<path d="M5.00757 62V63H4.00708V62H5.00757Z" fill="#EFC2FF"/>
<path d="M5.00757 64V65H4.00708V64H5.00757Z" fill="#EFC2FF"/>
<path d="M5.00757 66V67H4.00708V66H5.00757Z" fill="#EFC2FF"/>
<path d="M5.00757 68V69H4.00708V68H5.00757Z" fill="#EFC2FF"/>
<path d="M5.00757 70V71H4.00708V70H5.00757Z" fill="#EFC2FF"/>
<path d="M10.0088 64V63.0044H11.0072V62.0044H10.0072V63H9.00879V64H10.0088Z" fill="#EFC2FF"/>
<path d="M10.0088 66V65.0044H11.0072V64.0044H10.0072V65H9.00879V66H10.0088Z" fill="#EFC2FF"/>
<path d="M10.0088 68V67.0044H11.0072V66.0044H10.0072V67H9.00879V68H10.0088Z" fill="#EFC2FF"/>
<path d="M10.0088 70V69.0044H11.0072V68.0044H10.0072V69H9.00879V70H10.0088Z" fill="#EFC2FF"/>
<path d="M10.0088 72V71.0044H11.0072V70.0044H10.0072V71H9.00879V72H10.0088Z" fill="#EFC2FF"/>
<path d="M14.0093 62.9956V63.9956H13.0093V62.9956H14.0093Z" fill="#EFC2FF"/>
<path d="M14.0093 64.9956V65.9956H13.0093V64.9956H14.0093Z" fill="#EFC2FF"/>
<path d="M14.0093 66.9956V67.9956H13.0093V66.9956H14.0093Z" fill="#EFC2FF"/>
<path d="M14.0093 68.9956V69.9956H13.0093V68.9956H14.0093Z" fill="#EFC2FF"/>
<path d="M14.0093 70.9956V71.9956H13.0093V70.9956H14.0093Z" fill="#EFC2FF"/>
<path d="M12.01 63.9956V63.0011H13.0089V62.0011H12.0089V62.9956H11.01V63.9956H12.01Z" fill="#EFC2FF"/>
<path d="M12.01 65.9956V65.0011H13.0089V64.0011H12.0089V64.9956H11.01V65.9956H12.01Z" fill="#EFC2FF"/>
<path d="M12.01 67.9956V67.0011H13.0089V66.0011H12.0089V66.9956H11.01V67.9956H12.01Z" fill="#EFC2FF"/>
<path d="M12.01 69.9956V69.0011H13.0089V68.0011H12.0089V68.9956H11.01V69.9956H12.01Z" fill="#EFC2FF"/>
<path d="M12.01 71.9956V71.0011H13.0089V70.0011H12.0089V70.9956H11.01V71.9956H12.01Z" fill="#EFC2FF"/>
<path d="M11 62H12V61H11V62Z" fill="#EFC2FF"/>
<path d="M13 62H14V61H13V62Z" fill="#EFC2FF"/>
<path d="M1 62.0085H0V63.0085H1V62.0085Z" fill="#EFC2FF"/>
<path d="M3 62.0085H2V63.0085H3V62.0085Z" fill="#EFC2FF"/>
<path d="M1.00598 52V53H0.00598145V52H1.00598Z" fill="#EFC2FF"/>
<path d="M1.00598 54V55H0.00598145V54H1.00598Z" fill="#EFC2FF"/>
<path d="M1.00598 56V57H0.00598145V56H1.00598Z" fill="#EFC2FF"/>
<path d="M1.00598 58V59H0.00598145V58H1.00598Z" fill="#EFC2FF"/>
<path d="M1.00598 60V61H0.00598145V60H1.00598Z" fill="#EFC2FF"/>
<path d="M6.01245 51V52H7.00574V53H6.01245V54H7.00574V55H6.01245V56H7.00574V57H6.01245V58H7.00574V59H6.01245V60H7.00574V61H6.00574V60H5.01245V59H6.00574V58H5.01245V57H6.00574V56H5.01245V55H6.00574V54H5.01245V53H6.00574V52H5.01245V51H6.01245Z" fill="#EFC2FF"/>
<path d="M2.0127 52V51H1.0127V52H2.00598V53H1.0127V54H2.00598V55H1.0127V56H2.00598V57H1.0127V58H2.00598V59H1.0127V60H2.00598V61H3.00598V60H2.0127V59H3.00598V58H2.0127V57H3.00598V56H2.0127V55H3.00598V54H2.0127V53H3.00598V52H2.0127Z" fill="#EFC2FF"/>
<path d="M8.00684 51V52H7.00684V51H8.00684Z" fill="#EFC2FF"/>
<path d="M8.00684 53V54H7.00684V53H8.00684Z" fill="#EFC2FF"/>
<path d="M8.00684 55V56H7.00684V55H8.00684Z" fill="#EFC2FF"/>
<path d="M8.00684 57V58H7.00684V57H8.00684Z" fill="#EFC2FF"/>
<path d="M8.00684 59V60H7.00684V59H8.00684Z" fill="#EFC2FF"/>
<path d="M5.0061 62.0085H4.0061V63.0085H5.0061V62.0085Z" fill="#EFC2FF"/>
<path d="M7.0061 62.0085H6.0061V63.0085H7.0061V62.0085Z" fill="#EFC2FF"/>
<path d="M9.0061 62.0085H8.0061V63.0085H9.0061V62.0085Z" fill="#EFC2FF"/>
<path d="M11.0061 62.0085H10.0061V63.0085H11.0061V62.0085Z" fill="#EFC2FF"/>
<path d="M13.0061 62.0085H12.0061V63.0085H13.0061V62.0085Z" fill="#EFC2FF"/>
<path d="M1.0061 61.0018H2.0061V62.0018H1.0061V61.0018Z" fill="#EFC2FF"/>
<path d="M3.0061 61.0018H4.0061V62.0018H3.0061V61.0018Z" fill="#EFC2FF"/>
<path d="M5.0061 61.0018H6.0061V62.0018H5.0061V61.0018Z" fill="#EFC2FF"/>
<path d="M7.0061 61.0018H8.0061V62.0018H7.0061V61.0018Z" fill="#EFC2FF"/>
<path d="M4.00708 51V52H3.00708V51H4.00708Z" fill="#EFC2FF"/>
<path d="M4.00708 53V54H3.00708V53H4.00708Z" fill="#EFC2FF"/>
<path d="M4.00708 55V56H3.00708V55H4.00708Z" fill="#EFC2FF"/>
<path d="M4.00708 57V58H3.00708V57H4.00708Z" fill="#EFC2FF"/>
<path d="M4.00708 59V60H3.00708V59H4.00708Z" fill="#EFC2FF"/>
<path d="M9.00732 53V52H10V51H9V52H8.00684V53H9.00732Z" fill="#EFC2FF"/>
<path d="M9.00732 55V54H8.00684V55H9.00732Z" fill="#EFC2FF"/>
<path d="M9.00732 57V56H8.00684V57H9.00732Z" fill="#EFC2FF"/>
<path d="M9.00732 59V58H8.00684V59H9.00732Z" fill="#EFC2FF"/>
<path d="M9.00732 61V60H8.00684V61H9.00732Z" fill="#EFC2FF"/>
<path d="M5.00757 52V53H4.00708V52H5.00757Z" fill="#EFC2FF"/>
<path d="M5.00757 54V55H4.00708V54H5.00757Z" fill="#EFC2FF"/>
<path d="M5.00757 56V57H4.00708V56H5.00757Z" fill="#EFC2FF"/>
<path d="M5.00757 58V59H4.00708V58H5.00757Z" fill="#EFC2FF"/>
<path d="M5.00757 60V61H4.00708V60H5.00757Z" fill="#EFC2FF"/>
<path d="M10.0088 54V53.0044H11.0072V52.0044H10.0072V53H9.00879V54H10.0088Z" fill="#EFC2FF"/>
<path d="M10.0088 56V55.0044H11.0072V54.0044H10.0072V55H9.00879V56H10.0088Z" fill="#EFC2FF"/>
<path d="M10.0088 58V57.0044H11.0072V56.0044H10.0072V57H9.00879V58H10.0088Z" fill="#EFC2FF"/>
<path d="M10.0088 60V59.0044H11.0072V58.0044H10.0072V59H9.00879V60H10.0088Z" fill="#EFC2FF"/>
<path d="M10.0088 62V61.0044H11.0072V60.0044H10.0072V61H9.00879V62H10.0088Z" fill="#EFC2FF"/>
<path d="M14.0093 52.9956V53.9956H13.0093V52.9956H14.0093Z" fill="#EFC2FF"/>
<path d="M14.0093 54.9956V55.9956H13.0093V54.9956H14.0093Z" fill="#EFC2FF"/>
<path d="M14.0093 56.9956V57.9956H13.0093V56.9956H14.0093Z" fill="#EFC2FF"/>
<path d="M14.0093 58.9956V59.9956H13.0093V58.9956H14.0093Z" fill="#EFC2FF"/>
<path d="M14.0093 60.9956V61.9956H13.0093V60.9956H14.0093Z" fill="#EFC2FF"/>
<path d="M12.01 53.9956V53.0011H13.0089V52.0011H12.0089V52.9956H11.01V53.9956H12.01Z" fill="#EFC2FF"/>
<path d="M12.01 55.9956V55.0011H13.0089V54.0011H12.0089V54.9956H11.01V55.9956H12.01Z" fill="#EFC2FF"/>
<path d="M12.01 57.9956V57.0011H13.0089V56.0011H12.0089V56.9956H11.01V57.9956H12.01Z" fill="#EFC2FF"/>
<path d="M12.01 59.9956V59.0011H13.0089V58.0011H12.0089V58.9956H11.01V59.9956H12.01Z" fill="#EFC2FF"/>
<path d="M12.01 61.9956V61.0011H13.0089V60.0011H12.0089V60.9956H11.01V61.9956H12.01Z" fill="#EFC2FF"/>
<path d="M11 52H12V51H11V52Z" fill="#EFC2FF"/>
<path d="M13 52H14V51H13V52Z" fill="#EFC2FF"/>
<path d="M1 52.0085H0V53.0085H1V52.0085Z" fill="#EFC2FF"/>
<path d="M3 52.0085H2V53.0085H3V52.0085Z" fill="#EFC2FF"/>
<path d="M1.00598 42V43H0.00598145V42H1.00598Z" fill="#EFC2FF"/>
<path d="M1.00598 44V45H0.00598145V44H1.00598Z" fill="#EFC2FF"/>
<path d="M1.00598 46V47H0.00598145V46H1.00598Z" fill="#EFC2FF"/>
<path d="M1.00598 48V49H0.00598145V48H1.00598Z" fill="#EFC2FF"/>
<path d="M1.00598 50V51H0.00598145V50H1.00598Z" fill="#EFC2FF"/>
<path d="M6.01245 41V42H7.00574V43H6.01245V44H7.00574V45H6.01245V46H7.00574V47H6.01245V48H7.00574V49H6.01245V50H7.00574V51H6.00574V50H5.01245V49H6.00574V48H5.01245V47H6.00574V46H5.01245V45H6.00574V44H5.01245V43H6.00574V42H5.01245V41H6.01245Z" fill="#EFC2FF"/>
<path d="M2.0127 42V41H1.0127V42H2.00598V43H1.0127V44H2.00598V45H1.0127V46H2.00598V47H1.0127V48H2.00598V49H1.0127V50H2.00598V51H3.00598V50H2.0127V49H3.00598V48H2.0127V47H3.00598V46H2.0127V45H3.00598V44H2.0127V43H3.00598V42H2.0127Z" fill="#EFC2FF"/>
<path d="M8.00684 41V42H7.00684V41H8.00684Z" fill="#EFC2FF"/>
<path d="M8.00684 43V44H7.00684V43H8.00684Z" fill="#EFC2FF"/>
<path d="M8.00684 45V46H7.00684V45H8.00684Z" fill="#EFC2FF"/>
<path d="M8.00684 47V48H7.00684V47H8.00684Z" fill="#EFC2FF"/>
<path d="M8.00684 49V50H7.00684V49H8.00684Z" fill="#EFC2FF"/>
<path d="M5.0061 52.0085H4.0061V53.0085H5.0061V52.0085Z" fill="#EFC2FF"/>
<path d="M7.0061 52.0085H6.0061V53.0085H7.0061V52.0085Z" fill="#EFC2FF"/>
<path d="M9.0061 52.0085H8.0061V53.0085H9.0061V52.0085Z" fill="#EFC2FF"/>
<path d="M11.0061 52.0085H10.0061V53.0085H11.0061V52.0085Z" fill="#EFC2FF"/>
<path d="M13.0061 52.0085H12.0061V53.0085H13.0061V52.0085Z" fill="#EFC2FF"/>
<path d="M1.0061 51.0018H2.0061V52.0018H1.0061V51.0018Z" fill="#EFC2FF"/>
<path d="M3.0061 51.0018H4.0061V52.0018H3.0061V51.0018Z" fill="#EFC2FF"/>
<path d="M5.0061 51.0018H6.0061V52.0018H5.0061V51.0018Z" fill="#EFC2FF"/>
<path d="M7.0061 51.0018H8.0061V52.0018H7.0061V51.0018Z" fill="#EFC2FF"/>
<path d="M4.00708 41V42H3.00708V41H4.00708Z" fill="#EFC2FF"/>
<path d="M4.00708 43V44H3.00708V43H4.00708Z" fill="#EFC2FF"/>
<path d="M4.00708 45V46H3.00708V45H4.00708Z" fill="#EFC2FF"/>
<path d="M4.00708 47V48H3.00708V47H4.00708Z" fill="#EFC2FF"/>
<path d="M4.00708 49V50H3.00708V49H4.00708Z" fill="#EFC2FF"/>
<path d="M9.00732 43V42H10V41H9V42H8.00684V43H9.00732Z" fill="#EFC2FF"/>
<path d="M9.00732 45V44H8.00684V45H9.00732Z" fill="#EFC2FF"/>
<path d="M9.00732 47V46H8.00684V47H9.00732Z" fill="#EFC2FF"/>
<path d="M9.00732 49V48H8.00684V49H9.00732Z" fill="#EFC2FF"/>
<path d="M9.00732 51V50H8.00684V51H9.00732Z" fill="#EFC2FF"/>
<path d="M5.00757 42V43H4.00708V42H5.00757Z" fill="#EFC2FF"/>
<path d="M5.00757 44V45H4.00708V44H5.00757Z" fill="#EFC2FF"/>
<path d="M5.00757 46V47H4.00708V46H5.00757Z" fill="#EFC2FF"/>
<path d="M5.00757 48V49H4.00708V48H5.00757Z" fill="#EFC2FF"/>
<path d="M5.00757 50V51H4.00708V50H5.00757Z" fill="#EFC2FF"/>
<path d="M10.0088 44V43.0044H11.0072V42.0044H10.0072V43H9.00879V44H10.0088Z" fill="#EFC2FF"/>
<path d="M10.0088 46V45.0044H11.0072V44.0044H10.0072V45H9.00879V46H10.0088Z" fill="#EFC2FF"/>
<path d="M10.0088 48V47.0044H11.0072V46.0044H10.0072V47H9.00879V48H10.0088Z" fill="#EFC2FF"/>
<path d="M10.0088 50V49.0044H11.0072V48.0044H10.0072V49H9.00879V50H10.0088Z" fill="#EFC2FF"/>
<path d="M10.0088 52V51.0044H11.0072V50.0044H10.0072V51H9.00879V52H10.0088Z" fill="#EFC2FF"/>
<path d="M14.0093 42.9956V43.9956H13.0093V42.9956H14.0093Z" fill="#EFC2FF"/>
<path d="M14.0093 44.9956V45.9956H13.0093V44.9956H14.0093Z" fill="#EFC2FF"/>
<path d="M14.0093 46.9956V47.9956H13.0093V46.9956H14.0093Z" fill="#EFC2FF"/>
<path d="M14.0093 48.9956V49.9956H13.0093V48.9956H14.0093Z" fill="#EFC2FF"/>
<path d="M14.0093 50.9956V51.9956H13.0093V50.9956H14.0093Z" fill="#EFC2FF"/>
<path d="M12.01 43.9956V43.0011H13.0089V42.0011H12.0089V42.9956H11.01V43.9956H12.01Z" fill="#EFC2FF"/>
<path d="M12.01 45.9956V45.0011H13.0089V44.0011H12.0089V44.9956H11.01V45.9956H12.01Z" fill="#EFC2FF"/>
<path d="M12.01 47.9956V47.0011H13.0089V46.0011H12.0089V46.9956H11.01V47.9956H12.01Z" fill="#EFC2FF"/>
<path d="M12.01 49.9956V49.0011H13.0089V48.0011H12.0089V48.9956H11.01V49.9956H12.01Z" fill="#EFC2FF"/>
<path d="M12.01 51.9956V51.0011H13.0089V50.0011H12.0089V50.9956H11.01V51.9956H12.01Z" fill="#EFC2FF"/>
<path d="M11 42H12V41H11V42Z" fill="#EFC2FF"/>
<path d="M13 42H14V41H13V42Z" fill="#EFC2FF"/>
<path d="M1 42.0085H0V43.0085H1V42.0085Z" fill="#EFC2FF"/>
<path d="M3 42.0085H2V43.0085H3V42.0085Z" fill="#EFC2FF"/>
<path d="M1.00598 32V33H0.00598145V32H1.00598Z" fill="#EFC2FF"/>
<path d="M1.00598 34V35H0.00598145V34H1.00598Z" fill="#EFC2FF"/>
<path d="M1.00598 36V37H0.00598145V36H1.00598Z" fill="#EFC2FF"/>
<path d="M1.00598 38V39H0.00598145V38H1.00598Z" fill="#EFC2FF"/>
<path d="M1.00598 40V41H0.00598145V40H1.00598Z" fill="#EFC2FF"/>
<path d="M6.01245 31V32H7.00574V33H6.01245V34H7.00574V35H6.01245V36H7.00574V37H6.01245V38H7.00574V39H6.01245V40H7.00574V41H6.00574V40H5.01245V39H6.00574V38H5.01245V37H6.00574V36H5.01245V35H6.00574V34H5.01245V33H6.00574V32H5.01245V31H6.01245Z" fill="#EFC2FF"/>
<path d="M2.0127 32V31H1.0127V32H2.00598V33H1.0127V34H2.00598V35H1.0127V36H2.00598V37H1.0127V38H2.00598V39H1.0127V40H2.00598V41H3.00598V40H2.0127V39H3.00598V38H2.0127V37H3.00598V36H2.0127V35H3.00598V34H2.0127V33H3.00598V32H2.0127Z" fill="#EFC2FF"/>
<path d="M8.00684 31V32H7.00684V31H8.00684Z" fill="#EFC2FF"/>
<path d="M8.00684 33V34H7.00684V33H8.00684Z" fill="#EFC2FF"/>
<path d="M8.00684 35V36H7.00684V35H8.00684Z" fill="#EFC2FF"/>
<path d="M8.00684 37V38H7.00684V37H8.00684Z" fill="#EFC2FF"/>
<path d="M8.00684 39V40H7.00684V39H8.00684Z" fill="#EFC2FF"/>
<path d="M5.0061 42.0085H4.0061V43.0085H5.0061V42.0085Z" fill="#EFC2FF"/>
<path d="M7.0061 42.0085H6.0061V43.0085H7.0061V42.0085Z" fill="#EFC2FF"/>
<path d="M9.0061 42.0085H8.0061V43.0085H9.0061V42.0085Z" fill="#EFC2FF"/>
<path d="M11.0061 42.0085H10.0061V43.0085H11.0061V42.0085Z" fill="#EFC2FF"/>
<path d="M13.0061 42.0085H12.0061V43.0085H13.0061V42.0085Z" fill="#EFC2FF"/>
<path d="M1.0061 41.0018H2.0061V42.0018H1.0061V41.0018Z" fill="#EFC2FF"/>
<path d="M3.0061 41.0018H4.0061V42.0018H3.0061V41.0018Z" fill="#EFC2FF"/>
<path d="M5.0061 41.0018H6.0061V42.0018H5.0061V41.0018Z" fill="#EFC2FF"/>
<path d="M7.0061 41.0018H8.0061V42.0018H7.0061V41.0018Z" fill="#EFC2FF"/>
<path d="M4.00708 31V32H3.00708V31H4.00708Z" fill="#EFC2FF"/>
<path d="M4.00708 33V34H3.00708V33H4.00708Z" fill="#EFC2FF"/>
<path d="M4.00708 35V36H3.00708V35H4.00708Z" fill="#EFC2FF"/>
<path d="M4.00708 37V38H3.00708V37H4.00708Z" fill="#EFC2FF"/>
<path d="M4.00708 39V40H3.00708V39H4.00708Z" fill="#EFC2FF"/>
<path d="M9.00732 33V32H10V31H9V32H8.00684V33H9.00732Z" fill="#EFC2FF"/>
<path d="M9.00732 35V34H8.00684V35H9.00732Z" fill="#EFC2FF"/>
<path d="M9.00732 37V36H8.00684V37H9.00732Z" fill="#EFC2FF"/>
<path d="M9.00732 39V38H8.00684V39H9.00732Z" fill="#EFC2FF"/>
<path d="M9.00732 41V40H8.00684V41H9.00732Z" fill="#EFC2FF"/>
<path d="M5.00757 32V33H4.00708V32H5.00757Z" fill="#EFC2FF"/>
<path d="M5.00757 34V35H4.00708V34H5.00757Z" fill="#EFC2FF"/>
<path d="M5.00757 36V37H4.00708V36H5.00757Z" fill="#EFC2FF"/>
<path d="M5.00757 38V39H4.00708V38H5.00757Z" fill="#EFC2FF"/>
<path d="M5.00757 40V41H4.00708V40H5.00757Z" fill="#EFC2FF"/>
<path d="M10.0088 34V33.0044H11.0072V32.0044H10.0072V33H9.00879V34H10.0088Z" fill="#EFC2FF"/>
<path d="M10.0088 36V35.0044H11.0072V34.0044H10.0072V35H9.00879V36H10.0088Z" fill="#EFC2FF"/>
<path d="M10.0088 38V37.0044H11.0072V36.0044H10.0072V37H9.00879V38H10.0088Z" fill="#EFC2FF"/>
<path d="M10.0088 40V39.0044H11.0072V38.0044H10.0072V39H9.00879V40H10.0088Z" fill="#EFC2FF"/>
<path d="M10.0088 42V41.0044H11.0072V40.0044H10.0072V41H9.00879V42H10.0088Z" fill="#EFC2FF"/>
<path d="M14.0093 32.9956V33.9956H13.0093V32.9956H14.0093Z" fill="#EFC2FF"/>
<path d="M14.0093 34.9956V35.9956H13.0093V34.9956H14.0093Z" fill="#EFC2FF"/>
<path d="M14.0093 36.9956V37.9956H13.0093V36.9956H14.0093Z" fill="#EFC2FF"/>
<path d="M14.0093 38.9956V39.9956H13.0093V38.9956H14.0093Z" fill="#EFC2FF"/>
<path d="M14.0093 40.9956V41.9956H13.0093V40.9956H14.0093Z" fill="#EFC2FF"/>
<path d="M12.01 33.9956V33.0011H13.0089V32.0011H12.0089V32.9956H11.01V33.9956H12.01Z" fill="#EFC2FF"/>
<path d="M12.01 35.9956V35.0011H13.0089V34.0011H12.0089V34.9956H11.01V35.9956H12.01Z" fill="#EFC2FF"/>
<path d="M12.01 37.9956V37.0011H13.0089V36.0011H12.0089V36.9956H11.01V37.9956H12.01Z" fill="#EFC2FF"/>
<path d="M12.01 39.9956V39.0011H13.0089V38.0011H12.0089V38.9956H11.01V39.9956H12.01Z" fill="#EFC2FF"/>
<path d="M12.01 41.9956V41.0011H13.0089V40.0011H12.0089V40.9956H11.01V41.9956H12.01Z" fill="#EFC2FF"/>
<path d="M11 32H12V31H11V32Z" fill="#EFC2FF"/>
<path d="M13 32H14V31H13V32Z" fill="#EFC2FF"/>
<path d="M1 32.0085H0V33.0085H1V32.0085Z" fill="#EFC2FF"/>
<path d="M3 32.0085H2V33.0085H3V32.0085Z" fill="#EFC2FF"/>
<path d="M1.00598 22V23H0.00598145V22H1.00598Z" fill="#EFC2FF"/>
<path d="M1.00598 24V25H0.00598145V24H1.00598Z" fill="#EFC2FF"/>
<path d="M1.00598 26V27H0.00598145V26H1.00598Z" fill="#EFC2FF"/>
<path d="M1.00598 28V29H0.00598145V28H1.00598Z" fill="#EFC2FF"/>
<path d="M1.00598 30V31H0.00598145V30H1.00598Z" fill="#EFC2FF"/>
<path d="M6.01245 21V22H7.00574V23H6.01245V24H7.00574V25H6.01245V26H7.00574V27H6.01245V28H7.00574V29H6.01245V30H7.00574V31H6.00574V30H5.01245V29H6.00574V28H5.01245V27H6.00574V26H5.01245V25H6.00574V24H5.01245V23H6.00574V22H5.01245V21H6.01245Z" fill="#EFC2FF"/>
<path d="M2.0127 22V21H1.0127V22H2.00598V23H1.0127V24H2.00598V25H1.0127V26H2.00598V27H1.0127V28H2.00598V29H1.0127V30H2.00598V31H3.00598V30H2.0127V29H3.00598V28H2.0127V27H3.00598V26H2.0127V25H3.00598V24H2.0127V23H3.00598V22H2.0127Z" fill="#EFC2FF"/>
<path d="M8.00684 21V22H7.00684V21H8.00684Z" fill="#EFC2FF"/>
<path d="M8.00684 23V24H7.00684V23H8.00684Z" fill="#EFC2FF"/>
<path d="M8.00684 25V26H7.00684V25H8.00684Z" fill="#EFC2FF"/>
<path d="M8.00684 27V28H7.00684V27H8.00684Z" fill="#EFC2FF"/>
<path d="M8.00684 29V30H7.00684V29H8.00684Z" fill="#EFC2FF"/>
<path d="M5.0061 32.0085H4.0061V33.0085H5.0061V32.0085Z" fill="#EFC2FF"/>
<path d="M7.0061 32.0085H6.0061V33.0085H7.0061V32.0085Z" fill="#EFC2FF"/>
<path d="M9.0061 32.0085H8.0061V33.0085H9.0061V32.0085Z" fill="#EFC2FF"/>
<path d="M11.0061 32.0085H10.0061V33.0085H11.0061V32.0085Z" fill="#EFC2FF"/>
<path d="M13.0061 32.0085H12.0061V33.0085H13.0061V32.0085Z" fill="#EFC2FF"/>
<path d="M1.0061 31.0018H2.0061V32.0018H1.0061V31.0018Z" fill="#EFC2FF"/>
<path d="M3.0061 31.0018H4.0061V32.0018H3.0061V31.0018Z" fill="#EFC2FF"/>
<path d="M5.0061 31.0018H6.0061V32.0018H5.0061V31.0018Z" fill="#EFC2FF"/>
<path d="M7.0061 31.0018H8.0061V32.0018H7.0061V31.0018Z" fill="#EFC2FF"/>
<path d="M4.00708 21V22H3.00708V21H4.00708Z" fill="#EFC2FF"/>
<path d="M4.00708 23V24H3.00708V23H4.00708Z" fill="#EFC2FF"/>
<path d="M4.00708 25V26H3.00708V25H4.00708Z" fill="#EFC2FF"/>
<path d="M4.00708 27V28H3.00708V27H4.00708Z" fill="#EFC2FF"/>
<path d="M4.00708 29V30H3.00708V29H4.00708Z" fill="#EFC2FF"/>
<path d="M9.00732 23V22H10V21H9V22H8.00684V23H9.00732Z" fill="#EFC2FF"/>
<path d="M9.00732 25V24H8.00684V25H9.00732Z" fill="#EFC2FF"/>
<path d="M9.00732 27V26H8.00684V27H9.00732Z" fill="#EFC2FF"/>
<path d="M9.00732 29V28H8.00684V29H9.00732Z" fill="#EFC2FF"/>
<path d="M9.00732 31V30H8.00684V31H9.00732Z" fill="#EFC2FF"/>
<path d="M5.00757 22V23H4.00708V22H5.00757Z" fill="#EFC2FF"/>
<path d="M5.00757 24V25H4.00708V24H5.00757Z" fill="#EFC2FF"/>
<path d="M5.00757 26V27H4.00708V26H5.00757Z" fill="#EFC2FF"/>
<path d="M5.00757 28V29H4.00708V28H5.00757Z" fill="#EFC2FF"/>
<path d="M5.00757 30V31H4.00708V30H5.00757Z" fill="#EFC2FF"/>
<path d="M10.0088 24V23.0044H11.0072V22.0044H10.0072V23H9.00879V24H10.0088Z" fill="#EFC2FF"/>
<path d="M10.0088 26V25.0044H11.0072V24.0044H10.0072V25H9.00879V26H10.0088Z" fill="#EFC2FF"/>
<path d="M10.0088 28V27.0044H11.0072V26.0044H10.0072V27H9.00879V28H10.0088Z" fill="#EFC2FF"/>
<path d="M10.0088 30V29.0044H11.0072V28.0044H10.0072V29H9.00879V30H10.0088Z" fill="#EFC2FF"/>
<path d="M10.0088 32V31.0044H11.0072V30.0044H10.0072V31H9.00879V32H10.0088Z" fill="#EFC2FF"/>
<path d="M14.0093 22.9956V23.9956H13.0093V22.9956H14.0093Z" fill="#EFC2FF"/>
<path d="M14.0093 24.9956V25.9956H13.0093V24.9956H14.0093Z" fill="#EFC2FF"/>
<path d="M14.0093 26.9956V27.9956H13.0093V26.9956H14.0093Z" fill="#EFC2FF"/>
<path d="M14.0093 28.9956V29.9956H13.0093V28.9956H14.0093Z" fill="#EFC2FF"/>
<path d="M14.0093 30.9956V31.9956H13.0093V30.9956H14.0093Z" fill="#EFC2FF"/>
<path d="M12.01 23.9956V23.0011H13.0089V22.0011H12.0089V22.9956H11.01V23.9956H12.01Z" fill="#EFC2FF"/>
<path d="M12.01 25.9956V25.0011H13.0089V24.0011H12.0089V24.9956H11.01V25.9956H12.01Z" fill="#EFC2FF"/>
<path d="M12.01 27.9956V27.0011H13.0089V26.0011H12.0089V26.9956H11.01V27.9956H12.01Z" fill="#EFC2FF"/>
<path d="M12.01 29.9956V29.0011H13.0089V28.0011H12.0089V28.9956H11.01V29.9956H12.01Z" fill="#EFC2FF"/>
<path d="M12.01 31.9956V31.0011H13.0089V30.0011H12.0089V30.9956H11.01V31.9956H12.01Z" fill="#EFC2FF"/>
<path d="M11 22H12V21H11V22Z" fill="#EFC2FF"/>
<path d="M13 22H14V21H13V22Z" fill="#EFC2FF"/>
<path d="M1 22.0085H0V23.0085H1V22.0085Z" fill="#EFC2FF"/>
<path d="M3 22.0085H2V23.0085H3V22.0085Z" fill="#EFC2FF"/>
<path d="M1.00598 12V13H0.00598145V12H1.00598Z" fill="#EFC2FF"/>
<path d="M1.00598 14V15H0.00598145V14H1.00598Z" fill="#EFC2FF"/>
<path d="M1.00598 16V17H0.00598145V16H1.00598Z" fill="#EFC2FF"/>
<path d="M1.00598 18V19H0.00598145V18H1.00598Z" fill="#EFC2FF"/>
<path d="M1.00598 20V21H0.00598145V20H1.00598Z" fill="#EFC2FF"/>
<path d="M6.01245 11V12H7.00574V13H6.01245V14H7.00574V15H6.01245V16H7.00574V17H6.01245V18H7.00574V19H6.01245V20H7.00574V21H6.00574V20H5.01245V19H6.00574V18H5.01245V17H6.00574V16H5.01245V15H6.00574V14H5.01245V13H6.00574V12H5.01245V11H6.01245Z" fill="#EFC2FF"/>
<path d="M2.0127 12V11H1.0127V12H2.00598V13H1.0127V14H2.00598V15H1.0127V16H2.00598V17H1.0127V18H2.00598V19H1.0127V20H2.00598V21H3.00598V20H2.0127V19H3.00598V18H2.0127V17H3.00598V16H2.0127V15H3.00598V14H2.0127V13H3.00598V12H2.0127Z" fill="#EFC2FF"/>
<path d="M8.00684 11V12H7.00684V11H8.00684Z" fill="#EFC2FF"/>
<path d="M8.00684 13V14H7.00684V13H8.00684Z" fill="#EFC2FF"/>
<path d="M8.00684 15V16H7.00684V15H8.00684Z" fill="#EFC2FF"/>
<path d="M8.00684 17V18H7.00684V17H8.00684Z" fill="#EFC2FF"/>
<path d="M8.00684 19V20H7.00684V19H8.00684Z" fill="#EFC2FF"/>
<path d="M5.0061 22.0085H4.0061V23.0085H5.0061V22.0085Z" fill="#EFC2FF"/>
<path d="M7.0061 22.0085H6.0061V23.0085H7.0061V22.0085Z" fill="#EFC2FF"/>
<path d="M9.0061 22.0085H8.0061V23.0085H9.0061V22.0085Z" fill="#EFC2FF"/>
<path d="M11.0061 22.0085H10.0061V23.0085H11.0061V22.0085Z" fill="#EFC2FF"/>
<path d="M13.0061 22.0085H12.0061V23.0085H13.0061V22.0085Z" fill="#EFC2FF"/>
<path d="M1.0061 21.0018H2.0061V22.0018H1.0061V21.0018Z" fill="#EFC2FF"/>
<path d="M3.0061 21.0018H4.0061V22.0018H3.0061V21.0018Z" fill="#EFC2FF"/>
<path d="M5.0061 21.0018H6.0061V22.0018H5.0061V21.0018Z" fill="#EFC2FF"/>
<path d="M7.0061 21.0018H8.0061V22.0018H7.0061V21.0018Z" fill="#EFC2FF"/>
<path d="M4.00708 11V12H3.00708V11H4.00708Z" fill="#EFC2FF"/>
<path d="M4.00708 13V14H3.00708V13H4.00708Z" fill="#EFC2FF"/>
<path d="M4.00708 15V16H3.00708V15H4.00708Z" fill="#EFC2FF"/>
<path d="M4.00708 17V18H3.00708V17H4.00708Z" fill="#EFC2FF"/>
<path d="M4.00708 19V20H3.00708V19H4.00708Z" fill="#EFC2FF"/>
<path d="M9.00732 13V12H10V11H9V12H8.00684V13H9.00732Z" fill="#EFC2FF"/>
<path d="M9.00732 15V14H8.00684V15H9.00732Z" fill="#EFC2FF"/>
<path d="M9.00732 17V16H8.00684V17H9.00732Z" fill="#EFC2FF"/>
<path d="M9.00732 19V18H8.00684V19H9.00732Z" fill="#EFC2FF"/>
<path d="M9.00732 21V20H8.00684V21H9.00732Z" fill="#EFC2FF"/>
<path d="M5.00757 12V13H4.00708V12H5.00757Z" fill="#EFC2FF"/>
<path d="M5.00757 14V15H4.00708V14H5.00757Z" fill="#EFC2FF"/>
<path d="M5.00757 16V17H4.00708V16H5.00757Z" fill="#EFC2FF"/>
<path d="M5.00757 18V19H4.00708V18H5.00757Z" fill="#EFC2FF"/>
<path d="M5.00757 20V21H4.00708V20H5.00757Z" fill="#EFC2FF"/>
<path d="M10.0088 14V13.0044H11.0072V12.0044H10.0072V13H9.00879V14H10.0088Z" fill="#EFC2FF"/>
<path d="M10.0088 16V15.0044H11.0072V14.0044H10.0072V15H9.00879V16H10.0088Z" fill="#EFC2FF"/>
<path d="M10.0088 18V17.0044H11.0072V16.0044H10.0072V17H9.00879V18H10.0088Z" fill="#EFC2FF"/>
<path d="M10.0088 20V19.0044H11.0072V18.0044H10.0072V19H9.00879V20H10.0088Z" fill="#EFC2FF"/>
<path d="M10.0088 22V21.0044H11.0072V20.0044H10.0072V21H9.00879V22H10.0088Z" fill="#EFC2FF"/>
<path d="M14.0093 12.9956V13.9956H13.0093V12.9956H14.0093Z" fill="#EFC2FF"/>
<path d="M14.0093 14.9956V15.9956H13.0093V14.9956H14.0093Z" fill="#EFC2FF"/>
<path d="M14.0093 16.9956V17.9956H13.0093V16.9956H14.0093Z" fill="#EFC2FF"/>
<path d="M14.0093 18.9956V19.9956H13.0093V18.9956H14.0093Z" fill="#EFC2FF"/>
<path d="M14.0093 20.9956V21.9956H13.0093V20.9956H14.0093Z" fill="#EFC2FF"/>
<path d="M12.01 13.9956V13.0011H13.0089V12.0011H12.0089V12.9956H11.01V13.9956H12.01Z" fill="#EFC2FF"/>
<path d="M12.01 15.9956V15.0011H13.0089V14.0011H12.0089V14.9956H11.01V15.9956H12.01Z" fill="#EFC2FF"/>
<path d="M12.01 17.9956V17.0011H13.0089V16.0011H12.0089V16.9956H11.01V17.9956H12.01Z" fill="#EFC2FF"/>
<path d="M12.01 19.9956V19.0011H13.0089V18.0011H12.0089V18.9956H11.01V19.9956H12.01Z" fill="#EFC2FF"/>
<path d="M12.01 21.9956V21.0011H13.0089V20.0011H12.0089V20.9956H11.01V21.9956H12.01Z" fill="#EFC2FF"/>
<path d="M11 12H12V11H11V12Z" fill="#EFC2FF"/>
<path d="M13 12H14V11H13V12Z" fill="#EFC2FF"/>
<g clip-path="url(#clip0_1162_749)">
<rect width="186" height="14" transform="matrix(0 1 -1 0 14 16)" fill="white"/>
<rect x="14" y="16" width="186" height="14" transform="rotate(90 14 16)" fill="#9B45CF"/>
<rect x="14" y="16" width="185" height="13" transform="rotate(90 14 16)" fill="white"/>
<rect x="13" y="17" width="184" height="12" transform="rotate(90 13 17)" fill="#FFDFF8"/>
<rect x="13" y="17" width="183" height="11" transform="rotate(90 13 17)" fill="#DBDBDB"/>
<rect x="12" y="18" width="182" height="10" transform="rotate(90 12 18)" fill="#FFDFF8"/>
</g>
<g filter="url(#filter0_iiii_1162_749)">
<rect x="14" y="16" width="186" height="14" transform="rotate(90 14 16)" fill="#FFDFF8"/>
</g>
<g clip-path="url(#clip1_1162_749)">
<rect width="16" height="14" transform="matrix(0 1 1 0 0 0)" fill="white"/>
<rect width="16" height="14" transform="matrix(0 1 1 0 0 0)" fill="#9B45CF"/>
<rect width="15" height="13" transform="matrix(0 1 1 0 0 0)" fill="white"/>
<rect width="14" height="12" transform="matrix(0 1 1 0 1 1)" fill="#808080"/>
<rect width="13" height="11" transform="matrix(0 1 1 0 1 1)" fill="#DBDBDB"/>
<rect width="12" height="10" transform="matrix(0 1 1 0 2 2)" fill="#FFDFF8"/>
</g>
<g filter="url(#filter1_iiii_1162_749)">
<rect width="16" height="14" transform="matrix(0 1 1 0 0 0)" fill="#FFDFF8"/>
</g>
<path d="M3 8.5H10M4 7.5H9M5 6.5H8M6 5.5H7" stroke="#9B45CF"/>
<g clip-path="url(#clip2_1162_749)">
<rect width="16" height="14" transform="matrix(0 -1 1 0 0 229)" fill="white"/>
<rect y="229" width="16" height="14" transform="rotate(-90 0 229)" fill="#9B45CF"/>
<rect y="229" width="15" height="13" transform="rotate(-90 0 229)" fill="white"/>
<rect x="1" y="228" width="14" height="12" transform="rotate(-90 1 228)" fill="#808080"/>
<rect x="1" y="228" width="13" height="11" transform="rotate(-90 1 228)" fill="#DBDBDB"/>
<rect x="2" y="227" width="12" height="10" transform="rotate(-90 2 227)" fill="#FFDFF8"/>
</g>
<g filter="url(#filter2_iiii_1162_749)">
<rect y="229" width="16" height="14" transform="rotate(-90 0 229)" fill="#FFDFF8"/>
</g>
<path d="M3 220.5H10M4 221.5H9M5 222.5H8M6 223.5H7" stroke="#9B45CF"/>
<defs>
<filter id="filter0_iiii_1162_749" x="0" y="16" width="14" height="186" filterUnits="userSpaceOnUse" color-interpolation-filters="sRGB">
<feFlood flood-opacity="0" result="BackgroundImageFix"/>
<feBlend mode="normal" in="SourceGraphic" in2="BackgroundImageFix" result="shape"/>
<feColorMatrix in="SourceAlpha" type="matrix" values="0 0 0 0 0 0 0 0 0 0 0 0 0 0 0 0 0 0 127 0" result="hardAlpha"/>
<feOffset dx="2" dy="2"/>
<feComposite in2="hardAlpha" operator="arithmetic" k2="-1" k3="1"/>
<feColorMatrix type="matrix" values="0 0 0 0 1 0 0 0 0 0.770833 0 0 0 0 0.949802 0 0 0 1 0"/>
<feBlend mode="normal" in2="shape" result="effect1_innerShadow_1162_749"/>
<feColorMatrix in="SourceAlpha" type="matrix" values="0 0 0 0 0 0 0 0 0 0 0 0 0 0 0 0 0 0 127 0" result="hardAlpha"/>
<feOffset dx="-2" dy="-2"/>
<feComposite in2="hardAlpha" operator="arithmetic" k2="-1" k3="1"/>
<feColorMatrix type="matrix" values="0 0 0 0 1 0 0 0 0 0.629167 0 0 0 0 0.916882 0 0 0 1 0"/>
<feBlend mode="normal" in2="effect1_innerShadow_1162_749" result="effect2_innerShadow_1162_749"/>
<feColorMatrix in="SourceAlpha" type="matrix" values="0 0 0 0 0 0 0 0 0 0 0 0 0 0 0 0 0 0 127 0" result="hardAlpha"/>
<feOffset dx="1" dy="1"/>
<feComposite in2="hardAlpha" operator="arithmetic" k2="-1" k3="1"/>
<feColorMatrix type="matrix" values="0 0 0 0 1 0 0 0 0 1 0 0 0 0 1 0 0 0 1 0"/>
<feBlend mode="normal" in2="effect2_innerShadow_1162_749" result="effect3_innerShadow_1162_749"/>
<feColorMatrix in="SourceAlpha" type="matrix" values="0 0 0 0 0 0 0 0 0 0 0 0 0 0 0 0 0 0 127 0" result="hardAlpha"/>
<feOffset dx="-1" dy="-1"/>
<feComposite in2="hardAlpha" operator="arithmetic" k2="-1" k3="1"/>
<feColorMatrix type="matrix" values="0 0 0 0 0.607843 0 0 0 0 0.270588 0 0 0 0 0.811765 0 0 0 1 0"/>
<feBlend mode="normal" in2="effect3_innerShadow_1162_749" result="effect4_innerShadow_1162_749"/>
</filter>
<filter id="filter1_iiii_1162_749" x="0" y="0" width="14" height="16" filterUnits="userSpaceOnUse" color-interpolation-filters="sRGB">
<feFlood flood-opacity="0" result="BackgroundImageFix"/>
<feBlend mode="normal" in="SourceGraphic" in2="BackgroundImageFix" result="shape"/>
<feColorMatrix in="SourceAlpha" type="matrix" values="0 0 0 0 0 0 0 0 0 0 0 0 0 0 0 0 0 0 127 0" result="hardAlpha"/>
<feOffset dx="2" dy="2"/>
<feComposite in2="hardAlpha" operator="arithmetic" k2="-1" k3="1"/>
<feColorMatrix type="matrix" values="0 0 0 0 1 0 0 0 0 0.770833 0 0 0 0 0.949802 0 0 0 1 0"/>
<feBlend mode="normal" in2="shape" result="effect1_innerShadow_1162_749"/>
<feColorMatrix in="SourceAlpha" type="matrix" values="0 0 0 0 0 0 0 0 0 0 0 0 0 0 0 0 0 0 127 0" result="hardAlpha"/>
<feOffset dx="-2" dy="-2"/>
<feComposite in2="hardAlpha" operator="arithmetic" k2="-1" k3="1"/>
<feColorMatrix type="matrix" values="0 0 0 0 1 0 0 0 0 0.629167 0 0 0 0 0.916882 0 0 0 1 0"/>
<feBlend mode="normal" in2="effect1_innerShadow_1162_749" result="effect2_innerShadow_1162_749"/>
<feColorMatrix in="SourceAlpha" type="matrix" values="0 0 0 0 0 0 0 0 0 0 0 0 0 0 0 0 0 0 127 0" result="hardAlpha"/>
<feOffset dx="1" dy="1"/>
<feComposite in2="hardAlpha" operator="arithmetic" k2="-1" k3="1"/>
<feColorMatrix type="matrix" values="0 0 0 0 1 0 0 0 0 1 0 0 0 0 1 0 0 0 1 0"/>
<feBlend mode="normal" in2="effect2_innerShadow_1162_749" result="effect3_innerShadow_1162_749"/>
<feColorMatrix in="SourceAlpha" type="matrix" values="0 0 0 0 0 0 0 0 0 0 0 0 0 0 0 0 0 0 127 0" result="hardAlpha"/>
<feOffset dx="-1" dy="-1"/>
<feComposite in2="hardAlpha" operator="arithmetic" k2="-1" k3="1"/>
<feColorMatrix type="matrix" values="0 0 0 0 0.607843 0 0 0 0 0.270588 0 0 0 0 0.811765 0 0 0 1 0"/>
<feBlend mode="normal" in2="effect3_innerShadow_1162_749" result="effect4_innerShadow_1162_749"/>
</filter>
<filter id="filter2_iiii_1162_749" x="0" y="213" width="14" height="16" filterUnits="userSpaceOnUse" color-interpolation-filters="sRGB">
<feFlood flood-opacity="0" result="BackgroundImageFix"/>
<feBlend mode="normal" in="SourceGraphic" in2="BackgroundImageFix" result="shape"/>
<feColorMatrix in="SourceAlpha" type="matrix" values="0 0 0 0 0 0 0 0 0 0 0 0 0 0 0 0 0 0 127 0" result="hardAlpha"/>
<feOffset dx="2" dy="2"/>
<feComposite in2="hardAlpha" operator="arithmetic" k2="-1" k3="1"/>
<feColorMatrix type="matrix" values="0 0 0 0 1 0 0 0 0 0.770833 0 0 0 0 0.949802 0 0 0 1 0"/>
<feBlend mode="normal" in2="shape" result="effect1_innerShadow_1162_749"/>
<feColorMatrix in="SourceAlpha" type="matrix" values="0 0 0 0 0 0 0 0 0 0 0 0 0 0 0 0 0 0 127 0" result="hardAlpha"/>
<feOffset dx="-2" dy="-2"/>
<feComposite in2="hardAlpha" operator="arithmetic" k2="-1" k3="1"/>
<feColorMatrix type="matrix" values="0 0 0 0 1 0 0 0 0 0.629167 0 0 0 0 0.916882 0 0 0 1 0"/>
<feBlend mode="normal" in2="effect1_innerShadow_1162_749" result="effect2_innerShadow_1162_749"/>
<feColorMatrix in="SourceAlpha" type="matrix" values="0 0 0 0 0 0 0 0 0 0 0 0 0 0 0 0 0 0 127 0" result="hardAlpha"/>
<feOffset dx="1" dy="1"/>
<feComposite in2="hardAlpha" operator="arithmetic" k2="-1" k3="1"/>
<feColorMatrix type="matrix" values="0 0 0 0 1 0 0 0 0 1 0 0 0 0 1 0 0 0 1 0"/>
<feBlend mode="normal" in2="effect2_innerShadow_1162_749" result="effect3_innerShadow_1162_749"/>
<feColorMatrix in="SourceAlpha" type="matrix" values="0 0 0 0 0 0 0 0 0 0 0 0 0 0 0 0 0 0 127 0" result="hardAlpha"/>
<feOffset dx="-1" dy="-1"/>
<feComposite in2="hardAlpha" operator="arithmetic" k2="-1" k3="1"/>
<feColorMatrix type="matrix" values="0 0 0 0 0.607843 0 0 0 0 0.270588 0 0 0 0 0.811765 0 0 0 1 0"/>
<feBlend mode="normal" in2="effect3_innerShadow_1162_749" result="effect4_innerShadow_1162_749"/>
</filter>
<clipPath id="clip0_1162_749">
<rect width="186" height="14" fill="white" transform="matrix(0 1 -1 0 14 16)"/>
</clipPath>
<clipPath id="clip1_1162_749">
<rect width="16" height="14" fill="white" transform="matrix(0 1 1 0 0 0)"/>
</clipPath>
<clipPath id="clip2_1162_749">
<rect width="16" height="14" fill="white" transform="matrix(0 -1 1 0 0 229)"/>
</clipPath>
</defs>
</svg>
