<svg width="41" height="13" viewBox="0 0 41 13" fill="none" xmlns="http://www.w3.org/2000/svg">
<path d="M1.48933 0V0.5M1.48933 12V0.5M1.48933 0.5H12.4893H12.9893" stroke="#FF70E0"/>
<path d="M1.98933 11.5H12.4893M12.9893 11.5H12.4893M12.4893 11.5V1" stroke="#FFDFF8"/>
<path d="M2.48933 11V1.5M2.48933 1V1.5M2.48933 1.5H11.9893" stroke="#FF39B8"/>
<path d="M4.48933 5V6.5M4.48933 8V6.5M4.48933 6.5H5.48933M5.98933 6.5H5.48933M5.48933 6.5V8.5M5.48933 9V8.5M5.48933 8.5H6.48933M7.98933 8.5H6.48933M6.48933 8.5V10V7.5M6.48933 7V7.5M6.48933 7.5H7.48933M8.98933 7.5H7.48933M7.48933 7.5V6.5M7.48933 6V6.5M7.48933 6.5H8.48933M9.98933 6.5H8.48933M8.48933 6.5V5.5M8.48933 5V5.5M8.48933 5.5H9.48933M10.9893 5.5H9.48933M9.48933 5.5V4.5M9.48933 4V4.5M9.48933 4.5H10.4893M10.9893 4.5H10.4893M10.4893 4.5V3" stroke="#FF39B8"/>
<path d="M22.9998 11H21.998V3.00244H20V2.00073H24.9978V3.00244H22.9998V11ZM30.0037 11H27.0039V10.001H30.0037V11ZM31.0027 10.001H30.0037V9.00195H31.0027V10.001ZM27.0039 10.001H26.0049V6.0022H27.0039V7.00122H30.0037V6.0022H31.0027V8.00024H27.0039V10.001ZM30.0037 6.0022H27.0039V5.00049H30.0037V6.0022ZM33.0088 11H32.0098V9.00195H33.0088V11ZM36.0085 11H35.0095V9.00195H36.0085V11ZM35.0095 9.00195H33.0088V7.00122H35.0095V9.00195ZM33.0088 7.00122H32.0098V5.00049H33.0088V7.00122ZM36.0085 7.00122H35.0095V5.00049H36.0085V7.00122ZM39.0029 11H38.0039V10.001H39.0029V11ZM38.0039 10.001H37.0049V3.00244H38.0039V5.00049H39.0029V6.0022H38.0039V10.001Z" fill="#FF39B8"/>
<path d="M1.5 0V0.5M1.5 12V0.5M1.5 0.5H12.5H13" stroke="#FF70E0"/>
<path d="M2 11.5H12.5M13 11.5H12.5M12.5 11.5V1" stroke="#FFDFF8"/>
<path d="M2.5 11V1.5M2.5 1V1.5M2.5 1.5H12" stroke="#FF39B8"/>
<path d="M4.5 5V6.5M4.5 8V6.5M4.5 6.5H5.5M6 6.5H5.5M5.5 6.5V8.5M5.5 9V8.5M5.5 8.5H6.5M8 8.5H6.5M6.5 8.5V10V7.5M6.5 7V7.5M6.5 7.5H7.5M9 7.5H7.5M7.5 7.5V6.5M7.5 6V6.5M7.5 6.5H8.5M10 6.5H8.5M8.5 6.5V5.5M8.5 5V5.5M8.5 5.5H9.5M11 5.5H9.5M9.5 5.5V4.5M9.5 4V4.5M9.5 4.5H10.5M11 4.5H10.5M10.5 4.5V3" stroke="#FF39B8"/>
</svg>
