<svg width="32" height="32" viewBox="0 0 32 32" fill="none" xmlns="http://www.w3.org/2000/svg">
<path d="M7 0.5H13H14M7 1.5H4M4 2.5H1M0.5 3V10M1.5 11V16M2.5 17V21M3.5 22V24M13.5 3V0M16 3.5H15" stroke="#FFB3EE"/>
<path d="M3 24.5H4M4 25.5H5M5 26.5H7M7 27.5H9M9 28.5H11M11 29.5H13M13 30.5H15M15 31.5H17M4 3.5H9M7.5 2V5M7 2.5H11M11 1.5H13M15 2.5H17M14.5 3V5M18 4.5H20M20 5.5H21M23 8.5H24M21 6.5H22M17.5 5V7M16.5 7V8M15.5 5V7" stroke="#FF96E8"/>
<path d="M28 6.5H26M27 7.5H26M25 6.5H24M24 5.5H23M23 9.5H19M19 8.5H16M16 7.5H13M13 6.5H10M11 5.5C10.6 5.5 8.16667 5.5 7 5.5M7 4.5H4M1 5.5H4M4 6.5H7M7 7.5H10M10 8.5H13M13 9.5H16M15.5 10.5H15H19M20.5 11V14M19.5 11.5V11V18M18.5 11V22M17.5 18V23" stroke="#FFC8EC"/>
<path d="M16 6.5H17" stroke="#FFC8EC"/>
<path d="M16 11.5H17M17 12.5H18" stroke="#FFC8EC"/>
<path d="M16 13.4919H17M17 14.4919H18" stroke="#FFC8EC"/>
<path d="M16 15.4838H17M17 16.4838H18" stroke="#FFC8EC"/>
<path d="M17 17.4758H16M16 18.4758H15" stroke="#FFC8EC"/>
<path d="M8 4.5H11M11 5.5H12M13 5.5H14M14 6.5H15M17 7.5H19M20 7.5H21M19 8.5H20M21 8.5H23M1.5 9V10M2.5 15V16M3.5 20V21M4.5 24V25M9 8.5H10M13 10.5H15M13 11.5H16M13 17.5H16M12 18.5H15M13 19.5H15M12 20.5H14M12 21.5H14M17.5 23V27M16.5 23V31M15.5 24V25M15.5 26V30M14 29.5H15M8 25.5H9" stroke="#FFDFF8"/>
<path d="M9 10.5H10M10 9.5H11" stroke="#FFDFF8"/>
<path d="M11 10.5H12M12 9.5H13" stroke="#FFDFF8"/>
<path d="M16 12.5H17M17 11.5H18" stroke="#FFDFF8"/>
<path d="M16 14.4919H17M17 13.4919H18" stroke="#FFDFF8"/>
<path d="M16 16.4838H17M17 15.4838H18" stroke="#FFDFF8"/>
<path d="M16 18.4756H17M17 17.4756H18" stroke="#FFDFF8"/>
<path d="M16 18.5H17M17 17.5H18" stroke="#FFDFF8"/>
<path d="M13 28.499H14M14 27.499H15" stroke="#FFDFF8"/>
<path d="M12 27.499H13M13 26.499H14" stroke="#FFDFF8"/>
<path d="M10 27.499H11M11 26.499H12" stroke="#FFDFF8"/>
<path d="M9 26.499H10M10 25.499H11" stroke="#FFDFF8"/>
<path d="M9 19.5H10M10 18.5H11" stroke="#FFDFF8"/>
<path d="M9 17.5H10M10 16.5H11" stroke="#FFDFF8"/>
<path d="M15.5 19V23M15 23.5H14M14 25.5H13M13 24.5H12M9 21.5H8.5H8M8 20.5H7M6.5 20V16M7 15.5H9M15 16.5H14M14 15.5H11M13 14.5H12M12 13.5H11M11 12.5H10" stroke="#BB5BF5"/>
<path d="M14.5 12V16M5.5 12V17M3 14.5H4.5M8 14.5H4.5M6.5 13V16M4.5 13V14.5M15 22.5H13M14 23.5H11M11.5 20V23M10 22.5H11M14 14.5H13M13 13.5H12M12 12.5H11M11 11.5H8" stroke="#CC78FF"/>
<path d="M15 21.5H14M13 22.5H12M5 17.5H6M14 16.5H13M14 13.5H13M13 12.5H12M12 11.5H11M11.5 19.5H12H11M11 21.5H10M12 24.5H11M11 23.5H10M10 22.5H9" stroke="#D899FF"/>
<path d="M15 20.5H14M12.5 16V17M13.5 24V25M12.5 25V26M9.5 23V24M7.5 22V21M7.5 20V19M6.5 21V20M5.5 20V18M5.5 12V11M6.5 13V12M7.5 12V11" stroke="#E7BFFF"/>
<path d="M11.5 17.5H11H12M10 20.5H11" stroke="#FFDFF8"/>
<path d="M25.5 9V10M24.5 10V12.0234M23.5 10V14.0245M22.5 11V16M21.5 11V18M20.5 15V20M19.5 19V22M18.5 23V24" stroke="#FF70E0"/>
<path d="M23 4.5H25M25 5.5H28M28 6.5H30M29 8.5H27M28 9.5H26M27 10.5H25" stroke="#FF53D9"/>
<path d="M27 11.4998H26H25" stroke="#FF53D9"/>
<path d="M26 12.5004H25H24" stroke="#FF53D9"/>
<path d="M19 22.5H21M20 21.5H22M20 20.5H22M18 24.5H20M19 23.5H21M18 25.5H20M18 26.5H19" stroke="#FF53D9"/>
<path d="M21 19.5H23M21 18.5H23M22.5 16V20M23.5 17V14M24.5 16V13M25 13.5H26M17 28.5H18" stroke="#FF53D9"/>
<path d="M21 23.4958H20H19" stroke="#FF53D9"/>
<path d="M14 2.5H15M22 7.5H23M10 1.5H11M17.5 31V29M18.5 29V27M19.5 27V26M20.5 25V24M21.5 23V22M22.5 21V20M23.5 19V17M24.5 17V16M25.5 15V14M26.5 13V12M27.5 11V10" stroke="#FF45D6"/>
<path d="M29.5 7V8M30 9.5H28M29 10.5H28M29 12.5H27M27.5 11V14M26.5 13V15M25.5 15V18M24.5 17V20M23.5 19V21M22.5 21V24M21.5 23V26M20.5 25V28M19.5 27V30M18.5 29V31M17.5 31V32M20.5 30V31M4 3.5H2M7 2.5H5M9.5 1.5H10H8" stroke="#FF34D3"/>
<path d="M29.5 8V9M29.5 10V11M28.5 11V12M28.5 13V15M29 14.5H27M26.5 15V19M25.5 18V21M24.5 20V23M23.5 21V25M22.5 24V27M21.5 26V29M20.5 28V30M19.5 30V31M18.5 31V32" stroke="#FF20CE"/>
<path d="M27.5 15V19M26.5 19V22M25.5 21V26M24.5 23V29M23.5 25V29M22.5 27V30M22 29.5H21M8 1.5H7M5 2.5H4M2 3.5H1" stroke="#FA00C3"/>
<path d="M25.5 6V8M24.5 5V6M23.5 6V8M24.5 7V9M20.5 14V15M19.5 18V19M18.5 22V23M17.5 27V28M15 30.5H16M13 29.5H14M11 28.5H12M9 27.5H10M7 26.5H8M5 25.5H6M3 21.5H4M2.5 16V17M1.5 10V11" stroke="#FF7ECC"/>
<path d="M21.5 6V4M18 4.5C16.8284 4.5 16.1716 4.5 15 4.5M16.5 4V6M21 4.5H20M22 7.5H21M20.5 6V7M20.5 8.5V8V9M20 7.5H19M18.5 6V7M15 5.5H14M12.5 3V4M14 4.5H13M13 6.5H14M13 5.5H12M12 4.5H11" stroke="#FFB7E2"/>
<path d="M1.5 7V9M2 6.5H4M2 7.5H6M2.5 8V15M3.5 15V20M4.5 15V24M5.5 20V25M6.5 21V26M7.5 22V26M10 9.5H3M9 8.5H3M3 10.5H9M3.5 11V14M4.5 11V13M6 11.5H7M10 10.5H11M11 9.5H12M13 10.5H12M8 12.5H10M9 13.5H11M9 14.5H11M10.5 15V16M11.5 16C11.5 16.3905 11.5 17 11.5 17M12.5 17V18M12.5 19V20M10.5 19V20M9.5 20V21M8.5 18V20M9.5 18V19M11.5 18V19M10.5 17V18M10 16.5H8M14.5 26V27M13.5 27V28M14.5 28V29M12.5 28V29M11.5 27V28M10.5 26V27M9.5 25V26M8.5 26V27" stroke="#FFB7E2"/>
<path d="M1.5 6V7M8.5 13V14V15M6.5 7V8M15.5 13V17M16.5 19V23M15.5 23V24M14.5 24V26M12.5 26V27M11.5 25V26M10.5 24V25M8.5 24V22M9.5 22V21M8.5 21V20M9.5 16V15M7.5 19V16M7.5 14V12M13.5 13V12M12.5 12V11M29 7.5H27M27 8.5H25M25 9.5H23M23 10.5H19M19 9.5H16M16 8.5H13M13 7.5H10M10 6.5H7M7 5.5H4M4 4.5H1" stroke="#FFEDFB"/>
<path d="M15.5 25V26M10 24.5H8M12 14.5H11M9 17.5H8M15 12.5H16" stroke="#FFCBF4"/>
<path d="M7 1.5H10M4 2.5H10M1 3.5H11M4 4.5H11.5H12M7 5.5H13M10 6.5H14M13 7.5H15" stroke="#FA00C3"/>
<path d="M10 2.5H11M11 3.5H12M12 4.5H13M13 5.5H14M14 6.5H15M15 7.5H16M16 8.5H17" stroke="#FF23CF"/>
<path d="M10 1.5H11M11 2.5H12M12 3.5H13M13 4.5H13.5H14M14 5.5H15M15 6.5H16M16 7.5H17M17 8.5H18" stroke="#FF34D3"/>
<path d="M11.5 1V2M12.5 2V3M13.5 3V4M14.5 4V5M15.5 5V6M16.5 6V7M17.5 7V8M18.5 8V9M19.5 9V10" stroke="#FF70E0"/>
<path d="M14 1.5H16" stroke="#FF53D9"/>
<path d="M16 2.5H19M19 3.5H22M22 4.5H25M25 5.5H28M28 6.5H30" stroke="#FF53D9"/>
<path d="M12 1.5H14M13 2.5H15" stroke="#FFB3EE"/>
<path d="M14 3.5H16M15 4.5H17" stroke="#FFB3EE"/>
<path d="M16 5.5H18M17 6.5H19" stroke="#FFB3EE"/>
<path d="M18 7.5H20M19 8.5H21" stroke="#FFB3EE"/>
<path d="M20 9.5H22M15 2.5H16" stroke="#FFDFF8"/>
<path d="M16 3.5H18" stroke="#FFDFF8"/>
<path d="M17 4.5H19" stroke="#FFDFF8"/>
<path d="M18 5.5H20" stroke="#FFDFF8"/>
<path d="M19 6.5H21" stroke="#FFDFF8"/>
<path d="M20 7.5H22" stroke="#FFDFF8"/>
<path d="M21 8.5H23" stroke="#FFDFF8"/>
<path d="M25 7.5H27" stroke="#FFDFF8"/>
<path d="M26 6.5H28" stroke="#FFDFF8"/>
<path d="M22 9.5H23M24 8.5H25M20 4.5H21M21 5.5H22M23 5.5H24M23 6.5H22M24 7.5H23M25 6.5H24" stroke="#FFDFF8"/>
<path d="M18 3.5H19" stroke="#FF7ECC"/>
<path d="M19 4.5H20M20 5.5H21" stroke="#FF7ECC"/>
<path d="M21 4.5H22M22 5.5H23" stroke="#FF7ECC"/>
<path d="M21 6.5H22M22 7.5H23" stroke="#FF7ECC"/>
<path d="M23 6.5H24M24 7.5H25" stroke="#FF7ECC"/>
<path d="M24 5.5H25M25 6.5H26" stroke="#FF7ECC"/>
<path d="M23 8.5H24" stroke="#FF7ECC"/>
</svg>
