<svg width="355" height="68" viewBox="0 0 355 68" fill="none" xmlns="http://www.w3.org/2000/svg">
<path d="M23.4141 27.6797C22.6484 26.8516 21.8438 26.2109 21 25.7578C20.1562 25.2891 19.375 24.9531 18.6562 24.75C17.9375 24.5312 17.3359 24.4062 16.8516 24.375C16.3672 24.3281 16.0938 24.3047 16.0312 24.3047C15.25 24.3047 14.6172 24.4062 14.1328 24.6094C13.6484 24.7969 13.2656 25.0469 12.9844 25.3594C12.7188 25.6562 12.5312 26 12.4219 26.3906C12.3281 26.7656 12.2812 27.1484 12.2812 27.5391C12.2812 27.9141 12.3203 28.3047 12.3984 28.7109C12.4922 29.1172 12.6406 29.4922 12.8438 29.8359C13.0469 30.1641 13.3203 30.4375 13.6641 30.6562C14.0078 30.875 14.4453 30.9844 14.9766 30.9844C15.0078 30.9844 15.1328 30.9844 15.3516 30.9844C15.5703 30.9688 15.8438 30.9062 16.1719 30.7969C16.5 30.6719 16.8594 30.4688 17.25 30.1875C17.6562 29.8906 18.0625 29.4688 18.4688 28.9219V38.4609C18.1406 37.8672 17.7812 37.3984 17.3906 37.0547C17 36.7109 16.625 36.4609 16.2656 36.3047C15.9219 36.1328 15.6094 36.0312 15.3281 36C15.0625 35.9531 14.8828 35.9297 14.7891 35.9297C14.2734 35.9297 13.8438 36.0156 13.5 36.1875C13.1719 36.3594 12.9062 36.6016 12.7031 36.9141C12.5156 37.2109 12.3828 37.5781 12.3047 38.0156C12.2266 38.4375 12.1875 38.9062 12.1875 39.4219C12.2344 40.625 12.3516 41.8672 12.5391 43.1484C12.6172 43.6953 12.7188 44.2734 12.8438 44.8828C12.9688 45.4922 13.125 46.125 13.3125 46.7812C13.5 47.4219 13.7188 48.0703 13.9688 48.7266C14.2188 49.3672 14.5078 50 14.8359 50.625C14.4922 50.6094 14.1172 50.5859 13.7109 50.5547C13.3516 50.5234 12.9297 50.5 12.4453 50.4844C11.9766 50.4688 11.4453 50.4609 10.8516 50.4609C10.1484 50.4609 9.38281 50.4844 8.55469 50.5312C7.72656 50.5625 6.88281 50.625 6.02344 50.7188C5.16406 50.8125 4.29688 50.9375 3.42188 51.0938C2.54688 51.2656 1.71094 51.4766 0.914062 51.7266C1.25781 51.0234 1.55469 50.1328 1.80469 49.0547C2.05469 47.9766 2.25781 46.8281 2.41406 45.6094C2.58594 44.3906 2.71875 43.1484 2.8125 41.8828C2.90625 40.6172 2.97656 39.4453 3.02344 38.3672C3.07031 37.2734 3.09375 36.3281 3.09375 35.5312C3.10938 34.7188 3.11719 34.1641 3.11719 33.8672C3.11719 33.8047 3.10938 33.5625 3.09375 33.1406C3.09375 32.7188 3.08594 32.1719 3.07031 31.5C3.05469 30.8281 3.03125 30.0625 3 29.2031C2.96875 28.3281 2.92188 27.4219 2.85938 26.4844C2.8125 25.5469 2.74219 24.6016 2.64844 23.6484C2.57031 22.6953 2.46875 21.7969 2.34375 20.9531C2.23438 20.0938 2.10156 19.3281 1.94531 18.6562C1.80469 17.9688 1.63281 17.4219 1.42969 17.0156C2.92969 17.3281 4.45312 17.5547 6 17.6953C7.5625 17.8203 9.10156 17.8828 10.6172 17.8828C12.3516 17.8828 13.9922 17.8281 15.5391 17.7188C17.0859 17.5938 18.4453 17.4531 19.6172 17.2969C20.9922 17.125 22.2578 16.9219 23.4141 16.6875V27.6797ZM35.9531 50.9062C35.6875 50.8906 35.375 50.8672 35.0156 50.8359C34.7031 50.8203 34.3359 50.8047 33.9141 50.7891C33.4922 50.7734 33.0078 50.7656 32.4609 50.7656C31.4453 50.7656 30.2734 50.8125 28.9453 50.9062C27.6172 50.9844 26.1797 51.1406 24.6328 51.375C24.9297 50.7812 25.1797 50.0391 25.3828 49.1484C25.5859 48.2422 25.75 47.2812 25.875 46.2656C26.0156 45.2344 26.1172 44.1953 26.1797 43.1484C26.2578 42.1016 26.3125 41.1406 26.3438 40.2656C26.375 39.3906 26.3906 38.6484 26.3906 38.0391C26.4062 37.4297 26.4141 37.0469 26.4141 36.8906C26.3828 34.8594 26.3125 32.9609 26.2031 31.1953C26.1562 30.4453 26.0938 29.6875 26.0156 28.9219C25.9531 28.1562 25.875 27.4375 25.7812 26.7656C25.6875 26.0781 25.5781 25.4688 25.4531 24.9375C25.3438 24.3906 25.2109 23.9609 25.0547 23.6484C26.3203 23.8672 27.4922 24.0156 28.5703 24.0938C29.6484 24.1719 30.625 24.2109 31.5 24.2109C32.0625 24.2109 32.5625 24.2031 33 24.1875C33.4531 24.1562 33.8359 24.125 34.1484 24.0938C34.5234 24.0625 34.8516 24.0234 35.1328 23.9766C34.8516 25.3828 34.6172 27.0781 34.4297 29.0625C34.2578 31.0469 34.1719 33.1719 34.1719 35.4375C34.1719 36.7344 34.2031 38.0469 34.2656 39.375C34.3281 40.7031 34.4297 42.0312 34.5703 43.3594C34.7109 44.6719 34.8906 45.9688 35.1094 47.25C35.3438 48.5156 35.625 49.7344 35.9531 50.9062ZM25.1953 17.3906C25.1953 16.6719 25.3281 16 25.5938 15.375C25.875 14.7344 26.25 14.1797 26.7188 13.7109C27.2031 13.2266 27.7656 12.8516 28.4062 12.5859C29.0469 12.3047 29.7266 12.1641 30.4453 12.1641C31.1641 12.1641 31.8359 12.3047 32.4609 12.5859C33.1016 12.8516 33.6562 13.2266 34.125 13.7109C34.6094 14.1797 34.9844 14.7344 35.25 15.375C35.5312 16 35.6719 16.6719 35.6719 17.3906C35.6719 18.1094 35.5312 18.7891 35.25 19.4297C34.9844 20.0703 34.6094 20.6328 34.125 21.1172C33.6562 21.5859 33.1016 21.9609 32.4609 22.2422C31.8359 22.5078 31.1641 22.6406 30.4453 22.6406C29.7266 22.6406 29.0469 22.5078 28.4062 22.2422C27.7656 21.9609 27.2031 21.5859 26.7188 21.1172C26.25 20.6328 25.875 20.0703 25.5938 19.4297C25.3281 18.7891 25.1953 18.1094 25.1953 17.3906ZM56.4844 22.5469C56.3594 23.25 56.2656 23.9375 56.2031 24.6094C56.1562 25.2812 56.1328 25.9688 56.1328 26.6719C56.1328 27.3438 56.1562 28.0234 56.2031 28.7109C56.2656 29.3828 56.3594 30.0625 56.4844 30.75C55.7344 30.3594 54.8828 30.0703 53.9297 29.8828C52.9922 29.6953 52.0312 29.5469 51.0469 29.4375V31.4531C51.0469 33.2188 51.0781 35.0078 51.1406 36.8203C51.2031 38.6172 51.3047 40.3672 51.4453 42.0703C51.5859 43.7578 51.7656 45.3594 51.9844 46.875C52.2188 48.3906 52.5 49.7344 52.8281 50.9062C52.5625 50.8906 52.25 50.8672 51.8906 50.8359C51.5781 50.8203 51.2109 50.8047 50.7891 50.7891C50.3672 50.7734 49.8828 50.7656 49.3359 50.7656C48.3203 50.7656 47.1484 50.8125 45.8203 50.9062C44.4922 50.9844 43.0547 51.1406 41.5078 51.375C42.0391 48.3281 42.4141 45.1641 42.6328 41.8828C42.8672 38.5859 42.9844 35.3672 42.9844 32.2266V29.4375C41.9219 29.5156 40.8672 29.6406 39.8203 29.8125C38.7891 29.9688 37.8125 30.1641 36.8906 30.3984C36.9531 30.2266 37.0078 30 37.0547 29.7188C37.1016 29.4375 37.1328 29.1484 37.1484 28.8516C37.1797 28.5547 37.1953 28.2656 37.1953 27.9844C37.2109 27.7031 37.2188 27.4688 37.2188 27.2812C37.2188 26.4844 37.1875 25.6953 37.125 24.9141C37.0625 24.1328 36.9844 23.3438 36.8906 22.5469C37.6406 22.8594 38.5312 23.1172 39.5625 23.3203C40.5938 23.5078 41.6406 23.6484 42.7031 23.7422C42.6094 22.3828 42.5 21.125 42.375 19.9688C42.25 18.8125 42.1016 17.7656 41.9297 16.8281C43.1953 17.0469 44.3672 17.1953 45.4453 17.2734C46.5234 17.3516 47.5 17.3906 48.375 17.3906C48.9375 17.3906 49.4375 17.3828 49.875 17.3672C50.3281 17.3359 50.7109 17.3047 51.0234 17.2734C51.3984 17.2422 51.7266 17.2031 52.0078 17.1562C51.8359 17.9062 51.6875 18.8438 51.5625 19.9688C51.4531 21.0781 51.3438 22.3203 51.2344 23.6953C52.2656 23.5859 53.2344 23.4375 54.1406 23.25C55.0625 23.0625 55.8438 22.8281 56.4844 22.5469ZM90.2344 26.1797C90.2344 26.9766 90.0938 27.7891 89.8125 28.6172C89.5312 29.4297 89.125 30.1719 88.5938 30.8438C88.0781 31.5 87.4453 32.0391 86.6953 32.4609C85.9453 32.8828 85.0938 33.0938 84.1406 33.0938C83.2969 33.0938 82.5703 32.9531 81.9609 32.6719C81.3672 32.375 80.875 31.9844 80.4844 31.5C80.1094 31.0156 79.8281 30.4688 79.6406 29.8594C79.4531 29.25 79.3594 28.6172 79.3594 27.9609C79.3594 27.3047 79.4375 26.6719 79.5938 26.0625C79.7656 25.4375 80.0234 24.8828 80.3672 24.3984C80.4609 24.7266 80.5859 24.9844 80.7422 25.1719C80.8984 25.3438 81.0625 25.4688 81.2344 25.5469C81.4219 25.6406 81.625 25.6953 81.8438 25.7109C82.3438 25.7109 82.6953 25.5781 82.8984 25.3125C83.1172 25.0469 83.2266 24.7422 83.2266 24.3984C83.2266 24.2422 83.1953 24.0859 83.1328 23.9297C83.0703 23.7578 82.9688 23.6016 82.8281 23.4609C82.7031 23.3203 82.5312 23.2031 82.3125 23.1094C82.0938 23.0156 81.8281 22.9688 81.5156 22.9688C81.3438 22.9688 81.0938 22.9922 80.7656 23.0391C80.4531 23.0859 80.1016 23.2109 79.7109 23.4141C79.3203 23.6016 78.9219 23.8906 78.5156 24.2812C78.1094 24.6719 77.7344 25.2031 77.3906 25.875C77.0625 26.5469 76.7891 27.3828 76.5703 28.3828C76.3672 29.3828 76.2656 30.6016 76.2656 32.0391C76.2656 33.0234 76.3594 33.8828 76.5469 34.6172C76.75 35.3359 77.0078 35.9531 77.3203 36.4688C77.6328 36.9844 77.9922 37.4062 78.3984 37.7344C78.8047 38.0625 79.2188 38.3203 79.6406 38.5078C80.0625 38.6953 80.4688 38.8281 80.8594 38.9062C81.2656 38.9688 81.625 39 81.9375 39C82.3438 39 82.8516 38.9297 83.4609 38.7891C84.0859 38.6328 84.7031 38.3594 85.3125 37.9688C85.9219 37.5781 86.4688 37.0391 86.9531 36.3516C87.4531 35.6641 87.7969 34.7734 87.9844 33.6797C88.5312 34.4453 88.9453 35.3594 89.2266 36.4219C89.5234 37.4844 89.6719 38.6016 89.6719 39.7734C89.6719 41.3672 89.3828 42.9141 88.8047 44.4141C88.2422 45.8984 87.4297 47.2188 86.3672 48.375C85.3203 49.5312 84.0469 50.4531 82.5469 51.1406C81.0469 51.8438 79.375 52.1953 77.5312 52.1953C76.1719 52.1953 74.9141 51.9766 73.7578 51.5391C72.6016 51.1172 71.5469 50.5234 70.5938 49.7578C69.6406 48.9922 68.8047 48.0938 68.0859 47.0625C67.3672 46.0156 66.7578 44.8828 66.2578 43.6641C65.7578 42.4453 65.3828 41.1641 65.1328 39.8203C64.8828 38.4609 64.7578 37.0859 64.7578 35.6953C64.7578 34.1641 64.9219 32.625 65.25 31.0781C65.5781 29.5156 66.0469 28.0156 66.6562 26.5781C67.2812 25.1406 68.0312 23.7969 68.9062 22.5469C69.7969 21.2812 70.8047 20.1875 71.9297 19.2656C73.0547 18.3281 74.2891 17.5938 75.6328 17.0625C76.9766 16.5156 78.4062 16.2422 79.9219 16.2422C81.2969 16.2422 82.5078 16.4062 83.5547 16.7344C84.6016 17.0469 85.5 17.4766 86.25 18.0234C87.0156 18.5547 87.6562 19.1641 88.1719 19.8516C88.6875 20.5391 89.0938 21.25 89.3906 21.9844C89.7031 22.7188 89.9219 23.4531 90.0469 24.1875C90.1719 24.9062 90.2344 25.5703 90.2344 26.1797ZM115.898 51.9609C115.055 51.8359 114.117 51.7422 113.086 51.6797C112.055 51.6172 111.023 51.5859 109.992 51.5859C109.008 51.5859 108.055 51.6172 107.133 51.6797C106.227 51.7422 105.438 51.8203 104.766 51.9141C105.094 50.7891 105.352 49.625 105.539 48.4219C105.742 47.2188 105.891 45.9688 105.984 44.6719C106.094 43.3594 106.164 41.9922 106.195 40.5703C106.227 39.1484 106.242 37.6484 106.242 36.0703C106.242 35.8359 106.227 35.5234 106.195 35.1328C106.18 34.7422 106.141 34.3203 106.078 33.8672C106.016 33.4141 105.922 32.9609 105.797 32.5078C105.688 32.0391 105.539 31.6172 105.352 31.2422C105.164 30.8672 104.93 30.5625 104.648 30.3281C104.383 30.0938 104.07 29.9766 103.711 29.9766C103.477 29.9766 103.242 30.1016 103.008 30.3516C102.789 30.5859 102.562 30.9062 102.328 31.3125C102.094 31.7031 101.867 32.1641 101.648 32.6953C101.43 33.2109 101.219 33.7578 101.016 34.3359C101.047 35.9297 101.102 37.5078 101.18 39.0703C101.273 40.6172 101.391 42.1094 101.531 43.5469C101.688 44.9688 101.867 46.3125 102.07 47.5781C102.273 48.8281 102.516 49.9375 102.797 50.9062C102.531 50.8906 102.219 50.8672 101.859 50.8359C101.547 50.8203 101.172 50.8047 100.734 50.7891C100.312 50.7734 99.8281 50.7656 99.2812 50.7656C98.2656 50.7656 97.0938 50.8125 95.7656 50.9062C94.4531 50.9844 93.0234 51.1406 91.4766 51.375C91.6953 50.9375 91.8906 50.3359 92.0625 49.5703C92.2344 48.7891 92.3828 47.9141 92.5078 46.9453C92.6328 45.9609 92.7344 44.9219 92.8125 43.8281C92.9062 42.7188 92.9766 41.6094 93.0234 40.5C93.0859 39.3906 93.125 38.3203 93.1406 37.2891C93.1719 36.2422 93.1953 35.3047 93.2109 34.4766C93.2266 33.6328 93.2344 32.9219 93.2344 32.3438C93.2344 31.7656 93.2344 31.3906 93.2344 31.2188C93.2031 28.6094 93.1328 26.1875 93.0234 23.9531C92.9766 23.0156 92.9219 22.0703 92.8594 21.1172C92.7969 20.1641 92.7188 19.2734 92.625 18.4453C92.5312 17.6172 92.4219 16.8906 92.2969 16.2656C92.1875 15.6406 92.0547 15.1719 91.8984 14.8594C93.1641 15.0781 94.3359 15.2266 95.4141 15.3047C96.4922 15.3828 97.4609 15.4219 98.3203 15.4219C98.8828 15.4219 99.3906 15.4141 99.8438 15.3984C100.297 15.3672 100.68 15.3359 100.992 15.3047C101.367 15.2734 101.695 15.2344 101.977 15.1875C101.852 15.7344 101.742 16.3906 101.648 17.1562C101.555 17.9219 101.469 18.7812 101.391 19.7344C101.312 20.6875 101.242 21.7109 101.18 22.8047C101.133 23.8984 101.094 25.0391 101.062 26.2266C101.953 24.8359 102.914 23.8594 103.945 23.2969C104.977 22.7188 106.047 22.4297 107.156 22.4297C108.266 22.4297 109.281 22.6797 110.203 23.1797C111.141 23.6641 111.945 24.4219 112.617 25.4531C113.305 26.4688 113.836 27.7578 114.211 29.3203C114.602 30.8828 114.797 32.7344 114.797 34.875C114.797 36.3438 114.797 37.8672 114.797 39.4453C114.812 41.0078 114.852 42.5469 114.914 44.0625C114.977 45.5625 115.086 46.9922 115.242 48.3516C115.398 49.7109 115.617 50.9141 115.898 51.9609ZM137.93 29.2031C137.93 30.375 137.758 31.5156 137.414 32.625C137.086 33.7344 136.5 34.7188 135.656 35.5781C134.812 36.4375 133.672 37.125 132.234 37.6406C130.812 38.1562 129 38.4141 126.797 38.4141C126.859 39.1797 127.016 39.8203 127.266 40.3359C127.531 40.8516 127.844 41.2656 128.203 41.5781C128.562 41.8906 128.945 42.125 129.352 42.2812C129.758 42.4375 130.133 42.5469 130.477 42.6094C130.82 42.6719 131.109 42.7031 131.344 42.7031C131.578 42.7031 131.695 42.7031 131.695 42.7031C132.664 42.5938 133.531 42.3438 134.297 41.9531C134.625 41.7969 134.945 41.6016 135.258 41.3672C135.57 41.1172 135.852 40.8281 136.102 40.5C136.367 40.1562 136.578 39.7734 136.734 39.3516C136.906 38.9141 137.008 38.4141 137.039 37.8516C137.445 38.8672 137.727 39.8203 137.883 40.7109C138.055 41.5859 138.141 42.4062 138.141 43.1719C138.141 44.5781 137.883 45.875 137.367 47.0625C136.867 48.2344 136.172 49.25 135.281 50.1094C134.391 50.9688 133.328 51.6328 132.094 52.1016C130.875 52.5859 129.547 52.8281 128.109 52.8281C126.703 52.8281 125.344 52.5859 124.031 52.1016C122.734 51.6172 121.578 50.8516 120.562 49.8047C119.562 48.7422 118.758 47.3672 118.148 45.6797C117.555 43.9922 117.258 41.9453 117.258 39.5391C117.258 36.9297 117.633 34.6172 118.383 32.6016C119.133 30.5859 120.141 28.8984 121.406 27.5391C122.672 26.1641 124.133 25.125 125.789 24.4219C127.461 23.7031 129.211 23.3438 131.039 23.3438C131.945 23.3438 132.812 23.4453 133.641 23.6484C134.484 23.8516 135.219 24.1875 135.844 24.6562C136.484 25.125 136.992 25.7344 137.367 26.4844C137.742 27.2188 137.93 28.125 137.93 29.2031ZM126.703 34.5469C127.141 34.5312 127.648 34.4453 128.227 34.2891C128.805 34.1172 129.352 33.8828 129.867 33.5859C130.383 33.2891 130.812 32.9219 131.156 32.4844C131.516 32.0469 131.695 31.5469 131.695 30.9844C131.695 30.625 131.57 30.3359 131.32 30.1172C131.07 29.8984 130.75 29.7891 130.359 29.7891C129.812 29.7891 129.32 29.9453 128.883 30.2578C128.461 30.5703 128.094 30.9609 127.781 31.4297C127.484 31.8984 127.242 32.4141 127.055 32.9766C126.867 33.5391 126.75 34.0625 126.703 34.5469ZM160.336 31.125C160.336 31.7812 160.219 32.4375 159.984 33.0938C159.766 33.75 159.445 34.3438 159.023 34.875C158.602 35.3906 158.078 35.8203 157.453 36.1641C156.844 36.4922 156.156 36.6562 155.391 36.6562C154.703 36.6562 154.117 36.5391 153.633 36.3047C153.148 36.0703 152.75 35.7656 152.438 35.3906C152.125 35.0156 151.891 34.5859 151.734 34.1016C151.594 33.6016 151.523 33.0938 151.523 32.5781C151.523 31.4844 151.789 30.5391 152.32 29.7422C152.398 30.0078 152.508 30.2109 152.648 30.3516C152.805 30.4766 152.945 30.5703 153.07 30.6328C153.227 30.6953 153.383 30.7344 153.539 30.75C153.992 30.75 154.281 30.6484 154.406 30.4453C154.531 30.2422 154.609 30.0078 154.641 29.7422C154.641 29.4766 154.539 29.2188 154.336 28.9688C154.133 28.7188 153.781 28.5938 153.281 28.5938C153.141 28.5938 152.938 28.6172 152.672 28.6641C152.422 28.6953 152.133 28.7891 151.805 28.9453C151.492 29.1016 151.172 29.3359 150.844 29.6484C150.516 29.9453 150.211 30.3672 149.93 30.9141C149.664 31.4453 149.445 32.1172 149.273 32.9297C149.102 33.7266 149.016 34.6953 149.016 35.8359C149.016 37.0078 149.188 37.9609 149.531 38.6953C149.875 39.4141 150.281 39.9766 150.75 40.3828C151.234 40.7734 151.742 41.0391 152.273 41.1797C152.805 41.3203 153.258 41.3906 153.633 41.3906C153.961 41.3906 154.375 41.3359 154.875 41.2266C155.375 41.1016 155.867 40.8828 156.352 40.5703C156.852 40.2578 157.305 39.8281 157.711 39.2812C158.117 38.7188 158.391 38 158.531 37.125C158.953 37.75 159.289 38.5 159.539 39.375C159.789 40.2344 159.914 41.1328 159.914 42.0703C159.914 43.3516 159.672 44.6016 159.188 45.8203C158.719 47.0391 158.047 48.125 157.172 49.0781C156.312 50.0156 155.273 50.7656 154.055 51.3281C152.836 51.9062 151.492 52.1953 150.023 52.1953C148.93 52.1953 147.914 52.0156 146.977 51.6562C146.039 51.3125 145.188 50.8281 144.422 50.2031C143.672 49.5781 143 48.8438 142.406 48C141.812 47.1406 141.312 46.2188 140.906 45.2344C140.516 44.2344 140.219 43.1875 140.016 42.0938C139.812 41 139.711 39.9062 139.711 38.8125C139.711 37.5938 139.844 36.3516 140.109 35.0859C140.375 33.8203 140.75 32.6016 141.234 31.4297C141.734 30.2578 142.344 29.1562 143.062 28.125C143.781 27.0938 144.594 26.2031 145.5 25.4531C146.406 24.6875 147.406 24.0859 148.5 23.6484C149.594 23.1953 150.758 22.9688 151.992 22.9688C153.102 22.9688 154.078 23.1016 154.922 23.3672C155.766 23.6328 156.5 23.9844 157.125 24.4219C157.75 24.8594 158.266 25.3672 158.672 25.9453C159.078 26.5078 159.406 27.0938 159.656 27.7031C159.906 28.2969 160.078 28.8906 160.172 29.4844C160.281 30.0781 160.336 30.625 160.336 31.125ZM184.43 51.6797C182.664 51.5391 181.133 51.4688 179.836 51.4688C178.711 51.4688 177.758 51.5 176.977 51.5625C176.211 51.6406 175.586 51.7188 175.102 51.7969C174.539 51.8906 174.086 51.9922 173.742 52.1016C173.867 51.3047 173.961 50.5703 174.023 49.8984C174.086 49.2266 174.117 48.5078 174.117 47.7422C174.117 46.3672 174.062 45.2266 173.953 44.3203C173.844 43.3984 173.688 42.625 173.484 42C173.281 41.375 173.039 40.8672 172.758 40.4766C172.477 40.0859 172.164 39.7344 171.82 39.4219C171.789 39.9844 171.766 40.5469 171.75 41.1094C171.734 41.6562 171.727 42.2188 171.727 42.7969C171.727 43.9688 171.789 45.2422 171.914 46.6172C172.039 47.9766 172.297 49.5625 172.688 51.375C172.219 51.3438 171.688 51.3047 171.094 51.2578C170.594 51.2266 169.992 51.1953 169.289 51.1641C168.586 51.1484 167.812 51.1406 166.969 51.1406C166.125 51.1406 165.227 51.1562 164.273 51.1875C163.336 51.2188 162.359 51.2812 161.344 51.375C161.656 50.8906 161.93 50.25 162.164 49.4531C162.414 48.6562 162.625 47.7656 162.797 46.7812C162.969 45.7812 163.109 44.7188 163.219 43.5938C163.344 42.4688 163.438 41.3359 163.5 40.1953C163.578 39.0391 163.633 37.9062 163.664 36.7969C163.695 35.6875 163.711 34.6484 163.711 33.6797C163.711 32.3828 163.688 31.0547 163.641 29.6953C163.594 28.3359 163.531 27.0078 163.453 25.7109C163.375 24.4141 163.281 23.1797 163.172 22.0078C163.062 20.8359 162.953 19.7812 162.844 18.8438C162.734 17.8906 162.617 17.0938 162.492 16.4531C162.383 15.8125 162.273 15.375 162.164 15.1406C163.164 15.2344 164.203 15.2812 165.281 15.2812C166.641 15.2812 167.984 15.2187 169.312 15.0938C170.656 14.9531 171.938 14.7656 173.156 14.5312C172.969 15.0781 172.797 15.7891 172.641 16.6641C172.484 17.5234 172.344 18.4844 172.219 19.5469C172.109 20.5938 172.008 21.7109 171.914 22.8984C171.836 24.0703 171.766 25.25 171.703 26.4375C171.641 27.6094 171.594 28.75 171.562 29.8594C171.547 30.9688 171.539 31.9844 171.539 32.9062C171.539 33.5312 171.547 34.0938 171.562 34.5938C171.578 35.0938 171.602 35.5234 171.633 35.8828C172.711 34.5078 173.547 33.1797 174.141 31.8984C174.734 30.6016 175.031 29.3203 175.031 28.0547C175.031 26.8516 174.711 25.6328 174.07 24.3984C174.664 24.4609 175.273 24.5078 175.898 24.5391C176.523 24.5547 177.133 24.5625 177.727 24.5625C178.852 24.5625 179.969 24.5234 181.078 24.4453C182.188 24.3516 183.305 24.1953 184.43 23.9766C183.992 24.6328 183.625 25.3672 183.328 26.1797C183.047 26.9766 182.82 27.75 182.648 28.5C182.445 29.3594 182.273 30.2344 182.133 31.125C181.992 31.9844 181.758 32.8125 181.43 33.6094C181.289 33.9531 181.117 34.3047 180.914 34.6641C180.727 35.0078 180.492 35.3516 180.211 35.6953C179.945 36.0234 179.641 36.3359 179.297 36.6328C178.953 36.9141 178.57 37.1562 178.148 37.3594C179.055 37.7188 179.742 38.1719 180.211 38.7188C180.695 39.2656 181.055 39.8828 181.289 40.5703C181.523 41.2422 181.688 41.9844 181.781 42.7969C181.875 43.5938 181.992 44.4375 182.133 45.3281C182.273 46.0625 182.453 46.8047 182.672 47.5547C182.859 48.1953 183.094 48.8906 183.375 49.6406C183.672 50.375 184.023 51.0547 184.43 51.6797ZM218.648 41.8828C218.648 43.6172 218.281 45.0938 217.547 46.3125C216.828 47.5312 215.867 48.5312 214.664 49.3125C213.461 50.0781 212.078 50.6484 210.516 51.0234C208.969 51.3984 207.375 51.6172 205.734 51.6797C204.688 51.6484 203.688 51.6094 202.734 51.5625C202.328 51.5469 201.914 51.5312 201.492 51.5156C201.07 51.5156 200.656 51.5078 200.25 51.4922C199.859 51.4766 199.484 51.4688 199.125 51.4688C198.766 51.4688 198.461 51.4688 198.211 51.4688C197.18 51.5 196.109 51.5234 195 51.5391C193.906 51.5547 192.828 51.6016 191.766 51.6797C192.469 50.7266 193.039 49.5078 193.477 48.0234C193.914 46.5391 194.258 44.9375 194.508 43.2188C194.773 41.5 194.953 39.7422 195.047 37.9453C195.141 36.1328 195.188 34.4375 195.188 32.8594C195.188 32.1875 195.172 31.375 195.141 30.4219C195.125 29.4531 195.086 28.4297 195.023 27.3516C194.961 26.2578 194.875 25.1562 194.766 24.0469C194.656 22.9375 194.5 21.9062 194.297 20.9531C194.109 19.9844 193.875 19.1328 193.594 18.3984C193.312 17.6641 192.977 17.1406 192.586 16.8281C193.711 17 194.805 17.1172 195.867 17.1797C196.93 17.2266 197.836 17.25 198.586 17.25C199.242 17.25 199.828 17.2422 200.344 17.2266C200.859 17.1953 201.367 17.1641 201.867 17.1328C202.367 17.1016 202.883 17.0781 203.414 17.0625C203.945 17.0312 204.547 17.0156 205.219 17.0156C206.25 17.0312 207.281 17.0938 208.312 17.2031C209.359 17.2969 210.352 17.4688 211.289 17.7188C212.242 17.9688 213.133 18.3125 213.961 18.75C214.789 19.1719 215.5 19.7266 216.094 20.4141C216.703 21.1016 217.18 21.9297 217.523 22.8984C217.883 23.8672 218.062 25.0078 218.062 26.3203C218.062 27.0234 217.969 27.7266 217.781 28.4297C217.609 29.1328 217.32 29.8203 216.914 30.4922C216.523 31.1641 216 31.8125 215.344 32.4375C214.703 33.0469 213.914 33.6172 212.977 34.1484C214.977 34.9766 216.422 36.0391 217.312 37.3359C218.203 38.6172 218.648 40.1328 218.648 41.8828ZM204.68 31.3125C204.992 31.0781 205.359 30.7656 205.781 30.375C206.203 29.9688 206.602 29.5312 206.977 29.0625C207.352 28.5781 207.672 28.0781 207.938 27.5625C208.203 27.0469 208.336 26.5547 208.336 26.0859C208.336 25.5859 208.188 25.1797 207.891 24.8672C207.609 24.5547 207.289 24.3984 206.93 24.3984C206.43 24.3984 206.031 24.625 205.734 25.0781C205.438 25.5312 205.203 26.0703 205.031 26.6953C204.875 27.3047 204.766 27.9297 204.703 28.5703C204.656 29.1953 204.633 29.6953 204.633 30.0703C204.633 30.2578 204.633 30.4609 204.633 30.6797C204.633 30.8828 204.648 31.0938 204.68 31.3125ZM207.891 42.9844C207.891 42.4219 207.805 41.8594 207.633 41.2969C207.461 40.7188 207.227 40.1562 206.93 39.6094C206.648 39.0469 206.32 38.5078 205.945 37.9922C205.586 37.4766 205.211 36.9844 204.82 36.5156C204.586 37.2188 204.43 37.9141 204.352 38.6016C204.289 39.2734 204.258 39.8828 204.258 40.4297C204.258 41.2422 204.312 41.9219 204.422 42.4688C204.531 43 204.68 43.4297 204.867 43.7578C205.07 44.0859 205.305 44.3203 205.57 44.4609C205.836 44.6016 206.133 44.6719 206.461 44.6719C206.852 44.6719 207.188 44.5312 207.469 44.25C207.75 43.9531 207.891 43.5312 207.891 42.9844ZM242.602 37.3125C242.602 38.2188 242.531 39.2188 242.391 40.3125C242.25 41.3906 242.016 42.4844 241.688 43.5938C241.359 44.6875 240.914 45.7578 240.352 46.8047C239.789 47.8359 239.086 48.75 238.242 49.5469C237.414 50.3438 236.422 50.9844 235.266 51.4688C234.109 51.9531 232.766 52.1953 231.234 52.1953C229.703 52.1953 228.359 51.9688 227.203 51.5156C226.062 51.0625 225.078 50.4609 224.25 49.7109C223.438 48.9453 222.766 48.0703 222.234 47.0859C221.703 46.0859 221.281 45.0391 220.969 43.9453C220.656 42.8516 220.438 41.75 220.312 40.6406C220.203 39.5156 220.148 38.4531 220.148 37.4531C220.148 35.6875 220.383 33.9609 220.852 32.2734C221.32 30.5703 222.031 29.0547 222.984 27.7266C223.953 26.3984 225.156 25.3281 226.594 24.5156C228.047 23.7031 229.75 23.2969 231.703 23.2969C233.016 23.2969 234.195 23.5 235.242 23.9062C236.289 24.2969 237.219 24.8359 238.031 25.5234C238.844 26.2109 239.531 27.0156 240.094 27.9375C240.672 28.8594 241.148 29.8359 241.523 30.8672C241.898 31.8984 242.172 32.9688 242.344 34.0781C242.516 35.1875 242.602 36.2656 242.602 37.3125ZM234.445 38.0859C234.445 37.7266 234.43 37.2812 234.398 36.75C234.383 36.2031 234.336 35.6328 234.258 35.0391C234.18 34.4453 234.07 33.8516 233.93 33.2578C233.805 32.6641 233.633 32.1328 233.414 31.6641C233.195 31.1953 232.922 30.8125 232.594 30.5156C232.281 30.2188 231.906 30.0703 231.469 30.0703C231.047 30.0703 230.68 30.2109 230.367 30.4922C230.055 30.7734 229.781 31.1406 229.547 31.5938C229.328 32.0469 229.141 32.5625 228.984 33.1406C228.844 33.7031 228.727 34.2734 228.633 34.8516C228.555 35.4141 228.492 35.9609 228.445 36.4922C228.414 37.0078 228.398 37.4453 228.398 37.8047C228.398 38.3203 228.438 38.9453 228.516 39.6797C228.594 40.4141 228.742 41.1172 228.961 41.7891C229.18 42.4609 229.477 43.0391 229.852 43.5234C230.242 43.9922 230.75 44.2266 231.375 44.2266C231.969 44.2266 232.461 44.0078 232.852 43.5703C233.258 43.1328 233.578 42.6016 233.812 41.9766C234.047 41.3359 234.211 40.6641 234.305 39.9609C234.398 39.2578 234.445 38.6328 234.445 38.0859ZM262.922 22.5469C262.797 23.25 262.703 23.9375 262.641 24.6094C262.594 25.2812 262.57 25.9688 262.57 26.6719C262.57 27.3438 262.594 28.0234 262.641 28.7109C262.703 29.3828 262.797 30.0625 262.922 30.75C262.172 30.3594 261.32 30.0703 260.367 29.8828C259.43 29.6953 258.469 29.5469 257.484 29.4375V31.4531C257.484 33.2188 257.516 35.0078 257.578 36.8203C257.641 38.6172 257.742 40.3672 257.883 42.0703C258.023 43.7578 258.203 45.3594 258.422 46.875C258.656 48.3906 258.938 49.7344 259.266 50.9062C259 50.8906 258.688 50.8672 258.328 50.8359C258.016 50.8203 257.648 50.8047 257.227 50.7891C256.805 50.7734 256.32 50.7656 255.773 50.7656C254.758 50.7656 253.586 50.8125 252.258 50.9062C250.93 50.9844 249.492 51.1406 247.945 51.375C248.477 48.3281 248.852 45.1641 249.07 41.8828C249.305 38.5859 249.422 35.3672 249.422 32.2266V29.4375C248.359 29.5156 247.305 29.6406 246.258 29.8125C245.227 29.9688 244.25 30.1641 243.328 30.3984C243.391 30.2266 243.445 30 243.492 29.7188C243.539 29.4375 243.57 29.1484 243.586 28.8516C243.617 28.5547 243.633 28.2656 243.633 27.9844C243.648 27.7031 243.656 27.4688 243.656 27.2812C243.656 26.4844 243.625 25.6953 243.562 24.9141C243.5 24.1328 243.422 23.3438 243.328 22.5469C244.078 22.8594 244.969 23.1172 246 23.3203C247.031 23.5078 248.078 23.6484 249.141 23.7422C249.047 22.3828 248.938 21.125 248.812 19.9688C248.688 18.8125 248.539 17.7656 248.367 16.8281C249.633 17.0469 250.805 17.1953 251.883 17.2734C252.961 17.3516 253.938 17.3906 254.812 17.3906C255.375 17.3906 255.875 17.3828 256.312 17.3672C256.766 17.3359 257.148 17.3047 257.461 17.2734C257.836 17.2422 258.164 17.2031 258.445 17.1562C258.273 17.9062 258.125 18.8438 258 19.9688C257.891 21.0781 257.781 22.3203 257.672 23.6953C258.703 23.5859 259.672 23.4375 260.578 23.25C261.5 23.0625 262.281 22.8281 262.922 22.5469Z" fill="#FF70E0"/>
<path d="M24.9013 26.1927C24.1357 25.3646 23.331 24.724 22.4872 24.2708C21.6435 23.8021 20.8622 23.4661 20.1435 23.263C19.4247 23.0443 18.8232 22.9193 18.3388 22.888C17.8544 22.8411 17.581 22.8177 17.5185 22.8177C16.7372 22.8177 16.1044 22.9193 15.62 23.1224C15.1357 23.3099 14.7529 23.5599 14.4716 23.8724C14.206 24.1693 14.0185 24.513 13.9091 24.9036C13.8154 25.2786 13.7685 25.6615 13.7685 26.0521C13.7685 26.4271 13.8075 26.8177 13.8857 27.224C13.9794 27.6302 14.1279 28.0052 14.331 28.349C14.5341 28.6771 14.8075 28.9505 15.1513 29.1693C15.495 29.388 15.9325 29.4974 16.4638 29.4974C16.495 29.4974 16.62 29.4974 16.8388 29.4974C17.0575 29.4818 17.331 29.4193 17.6591 29.3099C17.9872 29.1849 18.3466 28.9818 18.7372 28.7005C19.1435 28.4036 19.5497 27.9818 19.956 27.4349V36.974C19.6279 36.3802 19.2685 35.9115 18.8779 35.5677C18.4872 35.224 18.1122 34.974 17.7529 34.8177C17.4091 34.6458 17.0966 34.5443 16.8154 34.513C16.5497 34.4661 16.37 34.4427 16.2763 34.4427C15.7607 34.4427 15.331 34.5286 14.9872 34.7005C14.6591 34.8724 14.3935 35.1146 14.1904 35.4271C14.0029 35.724 13.87 36.0911 13.7919 36.5286C13.7138 36.9505 13.6747 37.4193 13.6747 37.9349C13.7216 39.138 13.8388 40.3802 14.0263 41.6615C14.1044 42.2083 14.206 42.7865 14.331 43.3958C14.456 44.0052 14.6122 44.638 14.7997 45.2943C14.9872 45.9349 15.206 46.5833 15.456 47.2396C15.706 47.8802 15.995 48.513 16.3232 49.138C15.9794 49.1224 15.6044 49.099 15.1982 49.0677C14.8388 49.0365 14.4169 49.013 13.9325 48.9974C13.4638 48.9818 12.9325 48.974 12.3388 48.974C11.6357 48.974 10.87 48.9974 10.0419 49.0443C9.21379 49.0755 8.37004 49.138 7.51067 49.2318C6.65129 49.3255 5.7841 49.4505 4.9091 49.6068C4.0341 49.7786 3.19817 49.9896 2.40129 50.2396C2.74504 49.5365 3.04192 48.6458 3.29192 47.5677C3.54192 46.4896 3.74504 45.3411 3.90129 44.1224C4.07317 42.9036 4.20598 41.6615 4.29973 40.3958C4.39348 39.1302 4.46379 37.9583 4.51067 36.8802C4.55754 35.7865 4.58098 34.8411 4.58098 34.0443C4.5966 33.2318 4.60442 32.6771 4.60442 32.3802C4.60442 32.3177 4.5966 32.0755 4.58098 31.6536C4.58098 31.2318 4.57317 30.6849 4.55754 30.013C4.54192 29.3411 4.51848 28.5755 4.48723 27.7161C4.45598 26.8411 4.4091 25.9349 4.3466 24.9974C4.29973 24.0599 4.22942 23.1146 4.13567 22.1615C4.05754 21.2083 3.95598 20.3099 3.83098 19.4661C3.7216 18.6068 3.58879 17.8411 3.43254 17.1693C3.29192 16.4818 3.12004 15.9349 2.91692 15.5286C4.41692 15.8411 5.94035 16.0677 7.48723 16.2083C9.04973 16.3333 10.5888 16.3958 12.1044 16.3958C13.8388 16.3958 15.4794 16.3411 17.0263 16.2318C18.5732 16.1068 19.9325 15.9661 21.1044 15.8099C22.4794 15.638 23.745 15.4349 24.9013 15.2005V26.1927ZM37.4404 49.4193C37.1747 49.4036 36.8622 49.3802 36.5029 49.349C36.1904 49.3333 35.8232 49.3177 35.4013 49.3021C34.9794 49.2865 34.495 49.2786 33.9482 49.2786C32.9325 49.2786 31.7607 49.3255 30.4325 49.4193C29.1044 49.4974 27.6669 49.6536 26.12 49.888C26.4169 49.2943 26.6669 48.5521 26.87 47.6615C27.0732 46.7552 27.2372 45.7943 27.3622 44.7786C27.5029 43.7474 27.6044 42.7083 27.6669 41.6615C27.745 40.6146 27.7997 39.6536 27.831 38.7786C27.8622 37.9036 27.8779 37.1615 27.8779 36.5521C27.8935 35.9427 27.9013 35.5599 27.9013 35.4036C27.87 33.3724 27.7997 31.474 27.6904 29.7083C27.6435 28.9583 27.581 28.2005 27.5029 27.4349C27.4404 26.6693 27.3622 25.9505 27.2685 25.2786C27.1747 24.5911 27.0654 23.9818 26.9404 23.4505C26.831 22.9036 26.6982 22.474 26.5419 22.1615C27.8075 22.3802 28.9794 22.5286 30.0575 22.6068C31.1357 22.6849 32.1122 22.724 32.9872 22.724C33.5497 22.724 34.0497 22.7161 34.4872 22.7005C34.9404 22.6693 35.3232 22.638 35.6357 22.6068C36.0107 22.5755 36.3388 22.5365 36.62 22.4896C36.3388 23.8958 36.1044 25.5911 35.9169 27.5755C35.745 29.5599 35.6591 31.6849 35.6591 33.9505C35.6591 35.2474 35.6904 36.5599 35.7529 37.888C35.8154 39.2161 35.9169 40.5443 36.0575 41.8724C36.1982 43.1849 36.3779 44.4818 36.5966 45.763C36.831 47.0286 37.1122 48.2474 37.4404 49.4193ZM26.6825 15.9036C26.6825 15.1849 26.8154 14.513 27.081 13.888C27.3622 13.2474 27.7372 12.6927 28.206 12.224C28.6904 11.7396 29.2529 11.3646 29.8935 11.099C30.5341 10.8177 31.2138 10.6771 31.9325 10.6771C32.6513 10.6771 33.3232 10.8177 33.9482 11.099C34.5888 11.3646 35.1435 11.7396 35.6122 12.224C36.0966 12.6927 36.4716 13.2474 36.7372 13.888C37.0185 14.513 37.1591 15.1849 37.1591 15.9036C37.1591 16.6224 37.0185 17.3021 36.7372 17.9427C36.4716 18.5833 36.0966 19.1458 35.6122 19.6302C35.1435 20.099 34.5888 20.474 33.9482 20.7552C33.3232 21.0208 32.6513 21.1536 31.9325 21.1536C31.2138 21.1536 30.5341 21.0208 29.8935 20.7552C29.2529 20.474 28.6904 20.099 28.206 19.6302C27.7372 19.1458 27.3622 18.5833 27.081 17.9427C26.8154 17.3021 26.6825 16.6224 26.6825 15.9036ZM57.9716 21.0599C57.8466 21.763 57.7529 22.4505 57.6904 23.1224C57.6435 23.7943 57.62 24.4818 57.62 25.1849C57.62 25.8568 57.6435 26.5365 57.6904 27.224C57.7529 27.8958 57.8466 28.5755 57.9716 29.263C57.2216 28.8724 56.37 28.5833 55.4169 28.3958C54.4794 28.2083 53.5185 28.0599 52.5341 27.9505V29.9661C52.5341 31.7318 52.5654 33.5208 52.6279 35.3333C52.6904 37.1302 52.7919 38.8802 52.9325 40.5833C53.0732 42.2708 53.2529 43.8724 53.4716 45.388C53.706 46.9036 53.9872 48.2474 54.3154 49.4193C54.0497 49.4036 53.7372 49.3802 53.3779 49.349C53.0654 49.3333 52.6982 49.3177 52.2763 49.3021C51.8544 49.2865 51.37 49.2786 50.8232 49.2786C49.8075 49.2786 48.6357 49.3255 47.3075 49.4193C45.9794 49.4974 44.5419 49.6536 42.995 49.888C43.5263 46.8411 43.9013 43.6771 44.12 40.3958C44.3544 37.099 44.4716 33.8802 44.4716 30.7396V27.9505C43.4091 28.0286 42.3544 28.1536 41.3075 28.3255C40.2763 28.4818 39.2997 28.6771 38.3779 28.9115C38.4404 28.7396 38.495 28.513 38.5419 28.2318C38.5888 27.9505 38.62 27.6615 38.6357 27.3646C38.6669 27.0677 38.6825 26.7786 38.6825 26.4974C38.6982 26.2161 38.706 25.9818 38.706 25.7943C38.706 24.9974 38.6747 24.2083 38.6122 23.4271C38.5497 22.6458 38.4716 21.8568 38.3779 21.0599C39.1279 21.3724 40.0185 21.6302 41.0497 21.8333C42.081 22.0208 43.1279 22.1615 44.1904 22.2552C44.0966 20.8958 43.9872 19.638 43.8622 18.4818C43.7372 17.3255 43.5888 16.2786 43.4169 15.3411C44.6825 15.5599 45.8544 15.7083 46.9325 15.7865C48.0107 15.8646 48.9872 15.9036 49.8622 15.9036C50.4247 15.9036 50.9247 15.8958 51.3622 15.8802C51.8154 15.849 52.1982 15.8177 52.5107 15.7865C52.8857 15.7552 53.2138 15.7161 53.495 15.6693C53.3232 16.4193 53.1747 17.3568 53.0497 18.4818C52.9404 19.5911 52.831 20.8333 52.7216 22.2083C53.7529 22.099 54.7216 21.9505 55.6279 21.763C56.5497 21.5755 57.331 21.3411 57.9716 21.0599ZM91.7216 24.6927C91.7216 25.4896 91.581 26.3021 91.2997 27.1302C91.0185 27.9427 90.6122 28.6849 90.081 29.3568C89.5654 30.013 88.9325 30.5521 88.1825 30.974C87.4325 31.3958 86.581 31.6068 85.6279 31.6068C84.7841 31.6068 84.0575 31.4661 83.4482 31.1849C82.8544 30.888 82.3622 30.4974 81.9716 30.013C81.5966 29.5286 81.3154 28.9818 81.1279 28.3724C80.9404 27.763 80.8466 27.1302 80.8466 26.474C80.8466 25.8177 80.9247 25.1849 81.081 24.5755C81.2529 23.9505 81.5107 23.3958 81.8544 22.9115C81.9482 23.2396 82.0732 23.4974 82.2294 23.6849C82.3857 23.8568 82.5497 23.9818 82.7216 24.0599C82.9091 24.1536 83.1122 24.2083 83.331 24.224C83.831 24.224 84.1825 24.0911 84.3857 23.8255C84.6044 23.5599 84.7138 23.2552 84.7138 22.9115C84.7138 22.7552 84.6825 22.599 84.62 22.4427C84.5575 22.2708 84.456 22.1146 84.3154 21.974C84.1904 21.8333 84.0185 21.7161 83.7997 21.6224C83.581 21.5286 83.3154 21.4818 83.0029 21.4818C82.831 21.4818 82.581 21.5052 82.2529 21.5521C81.9404 21.599 81.5888 21.724 81.1982 21.9271C80.8075 22.1146 80.4091 22.4036 80.0029 22.7943C79.5966 23.1849 79.2216 23.7161 78.8779 24.388C78.5497 25.0599 78.2763 25.8958 78.0575 26.8958C77.8544 27.8958 77.7529 29.1146 77.7529 30.5521C77.7529 31.5365 77.8466 32.3958 78.0341 33.1302C78.2372 33.849 78.495 34.4661 78.8075 34.9818C79.12 35.4974 79.4794 35.9193 79.8857 36.2474C80.2919 36.5755 80.706 36.8333 81.1279 37.0208C81.5497 37.2083 81.956 37.3411 82.3466 37.4193C82.7529 37.4818 83.1122 37.513 83.4247 37.513C83.831 37.513 84.3388 37.4427 84.9482 37.3021C85.5732 37.1458 86.1904 36.8724 86.7997 36.4818C87.4091 36.0911 87.956 35.5521 88.4404 34.8646C88.9404 34.1771 89.2841 33.2865 89.4716 32.1927C90.0185 32.9583 90.4325 33.8724 90.7138 34.9349C91.0107 35.9974 91.1591 37.1146 91.1591 38.2865C91.1591 39.8802 90.87 41.4271 90.2919 42.9271C89.7294 44.4115 88.9169 45.7318 87.8544 46.888C86.8075 48.0443 85.5341 48.9661 84.0341 49.6536C82.5341 50.3568 80.8622 50.7083 79.0185 50.7083C77.6591 50.7083 76.4013 50.4896 75.245 50.0521C74.0888 49.6302 73.0341 49.0365 72.081 48.2708C71.1279 47.5052 70.2919 46.6068 69.5732 45.5755C68.8544 44.5286 68.245 43.3958 67.745 42.1771C67.245 40.9583 66.87 39.6771 66.62 38.3333C66.37 36.974 66.245 35.599 66.245 34.2083C66.245 32.6771 66.4091 31.138 66.7372 29.5911C67.0654 28.0286 67.5341 26.5286 68.1435 25.0911C68.7685 23.6536 69.5185 22.3099 70.3935 21.0599C71.2841 19.7943 72.2919 18.7005 73.4169 17.7786C74.5419 16.8411 75.7763 16.1068 77.12 15.5755C78.4638 15.0286 79.8935 14.7552 81.4091 14.7552C82.7841 14.7552 83.995 14.9193 85.0419 15.2474C86.0888 15.5599 86.9872 15.9896 87.7372 16.5365C88.5029 17.0677 89.1435 17.6771 89.6591 18.3646C90.1747 19.0521 90.581 19.763 90.8779 20.4974C91.1904 21.2318 91.4091 21.9661 91.5341 22.7005C91.6591 23.4193 91.7216 24.0833 91.7216 24.6927ZM117.386 50.474C116.542 50.349 115.604 50.2552 114.573 50.1927C113.542 50.1302 112.511 50.099 111.479 50.099C110.495 50.099 109.542 50.1302 108.62 50.1927C107.714 50.2552 106.925 50.3333 106.253 50.4271C106.581 49.3021 106.839 48.138 107.026 46.9349C107.229 45.7318 107.378 44.4818 107.472 43.1849C107.581 41.8724 107.651 40.5052 107.683 39.0833C107.714 37.6615 107.729 36.1615 107.729 34.5833C107.729 34.349 107.714 34.0365 107.683 33.6458C107.667 33.2552 107.628 32.8333 107.565 32.3802C107.503 31.9271 107.409 31.474 107.284 31.0208C107.175 30.5521 107.026 30.1302 106.839 29.7552C106.651 29.3802 106.417 29.0755 106.136 28.8411C105.87 28.6068 105.558 28.4896 105.198 28.4896C104.964 28.4896 104.729 28.6146 104.495 28.8646C104.276 29.099 104.05 29.4193 103.815 29.8255C103.581 30.2161 103.354 30.6771 103.136 31.2083C102.917 31.724 102.706 32.2708 102.503 32.849C102.534 34.4427 102.589 36.0208 102.667 37.5833C102.761 39.1302 102.878 40.6224 103.018 42.0599C103.175 43.4818 103.354 44.8255 103.558 46.0911C103.761 47.3411 104.003 48.4505 104.284 49.4193C104.018 49.4036 103.706 49.3802 103.347 49.349C103.034 49.3333 102.659 49.3177 102.222 49.3021C101.8 49.2865 101.315 49.2786 100.768 49.2786C99.7529 49.2786 98.581 49.3255 97.2529 49.4193C95.9404 49.4974 94.5107 49.6536 92.9638 49.888C93.1825 49.4505 93.3779 48.849 93.5497 48.0833C93.7216 47.3021 93.87 46.4271 93.995 45.4583C94.12 44.474 94.2216 43.4349 94.2997 42.3411C94.3935 41.2318 94.4638 40.1224 94.5107 39.013C94.5732 37.9036 94.6122 36.8333 94.6279 35.8021C94.6591 34.7552 94.6825 33.8177 94.6982 32.9896C94.7138 32.1458 94.7216 31.4349 94.7216 30.8568C94.7216 30.2786 94.7216 29.9036 94.7216 29.7318C94.6904 27.1224 94.62 24.7005 94.5107 22.4661C94.4638 21.5286 94.4091 20.5833 94.3466 19.6302C94.2841 18.6771 94.206 17.7865 94.1122 16.9583C94.0185 16.1302 93.9091 15.4036 93.7841 14.7786C93.6747 14.1536 93.5419 13.6849 93.3857 13.3724C94.6513 13.5911 95.8232 13.7396 96.9013 13.8177C97.9794 13.8958 98.9482 13.9349 99.8075 13.9349C100.37 13.9349 100.878 13.9271 101.331 13.9115C101.784 13.8802 102.167 13.849 102.479 13.8177C102.854 13.7865 103.183 13.7474 103.464 13.7005C103.339 14.2474 103.229 14.9036 103.136 15.6693C103.042 16.4349 102.956 17.2943 102.878 18.2474C102.8 19.2005 102.729 20.224 102.667 21.3177C102.62 22.4115 102.581 23.5521 102.55 24.7396C103.44 23.349 104.401 22.3724 105.433 21.8099C106.464 21.2318 107.534 20.9427 108.643 20.9427C109.753 20.9427 110.768 21.1927 111.69 21.6927C112.628 22.1771 113.433 22.9349 114.104 23.9661C114.792 24.9818 115.323 26.2708 115.698 27.8333C116.089 29.3958 116.284 31.2474 116.284 33.388C116.284 34.8568 116.284 36.3802 116.284 37.9583C116.3 39.5208 116.339 41.0599 116.401 42.5755C116.464 44.0755 116.573 45.5052 116.729 46.8646C116.886 48.224 117.104 49.4271 117.386 50.474ZM139.417 27.7161C139.417 28.888 139.245 30.0286 138.901 31.138C138.573 32.2474 137.987 33.2318 137.143 34.0911C136.3 34.9505 135.159 35.638 133.722 36.1536C132.3 36.6693 130.487 36.9271 128.284 36.9271C128.347 37.6927 128.503 38.3333 128.753 38.849C129.018 39.3646 129.331 39.7786 129.69 40.0911C130.05 40.4036 130.433 40.638 130.839 40.7943C131.245 40.9505 131.62 41.0599 131.964 41.1224C132.308 41.1849 132.597 41.2161 132.831 41.2161C133.065 41.2161 133.183 41.2161 133.183 41.2161C134.151 41.1068 135.018 40.8568 135.784 40.4661C136.112 40.3099 136.433 40.1146 136.745 39.8802C137.058 39.6302 137.339 39.3411 137.589 39.013C137.854 38.6693 138.065 38.2865 138.222 37.8646C138.393 37.4271 138.495 36.9271 138.526 36.3646C138.933 37.3802 139.214 38.3333 139.37 39.224C139.542 40.099 139.628 40.9193 139.628 41.6849C139.628 43.0911 139.37 44.388 138.854 45.5755C138.354 46.7474 137.659 47.763 136.768 48.6224C135.878 49.4818 134.815 50.1458 133.581 50.6146C132.362 51.099 131.034 51.3411 129.597 51.3411C128.19 51.3411 126.831 51.099 125.518 50.6146C124.222 50.1302 123.065 49.3646 122.05 48.3177C121.05 47.2552 120.245 45.8802 119.636 44.1927C119.042 42.5052 118.745 40.4583 118.745 38.0521C118.745 35.4427 119.12 33.1302 119.87 31.1146C120.62 29.099 121.628 27.4115 122.893 26.0521C124.159 24.6771 125.62 23.638 127.276 22.9349C128.948 22.2161 130.698 21.8568 132.526 21.8568C133.433 21.8568 134.3 21.9583 135.128 22.1615C135.972 22.3646 136.706 22.7005 137.331 23.1693C137.972 23.638 138.479 24.2474 138.854 24.9974C139.229 25.7318 139.417 26.638 139.417 27.7161ZM128.19 33.0599C128.628 33.0443 129.136 32.9583 129.714 32.8021C130.292 32.6302 130.839 32.3958 131.354 32.099C131.87 31.8021 132.3 31.4349 132.643 30.9974C133.003 30.5599 133.183 30.0599 133.183 29.4974C133.183 29.138 133.058 28.849 132.808 28.6302C132.558 28.4115 132.237 28.3021 131.847 28.3021C131.3 28.3021 130.808 28.4583 130.37 28.7708C129.948 29.0833 129.581 29.474 129.268 29.9427C128.972 30.4115 128.729 30.9271 128.542 31.4896C128.354 32.0521 128.237 32.5755 128.19 33.0599ZM161.823 29.638C161.823 30.2943 161.706 30.9505 161.472 31.6068C161.253 32.263 160.933 32.8568 160.511 33.388C160.089 33.9036 159.565 34.3333 158.94 34.6771C158.331 35.0052 157.643 35.1693 156.878 35.1693C156.19 35.1693 155.604 35.0521 155.12 34.8177C154.636 34.5833 154.237 34.2786 153.925 33.9036C153.612 33.5286 153.378 33.099 153.222 32.6146C153.081 32.1146 153.011 31.6068 153.011 31.0911C153.011 29.9974 153.276 29.0521 153.808 28.2552C153.886 28.5208 153.995 28.724 154.136 28.8646C154.292 28.9896 154.433 29.0833 154.558 29.1458C154.714 29.2083 154.87 29.2474 155.026 29.263C155.479 29.263 155.768 29.1615 155.893 28.9583C156.018 28.7552 156.097 28.5208 156.128 28.2552C156.128 27.9896 156.026 27.7318 155.823 27.4818C155.62 27.2318 155.268 27.1068 154.768 27.1068C154.628 27.1068 154.425 27.1302 154.159 27.1771C153.909 27.2083 153.62 27.3021 153.292 27.4583C152.979 27.6146 152.659 27.849 152.331 28.1615C152.003 28.4583 151.698 28.8802 151.417 29.4271C151.151 29.9583 150.933 30.6302 150.761 31.4427C150.589 32.2396 150.503 33.2083 150.503 34.349C150.503 35.5208 150.675 36.474 151.018 37.2083C151.362 37.9271 151.768 38.4896 152.237 38.8958C152.722 39.2865 153.229 39.5521 153.761 39.6927C154.292 39.8333 154.745 39.9036 155.12 39.9036C155.448 39.9036 155.862 39.849 156.362 39.7396C156.862 39.6146 157.354 39.3958 157.839 39.0833C158.339 38.7708 158.792 38.3411 159.198 37.7943C159.604 37.2318 159.878 36.513 160.018 35.638C160.44 36.263 160.776 37.013 161.026 37.888C161.276 38.7474 161.401 39.6458 161.401 40.5833C161.401 41.8646 161.159 43.1146 160.675 44.3333C160.206 45.5521 159.534 46.638 158.659 47.5911C157.8 48.5286 156.761 49.2786 155.542 49.8411C154.323 50.4193 152.979 50.7083 151.511 50.7083C150.417 50.7083 149.401 50.5286 148.464 50.1693C147.526 49.8255 146.675 49.3411 145.909 48.7161C145.159 48.0911 144.487 47.3568 143.893 46.513C143.3 45.6536 142.8 44.7318 142.393 43.7474C142.003 42.7474 141.706 41.7005 141.503 40.6068C141.3 39.513 141.198 38.4193 141.198 37.3255C141.198 36.1068 141.331 34.8646 141.597 33.599C141.862 32.3333 142.237 31.1146 142.722 29.9427C143.222 28.7708 143.831 27.6693 144.55 26.638C145.268 25.6068 146.081 24.7161 146.987 23.9661C147.893 23.2005 148.893 22.599 149.987 22.1615C151.081 21.7083 152.245 21.4818 153.479 21.4818C154.589 21.4818 155.565 21.6146 156.409 21.8802C157.253 22.1458 157.987 22.4974 158.612 22.9349C159.237 23.3724 159.753 23.8802 160.159 24.4583C160.565 25.0208 160.893 25.6068 161.143 26.2161C161.393 26.8099 161.565 27.4036 161.659 27.9974C161.768 28.5911 161.823 29.138 161.823 29.638ZM185.917 50.1927C184.151 50.0521 182.62 49.9818 181.323 49.9818C180.198 49.9818 179.245 50.013 178.464 50.0755C177.698 50.1536 177.073 50.2318 176.589 50.3099C176.026 50.4036 175.573 50.5052 175.229 50.6146C175.354 49.8177 175.448 49.0833 175.511 48.4115C175.573 47.7396 175.604 47.0208 175.604 46.2552C175.604 44.8802 175.55 43.7396 175.44 42.8333C175.331 41.9115 175.175 41.138 174.972 40.513C174.768 39.888 174.526 39.3802 174.245 38.9896C173.964 38.599 173.651 38.2474 173.308 37.9349C173.276 38.4974 173.253 39.0599 173.237 39.6224C173.222 40.1693 173.214 40.7318 173.214 41.3099C173.214 42.4818 173.276 43.7552 173.401 45.1302C173.526 46.4896 173.784 48.0755 174.175 49.888C173.706 49.8568 173.175 49.8177 172.581 49.7708C172.081 49.7396 171.479 49.7083 170.776 49.6771C170.073 49.6615 169.3 49.6536 168.456 49.6536C167.612 49.6536 166.714 49.6693 165.761 49.7005C164.823 49.7318 163.847 49.7943 162.831 49.888C163.143 49.4036 163.417 48.763 163.651 47.9661C163.901 47.1693 164.112 46.2786 164.284 45.2943C164.456 44.2943 164.597 43.2318 164.706 42.1068C164.831 40.9818 164.925 39.849 164.987 38.7083C165.065 37.5521 165.12 36.4193 165.151 35.3099C165.183 34.2005 165.198 33.1615 165.198 32.1927C165.198 30.8958 165.175 29.5677 165.128 28.2083C165.081 26.849 165.018 25.5208 164.94 24.224C164.862 22.9271 164.768 21.6927 164.659 20.5208C164.55 19.349 164.44 18.2943 164.331 17.3568C164.222 16.4036 164.104 15.6068 163.979 14.9661C163.87 14.3255 163.761 13.888 163.651 13.6536C164.651 13.7474 165.69 13.7943 166.768 13.7943C168.128 13.7943 169.472 13.7318 170.8 13.6068C172.143 13.4661 173.425 13.2786 174.643 13.0443C174.456 13.5911 174.284 14.3021 174.128 15.1771C173.972 16.0365 173.831 16.9974 173.706 18.0599C173.597 19.1068 173.495 20.224 173.401 21.4115C173.323 22.5833 173.253 23.763 173.19 24.9505C173.128 26.1224 173.081 27.263 173.05 28.3724C173.034 29.4818 173.026 30.4974 173.026 31.4193C173.026 32.0443 173.034 32.6068 173.05 33.1068C173.065 33.6068 173.089 34.0365 173.12 34.3958C174.198 33.0208 175.034 31.6927 175.628 30.4115C176.222 29.1146 176.518 27.8333 176.518 26.5677C176.518 25.3646 176.198 24.1458 175.558 22.9115C176.151 22.974 176.761 23.0208 177.386 23.0521C178.011 23.0677 178.62 23.0755 179.214 23.0755C180.339 23.0755 181.456 23.0365 182.565 22.9583C183.675 22.8646 184.792 22.7083 185.917 22.4896C185.479 23.1458 185.112 23.8802 184.815 24.6927C184.534 25.4896 184.308 26.263 184.136 27.013C183.933 27.8724 183.761 28.7474 183.62 29.638C183.479 30.4974 183.245 31.3255 182.917 32.1224C182.776 32.4661 182.604 32.8177 182.401 33.1771C182.214 33.5208 181.979 33.8646 181.698 34.2083C181.433 34.5365 181.128 34.849 180.784 35.1458C180.44 35.4271 180.058 35.6693 179.636 35.8724C180.542 36.2318 181.229 36.6849 181.698 37.2318C182.183 37.7786 182.542 38.3958 182.776 39.0833C183.011 39.7552 183.175 40.4974 183.268 41.3099C183.362 42.1068 183.479 42.9505 183.62 43.8411C183.761 44.5755 183.94 45.3177 184.159 46.0677C184.347 46.7083 184.581 47.4036 184.862 48.1536C185.159 48.888 185.511 49.5677 185.917 50.1927ZM220.136 40.3958C220.136 42.1302 219.768 43.6068 219.034 44.8255C218.315 46.0443 217.354 47.0443 216.151 47.8255C214.948 48.5911 213.565 49.1615 212.003 49.5365C210.456 49.9115 208.862 50.1302 207.222 50.1927C206.175 50.1615 205.175 50.1224 204.222 50.0755C203.815 50.0599 203.401 50.0443 202.979 50.0286C202.558 50.0286 202.143 50.0208 201.737 50.0052C201.347 49.9896 200.972 49.9818 200.612 49.9818C200.253 49.9818 199.948 49.9818 199.698 49.9818C198.667 50.013 197.597 50.0365 196.487 50.0521C195.393 50.0677 194.315 50.1146 193.253 50.1927C193.956 49.2396 194.526 48.0208 194.964 46.5365C195.401 45.0521 195.745 43.4505 195.995 41.7318C196.261 40.013 196.44 38.2552 196.534 36.4583C196.628 34.6458 196.675 32.9505 196.675 31.3724C196.675 30.7005 196.659 29.888 196.628 28.9349C196.612 27.9661 196.573 26.9427 196.511 25.8646C196.448 24.7708 196.362 23.6693 196.253 22.5599C196.143 21.4505 195.987 20.4193 195.784 19.4661C195.597 18.4974 195.362 17.6458 195.081 16.9115C194.8 16.1771 194.464 15.6536 194.073 15.3411C195.198 15.513 196.292 15.6302 197.354 15.6927C198.417 15.7396 199.323 15.763 200.073 15.763C200.729 15.763 201.315 15.7552 201.831 15.7396C202.347 15.7083 202.854 15.6771 203.354 15.6458C203.854 15.6146 204.37 15.5911 204.901 15.5755C205.433 15.5443 206.034 15.5286 206.706 15.5286C207.737 15.5443 208.768 15.6068 209.8 15.7161C210.847 15.8099 211.839 15.9818 212.776 16.2318C213.729 16.4818 214.62 16.8255 215.448 17.263C216.276 17.6849 216.987 18.2396 217.581 18.9271C218.19 19.6146 218.667 20.4427 219.011 21.4115C219.37 22.3802 219.55 23.5208 219.55 24.8333C219.55 25.5365 219.456 26.2396 219.268 26.9427C219.097 27.6458 218.808 28.3333 218.401 29.0052C218.011 29.6771 217.487 30.3255 216.831 30.9505C216.19 31.5599 215.401 32.1302 214.464 32.6615C216.464 33.4896 217.909 34.5521 218.8 35.849C219.69 37.1302 220.136 38.6458 220.136 40.3958ZM206.167 29.8255C206.479 29.5911 206.847 29.2786 207.268 28.888C207.69 28.4818 208.089 28.0443 208.464 27.5755C208.839 27.0911 209.159 26.5911 209.425 26.0755C209.69 25.5599 209.823 25.0677 209.823 24.599C209.823 24.099 209.675 23.6927 209.378 23.3802C209.097 23.0677 208.776 22.9115 208.417 22.9115C207.917 22.9115 207.518 23.138 207.222 23.5911C206.925 24.0443 206.69 24.5833 206.518 25.2083C206.362 25.8177 206.253 26.4427 206.19 27.0833C206.143 27.7083 206.12 28.2083 206.12 28.5833C206.12 28.7708 206.12 28.974 206.12 29.1927C206.12 29.3958 206.136 29.6068 206.167 29.8255ZM209.378 41.4974C209.378 40.9349 209.292 40.3724 209.12 39.8099C208.948 39.2318 208.714 38.6693 208.417 38.1224C208.136 37.5599 207.808 37.0208 207.433 36.5052C207.073 35.9896 206.698 35.4974 206.308 35.0286C206.073 35.7318 205.917 36.4271 205.839 37.1146C205.776 37.7865 205.745 38.3958 205.745 38.9427C205.745 39.7552 205.8 40.4349 205.909 40.9818C206.018 41.513 206.167 41.9427 206.354 42.2708C206.558 42.599 206.792 42.8333 207.058 42.974C207.323 43.1146 207.62 43.1849 207.948 43.1849C208.339 43.1849 208.675 43.0443 208.956 42.763C209.237 42.4661 209.378 42.0443 209.378 41.4974ZM244.089 35.8255C244.089 36.7318 244.018 37.7318 243.878 38.8255C243.737 39.9036 243.503 40.9974 243.175 42.1068C242.847 43.2005 242.401 44.2708 241.839 45.3177C241.276 46.349 240.573 47.263 239.729 48.0599C238.901 48.8568 237.909 49.4974 236.753 49.9818C235.597 50.4661 234.253 50.7083 232.722 50.7083C231.19 50.7083 229.847 50.4818 228.69 50.0286C227.55 49.5755 226.565 48.974 225.737 48.224C224.925 47.4583 224.253 46.5833 223.722 45.599C223.19 44.599 222.768 43.5521 222.456 42.4583C222.143 41.3646 221.925 40.263 221.8 39.1536C221.69 38.0286 221.636 36.9661 221.636 35.9661C221.636 34.2005 221.87 32.474 222.339 30.7865C222.808 29.0833 223.518 27.5677 224.472 26.2396C225.44 24.9115 226.643 23.8411 228.081 23.0286C229.534 22.2161 231.237 21.8099 233.19 21.8099C234.503 21.8099 235.683 22.013 236.729 22.4193C237.776 22.8099 238.706 23.349 239.518 24.0365C240.331 24.724 241.018 25.5286 241.581 26.4505C242.159 27.3724 242.636 28.349 243.011 29.3802C243.386 30.4115 243.659 31.4818 243.831 32.5911C244.003 33.7005 244.089 34.7786 244.089 35.8255ZM235.933 36.599C235.933 36.2396 235.917 35.7943 235.886 35.263C235.87 34.7161 235.823 34.1458 235.745 33.5521C235.667 32.9583 235.558 32.3646 235.417 31.7708C235.292 31.1771 235.12 30.6458 234.901 30.1771C234.683 29.7083 234.409 29.3255 234.081 29.0286C233.768 28.7318 233.393 28.5833 232.956 28.5833C232.534 28.5833 232.167 28.724 231.854 29.0052C231.542 29.2865 231.268 29.6536 231.034 30.1068C230.815 30.5599 230.628 31.0755 230.472 31.6536C230.331 32.2161 230.214 32.7865 230.12 33.3646C230.042 33.9271 229.979 34.474 229.933 35.0052C229.901 35.5208 229.886 35.9583 229.886 36.3177C229.886 36.8333 229.925 37.4583 230.003 38.1927C230.081 38.9271 230.229 39.6302 230.448 40.3021C230.667 40.974 230.964 41.5521 231.339 42.0365C231.729 42.5052 232.237 42.7396 232.862 42.7396C233.456 42.7396 233.948 42.5208 234.339 42.0833C234.745 41.6458 235.065 41.1146 235.3 40.4896C235.534 39.849 235.698 39.1771 235.792 38.474C235.886 37.7708 235.933 37.1458 235.933 36.599ZM264.409 21.0599C264.284 21.763 264.19 22.4505 264.128 23.1224C264.081 23.7943 264.058 24.4818 264.058 25.1849C264.058 25.8568 264.081 26.5365 264.128 27.224C264.19 27.8958 264.284 28.5755 264.409 29.263C263.659 28.8724 262.808 28.5833 261.854 28.3958C260.917 28.2083 259.956 28.0599 258.972 27.9505V29.9661C258.972 31.7318 259.003 33.5208 259.065 35.3333C259.128 37.1302 259.229 38.8802 259.37 40.5833C259.511 42.2708 259.69 43.8724 259.909 45.388C260.143 46.9036 260.425 48.2474 260.753 49.4193C260.487 49.4036 260.175 49.3802 259.815 49.349C259.503 49.3333 259.136 49.3177 258.714 49.3021C258.292 49.2865 257.808 49.2786 257.261 49.2786C256.245 49.2786 255.073 49.3255 253.745 49.4193C252.417 49.4974 250.979 49.6536 249.433 49.888C249.964 46.8411 250.339 43.6771 250.558 40.3958C250.792 37.099 250.909 33.8802 250.909 30.7396V27.9505C249.847 28.0286 248.792 28.1536 247.745 28.3255C246.714 28.4818 245.737 28.6771 244.815 28.9115C244.878 28.7396 244.933 28.513 244.979 28.2318C245.026 27.9505 245.058 27.6615 245.073 27.3646C245.104 27.0677 245.12 26.7786 245.12 26.4974C245.136 26.2161 245.143 25.9818 245.143 25.7943C245.143 24.9974 245.112 24.2083 245.05 23.4271C244.987 22.6458 244.909 21.8568 244.815 21.0599C245.565 21.3724 246.456 21.6302 247.487 21.8333C248.518 22.0208 249.565 22.1615 250.628 22.2552C250.534 20.8958 250.425 19.638 250.3 18.4818C250.175 17.3255 250.026 16.2786 249.854 15.3411C251.12 15.5599 252.292 15.7083 253.37 15.7865C254.448 15.8646 255.425 15.9036 256.3 15.9036C256.862 15.9036 257.362 15.8958 257.8 15.8802C258.253 15.849 258.636 15.8177 258.948 15.7865C259.323 15.7552 259.651 15.7161 259.933 15.6693C259.761 16.4193 259.612 17.3568 259.487 18.4818C259.378 19.5911 259.268 20.8333 259.159 22.2083C260.19 22.099 261.159 21.9505 262.065 21.763C262.987 21.5755 263.768 21.3411 264.409 21.0599Z" fill="#FFDFF8"/>
</svg>
