<svg width="508" height="268" viewBox="0 0 508 268" fill="none" xmlns="http://www.w3.org/2000/svg">
<g clip-path="url(#clip0_1891_85090)">
<rect width="508" height="268" fill="white"/>
<g clip-path="url(#clip1_1891_85090)">
<rect width="508" height="268" fill="white"/>
<rect width="508" height="268" fill="#9B45CF"/>
<rect width="507" height="267" fill="#FF70E0"/>
<rect x="1" y="1" width="506" height="266" fill="#FF70E0"/>
<rect x="1" y="1" width="505" height="265" fill="white"/>
<rect x="2" y="2" width="504" height="264" fill="#FFDFF8"/>
</g>
<g filter="url(#filter0_iiii_1891_85090)">
<rect width="508" height="268" fill="#FFDFF8"/>
</g>
</g>
<rect x="3" y="3" width="502" height="18" fill="url(#paint0_linear_1891_85090)"/>
<g clip-path="url(#clip2_1891_85090)">
<rect width="16" height="14" transform="translate(487 5)" fill="white"/>
<rect x="487" y="5" width="16" height="14" fill="#9B45CF"/>
<rect x="487" y="5" width="15" height="13" fill="white"/>
<rect x="488" y="6" width="14" height="12" fill="#808080"/>
<rect x="488" y="6" width="13" height="11" fill="#DBDBDB"/>
<rect x="489" y="7" width="12" height="10" fill="#FFDFF8"/>
</g>
<g filter="url(#filter1_iiii_1891_85090)">
<rect x="487" y="5" width="16" height="14" fill="#FFDFF8"/>
</g>
<path fill-rule="evenodd" clip-rule="evenodd" d="M491 8H493V9H494V10H496V9H497V8H499V9H498V10H497V11H496V12H497V13H498V14H499V15H497V14H496V13H494V14H493V15H491V14H492V13H493V12H494V11H493V10H492V9H491V8Z" fill="#9B45CF"/>
<g clip-path="url(#clip3_1891_85090)">
<rect width="16" height="14" transform="translate(453 5)" fill="white"/>
<rect x="453" y="5" width="16" height="14" fill="#9B45CF"/>
<rect x="453" y="5" width="15" height="13" fill="white"/>
<rect x="454" y="6" width="14" height="12" fill="#808080"/>
<rect x="454" y="6" width="13" height="11" fill="#DBDBDB"/>
<rect x="455" y="7" width="12" height="10" fill="#FFDFF8"/>
</g>
<g filter="url(#filter2_iiii_1891_85090)">
<rect x="453" y="5" width="16" height="14" fill="#FFDFF8"/>
</g>
<rect x="457" y="14" width="6" height="2" fill="#9B45CF"/>
<g clip-path="url(#clip4_1891_85090)">
<rect width="16" height="14" transform="translate(469 5)" fill="white"/>
<rect x="469" y="5" width="16" height="14" fill="#9B45CF"/>
<rect x="469" y="5" width="15" height="13" fill="white"/>
<rect x="470" y="6" width="14" height="12" fill="#808080"/>
<rect x="470" y="6" width="13" height="11" fill="#DBDBDB"/>
<rect x="471" y="7" width="12" height="10" fill="#FFDFF8"/>
</g>
<g filter="url(#filter3_iiii_1891_85090)">
<rect x="469" y="5" width="16" height="14" fill="#FFDFF8"/>
</g>
<path fill-rule="evenodd" clip-rule="evenodd" d="M481 7H472V16H481V7ZM480 9H473V15H480V9Z" fill="#9B45CF"/>
<g filter="url(#filter4_d_1891_85090)">
<path d="M7 16V7.00073H8.99805V11.0022H11.9978V7.00073H13.9985V16H11.9978V12.0012H8.99805V16H7ZM19.0017 12.0012V11.0022H17.001V12.0012H19.0017ZM16.002 16V15.001H15.0029V11.0022H16.002V10.0005H20.0007V11.0022H21.0024V13.0002H17.001V15.001H19.0017V14.002H21.0024V15.001H20.0007V16H16.002ZM21.0078 17.998V16.999H23.0059V14.002H22.0068V10.0005H24.0049V14.002H25.0066V10.0005H27.0046V14.002H26.0056V15.001H25.0066V16.999H24.0049V17.998H21.0078ZM35.0076 15.001V11.0022H33.0068V15.001H35.0076ZM31.0088 16V7.00073H33.0068V10.0005H36.0066V11.0022H37.0083V15.001H36.0066V16H31.0088ZM42.0115 12.0012V11.0022H40.0107V12.0012H42.0115ZM39.0117 16V15.001H38.0127V11.0022H39.0117V10.0005H43.0105V11.0022H44.0122V13.0002H40.0107V15.001H42.0115V14.002H44.0122V15.001H43.0105V16H39.0117ZM46.0156 16V15.001H45.0166V14.002H47.0146V15.001H48.0164V14.002H47.0146V13.0002H46.0156V12.0012H45.0166V11.0022H46.0156V10.0005H49.0154V11.0022H50.0144V12.0012H48.0164V11.0022H47.0146V12.0012H48.0164V13.0002H49.0154V14.002H50.0144V15.001H49.0154V16H46.0156ZM52.0205 16V15.001H51.0215V8.00244H53.0195V10.0005H54.0212V11.0022H53.0195V15.001H54.0212V16H52.0205ZM55.0176 16V10.0005H57.0156V16H55.0176ZM55.0176 8.00244V7.00073H57.0156V8.00244H55.0176ZM62.0134 12.0012V11.0022H60.0127V12.0012H62.0134ZM59.0137 16V15.001H58.0146V11.0022H59.0137V10.0005H63.0125V11.0022H64.0142V13.0002H60.0127V15.001H62.0134V14.002H64.0142V15.001H63.0125V16H59.0137Z" fill="white"/>
</g>
<defs>
<filter id="filter0_iiii_1891_85090" x="0" y="0" width="508" height="268" filterUnits="userSpaceOnUse" color-interpolation-filters="sRGB">
<feFlood flood-opacity="0" result="BackgroundImageFix"/>
<feBlend mode="normal" in="SourceGraphic" in2="BackgroundImageFix" result="shape"/>
<feColorMatrix in="SourceAlpha" type="matrix" values="0 0 0 0 0 0 0 0 0 0 0 0 0 0 0 0 0 0 127 0" result="hardAlpha"/>
<feOffset dx="2" dy="2"/>
<feComposite in2="hardAlpha" operator="arithmetic" k2="-1" k3="1"/>
<feColorMatrix type="matrix" values="0 0 0 0 1 0 0 0 0 1 0 0 0 0 1 0 0 0 1 0"/>
<feBlend mode="normal" in2="shape" result="effect1_innerShadow_1891_85090"/>
<feColorMatrix in="SourceAlpha" type="matrix" values="0 0 0 0 0 0 0 0 0 0 0 0 0 0 0 0 0 0 127 0" result="hardAlpha"/>
<feOffset dx="-2" dy="-2"/>
<feComposite in2="hardAlpha" operator="arithmetic" k2="-1" k3="1"/>
<feColorMatrix type="matrix" values="0 0 0 0 1 0 0 0 0 0.627451 0 0 0 0 0.917647 0 0 0 1 0"/>
<feBlend mode="normal" in2="effect1_innerShadow_1891_85090" result="effect2_innerShadow_1891_85090"/>
<feColorMatrix in="SourceAlpha" type="matrix" values="0 0 0 0 0 0 0 0 0 0 0 0 0 0 0 0 0 0 127 0" result="hardAlpha"/>
<feOffset dx="1" dy="1"/>
<feComposite in2="hardAlpha" operator="arithmetic" k2="-1" k3="1"/>
<feColorMatrix type="matrix" values="0 0 0 0 1 0 0 0 0 0.772549 0 0 0 0 0.94902 0 0 0 1 0"/>
<feBlend mode="normal" in2="effect2_innerShadow_1891_85090" result="effect3_innerShadow_1891_85090"/>
<feColorMatrix in="SourceAlpha" type="matrix" values="0 0 0 0 0 0 0 0 0 0 0 0 0 0 0 0 0 0 127 0" result="hardAlpha"/>
<feOffset dx="-1" dy="-1"/>
<feComposite in2="hardAlpha" operator="arithmetic" k2="-1" k3="1"/>
<feColorMatrix type="matrix" values="0 0 0 0 1 0 0 0 0 0 0 0 0 0 0.641414 0 0 0 1 0"/>
<feBlend mode="normal" in2="effect3_innerShadow_1891_85090" result="effect4_innerShadow_1891_85090"/>
</filter>
<filter id="filter1_iiii_1891_85090" x="487" y="5" width="16" height="14" filterUnits="userSpaceOnUse" color-interpolation-filters="sRGB">
<feFlood flood-opacity="0" result="BackgroundImageFix"/>
<feBlend mode="normal" in="SourceGraphic" in2="BackgroundImageFix" result="shape"/>
<feColorMatrix in="SourceAlpha" type="matrix" values="0 0 0 0 0 0 0 0 0 0 0 0 0 0 0 0 0 0 127 0" result="hardAlpha"/>
<feOffset dx="2" dy="2"/>
<feComposite in2="hardAlpha" operator="arithmetic" k2="-1" k3="1"/>
<feColorMatrix type="matrix" values="0 0 0 0 1 0 0 0 0 0.770833 0 0 0 0 0.949802 0 0 0 1 0"/>
<feBlend mode="normal" in2="shape" result="effect1_innerShadow_1891_85090"/>
<feColorMatrix in="SourceAlpha" type="matrix" values="0 0 0 0 0 0 0 0 0 0 0 0 0 0 0 0 0 0 127 0" result="hardAlpha"/>
<feOffset dx="-2" dy="-2"/>
<feComposite in2="hardAlpha" operator="arithmetic" k2="-1" k3="1"/>
<feColorMatrix type="matrix" values="0 0 0 0 1 0 0 0 0 0.629167 0 0 0 0 0.916882 0 0 0 1 0"/>
<feBlend mode="normal" in2="effect1_innerShadow_1891_85090" result="effect2_innerShadow_1891_85090"/>
<feColorMatrix in="SourceAlpha" type="matrix" values="0 0 0 0 0 0 0 0 0 0 0 0 0 0 0 0 0 0 127 0" result="hardAlpha"/>
<feOffset dx="1" dy="1"/>
<feComposite in2="hardAlpha" operator="arithmetic" k2="-1" k3="1"/>
<feColorMatrix type="matrix" values="0 0 0 0 1 0 0 0 0 1 0 0 0 0 1 0 0 0 1 0"/>
<feBlend mode="normal" in2="effect2_innerShadow_1891_85090" result="effect3_innerShadow_1891_85090"/>
<feColorMatrix in="SourceAlpha" type="matrix" values="0 0 0 0 0 0 0 0 0 0 0 0 0 0 0 0 0 0 127 0" result="hardAlpha"/>
<feOffset dx="-1" dy="-1"/>
<feComposite in2="hardAlpha" operator="arithmetic" k2="-1" k3="1"/>
<feColorMatrix type="matrix" values="0 0 0 0 0.607843 0 0 0 0 0.270588 0 0 0 0 0.811765 0 0 0 1 0"/>
<feBlend mode="normal" in2="effect3_innerShadow_1891_85090" result="effect4_innerShadow_1891_85090"/>
</filter>
<filter id="filter2_iiii_1891_85090" x="453" y="5" width="16" height="14" filterUnits="userSpaceOnUse" color-interpolation-filters="sRGB">
<feFlood flood-opacity="0" result="BackgroundImageFix"/>
<feBlend mode="normal" in="SourceGraphic" in2="BackgroundImageFix" result="shape"/>
<feColorMatrix in="SourceAlpha" type="matrix" values="0 0 0 0 0 0 0 0 0 0 0 0 0 0 0 0 0 0 127 0" result="hardAlpha"/>
<feOffset dx="2" dy="2"/>
<feComposite in2="hardAlpha" operator="arithmetic" k2="-1" k3="1"/>
<feColorMatrix type="matrix" values="0 0 0 0 1 0 0 0 0 0.770833 0 0 0 0 0.949802 0 0 0 1 0"/>
<feBlend mode="normal" in2="shape" result="effect1_innerShadow_1891_85090"/>
<feColorMatrix in="SourceAlpha" type="matrix" values="0 0 0 0 0 0 0 0 0 0 0 0 0 0 0 0 0 0 127 0" result="hardAlpha"/>
<feOffset dx="-2" dy="-2"/>
<feComposite in2="hardAlpha" operator="arithmetic" k2="-1" k3="1"/>
<feColorMatrix type="matrix" values="0 0 0 0 1 0 0 0 0 0.629167 0 0 0 0 0.916882 0 0 0 1 0"/>
<feBlend mode="normal" in2="effect1_innerShadow_1891_85090" result="effect2_innerShadow_1891_85090"/>
<feColorMatrix in="SourceAlpha" type="matrix" values="0 0 0 0 0 0 0 0 0 0 0 0 0 0 0 0 0 0 127 0" result="hardAlpha"/>
<feOffset dx="1" dy="1"/>
<feComposite in2="hardAlpha" operator="arithmetic" k2="-1" k3="1"/>
<feColorMatrix type="matrix" values="0 0 0 0 1 0 0 0 0 1 0 0 0 0 1 0 0 0 1 0"/>
<feBlend mode="normal" in2="effect2_innerShadow_1891_85090" result="effect3_innerShadow_1891_85090"/>
<feColorMatrix in="SourceAlpha" type="matrix" values="0 0 0 0 0 0 0 0 0 0 0 0 0 0 0 0 0 0 127 0" result="hardAlpha"/>
<feOffset dx="-1" dy="-1"/>
<feComposite in2="hardAlpha" operator="arithmetic" k2="-1" k3="1"/>
<feColorMatrix type="matrix" values="0 0 0 0 0.607843 0 0 0 0 0.270588 0 0 0 0 0.811765 0 0 0 1 0"/>
<feBlend mode="normal" in2="effect3_innerShadow_1891_85090" result="effect4_innerShadow_1891_85090"/>
</filter>
<filter id="filter3_iiii_1891_85090" x="469" y="5" width="16" height="14" filterUnits="userSpaceOnUse" color-interpolation-filters="sRGB">
<feFlood flood-opacity="0" result="BackgroundImageFix"/>
<feBlend mode="normal" in="SourceGraphic" in2="BackgroundImageFix" result="shape"/>
<feColorMatrix in="SourceAlpha" type="matrix" values="0 0 0 0 0 0 0 0 0 0 0 0 0 0 0 0 0 0 127 0" result="hardAlpha"/>
<feOffset dx="2" dy="2"/>
<feComposite in2="hardAlpha" operator="arithmetic" k2="-1" k3="1"/>
<feColorMatrix type="matrix" values="0 0 0 0 1 0 0 0 0 0.770833 0 0 0 0 0.949802 0 0 0 1 0"/>
<feBlend mode="normal" in2="shape" result="effect1_innerShadow_1891_85090"/>
<feColorMatrix in="SourceAlpha" type="matrix" values="0 0 0 0 0 0 0 0 0 0 0 0 0 0 0 0 0 0 127 0" result="hardAlpha"/>
<feOffset dx="-2" dy="-2"/>
<feComposite in2="hardAlpha" operator="arithmetic" k2="-1" k3="1"/>
<feColorMatrix type="matrix" values="0 0 0 0 1 0 0 0 0 0.629167 0 0 0 0 0.916882 0 0 0 1 0"/>
<feBlend mode="normal" in2="effect1_innerShadow_1891_85090" result="effect2_innerShadow_1891_85090"/>
<feColorMatrix in="SourceAlpha" type="matrix" values="0 0 0 0 0 0 0 0 0 0 0 0 0 0 0 0 0 0 127 0" result="hardAlpha"/>
<feOffset dx="1" dy="1"/>
<feComposite in2="hardAlpha" operator="arithmetic" k2="-1" k3="1"/>
<feColorMatrix type="matrix" values="0 0 0 0 1 0 0 0 0 1 0 0 0 0 1 0 0 0 1 0"/>
<feBlend mode="normal" in2="effect2_innerShadow_1891_85090" result="effect3_innerShadow_1891_85090"/>
<feColorMatrix in="SourceAlpha" type="matrix" values="0 0 0 0 0 0 0 0 0 0 0 0 0 0 0 0 0 0 127 0" result="hardAlpha"/>
<feOffset dx="-1" dy="-1"/>
<feComposite in2="hardAlpha" operator="arithmetic" k2="-1" k3="1"/>
<feColorMatrix type="matrix" values="0 0 0 0 0.607843 0 0 0 0 0.270588 0 0 0 0 0.811765 0 0 0 1 0"/>
<feBlend mode="normal" in2="effect3_innerShadow_1891_85090" result="effect4_innerShadow_1891_85090"/>
</filter>
<filter id="filter4_d_1891_85090" x="3" y="7.00073" width="65.0142" height="18.9973" filterUnits="userSpaceOnUse" color-interpolation-filters="sRGB">
<feFlood flood-opacity="0" result="BackgroundImageFix"/>
<feColorMatrix in="SourceAlpha" type="matrix" values="0 0 0 0 0 0 0 0 0 0 0 0 0 0 0 0 0 0 127 0" result="hardAlpha"/>
<feOffset dy="4"/>
<feGaussianBlur stdDeviation="2"/>
<feComposite in2="hardAlpha" operator="out"/>
<feColorMatrix type="matrix" values="0 0 0 0 0 0 0 0 0 0 0 0 0 0 0 0 0 0 0.25 0"/>
<feBlend mode="normal" in2="BackgroundImageFix" result="effect1_dropShadow_1891_85090"/>
<feBlend mode="normal" in="SourceGraphic" in2="effect1_dropShadow_1891_85090" result="shape"/>
</filter>
<linearGradient id="paint0_linear_1891_85090" x1="505" y1="12" x2="3" y2="12" gradientUnits="userSpaceOnUse">
<stop stop-color="#FFAEED"/>
<stop offset="1" stop-color="#FF2FD1"/>
</linearGradient>
<clipPath id="clip0_1891_85090">
<rect width="508" height="268" fill="white"/>
</clipPath>
<clipPath id="clip1_1891_85090">
<rect width="508" height="268" fill="white"/>
</clipPath>
<clipPath id="clip2_1891_85090">
<rect width="16" height="14" fill="white" transform="translate(487 5)"/>
</clipPath>
<clipPath id="clip3_1891_85090">
<rect width="16" height="14" fill="white" transform="translate(453 5)"/>
</clipPath>
<clipPath id="clip4_1891_85090">
<rect width="16" height="14" fill="white" transform="translate(469 5)"/>
</clipPath>
</defs>
</svg>
