<svg width="28" height="20" viewBox="0 0 28 20" fill="none" xmlns="http://www.w3.org/2000/svg">
<path d="M7 14V5.00073H11.9978V6.00244H7.99902V9.0022H10.9988V10.0012H7.99902V14H7ZM13.0049 14V8.00049H14.0039V14H13.0049ZM13.0049 6.00244V5.00073H14.0039V6.00244H13.0049ZM15.0029 14V5.00073H16.002V14H15.0029ZM18 14V13.001H20.9998V14H18ZM20.9998 13.001V12.002H21.9988V13.001H20.9998ZM17.001 13.001V9.0022H18V10.0012H20.9998V9.0022H21.9988V11.0002H18V13.001H17.001ZM18 9.0022V8.00049H20.9998V9.0022H18Z" fill="#9B45CF"/>
<path d="M6 15.5H13" stroke="#FF39B8"/>
</svg>
