<svg width="640" height="360" viewBox="0 0 640 360" fill="none" xmlns="http://www.w3.org/2000/svg">
<g clip-path="url(#clip0_1160_714)">
<rect width="640" height="360" fill="white"/>
<g clip-path="url(#clip1_1160_714)">
<rect width="640" height="360" fill="white"/>
<rect width="640" height="360" fill="#9B45CF"/>
<rect width="639" height="359" fill="#FF70E0"/>
<rect x="1" y="1" width="638" height="358" fill="#FF70E0"/>
<rect x="1" y="1" width="637" height="357" fill="white"/>
<rect x="2" y="2" width="636" height="356" fill="#FFDFF8"/>
</g>
<g filter="url(#filter0_iiii_1160_714)">
<rect width="640" height="360" fill="#FFDFF8"/>
</g>
</g>
<rect x="3" y="3" width="634" height="18" fill="url(#paint0_linear_1160_714)"/>
<g clip-path="url(#clip2_1160_714)">
<rect width="16" height="14" transform="translate(619 5)" fill="white"/>
<rect x="619" y="5" width="16" height="14" fill="#9B45CF"/>
<rect x="619" y="5" width="15" height="13" fill="white"/>
<rect x="620" y="6" width="14" height="12" fill="#808080"/>
<rect x="620" y="6" width="13" height="11" fill="#DBDBDB"/>
<rect x="621" y="7" width="12" height="10" fill="#FFDFF8"/>
</g>
<g filter="url(#filter1_iiii_1160_714)">
<rect x="619" y="5" width="16" height="14" fill="#FFDFF8"/>
</g>
<path fill-rule="evenodd" clip-rule="evenodd" d="M623 8H625V9H626V10H628V9H629V8H631V9H630V10H629V11H628V12H629V13H630V14H631V15H629V14H628V13H626V14H625V15H623V14H624V13H625V12H626V11H625V10H624V9H623V8Z" fill="#9B45CF"/>
<g clip-path="url(#clip3_1160_714)">
<rect width="16" height="14" transform="translate(585 5)" fill="white"/>
<rect x="585" y="5" width="16" height="14" fill="#9B45CF"/>
<rect x="585" y="5" width="15" height="13" fill="white"/>
<rect x="586" y="6" width="14" height="12" fill="#808080"/>
<rect x="586" y="6" width="13" height="11" fill="#DBDBDB"/>
<rect x="587" y="7" width="12" height="10" fill="#FFDFF8"/>
</g>
<g filter="url(#filter2_iiii_1160_714)">
<rect x="585" y="5" width="16" height="14" fill="#FFDFF8"/>
</g>
<rect x="589" y="14" width="6" height="2" fill="#9B45CF"/>
<g clip-path="url(#clip4_1160_714)">
<rect width="16" height="14" transform="translate(601 5)" fill="white"/>
<rect x="601" y="5" width="16" height="14" fill="#9B45CF"/>
<rect x="601" y="5" width="15" height="13" fill="white"/>
<rect x="602" y="6" width="14" height="12" fill="#808080"/>
<rect x="602" y="6" width="13" height="11" fill="#DBDBDB"/>
<rect x="603" y="7" width="12" height="10" fill="#FFDFF8"/>
</g>
<g filter="url(#filter3_iiii_1160_714)">
<rect x="601" y="5" width="16" height="14" fill="#FFDFF8"/>
</g>
<path fill-rule="evenodd" clip-rule="evenodd" d="M613 7H604V16H613V7ZM612 9H605V15H612V9Z" fill="#9B45CF"/>
<g filter="url(#filter4_d_1160_714)">
<path d="M7 16V7.00073H12.9995V8.00244H8.99805V11.0022H11.9978V12.0012H8.99805V16H7ZM14.0039 16V10.0005H16.002V16H14.0039ZM14.0039 8.00244V7.00073H16.002V8.00244H14.0039ZM18 16V15.001H17.001V8.00244H18.999V10.0005H20.0007V11.0022H18.999V15.001H20.0007V16H18ZM24.9932 16V15.001H23.9941V8.00244H24.9932V7.00073H29.9937V8.00244H30.9927V9.00146H28.9919V8.00244H25.9922V15.001H28.9919V14.002H30.9927V15.001H29.9937V16H24.9932ZM31.9971 16V7.00073H33.9951V10.0005H36.9949V11.0022H37.9966V16H35.9958V11.0022H34.9968V12.0012H33.9951V16H31.9971ZM42.9998 12.0012V11.0022H40.999V12.0012H42.9998ZM40 16V15.001H39.001V11.0022H40V10.0005H43.9988V11.0022H45.0005V13.0002H40.999V15.001H42.9998V14.002H45.0005V15.001H43.9988V16H40ZM47.0039 16V15.001H46.0049V11.0022H47.0039V10.0005H51.0027V11.0022H52.0044V12.0012H50.0037V11.0022H48.0029V15.001H50.0037V14.002H52.0044V15.001H51.0027V16H47.0039ZM53.0088 16V7.00073H55.0068V11.0022H56.0085V10.0005H58.0066V11.0022H57.0076V12.0012H56.0085V13.0002H57.0076V14.002H58.0066V15.001H59.0083V16H57.0076V15.001H56.0085V14.002H55.0068V16H53.0088ZM67.0085 15.001V12.0012H65.0078V15.001H67.0085ZM67.0085 11.0022V8.00244H65.0078V11.0022H67.0085ZM63.0098 16V7.00073H68.0076V8.00244H69.0093V11.0022H68.0076V12.0012H69.0093V15.001H68.0076V16H63.0098ZM74.0125 15.001V11.0022H72.0117V15.001H74.0125ZM71.0127 16V15.001H70.0137V11.0022H71.0127V10.0005H75.0115V11.0022H76.0132V15.001H75.0115V16H71.0127ZM78.0166 16V15.001H77.0176V8.00244H79.0156V10.0005H80.0173V11.0022H79.0156V15.001H80.0173V16H78.0166ZM86.0088 16V14.002H85.0098V12.0012H84.0107V10.0005H86.0088V12.0012H88.0095V10.0005H90.0103V12.0012H89.0085V14.002H88.0095V16H86.0088ZM96.0098 16V9.00146H94.0117V8.00244H96.0098V7.00073H98.0105V16H96.0098ZM99.7988 15.406C99.7988 15.1347 99.8648 14.944 99.9968 14.834C100.129 14.724 100.287 14.669 100.47 14.669C100.661 14.669 100.822 14.724 100.954 14.834C101.093 14.944 101.163 15.1347 101.163 15.406C101.163 15.67 101.093 15.8607 100.954 15.978C100.822 16.0953 100.661 16.154 100.47 16.154C100.287 16.154 100.129 16.0953 99.9968 15.978C99.8648 15.8607 99.7988 15.67 99.7988 15.406ZM105.949 15.001V8.00244H103.948V15.001H105.949ZM102.949 16V15.001H101.95V8.00244H102.949V7.00073H106.948V8.00244H107.95V15.001H106.948V16H102.949Z" fill="white"/>
</g>
<rect x="3" y="21" width="634" height="20" fill="#FFDFF8"/>
<path d="M10 35V26.0007H14.9978V27.0024H10.999V30.0022H13.9988V31.0012H10.999V35H10ZM16.0049 35V29.0005H17.0039V35H16.0049ZM16.0049 27.0024V26.0007H17.0039V27.0024H16.0049ZM18.0029 35V26.0007H19.002V35H18.0029ZM21 35V34.001H23.9998V35H21ZM23.9998 34.001V33.002H24.9988V34.001H23.9998ZM20.001 34.001V30.0022H21V31.0012H23.9998V30.0022H24.9988V32.0002H21V34.001H20.001ZM21 30.0022V29.0005H23.9998V30.0022H21Z" fill="#9B45CF"/>
<path d="M9 36.5H16" stroke="#FF39B8"/>
<path d="M38 35V26.0007H42.9978V27.0024H38.999V30.0022H41.9988V31.0012H38.999V34.001H42.9978V35H38ZM44.0049 34.001V30.0022H45.0039V34.001H44.0049ZM45.0039 35V34.001H48.0037V30.0022H45.0039V29.0005H48.0037V26.0007H49.0027V35H45.0039ZM50.0098 35V29.0005H51.0088V35H50.0098ZM50.0098 27.0024V26.0007H51.0088V27.0024H50.0098ZM53.0068 35V34.001H54.0059V35H53.0068ZM52.0078 34.001V27.0024H53.0068V29.0005H54.0059V30.0022H53.0068V34.001H52.0078Z" fill="#9B45CF"/>
<path d="M37 36.5H44" stroke="#FF39B8"/>
<path d="M69.9998 35V33.002H70.9988V35H69.9998ZM68.998 33.002V31.0012H69.9998V33.002H68.998ZM70.9988 33.002V31.0012H71.9978V33.002H70.9988ZM67.999 31.0012V28.0015H68.998V31.0012H67.999ZM71.9978 31.0012V28.0015H72.9995V31.0012H71.9978ZM67 28.0015V26.0007H67.999V28.0015H67ZM72.9995 28.0015V26.0007H73.9985V28.0015H72.9995ZM75.0029 35V29.0005H76.002V35H75.0029ZM75.0029 27.0024V26.0007H76.002V27.0024H75.0029ZM78 35V34.001H80.9998V35H78ZM80.9998 34.001V33.002H81.9988V34.001H80.9998ZM77.001 34.001V30.0022H78V31.0012H80.9998V30.0022H81.9988V32.0002H78V34.001H77.001ZM78 30.0022V29.0005H80.9998V30.0022H78ZM84.0049 35V33.002H85.0039V35H84.0049ZM88.0037 35V33.002H89.0054V35H88.0037ZM85.0039 33.002V31.0012H86.0056V33.002H85.0039ZM87.0046 33.002V31.0012H88.0037V33.002H87.0046ZM83.0059 33.002V29.0005H84.0049V33.002H83.0059ZM86.0056 31.0012V29.0005H87.0046V31.0012H86.0056ZM89.0054 33.002V29.0005H90.0044V33.002H89.0054Z" fill="#9B45CF"/>
<path d="M66 36.5H75" stroke="#FF39B8"/>
<path d="M103 35V26.0007H103.999V30.0022H107.998V26.0007H109V35H107.998V31.0012H103.999V35H103ZM111.003 35V34.001H114.003V35H111.003ZM114.003 34.001V33.002H115.002V34.001H114.003ZM110.004 34.001V30.0022H111.003V31.0012H114.003V30.0022H115.002V32.0002H111.003V34.001H110.004ZM111.003 30.0022V29.0005H114.003V30.0022H111.003ZM116.009 35V26.0007H117.008V35H116.009ZM122.006 34.001V30.0022H123.005V34.001H122.006ZM118.007 36.998V29.0005H122.006V30.0022H119.006V34.001H122.006V35H119.006V36.998H118.007Z" fill="#9B45CF"/>
<path d="M102 36.5H110" stroke="#FF39B8"/>
<defs>
<filter id="filter0_iiii_1160_714" x="0" y="0" width="640" height="360" filterUnits="userSpaceOnUse" color-interpolation-filters="sRGB">
<feFlood flood-opacity="0" result="BackgroundImageFix"/>
<feBlend mode="normal" in="SourceGraphic" in2="BackgroundImageFix" result="shape"/>
<feColorMatrix in="SourceAlpha" type="matrix" values="0 0 0 0 0 0 0 0 0 0 0 0 0 0 0 0 0 0 127 0" result="hardAlpha"/>
<feOffset dx="2" dy="2"/>
<feComposite in2="hardAlpha" operator="arithmetic" k2="-1" k3="1"/>
<feColorMatrix type="matrix" values="0 0 0 0 1 0 0 0 0 1 0 0 0 0 1 0 0 0 1 0"/>
<feBlend mode="normal" in2="shape" result="effect1_innerShadow_1160_714"/>
<feColorMatrix in="SourceAlpha" type="matrix" values="0 0 0 0 0 0 0 0 0 0 0 0 0 0 0 0 0 0 127 0" result="hardAlpha"/>
<feOffset dx="-2" dy="-2"/>
<feComposite in2="hardAlpha" operator="arithmetic" k2="-1" k3="1"/>
<feColorMatrix type="matrix" values="0 0 0 0 1 0 0 0 0 0.627451 0 0 0 0 0.917647 0 0 0 1 0"/>
<feBlend mode="normal" in2="effect1_innerShadow_1160_714" result="effect2_innerShadow_1160_714"/>
<feColorMatrix in="SourceAlpha" type="matrix" values="0 0 0 0 0 0 0 0 0 0 0 0 0 0 0 0 0 0 127 0" result="hardAlpha"/>
<feOffset dx="1" dy="1"/>
<feComposite in2="hardAlpha" operator="arithmetic" k2="-1" k3="1"/>
<feColorMatrix type="matrix" values="0 0 0 0 1 0 0 0 0 0.772549 0 0 0 0 0.94902 0 0 0 1 0"/>
<feBlend mode="normal" in2="effect2_innerShadow_1160_714" result="effect3_innerShadow_1160_714"/>
<feColorMatrix in="SourceAlpha" type="matrix" values="0 0 0 0 0 0 0 0 0 0 0 0 0 0 0 0 0 0 127 0" result="hardAlpha"/>
<feOffset dx="-1" dy="-1"/>
<feComposite in2="hardAlpha" operator="arithmetic" k2="-1" k3="1"/>
<feColorMatrix type="matrix" values="0 0 0 0 1 0 0 0 0 0 0 0 0 0 0.641414 0 0 0 1 0"/>
<feBlend mode="normal" in2="effect3_innerShadow_1160_714" result="effect4_innerShadow_1160_714"/>
</filter>
<filter id="filter1_iiii_1160_714" x="619" y="5" width="16" height="14" filterUnits="userSpaceOnUse" color-interpolation-filters="sRGB">
<feFlood flood-opacity="0" result="BackgroundImageFix"/>
<feBlend mode="normal" in="SourceGraphic" in2="BackgroundImageFix" result="shape"/>
<feColorMatrix in="SourceAlpha" type="matrix" values="0 0 0 0 0 0 0 0 0 0 0 0 0 0 0 0 0 0 127 0" result="hardAlpha"/>
<feOffset dx="2" dy="2"/>
<feComposite in2="hardAlpha" operator="arithmetic" k2="-1" k3="1"/>
<feColorMatrix type="matrix" values="0 0 0 0 1 0 0 0 0 0.770833 0 0 0 0 0.949802 0 0 0 1 0"/>
<feBlend mode="normal" in2="shape" result="effect1_innerShadow_1160_714"/>
<feColorMatrix in="SourceAlpha" type="matrix" values="0 0 0 0 0 0 0 0 0 0 0 0 0 0 0 0 0 0 127 0" result="hardAlpha"/>
<feOffset dx="-2" dy="-2"/>
<feComposite in2="hardAlpha" operator="arithmetic" k2="-1" k3="1"/>
<feColorMatrix type="matrix" values="0 0 0 0 1 0 0 0 0 0.629167 0 0 0 0 0.916882 0 0 0 1 0"/>
<feBlend mode="normal" in2="effect1_innerShadow_1160_714" result="effect2_innerShadow_1160_714"/>
<feColorMatrix in="SourceAlpha" type="matrix" values="0 0 0 0 0 0 0 0 0 0 0 0 0 0 0 0 0 0 127 0" result="hardAlpha"/>
<feOffset dx="1" dy="1"/>
<feComposite in2="hardAlpha" operator="arithmetic" k2="-1" k3="1"/>
<feColorMatrix type="matrix" values="0 0 0 0 1 0 0 0 0 1 0 0 0 0 1 0 0 0 1 0"/>
<feBlend mode="normal" in2="effect2_innerShadow_1160_714" result="effect3_innerShadow_1160_714"/>
<feColorMatrix in="SourceAlpha" type="matrix" values="0 0 0 0 0 0 0 0 0 0 0 0 0 0 0 0 0 0 127 0" result="hardAlpha"/>
<feOffset dx="-1" dy="-1"/>
<feComposite in2="hardAlpha" operator="arithmetic" k2="-1" k3="1"/>
<feColorMatrix type="matrix" values="0 0 0 0 0.607843 0 0 0 0 0.270588 0 0 0 0 0.811765 0 0 0 1 0"/>
<feBlend mode="normal" in2="effect3_innerShadow_1160_714" result="effect4_innerShadow_1160_714"/>
</filter>
<filter id="filter2_iiii_1160_714" x="585" y="5" width="16" height="14" filterUnits="userSpaceOnUse" color-interpolation-filters="sRGB">
<feFlood flood-opacity="0" result="BackgroundImageFix"/>
<feBlend mode="normal" in="SourceGraphic" in2="BackgroundImageFix" result="shape"/>
<feColorMatrix in="SourceAlpha" type="matrix" values="0 0 0 0 0 0 0 0 0 0 0 0 0 0 0 0 0 0 127 0" result="hardAlpha"/>
<feOffset dx="2" dy="2"/>
<feComposite in2="hardAlpha" operator="arithmetic" k2="-1" k3="1"/>
<feColorMatrix type="matrix" values="0 0 0 0 1 0 0 0 0 0.770833 0 0 0 0 0.949802 0 0 0 1 0"/>
<feBlend mode="normal" in2="shape" result="effect1_innerShadow_1160_714"/>
<feColorMatrix in="SourceAlpha" type="matrix" values="0 0 0 0 0 0 0 0 0 0 0 0 0 0 0 0 0 0 127 0" result="hardAlpha"/>
<feOffset dx="-2" dy="-2"/>
<feComposite in2="hardAlpha" operator="arithmetic" k2="-1" k3="1"/>
<feColorMatrix type="matrix" values="0 0 0 0 1 0 0 0 0 0.629167 0 0 0 0 0.916882 0 0 0 1 0"/>
<feBlend mode="normal" in2="effect1_innerShadow_1160_714" result="effect2_innerShadow_1160_714"/>
<feColorMatrix in="SourceAlpha" type="matrix" values="0 0 0 0 0 0 0 0 0 0 0 0 0 0 0 0 0 0 127 0" result="hardAlpha"/>
<feOffset dx="1" dy="1"/>
<feComposite in2="hardAlpha" operator="arithmetic" k2="-1" k3="1"/>
<feColorMatrix type="matrix" values="0 0 0 0 1 0 0 0 0 1 0 0 0 0 1 0 0 0 1 0"/>
<feBlend mode="normal" in2="effect2_innerShadow_1160_714" result="effect3_innerShadow_1160_714"/>
<feColorMatrix in="SourceAlpha" type="matrix" values="0 0 0 0 0 0 0 0 0 0 0 0 0 0 0 0 0 0 127 0" result="hardAlpha"/>
<feOffset dx="-1" dy="-1"/>
<feComposite in2="hardAlpha" operator="arithmetic" k2="-1" k3="1"/>
<feColorMatrix type="matrix" values="0 0 0 0 0.607843 0 0 0 0 0.270588 0 0 0 0 0.811765 0 0 0 1 0"/>
<feBlend mode="normal" in2="effect3_innerShadow_1160_714" result="effect4_innerShadow_1160_714"/>
</filter>
<filter id="filter3_iiii_1160_714" x="601" y="5" width="16" height="14" filterUnits="userSpaceOnUse" color-interpolation-filters="sRGB">
<feFlood flood-opacity="0" result="BackgroundImageFix"/>
<feBlend mode="normal" in="SourceGraphic" in2="BackgroundImageFix" result="shape"/>
<feColorMatrix in="SourceAlpha" type="matrix" values="0 0 0 0 0 0 0 0 0 0 0 0 0 0 0 0 0 0 127 0" result="hardAlpha"/>
<feOffset dx="2" dy="2"/>
<feComposite in2="hardAlpha" operator="arithmetic" k2="-1" k3="1"/>
<feColorMatrix type="matrix" values="0 0 0 0 1 0 0 0 0 0.770833 0 0 0 0 0.949802 0 0 0 1 0"/>
<feBlend mode="normal" in2="shape" result="effect1_innerShadow_1160_714"/>
<feColorMatrix in="SourceAlpha" type="matrix" values="0 0 0 0 0 0 0 0 0 0 0 0 0 0 0 0 0 0 127 0" result="hardAlpha"/>
<feOffset dx="-2" dy="-2"/>
<feComposite in2="hardAlpha" operator="arithmetic" k2="-1" k3="1"/>
<feColorMatrix type="matrix" values="0 0 0 0 1 0 0 0 0 0.629167 0 0 0 0 0.916882 0 0 0 1 0"/>
<feBlend mode="normal" in2="effect1_innerShadow_1160_714" result="effect2_innerShadow_1160_714"/>
<feColorMatrix in="SourceAlpha" type="matrix" values="0 0 0 0 0 0 0 0 0 0 0 0 0 0 0 0 0 0 127 0" result="hardAlpha"/>
<feOffset dx="1" dy="1"/>
<feComposite in2="hardAlpha" operator="arithmetic" k2="-1" k3="1"/>
<feColorMatrix type="matrix" values="0 0 0 0 1 0 0 0 0 1 0 0 0 0 1 0 0 0 1 0"/>
<feBlend mode="normal" in2="effect2_innerShadow_1160_714" result="effect3_innerShadow_1160_714"/>
<feColorMatrix in="SourceAlpha" type="matrix" values="0 0 0 0 0 0 0 0 0 0 0 0 0 0 0 0 0 0 127 0" result="hardAlpha"/>
<feOffset dx="-1" dy="-1"/>
<feComposite in2="hardAlpha" operator="arithmetic" k2="-1" k3="1"/>
<feColorMatrix type="matrix" values="0 0 0 0 0.607843 0 0 0 0 0.270588 0 0 0 0 0.811765 0 0 0 1 0"/>
<feBlend mode="normal" in2="effect3_innerShadow_1160_714" result="effect4_innerShadow_1160_714"/>
</filter>
<filter id="filter4_d_1160_714" x="3" y="7.00073" width="108.95" height="17.1533" filterUnits="userSpaceOnUse" color-interpolation-filters="sRGB">
<feFlood flood-opacity="0" result="BackgroundImageFix"/>
<feColorMatrix in="SourceAlpha" type="matrix" values="0 0 0 0 0 0 0 0 0 0 0 0 0 0 0 0 0 0 127 0" result="hardAlpha"/>
<feOffset dy="4"/>
<feGaussianBlur stdDeviation="2"/>
<feComposite in2="hardAlpha" operator="out"/>
<feColorMatrix type="matrix" values="0 0 0 0 0 0 0 0 0 0 0 0 0 0 0 0 0 0 0.25 0"/>
<feBlend mode="normal" in2="BackgroundImageFix" result="effect1_dropShadow_1160_714"/>
<feBlend mode="normal" in="SourceGraphic" in2="effect1_dropShadow_1160_714" result="shape"/>
</filter>
<linearGradient id="paint0_linear_1160_714" x1="637" y1="12" x2="3" y2="12" gradientUnits="userSpaceOnUse">
<stop stop-color="#FFAEED"/>
<stop offset="1" stop-color="#FF2FD1"/>
</linearGradient>
<clipPath id="clip0_1160_714">
<rect width="640" height="360" fill="white"/>
</clipPath>
<clipPath id="clip1_1160_714">
<rect width="640" height="360" fill="white"/>
</clipPath>
<clipPath id="clip2_1160_714">
<rect width="16" height="14" fill="white" transform="translate(619 5)"/>
</clipPath>
<clipPath id="clip3_1160_714">
<rect width="16" height="14" fill="white" transform="translate(585 5)"/>
</clipPath>
<clipPath id="clip4_1160_714">
<rect width="16" height="14" fill="white" transform="translate(601 5)"/>
</clipPath>
</defs>
</svg>
