<svg width="189" height="110" viewBox="0 0 189 110" fill="none" xmlns="http://www.w3.org/2000/svg">
<g clip-path="url(#clip0_16_8521)">
<g clip-path="url(#clip1_16_8521)">
<rect width="189" height="110" fill="white"/>
<g clip-path="url(#clip2_16_8521)">
<rect width="189" height="110" fill="white"/>
<rect width="189" height="110" fill="#9B45CF"/>
<rect width="188" height="109" fill="#FF70E0"/>
<rect x="1" y="1" width="187" height="108" fill="#FF70E0"/>
<rect x="1" y="1" width="186" height="107" fill="white"/>
<rect x="2" y="2" width="185" height="106" fill="#FFDFF8"/>
</g>
<g filter="url(#filter0_iiii_16_8521)">
<rect width="189" height="110" fill="#FFDFF8"/>
</g>
</g>
<rect x="3" y="3" width="183" height="18" fill="url(#paint0_linear_16_8521)"/>
<g clip-path="url(#clip3_16_8521)">
<rect width="16" height="14" transform="translate(168 5)" fill="white"/>
<rect x="168" y="5" width="16" height="14" fill="#9B45CF"/>
<rect x="168" y="5" width="15" height="13" fill="white"/>
<rect x="169" y="6" width="14" height="12" fill="#808080"/>
<rect x="169" y="6" width="13" height="11" fill="#DBDBDB"/>
<rect x="170" y="7" width="12" height="10" fill="#FFDFF8"/>
</g>
<g filter="url(#filter1_iiii_16_8521)">
<rect x="168" y="5" width="16" height="14" fill="#FFDFF8"/>
</g>
<path fill-rule="evenodd" clip-rule="evenodd" d="M172 8H174V9H175V10H177V9H178V8H180V9H179V10H178V11H177V12H178V13H179V14H180V15H178V14H177V13H175V14H174V15H172V14H173V13H174V12H175V11H174V10H173V9H172V8Z" fill="#9B45CF"/>
<g clip-path="url(#clip4_16_8521)">
<rect width="16" height="14" transform="translate(134 5)" fill="white"/>
<rect x="134" y="5" width="16" height="14" fill="#9B45CF"/>
<rect x="134" y="5" width="15" height="13" fill="white"/>
<rect x="135" y="6" width="14" height="12" fill="#808080"/>
<rect x="135" y="6" width="13" height="11" fill="#DBDBDB"/>
<rect x="136" y="7" width="12" height="10" fill="#FFDFF8"/>
</g>
<g filter="url(#filter2_iiii_16_8521)">
<rect x="134" y="5" width="16" height="14" fill="#FFDFF8"/>
</g>
<rect x="138" y="14" width="6" height="2" fill="#9B45CF"/>
<g clip-path="url(#clip5_16_8521)">
<rect width="16" height="14" transform="translate(150 5)" fill="white"/>
<rect x="150" y="5" width="16" height="14" fill="#9B45CF"/>
<rect x="150" y="5" width="15" height="13" fill="white"/>
<rect x="151" y="6" width="14" height="12" fill="#808080"/>
<rect x="151" y="6" width="13" height="11" fill="#DBDBDB"/>
<rect x="152" y="7" width="12" height="10" fill="#FFDFF8"/>
</g>
<g filter="url(#filter3_iiii_16_8521)">
<rect x="150" y="5" width="16" height="14" fill="#FFDFF8"/>
</g>
<path fill-rule="evenodd" clip-rule="evenodd" d="M162 7H153V16H162V7ZM161 9H154V15H161V9Z" fill="#9B45CF"/>
<g filter="url(#filter4_d_16_8521)">
<path d="M9.99976 16V14.002H8.99805V12.0012H7.99902V9.00146H7V7.00073H8.99805V9.00146H9.99976V12.0012H11.9978V9.00146H12.9995V7.00073H14.9976V9.00146H13.9985V12.0012H12.9995V14.002H11.9978V16H9.99976ZM16.002 16V10.0005H18V16H16.002ZM16.002 8.00244V7.00073H18V8.00244H16.002ZM22.9978 15.001V11.0022H20.9971V15.001H22.9978ZM18.999 16V7.00073H20.9971V10.0005H23.9968V11.0022H24.9985V15.001H23.9968V16H18.999ZM30.0017 12.0012V11.0022H28.001V12.0012H30.0017ZM27.002 16V15.001H26.0029V11.0022H27.002V10.0005H31.0007V11.0022H32.0024V13.0002H28.001V15.001H30.0017V14.002H32.0024V15.001H31.0007V16H27.002ZM37.0029 16V15.001H36.0039V8.00244H37.0029V7.00073H42.0034V8.00244H43.0024V9.00146H41.0017V8.00244H38.002V15.001H41.0017V14.002H43.0024V15.001H42.0034V16H37.0029ZM44.0068 16V7.00073H46.0049V10.0005H49.0046V11.0022H50.0063V16H48.0056V11.0022H47.0066V12.0012H46.0049V16H44.0068ZM55.0095 12.0012V11.0022H53.0088V12.0012H55.0095ZM52.0098 16V15.001H51.0107V11.0022H52.0098V10.0005H56.0085V11.0022H57.0103V13.0002H53.0088V15.001H55.0095V14.002H57.0103V15.001H56.0085V16H52.0098ZM59.0137 16V15.001H58.0146V11.0022H59.0137V10.0005H63.0125V11.0022H64.0142V12.0012H62.0134V11.0022H60.0127V15.001H62.0134V14.002H64.0142V15.001H63.0125V16H59.0137ZM65.0186 16V7.00073H67.0166V11.0022H68.0183V10.0005H70.0164V11.0022H69.0173V12.0012H68.0183V13.0002H69.0173V14.002H70.0164V15.001H71.0181V16H69.0173V15.001H68.0183V14.002H67.0166V16H65.0186Z" fill="white"/>
</g>
<g clip-path="url(#clip6_16_8521)">
<rect width="74" height="23" transform="translate(17 76)" fill="white"/>
<rect x="17" y="76" width="74" height="23" fill="#9B45CF"/>
<rect x="17" y="76" width="73" height="22" fill="white"/>
<rect x="18" y="77" width="72" height="21" fill="#808080"/>
<rect x="18" y="77" width="71" height="20" fill="#DBDBDB"/>
<rect x="19" y="78" width="70" height="19" fill="#FFDFF8"/>
</g>
<g filter="url(#filter5_iiii_16_8521)">
<rect x="17" y="76" width="74" height="23" fill="#FFDFF8"/>
</g>
<path d="M38.4883 91V90.001H42.4871V91H38.4883ZM42.4871 90.001V89.002H43.4888V90.001H42.4871ZM37.4893 90.001V83.0024H38.4883V90.001H37.4893ZM42.4871 84.0015V83.0024H43.4888V84.0015H42.4871ZM38.4883 83.0024V82.0007H42.4871V83.0024H38.4883ZM44.4932 90.001V88.0002H45.4922V90.001H44.4932ZM45.4922 91V90.001H48.4919V88.0002H45.4922V87.0012H48.4919V86.0022H49.491V91H45.4922ZM45.4922 86.0022V85.0005H48.4919V86.0022H45.4922ZM54.4968 91V86.0022H55.4958V91H54.4968ZM50.498 91V85.0005H51.4971V86.0022H52.4961V87.0012H51.4971V91H50.498ZM52.4961 86.0022V85.0005H54.4968V86.0022H52.4961ZM57.502 91V90.001H60.5017V91H57.502ZM60.5017 90.001V89.002H61.5007V90.001H60.5017ZM56.5029 90.001V86.0022H57.502V90.001H56.5029ZM60.5017 87.0012V86.0022H61.5007V87.0012H60.5017ZM57.502 86.0022V85.0005H60.5017V86.0022H57.502ZM63.5068 91V90.001H66.5066V91H63.5068ZM66.5066 90.001V89.002H67.5056V90.001H66.5066ZM62.5078 90.001V86.0022H63.5068V87.0012H66.5066V86.0022H67.5056V88.0002H63.5068V90.001H62.5078ZM63.5068 86.0022V85.0005H66.5066V86.0022H63.5068ZM68.5127 91V82.0007H69.5117V91H68.5127Z" fill="#9B45CF"/>
<rect x="97" y="75" width="76" height="25" fill="#9B45CF"/>
<g clip-path="url(#clip7_16_8521)">
<rect width="74" height="23" transform="translate(98 76)" fill="white"/>
<rect x="98" y="76" width="74" height="23" fill="#9B45CF"/>
<rect x="98" y="76" width="73" height="22" fill="white"/>
<rect x="99" y="77" width="72" height="21" fill="#808080"/>
<rect x="99" y="77" width="71" height="20" fill="#DBDBDB"/>
<rect x="100" y="78" width="70" height="19" fill="#FFDFF8"/>
</g>
<g filter="url(#filter6_iiii_16_8521)">
<rect x="98" y="76" width="74" height="23" fill="#FFDFF8"/>
</g>
<path d="M128.995 91V90.001H132.994V91H128.995ZM127.996 90.001V83.0024H128.995V90.001H127.996ZM132.994 90.001V83.0024H133.996V90.001H132.994ZM128.995 83.0024V82.0007H132.994V83.0024H128.995ZM139.998 91V90.001H141V91H139.998ZM138.999 90.001V89.002H139.998V90.001H138.999ZM138 89.002V88.0002H138.999V89.002H138ZM136.998 88.0002V87.0012H138V88.0002H136.998ZM136.998 85.0005V84.0015H138V85.0005H136.998ZM138 84.0015V83.0024H138.999V84.0015H138ZM135 91V82.0007H135.999V85.0005H136.998V87.0012H135.999V91H135ZM138.999 83.0024V82.0007H139.998V83.0024H138.999Z" fill="#9B45CF"/>
<path d="M18.9998 44V42.002H19.9988V44H18.9998ZM22.9985 44V42.002H23.9976V44H22.9985ZM17.998 42.002V40.0012H18.9998V42.002H17.998ZM19.9988 42.002V40.0012H20.9978V42.002H19.9988ZM21.9995 42.002V40.0012H22.9985V42.002H21.9995ZM23.9976 42.002V40.0012H24.9993V42.002H23.9976ZM16.999 40.0012V37.0015H17.998V40.0012H16.999ZM20.9978 40.0012V37.0015H21.9995V40.0012H20.9978ZM24.9993 40.0012V37.0015H25.9983V40.0012H24.9993ZM16 37.0015V35.0007H16.999V37.0015H16ZM25.9983 37.0015V35.0007H27V37.0015H25.9983ZM27.999 43.001V41.0002H28.998V43.001H27.999ZM28.998 44V43.001H31.9978V41.0002H28.998V40.0012H31.9978V39.0022H32.9968V44H28.998ZM28.998 39.0022V38.0005H31.9978V39.0022H28.998ZM34.0039 44V38.0005H36.002V39.0022H35.0029V44H34.0039ZM40.9998 44V39.0022H41.9988V44H40.9998ZM37.001 44V38.0005H38V39.0022H38.999V40.0012H38V44H37.001ZM38.999 39.0022V38.0005H40.9998V39.0022H38.999ZM43.0059 44V38.0005H44.0049V44H43.0059ZM43.0059 36.0024V35.0007H44.0049V36.0024H43.0059ZM49.0027 44V39.0022H50.0017V44H49.0027ZM45.0039 44V38.0005H46.0029V39.0022H47.002V40.0012H46.0029V44H45.0039ZM47.002 39.0022V38.0005H49.0027V39.0022H47.002ZM51.0088 45.998V44.999H55.0076V45.998H51.0088ZM51.0088 43.001V39.0022H52.0078V43.001H51.0088ZM55.0076 44.999V44H52.0078V43.001H55.0076V39.0022H52.0078V38.0005H56.0066V44.999H55.0076ZM57.0137 44V43.001H58.0127V44H57.0137ZM57.0137 42.002V35.0007H58.0127V42.002H57.0137ZM63.0078 44V36.0024H61.0098V35.0007H66.0076V36.0024H64.0095V44H63.0078ZM71.0134 44V39.0022H72.0125V44H71.0134ZM69.0127 39.0022V38.0005H71.0134V39.0022H69.0127ZM67.0146 44V35.0007H68.0137V39.0022H69.0127V40.0012H68.0137V44H67.0146ZM73.0195 43.001V41.0002H74.0186V43.001H73.0195ZM74.0186 44V43.001H77.0183V41.0002H74.0186V40.0012H77.0183V39.0022H78.0173V44H74.0186ZM74.0186 39.0022V38.0005H77.0183V39.0022H74.0186ZM80.0234 44V43.001H81.0225V44H80.0234ZM79.0244 43.001V36.0024H80.0234V38.0005H81.0225V39.0022H80.0234V43.001H79.0244ZM85.0186 44V42.002H86.0176V44H85.0186ZM89.0173 44V42.002H90.019V44H89.0173ZM86.0176 42.002V40.0012H87.0193V42.002H86.0176ZM88.0183 42.002V40.0012H89.0173V42.002H88.0183ZM84.0195 42.002V38.0005H85.0186V42.002H84.0195ZM87.0193 40.0012V38.0005H88.0183V40.0012H87.0193ZM90.019 42.002V38.0005H91.0181V42.002H90.019ZM92.0225 43.001V41.0002H93.0215V43.001H92.0225ZM93.0215 44V43.001H96.0212V41.0002H93.0215V40.0012H96.0212V39.0022H97.0203V44H93.0215ZM93.0215 39.0022V38.0005H96.0212V39.0022H93.0215ZM99.0264 44V43.001H101.027V44H99.0264ZM98.0273 43.001V42.002H99.0264V43.001H98.0273ZM101.027 43.001V42.002H102.026V43.001H101.027ZM100.025 42.002V41.0002H101.027V42.002H100.025ZM99.0264 41.0002V40.0012H100.025V41.0002H99.0264ZM98.0273 40.0012V39.0022H99.0264V40.0012H98.0273ZM101.027 40.0012V39.0022H102.026V40.0012H101.027ZM99.0264 39.0022V38.0005H101.027V39.0022H99.0264ZM107.021 44V39.0022H108.02V44H107.021ZM103.022 44V38.0005H104.021V39.0022H105.021V40.0012H104.021V44H103.022ZM105.021 39.0022V38.0005H107.021V39.0022H105.021ZM109.027 38.0005V35.0007H110.026V38.0005H109.027ZM112.024 44V43.001H113.023V44H112.024ZM111.025 43.001V36.0024H112.024V38.0005H113.023V39.0022H112.024V43.001H111.025ZM118.019 44V42.002H119.02V44H118.019ZM117.02 42.002V40.0012H118.019V42.002H117.02ZM119.02 42.002V40.0012H120.019V42.002H119.02ZM116.021 40.0012V38.0005H117.02V40.0012H116.021ZM120.019 40.0012V38.0005H121.018V40.0012H120.019ZM123.024 44V43.001H126.024V44H123.024ZM126.024 43.001V42.002H127.023V43.001H126.024ZM122.025 43.001V39.0022H123.024V40.0012H126.024V39.0022H127.023V41.0002H123.024V43.001H122.025ZM123.024 39.0022V38.0005H126.024V39.0022H123.024ZM128.03 44V38.0005H130.028V39.0022H129.029V44H128.03ZM130.028 45.998V44.999H132.026V45.998H130.028ZM132.026 44.999V42.002H134.027V43.001H133.025V44.999H132.026ZM131.027 42.002V38.0005H132.026V42.002H131.027ZM134.027 42.002V38.0005H135.026V42.002H134.027ZM139.02 44V43.001H141.02V44H139.02ZM138.021 43.001V42.002H139.02V43.001H138.021ZM141.02 43.001V42.002H142.019V43.001H141.02ZM140.019 42.002V41.0002H141.02V42.002H140.019ZM139.02 41.0002V40.0012H140.019V41.0002H139.02ZM138.021 40.0012V39.0022H139.02V40.0012H138.021ZM141.02 40.0012V39.0022H142.019V40.0012H141.02ZM139.02 39.0022V38.0005H141.02V39.0022H139.02ZM144.015 44V42.002H145.014V44H144.015ZM148.013 44V42.002H149.015V44H148.013ZM145.014 42.002V40.0012H146.015V42.002H145.014ZM147.014 42.002V40.0012H148.013V42.002H147.014ZM143.016 42.002V38.0005H144.015V42.002H143.016ZM146.015 40.0012V38.0005H147.014V40.0012H146.015ZM149.015 42.002V38.0005H150.014V42.002H149.015ZM151.019 43.001V41.0002H152.018V43.001H151.019ZM152.018 44V43.001H155.017V41.0002H152.018V40.0012H155.017V39.0022H156.016V44H152.018ZM152.018 39.0022V38.0005H155.017V39.0022H152.018ZM157.023 45.998V44.999H161.022V45.998H157.023ZM157.023 43.001V39.0022H158.022V43.001H157.023ZM161.022 44.999V44H158.022V43.001H161.022V39.0022H158.022V38.0005H162.021V44.999H161.022ZM18.9998 56V51.0022H19.9988V56H18.9998ZM21.9995 56V51.0022H22.9985V56H21.9995ZM16 56V50.0005H18.9998V51.0022H16.999V56H16ZM19.9988 51.0022V50.0005H21.9995V51.0022H19.9988ZM25.002 56V55.001H28.0017V56H25.002ZM24.0029 55.001V51.0022H25.002V55.001H24.0029ZM28.0017 55.001V51.0022H29.0007V55.001H28.0017ZM25.002 51.0022V50.0005H28.0017V51.0022H25.002ZM34.0066 56V51.0022H35.0056V56H34.0066ZM30.0078 56V50.0005H31.0068V51.0022H32.0059V52.0012H31.0068V56H30.0078ZM32.0059 51.0022V50.0005H34.0066V51.0022H32.0059ZM37.0117 56V55.001H40.0115V56H37.0117ZM40.0115 55.001V54.002H41.0105V55.001H40.0115ZM36.0127 55.001V51.0022H37.0117V52.0012H40.0115V51.0022H41.0105V53.0002H37.0117V55.001H36.0127ZM37.0117 51.0022V50.0005H40.0115V51.0022H37.0117ZM41.0186 57.998V56.999H43.0166V57.998H41.0186ZM43.0166 56.999V54.002H45.0173V55.001H44.0156V56.999H43.0166ZM42.0176 54.002V50.0005H43.0166V54.002H42.0176ZM45.0173 54.002V50.0005H46.0164V54.002H45.0173ZM50.0098 56V55.001H53.0095V56H50.0098ZM49.0107 55.001V51.0022H50.0098V55.001H49.0107ZM53.0095 55.001V51.0022H54.0085V55.001H53.0095ZM50.0098 51.0022V50.0005H53.0095V51.0022H50.0098ZM55.0156 56V48.0024H56.0146V50.0005H57.0137V51.0022H56.0146V56H55.0156ZM56.0146 48.0024V47.0007H57.0137V48.0024H56.0146ZM59.0117 57.998V56.999H61.0098V57.998H59.0117ZM61.0098 56.999V54.002H63.0105V55.001H62.0088V56.999H61.0098ZM60.0107 54.002V50.0005H61.0098V54.002H60.0107ZM63.0105 54.002V50.0005H64.0095V54.002H63.0105ZM66.0049 56V55.001H69.0046V56H66.0049ZM65.0059 55.001V51.0022H66.0049V55.001H65.0059ZM69.0046 55.001V51.0022H70.0037V55.001H69.0046ZM66.0049 51.0022V50.0005H69.0046V51.0022H66.0049ZM72.0098 56V55.001H74.0105V56H72.0098ZM71.0107 55.001V50.0005H72.0098V55.001H71.0107ZM75.0095 56V55.001H74.0105V54.002H75.0095V50.0005H76.0085V56H75.0095ZM77.0156 56V55.001H78.0146V56H77.0156ZM77.0156 54.002V47.0007H78.0146V54.002H77.0156Z" fill="#9B45CF"/>
</g>
<defs>
<filter id="filter0_iiii_16_8521" x="0" y="0" width="189" height="110" filterUnits="userSpaceOnUse" color-interpolation-filters="sRGB">
<feFlood flood-opacity="0" result="BackgroundImageFix"/>
<feBlend mode="normal" in="SourceGraphic" in2="BackgroundImageFix" result="shape"/>
<feColorMatrix in="SourceAlpha" type="matrix" values="0 0 0 0 0 0 0 0 0 0 0 0 0 0 0 0 0 0 127 0" result="hardAlpha"/>
<feOffset dx="2" dy="2"/>
<feComposite in2="hardAlpha" operator="arithmetic" k2="-1" k3="1"/>
<feColorMatrix type="matrix" values="0 0 0 0 1 0 0 0 0 1 0 0 0 0 1 0 0 0 1 0"/>
<feBlend mode="normal" in2="shape" result="effect1_innerShadow_16_8521"/>
<feColorMatrix in="SourceAlpha" type="matrix" values="0 0 0 0 0 0 0 0 0 0 0 0 0 0 0 0 0 0 127 0" result="hardAlpha"/>
<feOffset dx="-2" dy="-2"/>
<feComposite in2="hardAlpha" operator="arithmetic" k2="-1" k3="1"/>
<feColorMatrix type="matrix" values="0 0 0 0 1 0 0 0 0 0.627451 0 0 0 0 0.917647 0 0 0 1 0"/>
<feBlend mode="normal" in2="effect1_innerShadow_16_8521" result="effect2_innerShadow_16_8521"/>
<feColorMatrix in="SourceAlpha" type="matrix" values="0 0 0 0 0 0 0 0 0 0 0 0 0 0 0 0 0 0 127 0" result="hardAlpha"/>
<feOffset dx="1" dy="1"/>
<feComposite in2="hardAlpha" operator="arithmetic" k2="-1" k3="1"/>
<feColorMatrix type="matrix" values="0 0 0 0 1 0 0 0 0 0.772549 0 0 0 0 0.94902 0 0 0 1 0"/>
<feBlend mode="normal" in2="effect2_innerShadow_16_8521" result="effect3_innerShadow_16_8521"/>
<feColorMatrix in="SourceAlpha" type="matrix" values="0 0 0 0 0 0 0 0 0 0 0 0 0 0 0 0 0 0 127 0" result="hardAlpha"/>
<feOffset dx="-1" dy="-1"/>
<feComposite in2="hardAlpha" operator="arithmetic" k2="-1" k3="1"/>
<feColorMatrix type="matrix" values="0 0 0 0 1 0 0 0 0 0 0 0 0 0 0.641414 0 0 0 1 0"/>
<feBlend mode="normal" in2="effect3_innerShadow_16_8521" result="effect4_innerShadow_16_8521"/>
</filter>
<filter id="filter1_iiii_16_8521" x="168" y="5" width="16" height="14" filterUnits="userSpaceOnUse" color-interpolation-filters="sRGB">
<feFlood flood-opacity="0" result="BackgroundImageFix"/>
<feBlend mode="normal" in="SourceGraphic" in2="BackgroundImageFix" result="shape"/>
<feColorMatrix in="SourceAlpha" type="matrix" values="0 0 0 0 0 0 0 0 0 0 0 0 0 0 0 0 0 0 127 0" result="hardAlpha"/>
<feOffset dx="2" dy="2"/>
<feComposite in2="hardAlpha" operator="arithmetic" k2="-1" k3="1"/>
<feColorMatrix type="matrix" values="0 0 0 0 1 0 0 0 0 0.770833 0 0 0 0 0.949802 0 0 0 1 0"/>
<feBlend mode="normal" in2="shape" result="effect1_innerShadow_16_8521"/>
<feColorMatrix in="SourceAlpha" type="matrix" values="0 0 0 0 0 0 0 0 0 0 0 0 0 0 0 0 0 0 127 0" result="hardAlpha"/>
<feOffset dx="-2" dy="-2"/>
<feComposite in2="hardAlpha" operator="arithmetic" k2="-1" k3="1"/>
<feColorMatrix type="matrix" values="0 0 0 0 1 0 0 0 0 0.629167 0 0 0 0 0.916882 0 0 0 1 0"/>
<feBlend mode="normal" in2="effect1_innerShadow_16_8521" result="effect2_innerShadow_16_8521"/>
<feColorMatrix in="SourceAlpha" type="matrix" values="0 0 0 0 0 0 0 0 0 0 0 0 0 0 0 0 0 0 127 0" result="hardAlpha"/>
<feOffset dx="1" dy="1"/>
<feComposite in2="hardAlpha" operator="arithmetic" k2="-1" k3="1"/>
<feColorMatrix type="matrix" values="0 0 0 0 1 0 0 0 0 1 0 0 0 0 1 0 0 0 1 0"/>
<feBlend mode="normal" in2="effect2_innerShadow_16_8521" result="effect3_innerShadow_16_8521"/>
<feColorMatrix in="SourceAlpha" type="matrix" values="0 0 0 0 0 0 0 0 0 0 0 0 0 0 0 0 0 0 127 0" result="hardAlpha"/>
<feOffset dx="-1" dy="-1"/>
<feComposite in2="hardAlpha" operator="arithmetic" k2="-1" k3="1"/>
<feColorMatrix type="matrix" values="0 0 0 0 0.607843 0 0 0 0 0.270588 0 0 0 0 0.811765 0 0 0 1 0"/>
<feBlend mode="normal" in2="effect3_innerShadow_16_8521" result="effect4_innerShadow_16_8521"/>
</filter>
<filter id="filter2_iiii_16_8521" x="134" y="5" width="16" height="14" filterUnits="userSpaceOnUse" color-interpolation-filters="sRGB">
<feFlood flood-opacity="0" result="BackgroundImageFix"/>
<feBlend mode="normal" in="SourceGraphic" in2="BackgroundImageFix" result="shape"/>
<feColorMatrix in="SourceAlpha" type="matrix" values="0 0 0 0 0 0 0 0 0 0 0 0 0 0 0 0 0 0 127 0" result="hardAlpha"/>
<feOffset dx="2" dy="2"/>
<feComposite in2="hardAlpha" operator="arithmetic" k2="-1" k3="1"/>
<feColorMatrix type="matrix" values="0 0 0 0 1 0 0 0 0 0.770833 0 0 0 0 0.949802 0 0 0 1 0"/>
<feBlend mode="normal" in2="shape" result="effect1_innerShadow_16_8521"/>
<feColorMatrix in="SourceAlpha" type="matrix" values="0 0 0 0 0 0 0 0 0 0 0 0 0 0 0 0 0 0 127 0" result="hardAlpha"/>
<feOffset dx="-2" dy="-2"/>
<feComposite in2="hardAlpha" operator="arithmetic" k2="-1" k3="1"/>
<feColorMatrix type="matrix" values="0 0 0 0 1 0 0 0 0 0.629167 0 0 0 0 0.916882 0 0 0 1 0"/>
<feBlend mode="normal" in2="effect1_innerShadow_16_8521" result="effect2_innerShadow_16_8521"/>
<feColorMatrix in="SourceAlpha" type="matrix" values="0 0 0 0 0 0 0 0 0 0 0 0 0 0 0 0 0 0 127 0" result="hardAlpha"/>
<feOffset dx="1" dy="1"/>
<feComposite in2="hardAlpha" operator="arithmetic" k2="-1" k3="1"/>
<feColorMatrix type="matrix" values="0 0 0 0 1 0 0 0 0 1 0 0 0 0 1 0 0 0 1 0"/>
<feBlend mode="normal" in2="effect2_innerShadow_16_8521" result="effect3_innerShadow_16_8521"/>
<feColorMatrix in="SourceAlpha" type="matrix" values="0 0 0 0 0 0 0 0 0 0 0 0 0 0 0 0 0 0 127 0" result="hardAlpha"/>
<feOffset dx="-1" dy="-1"/>
<feComposite in2="hardAlpha" operator="arithmetic" k2="-1" k3="1"/>
<feColorMatrix type="matrix" values="0 0 0 0 0.607843 0 0 0 0 0.270588 0 0 0 0 0.811765 0 0 0 1 0"/>
<feBlend mode="normal" in2="effect3_innerShadow_16_8521" result="effect4_innerShadow_16_8521"/>
</filter>
<filter id="filter3_iiii_16_8521" x="150" y="5" width="16" height="14" filterUnits="userSpaceOnUse" color-interpolation-filters="sRGB">
<feFlood flood-opacity="0" result="BackgroundImageFix"/>
<feBlend mode="normal" in="SourceGraphic" in2="BackgroundImageFix" result="shape"/>
<feColorMatrix in="SourceAlpha" type="matrix" values="0 0 0 0 0 0 0 0 0 0 0 0 0 0 0 0 0 0 127 0" result="hardAlpha"/>
<feOffset dx="2" dy="2"/>
<feComposite in2="hardAlpha" operator="arithmetic" k2="-1" k3="1"/>
<feColorMatrix type="matrix" values="0 0 0 0 1 0 0 0 0 0.770833 0 0 0 0 0.949802 0 0 0 1 0"/>
<feBlend mode="normal" in2="shape" result="effect1_innerShadow_16_8521"/>
<feColorMatrix in="SourceAlpha" type="matrix" values="0 0 0 0 0 0 0 0 0 0 0 0 0 0 0 0 0 0 127 0" result="hardAlpha"/>
<feOffset dx="-2" dy="-2"/>
<feComposite in2="hardAlpha" operator="arithmetic" k2="-1" k3="1"/>
<feColorMatrix type="matrix" values="0 0 0 0 1 0 0 0 0 0.629167 0 0 0 0 0.916882 0 0 0 1 0"/>
<feBlend mode="normal" in2="effect1_innerShadow_16_8521" result="effect2_innerShadow_16_8521"/>
<feColorMatrix in="SourceAlpha" type="matrix" values="0 0 0 0 0 0 0 0 0 0 0 0 0 0 0 0 0 0 127 0" result="hardAlpha"/>
<feOffset dx="1" dy="1"/>
<feComposite in2="hardAlpha" operator="arithmetic" k2="-1" k3="1"/>
<feColorMatrix type="matrix" values="0 0 0 0 1 0 0 0 0 1 0 0 0 0 1 0 0 0 1 0"/>
<feBlend mode="normal" in2="effect2_innerShadow_16_8521" result="effect3_innerShadow_16_8521"/>
<feColorMatrix in="SourceAlpha" type="matrix" values="0 0 0 0 0 0 0 0 0 0 0 0 0 0 0 0 0 0 127 0" result="hardAlpha"/>
<feOffset dx="-1" dy="-1"/>
<feComposite in2="hardAlpha" operator="arithmetic" k2="-1" k3="1"/>
<feColorMatrix type="matrix" values="0 0 0 0 0.607843 0 0 0 0 0.270588 0 0 0 0 0.811765 0 0 0 1 0"/>
<feBlend mode="normal" in2="effect3_innerShadow_16_8521" result="effect4_innerShadow_16_8521"/>
</filter>
<filter id="filter4_d_16_8521" x="3" y="7.00073" width="72.0181" height="16.9993" filterUnits="userSpaceOnUse" color-interpolation-filters="sRGB">
<feFlood flood-opacity="0" result="BackgroundImageFix"/>
<feColorMatrix in="SourceAlpha" type="matrix" values="0 0 0 0 0 0 0 0 0 0 0 0 0 0 0 0 0 0 127 0" result="hardAlpha"/>
<feOffset dy="4"/>
<feGaussianBlur stdDeviation="2"/>
<feComposite in2="hardAlpha" operator="out"/>
<feColorMatrix type="matrix" values="0 0 0 0 0 0 0 0 0 0 0 0 0 0 0 0 0 0 0.25 0"/>
<feBlend mode="normal" in2="BackgroundImageFix" result="effect1_dropShadow_16_8521"/>
<feBlend mode="normal" in="SourceGraphic" in2="effect1_dropShadow_16_8521" result="shape"/>
</filter>
<filter id="filter5_iiii_16_8521" x="17" y="76" width="74" height="23" filterUnits="userSpaceOnUse" color-interpolation-filters="sRGB">
<feFlood flood-opacity="0" result="BackgroundImageFix"/>
<feBlend mode="normal" in="SourceGraphic" in2="BackgroundImageFix" result="shape"/>
<feColorMatrix in="SourceAlpha" type="matrix" values="0 0 0 0 0 0 0 0 0 0 0 0 0 0 0 0 0 0 127 0" result="hardAlpha"/>
<feOffset dx="2" dy="2"/>
<feComposite in2="hardAlpha" operator="arithmetic" k2="-1" k3="1"/>
<feColorMatrix type="matrix" values="0 0 0 0 1 0 0 0 0 0.770833 0 0 0 0 0.949802 0 0 0 1 0"/>
<feBlend mode="normal" in2="shape" result="effect1_innerShadow_16_8521"/>
<feColorMatrix in="SourceAlpha" type="matrix" values="0 0 0 0 0 0 0 0 0 0 0 0 0 0 0 0 0 0 127 0" result="hardAlpha"/>
<feOffset dx="-2" dy="-2"/>
<feComposite in2="hardAlpha" operator="arithmetic" k2="-1" k3="1"/>
<feColorMatrix type="matrix" values="0 0 0 0 1 0 0 0 0 0.629167 0 0 0 0 0.916882 0 0 0 1 0"/>
<feBlend mode="normal" in2="effect1_innerShadow_16_8521" result="effect2_innerShadow_16_8521"/>
<feColorMatrix in="SourceAlpha" type="matrix" values="0 0 0 0 0 0 0 0 0 0 0 0 0 0 0 0 0 0 127 0" result="hardAlpha"/>
<feOffset dx="1" dy="1"/>
<feComposite in2="hardAlpha" operator="arithmetic" k2="-1" k3="1"/>
<feColorMatrix type="matrix" values="0 0 0 0 1 0 0 0 0 1 0 0 0 0 1 0 0 0 1 0"/>
<feBlend mode="normal" in2="effect2_innerShadow_16_8521" result="effect3_innerShadow_16_8521"/>
<feColorMatrix in="SourceAlpha" type="matrix" values="0 0 0 0 0 0 0 0 0 0 0 0 0 0 0 0 0 0 127 0" result="hardAlpha"/>
<feOffset dx="-1" dy="-1"/>
<feComposite in2="hardAlpha" operator="arithmetic" k2="-1" k3="1"/>
<feColorMatrix type="matrix" values="0 0 0 0 0.607843 0 0 0 0 0.270588 0 0 0 0 0.811765 0 0 0 1 0"/>
<feBlend mode="normal" in2="effect3_innerShadow_16_8521" result="effect4_innerShadow_16_8521"/>
</filter>
<filter id="filter6_iiii_16_8521" x="98" y="76" width="74" height="23" filterUnits="userSpaceOnUse" color-interpolation-filters="sRGB">
<feFlood flood-opacity="0" result="BackgroundImageFix"/>
<feBlend mode="normal" in="SourceGraphic" in2="BackgroundImageFix" result="shape"/>
<feColorMatrix in="SourceAlpha" type="matrix" values="0 0 0 0 0 0 0 0 0 0 0 0 0 0 0 0 0 0 127 0" result="hardAlpha"/>
<feOffset dx="2" dy="2"/>
<feComposite in2="hardAlpha" operator="arithmetic" k2="-1" k3="1"/>
<feColorMatrix type="matrix" values="0 0 0 0 1 0 0 0 0 0.770833 0 0 0 0 0.949802 0 0 0 1 0"/>
<feBlend mode="normal" in2="shape" result="effect1_innerShadow_16_8521"/>
<feColorMatrix in="SourceAlpha" type="matrix" values="0 0 0 0 0 0 0 0 0 0 0 0 0 0 0 0 0 0 127 0" result="hardAlpha"/>
<feOffset dx="-2" dy="-2"/>
<feComposite in2="hardAlpha" operator="arithmetic" k2="-1" k3="1"/>
<feColorMatrix type="matrix" values="0 0 0 0 1 0 0 0 0 0.629167 0 0 0 0 0.916882 0 0 0 1 0"/>
<feBlend mode="normal" in2="effect1_innerShadow_16_8521" result="effect2_innerShadow_16_8521"/>
<feColorMatrix in="SourceAlpha" type="matrix" values="0 0 0 0 0 0 0 0 0 0 0 0 0 0 0 0 0 0 127 0" result="hardAlpha"/>
<feOffset dx="1" dy="1"/>
<feComposite in2="hardAlpha" operator="arithmetic" k2="-1" k3="1"/>
<feColorMatrix type="matrix" values="0 0 0 0 1 0 0 0 0 1 0 0 0 0 1 0 0 0 1 0"/>
<feBlend mode="normal" in2="effect2_innerShadow_16_8521" result="effect3_innerShadow_16_8521"/>
<feColorMatrix in="SourceAlpha" type="matrix" values="0 0 0 0 0 0 0 0 0 0 0 0 0 0 0 0 0 0 127 0" result="hardAlpha"/>
<feOffset dx="-1" dy="-1"/>
<feComposite in2="hardAlpha" operator="arithmetic" k2="-1" k3="1"/>
<feColorMatrix type="matrix" values="0 0 0 0 0.607843 0 0 0 0 0.270588 0 0 0 0 0.811765 0 0 0 1 0"/>
<feBlend mode="normal" in2="effect3_innerShadow_16_8521" result="effect4_innerShadow_16_8521"/>
</filter>
<linearGradient id="paint0_linear_16_8521" x1="186" y1="12" x2="3" y2="12" gradientUnits="userSpaceOnUse">
<stop stop-color="#FFAEED"/>
<stop offset="1" stop-color="#FF2FD1"/>
</linearGradient>
<clipPath id="clip0_16_8521">
<rect width="189" height="110" fill="white"/>
</clipPath>
<clipPath id="clip1_16_8521">
<rect width="189" height="110" fill="white"/>
</clipPath>
<clipPath id="clip2_16_8521">
<rect width="189" height="110" fill="white"/>
</clipPath>
<clipPath id="clip3_16_8521">
<rect width="16" height="14" fill="white" transform="translate(168 5)"/>
</clipPath>
<clipPath id="clip4_16_8521">
<rect width="16" height="14" fill="white" transform="translate(134 5)"/>
</clipPath>
<clipPath id="clip5_16_8521">
<rect width="16" height="14" fill="white" transform="translate(150 5)"/>
</clipPath>
<clipPath id="clip6_16_8521">
<rect width="74" height="23" fill="white" transform="translate(17 76)"/>
</clipPath>
<clipPath id="clip7_16_8521">
<rect width="74" height="23" fill="white" transform="translate(98 76)"/>
</clipPath>
</defs>
</svg>
