<svg width="192" height="108" viewBox="0 0 192 108" fill="none" xmlns="http://www.w3.org/2000/svg">
<g clip-path="url(#clip0_39_32)">
<g clip-path="url(#clip1_39_32)">
<rect width="192" height="108" fill="white"/>
<g clip-path="url(#clip2_39_32)">
<rect width="192" height="108" fill="white"/>
<rect width="192" height="108" fill="#9B45CF"/>
<rect width="191" height="107" fill="#FF70E0"/>
<rect x="1" y="1" width="190" height="106" fill="#FF70E0"/>
<rect x="1" y="1" width="189" height="105" fill="white"/>
<rect x="2" y="2" width="188" height="104" fill="#FFDFF8"/>
</g>
<g filter="url(#filter0_iiii_39_32)">
<rect width="192" height="108" fill="#FFDFF8"/>
</g>
</g>
<rect x="3" y="3" width="186" height="18" fill="url(#paint0_linear_39_32)"/>
<g clip-path="url(#clip3_39_32)">
<rect width="16" height="14" transform="translate(171 5)" fill="white"/>
<rect x="171" y="5" width="16" height="14" fill="#9B45CF"/>
<rect x="171" y="5" width="15" height="13" fill="white"/>
<rect x="172" y="6" width="14" height="12" fill="#808080"/>
<rect x="172" y="6" width="13" height="11" fill="#DBDBDB"/>
<rect x="173" y="7" width="12" height="10" fill="#FFDFF8"/>
</g>
<g filter="url(#filter1_iiii_39_32)">
<rect x="171" y="5" width="16" height="14" fill="#FFDFF8"/>
</g>
<path fill-rule="evenodd" clip-rule="evenodd" d="M175 8H177V9H178V10H180V9H181V8H183V9H182V10H181V11H180V12H181V13H182V14H183V15H181V14H180V13H178V14H177V15H175V14H176V13H177V12H178V11H177V10H176V9H175V8Z" fill="#9B45CF"/>
<g clip-path="url(#clip4_39_32)">
<rect width="16" height="14" transform="translate(137 5)" fill="white"/>
<rect x="137" y="5" width="16" height="14" fill="#9B45CF"/>
<rect x="137" y="5" width="15" height="13" fill="white"/>
<rect x="138" y="6" width="14" height="12" fill="#808080"/>
<rect x="138" y="6" width="13" height="11" fill="#DBDBDB"/>
<rect x="139" y="7" width="12" height="10" fill="#FFDFF8"/>
</g>
<g filter="url(#filter2_iiii_39_32)">
<rect x="137" y="5" width="16" height="14" fill="#FFDFF8"/>
</g>
<rect x="141" y="14" width="6" height="2" fill="#9B45CF"/>
<g clip-path="url(#clip5_39_32)">
<rect width="16" height="14" transform="translate(153 5)" fill="white"/>
<rect x="153" y="5" width="16" height="14" fill="#9B45CF"/>
<rect x="153" y="5" width="15" height="13" fill="white"/>
<rect x="154" y="6" width="14" height="12" fill="#808080"/>
<rect x="154" y="6" width="13" height="11" fill="#DBDBDB"/>
<rect x="155" y="7" width="12" height="10" fill="#FFDFF8"/>
</g>
<g filter="url(#filter3_iiii_39_32)">
<rect x="153" y="5" width="16" height="14" fill="#FFDFF8"/>
</g>
<path fill-rule="evenodd" clip-rule="evenodd" d="M165 7H156V16H165V7ZM164 9H157V15H164V9Z" fill="#9B45CF"/>
<g filter="url(#filter4_d_39_32)">
<path d="M7 16V7.00073H12.9995V8.00244H8.99805V11.0022H11.9978V12.0012H8.99805V16H7ZM14.0039 16V10.0005H16.002V16H14.0039ZM14.0039 8.00244V7.00073H16.002V8.00244H14.0039ZM20.9998 15.001V11.0022H18.999V15.001H20.9998ZM17.001 17.998V16.999H20.9998V16H18V15.001H17.001V11.0022H18V10.0005H23.0005V16.999H21.9988V17.998H17.001ZM24.0049 16V10.0005H31.0034V11.0022H32.0024V16H30.0044V11.0022H29.0027V16H27.0046V11.0022H26.0029V16H24.0049ZM37.0056 15.001V13.0002H35.0049V15.001H37.0056ZM34.0059 16V15.001H33.0068V13.0002H34.0059V12.0012H37.0056V11.0022H34.0059V10.0005H38.0046V11.0022H39.0063V16H34.0059Z" fill="white"/>
</g>
<g clip-path="url(#clip6_39_32)">
<rect width="74" height="23" transform="translate(61 73)" fill="white"/>
<rect x="61" y="73" width="74" height="23" fill="#9B45CF"/>
<rect x="61" y="73" width="73" height="22" fill="white"/>
<rect x="62" y="74" width="72" height="21" fill="#808080"/>
<rect x="62" y="74" width="71" height="20" fill="#DBDBDB"/>
<rect x="63" y="75" width="70" height="19" fill="#FFDFF8"/>
</g>
<g filter="url(#filter5_iiii_39_32)">
<rect x="61" y="73" width="74" height="23" fill="#FFDFF8"/>
</g>
<path d="M91.9951 88V87.001H95.9939V88H91.9951ZM90.9961 87.001V80.0024H91.9951V87.001H90.9961ZM95.9939 87.001V80.0024H96.9956V87.001H95.9939ZM91.9951 80.0024V79.0007H95.9939V80.0024H91.9951ZM102.998 88V87.001H104V88H102.998ZM101.999 87.001V86.002H102.998V87.001H101.999ZM101 86.002V85.0002H101.999V86.002H101ZM99.998 85.0002V84.0012H101V85.0002H99.998ZM99.998 82.0005V81.0015H101V82.0005H99.998ZM101 81.0015V80.0024H101.999V81.0015H101ZM98 88V79.0007H98.999V82.0005H99.998V84.0012H98.999V88H98ZM101.999 80.0024V79.0007H102.998V80.0024H101.999Z" fill="#9B45CF"/>
<path fill-rule="evenodd" clip-rule="evenodd" d="M46.9965 49.8997C46.9928 49.9118 46.9889 49.9241 46.985 49.9363C46.9785 49.9571 46.9718 49.9784 46.9651 50H46.9965V53H45.9965V52.9849C45.9938 52.99 45.991 52.995 45.9883 53H45.9965V54H45.0489C45.0444 54.0063 45.04 54.0126 45.0356 54.0191C45.0223 54.0384 45.0093 54.0579 44.9965 54.0778V56H43.9965V55.9924C43.9944 55.9949 43.9922 55.9975 43.9901 56H43.9965V57H42.9965V56.9474C42.9961 56.9479 42.9957 56.9483 42.9953 56.9487C42.9788 56.9663 42.9621 56.9834 42.945 57H42.9965V58H41.0104C41.0057 58.0034 41.0011 58.0067 40.9965 58.0101V59H39.9965V58.9655C39.9791 58.9772 39.9617 58.9887 39.9441 59H39.9965V60H37.0035C37.0024 60.0003 37.0012 60.0007 37 60.001V61H28.9965V60H26V59H26.1325C26.0971 58.9849 26.0622 58.9696 26.0277 58.9541C26.0183 58.9499 26.0091 58.9456 26 58.9412V59H25V58H25.1483C25.1286 57.9863 25.1079 57.973 25.0861 57.9602C25.0576 57.9434 25.0289 57.9271 25 57.9114V58H23V57H23.1351C23.1166 56.9834 23.0985 56.9663 23.0806 56.9487C23.0543 56.9228 23.0274 56.8965 23 56.8698V57H22V56H22.1279C22.0837 55.9519 22.0409 55.904 22 55.8567V56H21V54H21.0742C21.0521 53.9537 21.0292 53.9077 21.0055 53.8621C21.0037 53.8586 21.0018 53.8551 21 53.8517V54H20V53H20.3441C20.2451 52.9262 20.135 52.8633 20.0115 52.8158C20.0076 52.8087 20.0038 52.8016 20 52.7944V53H19V50H19.0558C19.0385 49.9426 19.0208 49.8853 19.0027 49.8281C19.0018 49.8253 19.0009 49.8224 19 49.8195V50H18V42H18.9069C18.9369 41.9049 18.9679 41.8052 19 41.7019V39H20V39.0202C20.0036 39.0135 20.0072 39.0067 20.0108 39H20V38H20.8656C20.9097 37.9776 20.9545 37.959 21 37.9446V36H21.9546C21.9693 35.9855 21.9844 35.971 22 35.9564V35H22.8278C22.882 34.958 22.9391 34.9193 23 34.8845V34H24.8656C24.913 33.973 24.9579 33.9459 25 33.9184V33H25.7501C25.8227 32.977 25.9055 32.951 26 32.9213V32H28.6097C28.7353 31.9614 28.8626 31.924 28.9913 31.8884C28.993 31.888 28.9948 31.8875 28.9965 31.887V31.0099L37.0198 31.0099V31.9013C37.1246 31.9337 37.237 31.9666 37.355 32H39.9965V32.8741C40.0002 32.8761 40.0039 32.8781 40.0075 32.8801C40.0738 32.9164 40.1315 32.9568 40.1829 33H40.9965V33.9225C41.038 33.9495 41.0795 33.9753 41.1209 34H42.9965V34.9948C42.9987 34.9965 43.0008 34.9983 43.0029 35H43.9965V35.9777C44.0035 35.9849 44.0105 35.9924 44.0174 36H44.9965V37.916C45.0095 37.9369 45.0226 37.9568 45.0356 37.9757C45.048 37.9838 45.0603 37.9919 45.0725 38H45.9965V38.9202C46.014 38.9466 46.031 38.9732 46.0477 39H46.9965V41.6631C47.0289 41.7753 47.0565 41.8876 47.0799 42H47.9965V50H46.9965V49.8997ZM29 59.9448V60H29.1788C29.1196 59.9827 29.06 59.9644 29 59.9448Z" fill="#F8009F"/>
<path d="M28.9965 31.5099L37.0198 31.5099M26 32.5H29M39.9965 32.5H36.9965M25 33.5H26M40.9965 33.5H39.9965M23 34.5H25M42.9965 34.5H40.9965M22 35.5H23M21.5 36V38M20 38.5H21M19.5 39V42M18.5 42V50M19.5 50V53M20 53.5H21M21.5 54V56M22.5 56V57M23 57.5H25M25.5 58V59M26 59.5H29M29 60.5H37M43.9965 35.5H42.9965M44.4965 36V38M45.9965 38.5H44.9965M46.4965 39V42M47.4965 42V50M46.4965 50V53M45.9965 53.5H44.9965M44.4965 54V56M43.4965 56V57M42.9965 57.5H40.9965M40.4965 58V59M39.9965 59.5H36.9965M36.9965 60.5H28.9965" stroke="#FF96E8"/>
<path d="M28.9965 31.5099L37.0198 31.5099M26 32.5H29M39.9965 32.5H36.9965M25 33.5H26M40.9965 33.5H39.9965M23 34.5H25M42.9965 34.5H40.9965M22 35.5H23M21.5 36V38M20 38.5H21M19.5 39V42M18.5 42V50M19.5 50V53M20 53.5H21M21.5 54V56M22.5 56V57M23 57.5H25M25.5 58V59M26 59.5H29M29 60.5H37M43.9965 35.5H42.9965M44.4965 36V38M45.9965 38.5H44.9965M46.4965 39V42M47.4965 42V50M46.4965 50V53M45.9965 53.5H44.9965M44.4965 54V56M43.4965 56V57M42.9965 57.5H40.9965M40.4965 58V59M39.9965 59.5H36.9965M36.9965 60.5H28.9965" stroke="#FF96E8"/>
<path d="M27 38V39H26V40H25V41H26V42H27V43H28V44H29V45H30V47H29V48H28V49H27V50H26V51H25V52H26V53H27V54H28V53H29V52H30V51H31V50H32V49H33.9902V50H34.9902V51H35.9902V52H36.9902V53H37.9902V54H38.9902V53H39.9902V52H40.9902V51H39.9902V50H38.9902V49H37.9902V48H36.9902V47H35.9902V45H36.9902V44H37.9902V43H38.9902V42H39.9902V41H40.9902V40H39.9902V39H38.9902V38H37.9902V39H36.9902V40H35.9902V41H34.9902V42H33.9902V43H32V42H31V41H30V40H29V39H28V38H27Z" fill="#FFDFF8"/>
<path d="M24.5 58V59M25.5 59V60M27 60.5H29M28 61.5H42M31 62.5H39M37 60.5H43M40 59.5H45M41 58.5H46M43 57.5H47M44 56.5H47M45 55.5H48M45 54.5H49M46 53.5H49M47 52.5H49M47 51.5H50M47 50.5H50M48 49.5H50M48 48.5H50M48 47.5H50M48 46.5H50M48 45.5H50M48 44.5H48.5M50 44.5H48.5M48.5 44.5V41M49 41.5H47.5M47 41.5H47.5M47.5 40V41.5M46 38.5H47M45 37.5H46" stroke="#D763BD"/>
</g>
<defs>
<filter id="filter0_iiii_39_32" x="0" y="0" width="192" height="108" filterUnits="userSpaceOnUse" color-interpolation-filters="sRGB">
<feFlood flood-opacity="0" result="BackgroundImageFix"/>
<feBlend mode="normal" in="SourceGraphic" in2="BackgroundImageFix" result="shape"/>
<feColorMatrix in="SourceAlpha" type="matrix" values="0 0 0 0 0 0 0 0 0 0 0 0 0 0 0 0 0 0 127 0" result="hardAlpha"/>
<feOffset dx="2" dy="2"/>
<feComposite in2="hardAlpha" operator="arithmetic" k2="-1" k3="1"/>
<feColorMatrix type="matrix" values="0 0 0 0 1 0 0 0 0 1 0 0 0 0 1 0 0 0 1 0"/>
<feBlend mode="normal" in2="shape" result="effect1_innerShadow_39_32"/>
<feColorMatrix in="SourceAlpha" type="matrix" values="0 0 0 0 0 0 0 0 0 0 0 0 0 0 0 0 0 0 127 0" result="hardAlpha"/>
<feOffset dx="-2" dy="-2"/>
<feComposite in2="hardAlpha" operator="arithmetic" k2="-1" k3="1"/>
<feColorMatrix type="matrix" values="0 0 0 0 1 0 0 0 0 0.627451 0 0 0 0 0.917647 0 0 0 1 0"/>
<feBlend mode="normal" in2="effect1_innerShadow_39_32" result="effect2_innerShadow_39_32"/>
<feColorMatrix in="SourceAlpha" type="matrix" values="0 0 0 0 0 0 0 0 0 0 0 0 0 0 0 0 0 0 127 0" result="hardAlpha"/>
<feOffset dx="1" dy="1"/>
<feComposite in2="hardAlpha" operator="arithmetic" k2="-1" k3="1"/>
<feColorMatrix type="matrix" values="0 0 0 0 1 0 0 0 0 0.772549 0 0 0 0 0.94902 0 0 0 1 0"/>
<feBlend mode="normal" in2="effect2_innerShadow_39_32" result="effect3_innerShadow_39_32"/>
<feColorMatrix in="SourceAlpha" type="matrix" values="0 0 0 0 0 0 0 0 0 0 0 0 0 0 0 0 0 0 127 0" result="hardAlpha"/>
<feOffset dx="-1" dy="-1"/>
<feComposite in2="hardAlpha" operator="arithmetic" k2="-1" k3="1"/>
<feColorMatrix type="matrix" values="0 0 0 0 1 0 0 0 0 0 0 0 0 0 0.641414 0 0 0 1 0"/>
<feBlend mode="normal" in2="effect3_innerShadow_39_32" result="effect4_innerShadow_39_32"/>
</filter>
<filter id="filter1_iiii_39_32" x="171" y="5" width="16" height="14" filterUnits="userSpaceOnUse" color-interpolation-filters="sRGB">
<feFlood flood-opacity="0" result="BackgroundImageFix"/>
<feBlend mode="normal" in="SourceGraphic" in2="BackgroundImageFix" result="shape"/>
<feColorMatrix in="SourceAlpha" type="matrix" values="0 0 0 0 0 0 0 0 0 0 0 0 0 0 0 0 0 0 127 0" result="hardAlpha"/>
<feOffset dx="2" dy="2"/>
<feComposite in2="hardAlpha" operator="arithmetic" k2="-1" k3="1"/>
<feColorMatrix type="matrix" values="0 0 0 0 1 0 0 0 0 0.770833 0 0 0 0 0.949802 0 0 0 1 0"/>
<feBlend mode="normal" in2="shape" result="effect1_innerShadow_39_32"/>
<feColorMatrix in="SourceAlpha" type="matrix" values="0 0 0 0 0 0 0 0 0 0 0 0 0 0 0 0 0 0 127 0" result="hardAlpha"/>
<feOffset dx="-2" dy="-2"/>
<feComposite in2="hardAlpha" operator="arithmetic" k2="-1" k3="1"/>
<feColorMatrix type="matrix" values="0 0 0 0 1 0 0 0 0 0.629167 0 0 0 0 0.916882 0 0 0 1 0"/>
<feBlend mode="normal" in2="effect1_innerShadow_39_32" result="effect2_innerShadow_39_32"/>
<feColorMatrix in="SourceAlpha" type="matrix" values="0 0 0 0 0 0 0 0 0 0 0 0 0 0 0 0 0 0 127 0" result="hardAlpha"/>
<feOffset dx="1" dy="1"/>
<feComposite in2="hardAlpha" operator="arithmetic" k2="-1" k3="1"/>
<feColorMatrix type="matrix" values="0 0 0 0 1 0 0 0 0 1 0 0 0 0 1 0 0 0 1 0"/>
<feBlend mode="normal" in2="effect2_innerShadow_39_32" result="effect3_innerShadow_39_32"/>
<feColorMatrix in="SourceAlpha" type="matrix" values="0 0 0 0 0 0 0 0 0 0 0 0 0 0 0 0 0 0 127 0" result="hardAlpha"/>
<feOffset dx="-1" dy="-1"/>
<feComposite in2="hardAlpha" operator="arithmetic" k2="-1" k3="1"/>
<feColorMatrix type="matrix" values="0 0 0 0 0.607843 0 0 0 0 0.270588 0 0 0 0 0.811765 0 0 0 1 0"/>
<feBlend mode="normal" in2="effect3_innerShadow_39_32" result="effect4_innerShadow_39_32"/>
</filter>
<filter id="filter2_iiii_39_32" x="137" y="5" width="16" height="14" filterUnits="userSpaceOnUse" color-interpolation-filters="sRGB">
<feFlood flood-opacity="0" result="BackgroundImageFix"/>
<feBlend mode="normal" in="SourceGraphic" in2="BackgroundImageFix" result="shape"/>
<feColorMatrix in="SourceAlpha" type="matrix" values="0 0 0 0 0 0 0 0 0 0 0 0 0 0 0 0 0 0 127 0" result="hardAlpha"/>
<feOffset dx="2" dy="2"/>
<feComposite in2="hardAlpha" operator="arithmetic" k2="-1" k3="1"/>
<feColorMatrix type="matrix" values="0 0 0 0 1 0 0 0 0 0.770833 0 0 0 0 0.949802 0 0 0 1 0"/>
<feBlend mode="normal" in2="shape" result="effect1_innerShadow_39_32"/>
<feColorMatrix in="SourceAlpha" type="matrix" values="0 0 0 0 0 0 0 0 0 0 0 0 0 0 0 0 0 0 127 0" result="hardAlpha"/>
<feOffset dx="-2" dy="-2"/>
<feComposite in2="hardAlpha" operator="arithmetic" k2="-1" k3="1"/>
<feColorMatrix type="matrix" values="0 0 0 0 1 0 0 0 0 0.629167 0 0 0 0 0.916882 0 0 0 1 0"/>
<feBlend mode="normal" in2="effect1_innerShadow_39_32" result="effect2_innerShadow_39_32"/>
<feColorMatrix in="SourceAlpha" type="matrix" values="0 0 0 0 0 0 0 0 0 0 0 0 0 0 0 0 0 0 127 0" result="hardAlpha"/>
<feOffset dx="1" dy="1"/>
<feComposite in2="hardAlpha" operator="arithmetic" k2="-1" k3="1"/>
<feColorMatrix type="matrix" values="0 0 0 0 1 0 0 0 0 1 0 0 0 0 1 0 0 0 1 0"/>
<feBlend mode="normal" in2="effect2_innerShadow_39_32" result="effect3_innerShadow_39_32"/>
<feColorMatrix in="SourceAlpha" type="matrix" values="0 0 0 0 0 0 0 0 0 0 0 0 0 0 0 0 0 0 127 0" result="hardAlpha"/>
<feOffset dx="-1" dy="-1"/>
<feComposite in2="hardAlpha" operator="arithmetic" k2="-1" k3="1"/>
<feColorMatrix type="matrix" values="0 0 0 0 0.607843 0 0 0 0 0.270588 0 0 0 0 0.811765 0 0 0 1 0"/>
<feBlend mode="normal" in2="effect3_innerShadow_39_32" result="effect4_innerShadow_39_32"/>
</filter>
<filter id="filter3_iiii_39_32" x="153" y="5" width="16" height="14" filterUnits="userSpaceOnUse" color-interpolation-filters="sRGB">
<feFlood flood-opacity="0" result="BackgroundImageFix"/>
<feBlend mode="normal" in="SourceGraphic" in2="BackgroundImageFix" result="shape"/>
<feColorMatrix in="SourceAlpha" type="matrix" values="0 0 0 0 0 0 0 0 0 0 0 0 0 0 0 0 0 0 127 0" result="hardAlpha"/>
<feOffset dx="2" dy="2"/>
<feComposite in2="hardAlpha" operator="arithmetic" k2="-1" k3="1"/>
<feColorMatrix type="matrix" values="0 0 0 0 1 0 0 0 0 0.770833 0 0 0 0 0.949802 0 0 0 1 0"/>
<feBlend mode="normal" in2="shape" result="effect1_innerShadow_39_32"/>
<feColorMatrix in="SourceAlpha" type="matrix" values="0 0 0 0 0 0 0 0 0 0 0 0 0 0 0 0 0 0 127 0" result="hardAlpha"/>
<feOffset dx="-2" dy="-2"/>
<feComposite in2="hardAlpha" operator="arithmetic" k2="-1" k3="1"/>
<feColorMatrix type="matrix" values="0 0 0 0 1 0 0 0 0 0.629167 0 0 0 0 0.916882 0 0 0 1 0"/>
<feBlend mode="normal" in2="effect1_innerShadow_39_32" result="effect2_innerShadow_39_32"/>
<feColorMatrix in="SourceAlpha" type="matrix" values="0 0 0 0 0 0 0 0 0 0 0 0 0 0 0 0 0 0 127 0" result="hardAlpha"/>
<feOffset dx="1" dy="1"/>
<feComposite in2="hardAlpha" operator="arithmetic" k2="-1" k3="1"/>
<feColorMatrix type="matrix" values="0 0 0 0 1 0 0 0 0 1 0 0 0 0 1 0 0 0 1 0"/>
<feBlend mode="normal" in2="effect2_innerShadow_39_32" result="effect3_innerShadow_39_32"/>
<feColorMatrix in="SourceAlpha" type="matrix" values="0 0 0 0 0 0 0 0 0 0 0 0 0 0 0 0 0 0 127 0" result="hardAlpha"/>
<feOffset dx="-1" dy="-1"/>
<feComposite in2="hardAlpha" operator="arithmetic" k2="-1" k3="1"/>
<feColorMatrix type="matrix" values="0 0 0 0 0.607843 0 0 0 0 0.270588 0 0 0 0 0.811765 0 0 0 1 0"/>
<feBlend mode="normal" in2="effect3_innerShadow_39_32" result="effect4_innerShadow_39_32"/>
</filter>
<filter id="filter4_d_39_32" x="3" y="7.00073" width="40.0063" height="18.9973" filterUnits="userSpaceOnUse" color-interpolation-filters="sRGB">
<feFlood flood-opacity="0" result="BackgroundImageFix"/>
<feColorMatrix in="SourceAlpha" type="matrix" values="0 0 0 0 0 0 0 0 0 0 0 0 0 0 0 0 0 0 127 0" result="hardAlpha"/>
<feOffset dy="4"/>
<feGaussianBlur stdDeviation="2"/>
<feComposite in2="hardAlpha" operator="out"/>
<feColorMatrix type="matrix" values="0 0 0 0 0 0 0 0 0 0 0 0 0 0 0 0 0 0 0.25 0"/>
<feBlend mode="normal" in2="BackgroundImageFix" result="effect1_dropShadow_39_32"/>
<feBlend mode="normal" in="SourceGraphic" in2="effect1_dropShadow_39_32" result="shape"/>
</filter>
<filter id="filter5_iiii_39_32" x="61" y="73" width="74" height="23" filterUnits="userSpaceOnUse" color-interpolation-filters="sRGB">
<feFlood flood-opacity="0" result="BackgroundImageFix"/>
<feBlend mode="normal" in="SourceGraphic" in2="BackgroundImageFix" result="shape"/>
<feColorMatrix in="SourceAlpha" type="matrix" values="0 0 0 0 0 0 0 0 0 0 0 0 0 0 0 0 0 0 127 0" result="hardAlpha"/>
<feOffset dx="2" dy="2"/>
<feComposite in2="hardAlpha" operator="arithmetic" k2="-1" k3="1"/>
<feColorMatrix type="matrix" values="0 0 0 0 1 0 0 0 0 0.770833 0 0 0 0 0.949802 0 0 0 1 0"/>
<feBlend mode="normal" in2="shape" result="effect1_innerShadow_39_32"/>
<feColorMatrix in="SourceAlpha" type="matrix" values="0 0 0 0 0 0 0 0 0 0 0 0 0 0 0 0 0 0 127 0" result="hardAlpha"/>
<feOffset dx="-2" dy="-2"/>
<feComposite in2="hardAlpha" operator="arithmetic" k2="-1" k3="1"/>
<feColorMatrix type="matrix" values="0 0 0 0 1 0 0 0 0 0.629167 0 0 0 0 0.916882 0 0 0 1 0"/>
<feBlend mode="normal" in2="effect1_innerShadow_39_32" result="effect2_innerShadow_39_32"/>
<feColorMatrix in="SourceAlpha" type="matrix" values="0 0 0 0 0 0 0 0 0 0 0 0 0 0 0 0 0 0 127 0" result="hardAlpha"/>
<feOffset dx="1" dy="1"/>
<feComposite in2="hardAlpha" operator="arithmetic" k2="-1" k3="1"/>
<feColorMatrix type="matrix" values="0 0 0 0 1 0 0 0 0 1 0 0 0 0 1 0 0 0 1 0"/>
<feBlend mode="normal" in2="effect2_innerShadow_39_32" result="effect3_innerShadow_39_32"/>
<feColorMatrix in="SourceAlpha" type="matrix" values="0 0 0 0 0 0 0 0 0 0 0 0 0 0 0 0 0 0 127 0" result="hardAlpha"/>
<feOffset dx="-1" dy="-1"/>
<feComposite in2="hardAlpha" operator="arithmetic" k2="-1" k3="1"/>
<feColorMatrix type="matrix" values="0 0 0 0 0.607843 0 0 0 0 0.270588 0 0 0 0 0.811765 0 0 0 1 0"/>
<feBlend mode="normal" in2="effect3_innerShadow_39_32" result="effect4_innerShadow_39_32"/>
</filter>
<linearGradient id="paint0_linear_39_32" x1="189" y1="12" x2="3" y2="12" gradientUnits="userSpaceOnUse">
<stop stop-color="#FFAEED"/>
<stop offset="1" stop-color="#FF2FD1"/>
</linearGradient>
<clipPath id="clip0_39_32">
<rect width="192" height="108" fill="white"/>
</clipPath>
<clipPath id="clip1_39_32">
<rect width="192" height="108" fill="white"/>
</clipPath>
<clipPath id="clip2_39_32">
<rect width="192" height="108" fill="white"/>
</clipPath>
<clipPath id="clip3_39_32">
<rect width="16" height="14" fill="white" transform="translate(171 5)"/>
</clipPath>
<clipPath id="clip4_39_32">
<rect width="16" height="14" fill="white" transform="translate(137 5)"/>
</clipPath>
<clipPath id="clip5_39_32">
<rect width="16" height="14" fill="white" transform="translate(153 5)"/>
</clipPath>
<clipPath id="clip6_39_32">
<rect width="74" height="23" fill="white" transform="translate(61 73)"/>
</clipPath>
</defs>
</svg>
