<svg width="214" height="20" viewBox="0 0 214 20" fill="none" xmlns="http://www.w3.org/2000/svg">
<rect width="214" height="20" fill="#FFDFF8"/>
<path d="M7 14V5.00073H11.9978V6.00244H7.99902V9.0022H10.9988V10.0012H7.99902V14H7ZM13.0049 14V8.00049H14.0039V14H13.0049ZM13.0049 6.00244V5.00073H14.0039V6.00244H13.0049ZM15.0029 14V5.00073H16.002V14H15.0029ZM18 14V13.001H20.9998V14H18ZM20.9998 13.001V12.002H21.9988V13.001H20.9998ZM17.001 13.001V9.0022H18V10.0012H20.9998V9.0022H21.9988V11.0002H18V13.001H17.001ZM18 9.0022V8.00049H20.9998V9.0022H18Z" fill="#9B45CF"/>
<path d="M6 15.5H13" stroke="#FF39B8"/>
<path d="M35 14V5.00073H39.9978V6.00244H35.999V9.0022H38.9988V10.0012H35.999V13.001H39.9978V14H35ZM41.0049 13.001V9.0022H42.0039V13.001H41.0049ZM42.0039 14V13.001H45.0037V9.0022H42.0039V8.00049H45.0037V5.00073H46.0027V14H42.0039ZM47.0098 14V8.00049H48.0088V14H47.0098ZM47.0098 6.00244V5.00073H48.0088V6.00244H47.0098ZM50.0068 14V13.001H51.0059V14H50.0068ZM49.0078 13.001V6.00244H50.0068V8.00049H51.0059V9.0022H50.0068V13.001H49.0078Z" fill="#9B45CF"/>
<path d="M34 15.5H41" stroke="#FF39B8"/>
<path d="M66.9998 14V12.002H67.9988V14H66.9998ZM65.998 12.002V10.0012H66.9998V12.002H65.998ZM67.9988 12.002V10.0012H68.9978V12.002H67.9988ZM64.999 10.0012V7.00146H65.998V10.0012H64.999ZM68.9978 10.0012V7.00146H69.9995V10.0012H68.9978ZM64 7.00146V5.00073H64.999V7.00146H64ZM69.9995 7.00146V5.00073H70.9985V7.00146H69.9995ZM72.0029 14V8.00049H73.002V14H72.0029ZM72.0029 6.00244V5.00073H73.002V6.00244H72.0029ZM75 14V13.001H77.9998V14H75ZM77.9998 13.001V12.002H78.9988V13.001H77.9998ZM74.001 13.001V9.0022H75V10.0012H77.9998V9.0022H78.9988V11.0002H75V13.001H74.001ZM75 9.0022V8.00049H77.9998V9.0022H75ZM81.0049 14V12.002H82.0039V14H81.0049ZM85.0037 14V12.002H86.0054V14H85.0037ZM82.0039 12.002V10.0012H83.0056V12.002H82.0039ZM84.0046 12.002V10.0012H85.0037V12.002H84.0046ZM80.0059 12.002V8.00049H81.0049V12.002H80.0059ZM83.0056 10.0012V8.00049H84.0046V10.0012H83.0056ZM86.0054 12.002V8.00049H87.0044V12.002H86.0054Z" fill="#9B45CF"/>
<path d="M63 15.5H72" stroke="#FF39B8"/>
<path d="M100 14V5.00073H100.999V9.0022H104.998V5.00073H106V14H104.998V10.0012H100.999V14H100ZM108.003 14V13.001H111.003V14H108.003ZM111.003 13.001V12.002H112.002V13.001H111.003ZM107.004 13.001V9.0022H108.003V10.0012H111.003V9.0022H112.002V11.0002H108.003V13.001H107.004ZM108.003 9.0022V8.00049H111.003V9.0022H108.003ZM113.009 14V5.00073H114.008V14H113.009ZM119.006 13.001V9.0022H120.005V13.001H119.006ZM115.007 15.998V8.00049H119.006V9.0022H116.006V13.001H119.006V14H116.006V15.998H115.007Z" fill="#9B45CF"/>
<path d="M99 15.5H107" stroke="#FF39B8"/>
</svg>
