<svg width="16" height="14" viewBox="0 0 16 14" fill="none" xmlns="http://www.w3.org/2000/svg">
<g clip-path="url(#clip0_1083_81291)">
<rect width="16" height="14" transform="matrix(-1 0 0 1 16 0)" fill="white"/>
<rect width="16" height="14" transform="matrix(-1 0 0 1 16 0)" fill="#9B45CF"/>
<rect width="15" height="13" transform="matrix(-1 0 0 1 16 0)" fill="white"/>
<rect width="14" height="12" transform="matrix(-1 0 0 1 15 1)" fill="#808080"/>
<rect width="13" height="11" transform="matrix(-1 0 0 1 15 1)" fill="#DBDBDB"/>
<rect width="12" height="10" transform="matrix(-1 0 0 1 14 2)" fill="#FFDFF8"/>
</g>
<g filter="url(#filter0_iiii_1083_81291)">
<rect width="16" height="14" transform="matrix(-1 0 0 1 16 0)" fill="#FFDFF8"/>
</g>
<path d="M7.5 3V10M8.5 4V9M9.5 5V8M10.5 6V7" stroke="#9B45CF"/>
<defs>
<filter id="filter0_iiii_1083_81291" x="0" y="0" width="16" height="14" filterUnits="userSpaceOnUse" color-interpolation-filters="sRGB">
<feFlood flood-opacity="0" result="BackgroundImageFix"/>
<feBlend mode="normal" in="SourceGraphic" in2="BackgroundImageFix" result="shape"/>
<feColorMatrix in="SourceAlpha" type="matrix" values="0 0 0 0 0 0 0 0 0 0 0 0 0 0 0 0 0 0 127 0" result="hardAlpha"/>
<feOffset dx="2" dy="2"/>
<feComposite in2="hardAlpha" operator="arithmetic" k2="-1" k3="1"/>
<feColorMatrix type="matrix" values="0 0 0 0 1 0 0 0 0 0.770833 0 0 0 0 0.949802 0 0 0 1 0"/>
<feBlend mode="normal" in2="shape" result="effect1_innerShadow_1083_81291"/>
<feColorMatrix in="SourceAlpha" type="matrix" values="0 0 0 0 0 0 0 0 0 0 0 0 0 0 0 0 0 0 127 0" result="hardAlpha"/>
<feOffset dx="-2" dy="-2"/>
<feComposite in2="hardAlpha" operator="arithmetic" k2="-1" k3="1"/>
<feColorMatrix type="matrix" values="0 0 0 0 1 0 0 0 0 0.629167 0 0 0 0 0.916882 0 0 0 1 0"/>
<feBlend mode="normal" in2="effect1_innerShadow_1083_81291" result="effect2_innerShadow_1083_81291"/>
<feColorMatrix in="SourceAlpha" type="matrix" values="0 0 0 0 0 0 0 0 0 0 0 0 0 0 0 0 0 0 127 0" result="hardAlpha"/>
<feOffset dx="1" dy="1"/>
<feComposite in2="hardAlpha" operator="arithmetic" k2="-1" k3="1"/>
<feColorMatrix type="matrix" values="0 0 0 0 1 0 0 0 0 1 0 0 0 0 1 0 0 0 1 0"/>
<feBlend mode="normal" in2="effect2_innerShadow_1083_81291" result="effect3_innerShadow_1083_81291"/>
<feColorMatrix in="SourceAlpha" type="matrix" values="0 0 0 0 0 0 0 0 0 0 0 0 0 0 0 0 0 0 127 0" result="hardAlpha"/>
<feOffset dx="-1" dy="-1"/>
<feComposite in2="hardAlpha" operator="arithmetic" k2="-1" k3="1"/>
<feColorMatrix type="matrix" values="0 0 0 0 0.607843 0 0 0 0 0.270588 0 0 0 0 0.811765 0 0 0 1 0"/>
<feBlend mode="normal" in2="effect3_innerShadow_1083_81291" result="effect4_innerShadow_1083_81291"/>
</filter>
<clipPath id="clip0_1083_81291">
<rect width="16" height="14" fill="white" transform="matrix(-1 0 0 1 16 0)"/>
</clipPath>
</defs>
</svg>
