<svg width="32" height="32" viewBox="0 0 32 32" fill="none" xmlns="http://www.w3.org/2000/svg">
<path fill-rule="evenodd" clip-rule="evenodd" d="M28.9965 18.8898C28.9928 18.902 28.9889 18.9142 28.985 18.9264C28.9785 18.9472 28.9718 18.9685 28.9651 18.9901H28.9965V21.9901H27.9965V21.975C27.9938 21.9801 27.991 21.9851 27.9883 21.9901H27.9965V22.9901H27.0489C27.0444 22.9964 27.04 23.0028 27.0356 23.0092C27.0223 23.0285 27.0093 23.048 26.9965 23.0679V24.9901H25.9965V24.9825C25.9944 24.985 25.9922 24.9876 25.9901 24.9901H25.9965V25.9901H24.9965V25.9375C24.9961 25.938 24.9957 25.9384 24.9953 25.9388C24.9788 25.9564 24.9621 25.9735 24.945 25.9901H24.9965V26.9901H23.0104C23.0057 26.9935 23.0011 26.9969 22.9965 27.0003V27.9901H21.9965V27.9556C21.9791 27.9673 21.9617 27.9788 21.9441 27.9901H21.9965V28.9901H19.0035C19.0024 28.9904 19.0012 28.9908 19 28.9911V29.9901H10.9965V28.9901H8V27.9901H8.13246C8.09715 27.975 8.06222 27.9597 8.02773 27.9443C8.0183 27.94 8.00906 27.9357 8 27.9313V27.9901H7V26.9901H7.14832C7.1286 26.9765 7.10788 26.9632 7.08606 26.9503C7.05764 26.9335 7.02894 26.9172 7 26.9015V26.9901H5V25.9901H5.13511C5.11664 25.9735 5.09848 25.9564 5.08064 25.9388C5.05429 25.9129 5.02737 25.8866 5 25.8599V25.9901H4V24.9901H4.1279C4.08366 24.942 4.04087 24.8941 4 24.8468V24.9901H3V22.9901H3.07416C3.05206 22.9438 3.02922 22.8978 3.00547 22.8522C3.00365 22.8488 3.00183 22.8453 3 22.8418V22.9901H2V21.9901H2.34407C2.2451 21.9163 2.135 21.8534 2.01148 21.8059C2.00763 21.7988 2.00381 21.7917 2 21.7845V21.9901H1V18.9901H1.05584C1.03851 18.9328 1.02084 18.8755 1.00272 18.8182C1.00182 18.8154 1.00091 18.8125 1 18.8096V18.9901H0V10.9901H0.906944C0.936946 10.895 0.967948 10.7953 1 10.692V7.99012H2V8.01033C2.00358 8.00357 2.00716 7.99684 2.01075 7.99012H2V6.99012H2.86558C2.90966 6.9677 2.95446 6.94913 3 6.93469V4.99012H3.95463C3.96929 4.97565 3.98441 4.96111 4 4.9465V3.99012H4.82784C4.882 3.94811 4.93908 3.90942 5 3.87456V2.99012H6.86562C6.913 2.96316 6.95793 2.93599 7 2.90854V1.99012H7.75009C7.82267 1.96714 7.90552 1.94111 8 1.9114V0.990119H10.6097C10.7353 0.951514 10.8626 0.91416 10.9913 0.878556C10.993 0.878072 10.9948 0.877588 10.9965 0.877105V6.49691e-06L19.0198 0V0.891437C19.1246 0.923852 19.237 0.956682 19.355 0.990119H21.9965V1.86421C22.0002 1.8662 22.0039 1.8682 22.0075 1.8702C22.0738 1.90655 22.1315 1.94687 22.1829 1.99012H22.9965V2.91265C23.038 2.93962 23.0795 2.96539 23.1209 2.99012H24.9965V3.98489C24.9987 3.98663 25.0008 3.98837 25.0029 3.99012H25.9965V4.96783C26.0035 4.97503 26.0105 4.98246 26.0174 4.99012H26.9965V6.90616C27.0095 6.92701 27.0226 6.94693 27.0356 6.96586C27.048 6.97391 27.0603 6.982 27.0725 6.99012H27.9965V7.91028C28.014 7.93671 28.031 7.96332 28.0477 7.99012H28.9965V10.6532C29.0289 10.7654 29.0565 10.8777 29.0799 10.9901H29.9965V18.9901H28.9965V18.8898ZM11 28.9349V28.9901H11.1788C11.1196 28.9729 11.06 28.9545 11 28.9349Z" fill="#FFEDFB"/>
<path d="M11.0261 0.522803L19.0494 0.522797M8.0296 1.51292H11.0296M22.0261 1.51292H19.0261M7.0296 2.51292H8.0296M23.0261 2.51292H22.0261M5.0296 3.51292H7.0296M25.0261 3.51292H23.0261M4.0296 4.51292H5.0296M3.5296 5.01292V7.01292M2.0296 7.51292H3.0296M1.5296 8.01292V11.0129M0.529602 11.0129V19.0129M1.5296 19.0129V22.0129M2.0296 22.5129H3.0296M3.5296 23.0129V25.0129M4.5296 25.0129V26.0129M5.0296 26.5129H7.0296M7.5296 27.0129V28.0129M8.0296 28.5129H11.0296M11.0296 29.5129H19.0296M26.0261 4.51292H25.0261M26.5261 5.01292V7.01292M28.0261 7.51292H27.0261M28.5261 8.01292V11.0129M29.5261 11.0129V19.0129M28.5261 19.0129V22.0129M28.0261 22.5129H27.0261M26.5261 23.0129V25.0129M25.5261 25.0129V26.0129M25.0261 26.5129H23.0261M22.5261 27.0129V28.0129M22.0261 28.5129H19.0261M19.0261 29.5129H11.0261" stroke="#FF39B8"/>
<path d="M9.03271 7.01785V8.01785H8.03271V9.01785H7.03271V10.0179H8.03271V11.0179H9.03271V12.0179H10.0327V13.0179H11.0327V14.0179H12.0327V16.0179H11.0327V17.0179H10.0327V18.0179H9.03271V19.0179H8.03271V20.0179H7.03271V21.0179H8.03271V22.0179H9.03271V23.0179H10.0327V22.0179H11.0327V21.0179H12.0327V20.0179H13.0327V19.0179H14.0327V18.0179H16.0229V19.0179H17.0229V20.0179H18.0229V21.0179H19.0229V22.0179H20.0229V23.0179H21.0229V22.0179H22.0229V21.0179H23.0229V20.0179H22.0229V19.0179H21.0229V18.0179H20.0229V17.0179H19.0229V16.0179H18.0229V14.0179H19.0229V13.0179H20.0229V12.0179H21.0229V11.0179H22.0229V10.0179H23.0229V9.01785H22.0229V8.01785H21.0229V7.01785H20.0229V8.01785H19.0229V9.01785H18.0229V10.0179H17.0229V11.0179H16.0229V12.0179H14.0327V11.0179H13.0327V10.0179H12.0327V9.01785H11.0327V8.01785H10.0327V7.01785H9.03271Z" fill="#F8009F"/>
</svg>
